<svg xmlns="http://www.w3.org/2000/svg" xmlns:xlink="http://www.w3.org/1999/xlink" viewBox="0 0 253.69 146.95"><defs><style>.cls-1{fill:none;}.cls-2{fill:#a8a5a3;}.cls-3{fill:#181a18;}.cls-25,.cls-3{opacity:0.2;}.cls-4{fill:#030303;}.cls-5{fill:#212128;}.cls-6{fill:#011625;}.cls-33,.cls-34,.cls-41,.cls-42,.cls-56,.cls-58,.cls-6,.cls-66,.cls-7,.cls-70,.cls-71,.cls-72,.cls-77,.cls-80,.cls-90,.cls-92,.cls-93{fill-rule:evenodd;}.cls-58,.cls-7{fill:#00263b;}.cls-7{opacity:0.4;}.cls-8{isolation:isolate;}.cls-9{fill:#3c9184;}.cls-10{clip-path:url(#clip-path);}.cls-11{fill:#245850;}.cls-12{fill:#255a52;}.cls-13{fill:#3c9185;}.cls-14{fill:#368377;}.cls-15{fill:#07231e;}.cls-16{fill:#061e1a;}.cls-17{fill:#fff;}.cls-18{fill:#747978;}.cls-19{fill:#e2e2e2;}.cls-20{fill:#c9c9c9;}.cls-21{fill:#767979;}.cls-22{fill:#efeeed;}.cls-23{fill:#9da3a2;}.cls-24{fill:#878c8c;}.cls-25{fill:#1c1e1c;}.cls-26{fill:#f7928b;}.cls-27{fill:#d85645;}.cls-28{fill:#742e25;}.cls-29,.cls-42{fill:#e8a476;}.cls-30{fill:#f1b488;}.cls-31{fill:#70afe9;}.cls-32{fill:#63a4d6;}.cls-33,.cls-45{fill:#071b3d;}.cls-34,.cls-47{fill:#01305c;}.cls-35,.cls-56{fill:#f1b287;}.cls-36{fill:#e72e40;}.cls-37,.cls-41{fill:#db9669;}.cls-38{opacity:0.1;}.cls-39,.cls-72{fill:#301808;}.cls-40{fill:#f2b387;}.cls-43{fill:#3f210a;}.cls-44{fill:#4f2b0c;}.cls-46{fill:#033d6d;}.cls-48{fill:#b8b8b8;}.cls-49{fill:#c1c1c1;}.cls-50{fill:#dbdbdb;}.cls-51{fill:#6d6a6a;}.cls-52{fill:#8c2b2b;}.cls-53{fill:#9c3030;}.cls-54{fill:#611e1e;}.cls-55{fill:#4c1717;}.cls-57,.cls-59{opacity:0.5;}.cls-59{fill:#023454;}.cls-60{clip-path:url(#clip-path-2);}.cls-61{fill:#777a7a;}.cls-62{fill:#534b48;}.cls-63{clip-path:url(#clip-path-3);}.cls-64{fill:#575655;}.cls-65{clip-path:url(#clip-path-4);}.cls-66{fill:#8c9499;}.cls-67{fill:#abb7c3;}.cls-68{opacity:0.51;}.cls-69{fill:#c0cdd8;}.cls-70{fill:#787e82;}.cls-71,.cls-91{fill:#361d07;}.cls-73{fill:#4c260c;}.cls-74{fill:#e9f6fa;}.cls-75{fill:#dfe4e5;}.cls-76{fill:#a3aeb7;}.cls-77,.cls-86{fill:#212e33;}.cls-78{fill:#070707;}.cls-79{fill:#0c151a;}.cls-80{fill:#282a33;}.cls-81{fill:#051d36;}.cls-82{fill:#073158;}.cls-83{fill:#0e3b68;}.cls-84{fill:#cde9f5;}.cls-85{fill:#192328;}.cls-87{fill:#1d282d;}.cls-88,.cls-90{fill:#b26744;}.cls-89,.cls-92{fill:#c28669;}.cls-93{fill:#354449;}</style><clipPath id="clip-path"><path class="cls-1" d="M176.27,106.41,77.87,49.22a2.14,2.14,0,0,1-.78-.82l98.4,57.18A2.1,2.1,0,0,0,176.27,106.41Z"/></clipPath><clipPath id="clip-path-2"><path class="cls-1" d="M40.18,46.43l-10.25-6a.15.15,0,0,1-.08-.08l10.25,6A.24.24,0,0,0,40.18,46.43Z"/></clipPath><clipPath id="clip-path-3"><path class="cls-1" d="M50.2,45.22l-1,.56a1.66,1.66,0,0,0-.72,1l1-.56A1.66,1.66,0,0,1,50.2,45.22Z"/></clipPath><clipPath id="clip-path-4"><path class="cls-2" d="M49.9,44.64l-1,.56a2,2,0,0,1,2.07.18l1-.55A2,2,0,0,0,49.9,44.64Z"/></clipPath></defs><g id="Camada_2" data-name="Camada 2"><g id="Layer_2" data-name="Layer 2"><path class="cls-3" d="M252.06,70.78,131.09.94a7.33,7.33,0,0,0-6.62-.28L51,43.37c-11.72-2.65-25.52-1.25-34.94,4.23S4.24,61.07,8.86,67.85L1.14,72.34c-1.69,1-1.47,2.7.49,3.83l72.72,42c-7,7.2-5.16,16.51,5.46,22.64s26.69,7.16,39.11,3.09L122.6,146a7.33,7.33,0,0,0,6.62.28l62.3-36.2c12.65,4.69,29.63,3.85,40.64-2.54S244.58,91.3,236.43,84l16.13-9.38C254.25,73.63,254,71.92,252.06,70.78Z"/><path class="cls-4" d="M24,64.1c-.41.09-1.61.72-.81,1.56S26.57,69,28.12,69h1.05L30,70.16a13.17,13.17,0,0,0,2.08.27A1.89,1.89,0,0,0,32.89,69V67.82S26,63.68,24,64.1Z"/><path class="cls-5" d="M28.75,67.87s-7-2.73-4-3.77a9.5,9.5,0,0,1,2.74,1A6.07,6.07,0,0,0,28.75,67.87Z"/><path class="cls-4" d="M30.22,62c-.39.09-1.5.7-.75,1.51s3.11,3.2,4.55,3.2h1l.8,1.16a2.37,2.37,0,0,0,1.94.26c.71-.26.71-1.42.71-1.42V65.55S32,61.54,30.22,62Z"/><path class="cls-5" d="M34.61,65.6S28.08,63,30.86,62a15.79,15.79,0,0,1,3.43,1.33A2.24,2.24,0,0,0,34.61,65.6Z"/><path class="cls-6" d="M33.2,46c-.59,4.32.25,14.86.63,19.3.27,1.43,3.64,1.78,4.92.36.24-4.24.73-7.76.54-10.09-.17-1.94-.22-7.73-.93-9.44C37.81,44,34,40.44,33.2,46Z"/><path class="cls-6" d="M26.71,48.87c.11,4.36.24,13.86.62,18.3.28,1.43,4.22,2.2,5.51.78a65.56,65.56,0,0,0-.05-9.51c-.16-1.94-.21-7.73-.92-9.44C31.32,46.85,26.62,45.06,26.71,48.87Z"/><path class="cls-7" d="M26.58,49.43c.11,4.36.37,13.3.75,17.74a2.81,2.81,0,0,0,1.84,1.66c-.25-3.21-.41-6.54-.8-9.71-.11-1-.31-2.36-.5-3.8s-.39-6.9.25-8.4a3.16,3.16,0,0,1,.95-1.27,2.89,2.89,0,0,0-1.55.91,3.73,3.73,0,0,0-.88,2.12A4.22,4.22,0,0,0,26.58,49.43Z"/><g class="cls-8"><polygon class="cls-9" points="181.8 97.76 83.4 40.58 137.58 12.14 235.99 69.33 181.8 97.76"/><g class="cls-8"><g class="cls-10"><g class="cls-8"><path class="cls-11" d="M176.27,106.41,77.87,49.22a2.14,2.14,0,0,1-.78-.82l98.4,57.18a2.1,2.1,0,0,0,.78.83Z"/></g></g></g><polygon class="cls-12" points="128.29 135.69 29.89 78.5 29.88 74.33 128.28 131.51 128.29 135.69"/><polygon class="cls-13" points="128.28 131.51 29.88 74.33 83.4 40.58 181.8 97.76 128.28 131.51"/><path class="cls-14" d="M181.8,97.76,236,69.33V73.5L188.78,97.92c-1.2,3.53-3.63,5-6.54,6.71s-5.52,3.09-6.75,1L128.3,135.69l0-4.18Z"/><path class="cls-15" d="M181.66,102.6c2.91-1.68,5.34-3.19,6.54-6.72l0-1.45-6.35,3.33-7.08,4.47.19,1.32C176.14,105.68,178.74,104.28,181.66,102.6Z"/></g><polygon class="cls-16" points="188.12 94.64 174.9 102.32 80.83 48.01 94.06 40.33 188.12 94.64"/><g class="cls-8"><polygon class="cls-17" points="179.75 81.79 88.64 28.84 139.22 5.88 230.33 58.82 179.75 81.79"/><polygon class="cls-18" points="179.79 96.88 88.69 43.93 88.64 28.84 179.75 81.79 179.79 96.88"/><polygon class="cls-19" points="179.75 81.79 230.33 58.82 231.91 69.67 179.79 96.88 179.75 81.79"/></g><g class="cls-8"><polygon class="cls-20" points="127.51 129.91 36.4 76.96 37.92 64.34 129.02 117.28 127.51 129.91"/><polygon class="cls-17" points="129.02 117.28 37.92 64.34 88.45 28.93 179.56 81.87 129.02 117.28"/><polygon class="cls-19" points="179.56 81.87 179.6 96.96 127.51 129.91 129.02 117.28 179.56 81.87"/></g><polygon class="cls-21" points="126.1 113.72 35.28 60.94 35.1 60.61 125.92 113.39 126.1 113.72"/><path class="cls-17" d="M156.63,92.07l2.78-1.36.21-.11,2.45-1.18.53-.25L165,88l.24-.11,2-.94.37-.18,2-.9.24-.11,1.63-.73.25-.11,1.56-.69.24-.1,1.24-.54.16-.07,1.15-.48.24-.1.77-.32.24-.1.73-.29.24-.1.39-.15.19-.08.38-.14.13,0,.16-.06.07,0,.07,0L88.83,28.86l-.1,0h0l-.27.1h0l-.45.17-.08,0-.59.23,0,0-.86.35h0l-.59.24-.46.19,0,0L84,30.79l-.08,0-1.33.57-.19.09-1.58.69-.23.11L79,33l-.25.11-1.95.9-.4.18-2,.94-.24.11-2.37,1.12-.54.26-2.49,1.2-.15.08L65.79,39.3l-.67.33c-1,.49-2,1-3.06,1.53-2,1-3.91,2-5.69,3.07-.79.44-1.54.9-2.28,1.35l-.62.38-1.66,1-.51.33c-.68.44-1.33.88-2,1.31l-.38.27c-.52.36-1,.71-1.5,1.06l-.52.37c-.5.36-1,.72-1.46,1.08l-.24.18-1.56,1.2c-.13.11-.26.22-.4.32L42.19,54l-.38.31-1.25,1.06-.15.13-1,.86-.33.3-.75.69-.22.21-.81.76-.22.22-.3.29-.14.14-.43.43-.25.26-.3.31-.18.19-.2.22a.94.94,0,0,1-.1.1l-.1.12,90.82,52.78.25-.27.14-.16.22-.23.26-.27c.09-.09.2-.21.31-.31l.34-.35.59-.57.07-.08.88-.84.1-.09.89-.81.24-.22c.35-.32.73-.65,1.13-1,0,0,0,0,0,0l1.29-1.1.31-.26c.38-.3.76-.62,1.16-.93l.35-.28c.5-.4,1-.81,1.58-1.23l.2-.15c.48-.36,1-.73,1.5-1.1.16-.13.33-.25.5-.37l1.52-1.07.37-.25c.64-.44,1.29-.88,2-1.32l.51-.32c.54-.35,1.09-.7,1.66-1l.62-.39c.75-.45,1.5-.9,2.28-1.35,1.79-1,3.68-2.07,5.69-3.07l3.05-1.53Z"/><path class="cls-19" d="M147.19,97c1.79-1,3.68-2.07,5.69-3.07,18.92-9.51,26.7-12.27,26.77-12.3l-.08.51c-.08,0-7.83,2.79-26.71,12.28-2,1-3.9,2-5.68,3.07-14,8.06-21.18,16.33-21.08,16.22l-.18-.33C126,113.3,133.26,105.05,147.19,97Z"/><g class="cls-8"><polygon class="cls-21" points="126.19 112.66 35.37 59.88 35.16 59.58 125.99 112.36 126.19 112.66"/><path class="cls-17" d="M157,90.08q1.32-.72,2.55-1.35l.22-.12Q160.92,88,162,87.5l.49-.24c.76-.36,1.5-.71,2.22-1l.32-.15,1.85-.8.39-.16c.64-.27,1.26-.52,1.85-.75l.35-.13c.59-.24,1.18-.46,1.73-.65l.07,0,1.55-.53.24-.08,1.36-.43.24-.07,1.21-.34.57-.15.6-.15.18,0,1.2-.26.33-.06.2,0,.35-.06.18,0,.28,0L89,28.51l-.37,0H88.5l-.5.09h0c-.43.08-1,.2-1.72.37l-.34.09-.83.21h0c-.36.09-.76.21-1.17.33l-.24.07-1.36.43-.25.08-1.54.53-.08,0c-.55.19-1.13.41-1.72.64l-.35.14-1.59.63-.26.11-.4.17c-.6.25-1.21.52-1.84.8l-.33.15-2.22,1-.48.24c-.74.35-1.49.73-2.27,1.13l-.2.1c-.82.42-1.68.88-2.56,1.35l-.59.32c-.89.49-1.8,1-2.75,1.55s-1.73,1-2.62,1.55-1.51.91-2.23,1.36l-.56.36-2,1.24-.11.08c-.67.42-1.31.84-1.93,1.26l-.53.35c-.56.36-1.1.73-1.62,1.08l-.2.14-1.66,1.15-.47.33-1.33,1-.24.18c-.49.35-1,.69-1.4,1l-.42.31-1.09.83a2.23,2.23,0,0,0-.24.19L43,52.47l-.36.29-.88.7-.22.19c-.34.27-.65.54-1,.79l-.3.25-.69.59-.2.18-.75.66-.24.22-.51.46-.17.16-.56.53-.18.17-.37.36-.09.09,0,0-.45.45-.08.08-.35.37,0,0c-.2.22-.34.36-.4.44l0,0v0l0,0L126,112.36s0,0,0-.06.37-.41.82-.87l0,0,.51-.51h0c.15-.16.33-.33.51-.5l.08-.08.62-.59.09-.08.6-.55.2-.17.78-.69a.93.93,0,0,1,.15-.13c.23-.21.48-.42.74-.64l.27-.23,1-.81.21-.16.9-.73.35-.28,1.17-.92.22-.16,1.11-.85.42-.31,1.4-1,.23-.17,1.34-1,.47-.33,1.66-1.15.18-.12,1.65-1.11.51-.34,1.94-1.27.11-.07,2-1.25.56-.34c.72-.46,1.47-.91,2.23-1.38L153.65,92c.95-.55,1.86-1,2.75-1.54Z"/><path class="cls-19" d="M153.46,92c16.82-9.71,26-10.65,26.12-10.66l-.17.54c-.09,0-9.21.93-25.9,10.57-.87.5-1.75,1-2.66,1.57-18.38,11.1-24.79,18.62-24.85,18.69l-.21-.3c.07-.09,6.55-7.68,25-18.87C151.73,93,152.6,92.44,153.46,92Z"/></g><g class="cls-8"><polygon class="cls-21" points="126.32 110.11 35.5 57.34 35.32 57.01 126.15 109.79 126.32 110.11"/><path class="cls-17" d="M156.85,89.28c.68-.32,1.35-.64,2-.93l1.05-.47,1.75-.76,1-.42,2.23-.91.27-.1c.7-.28,1.36-.53,2-.77l.39-.15,1.94-.68.37-.12,1.71-.55.09,0,1.58-.46.32-.09.93-.25.62-.16.77-.18.51-.11.69-.14.39-.08.64-.11.24,0,.38,0,.32,0,.22,0,.28,0h.1l.31,0L89.12,28.81l-.37,0h0l-.26,0-.24,0-.26,0-.43.06h0l-.19,0-.68.12-.41.08-.67.14-.52.11-.76.18-.61.16L83,30l-.3.08-.31.08-1.59.47-.07,0L79,31.19l-.36.12-2,.69-.37.14c-.65.24-1.33.49-2,.77L74,33l-1.76.71-.48.21-1,.4-1.77.77-1,.47c-.66.29-1.34.61-2,.93l-1,.45c-1,.49-2.08,1-3.17,1.56Q58.45,40.24,55.46,42l-2.24,1.33-.66.41-1.47.92-.7.45L49,46l-.6.4-1.53,1-.26.19L45,48.79l-.39.3L43.43,50l-.47.36-1,.75-.43.34c-.33.26-.64.52-.94.77l-.28.23-1.09.92-.17.15-.79.69-.28.25c-.19.18-.38.34-.55.51l-.25.22c-.17.16-.32.31-.47.44l-.18.17-.5.49c-.15.16-.27.28-.38.38l-.08.09-.16.17-.06.06-.07.07,90.83,52.78.32-.34,0,0,.92-.91.13-.12.52-.48.22-.21.57-.52.27-.25c.24-.21.5-.44.78-.67l.18-.17c.34-.29.7-.6,1.08-.91l.32-.26.9-.73.46-.37c.29-.24.6-.47.91-.71l.52-.41,1.08-.81.46-.34c.52-.38,1.07-.78,1.64-1.18l.37-.25c.46-.33.94-.65,1.43-1l.64-.44,1.3-.85.74-.47,1.43-.9.69-.42c.72-.44,1.47-.88,2.24-1.33,2-1.14,4.12-2.3,6.41-3.45,1.09-.55,2.14-1.06,3.17-1.55Z"/><path class="cls-22" d="M156.9,89.32c.42-.19.2-.09,0,0a120.69,120.69,0,0,1,12.58-5.15c3.24-1.11,7-2.51,10.47-2.51L160.94,70.58,122.45,48.21,92.5,30.8l-2.88-1.68-.45-.26c-.31-.18-1.28.14-1.62.18-1.13.17-2.24.43-3.35.7l.15.09c10,5.8,19.89,11.76,30,17.41,58.87,33,14.47,51.7,6.19,59.29l2.37,1.37,2.63,1.53.6.35c.29.16,1.49-1.34,1.74-1.57,8.44-7.95,18.6-13.93,29-18.88C156.82,89.36,156.81,89.37,156.9,89.32Z"/><path class="cls-19" d="M146.09,94.74c2-1.14,4.13-2.3,6.41-3.45,18.94-9.51,27.16-9.69,27.25-9.7l-.19.54c-.08,0-8.24.18-27.08,9.65-2.29,1.14-4.42,2.3-6.4,3.44-13.25,7.66-19.88,14.81-20,14.9l-.18-.33C126,109.7,132.73,102.46,146.09,94.74Z"/></g><g class="cls-8"><polygon class="cls-21" points="126.1 109.9 35.28 57.12 35.11 56.79 125.93 109.57 126.1 109.9"/><path class="cls-17" d="M156.63,89.06c.68-.32,1.36-.64,2-.93l1-.47,1.76-.76,1-.41c.77-.33,1.52-.63,2.23-.92l.27-.1c.7-.27,1.37-.53,2-.76l.4-.15c.67-.25,1.31-.48,1.93-.68l.37-.13,1.71-.55.09,0,1.58-.46.32-.09.93-.25.62-.16.78-.18.5-.11.69-.14.39-.08.65-.11.23,0,.39,0,.31,0,.23,0,.27,0h.1l.31,0L88.9,28.6l-.37,0h0l-.26,0-.24,0-.25,0-.44.06h0l-.19,0-.68.12L86,29c-.22,0-.44.08-.68.14l-.52.12-.76.17-.61.16-.65.17-.3.08-.3.08c-.51.15-1,.3-1.6.48l-.06,0c-.55.16-1.13.35-1.74.56l-.36.11-2,.69-.37.14-2,.77-.25.1-1.77.71-.48.21-1,.4-1.77.78-1,.46-2,.93-1,.45c-1,.5-2.08,1-3.18,1.56Q58.22,40,55.25,41.75c-.78.44-1.52.88-2.25,1.32l-.66.41-1.47.92-.7.45-1.35.88-.6.4-1.52,1-.27.19-1.68,1.2-.39.3-1.15.86-.47.36-1,.75-.43.34-.94.77-.28.23L39,53.1l-.17.15-.79.69-.27.25-.56.51-.25.23-.47.44-.18.17-.5.49-.38.38-.08.08-.16.17-.06.06-.06.07,90.82,52.78.32-.34,0,0c.21-.22.52-.52.92-.91,0,0,.08-.07.12-.12l.52-.48.22-.21.58-.52.26-.24.78-.69.18-.16L131,105l.31-.26.91-.73.45-.37.91-.71.52-.4,1.08-.81.46-.35,1.65-1.18.36-.25c.46-.33.94-.65,1.43-1,.21-.15.43-.29.65-.43.42-.29.85-.57,1.3-.86l.73-.47,1.43-.9c.23-.13.46-.28.69-.42.73-.44,1.47-.88,2.24-1.32,2-1.15,4.12-2.31,6.41-3.46,1.1-.55,2.15-1.06,3.18-1.55Z"/><path class="cls-22" d="M156.68,89.11l0,0a121.73,121.73,0,0,1,12.58-5.17c3.24-1.09,7-2.49,10.47-2.49l-19-11.07Q141.49,59.17,122.23,48L92.28,30.58,89.4,28.91,89,28.65c-.31-.18-1.27.13-1.62.17-1.13.17-2.24.43-3.34.7l.14.09c10,5.8,19.89,11.76,30,17.41,58.87,33,14.48,51.7,6.19,59.29l2.37,1.37,2.63,1.53.6.35c.29.17,1.5-1.33,1.74-1.56,8.44-8,18.61-13.94,29-18.88Z"/><path class="cls-19" d="M145.87,94.53c2-1.15,4.13-2.31,6.41-3.46,18.94-9.51,27.17-9.69,27.25-9.69l-.19.54c-.08,0-8.24.17-27.08,9.64-2.28,1.14-4.41,2.3-6.4,3.45-13.25,7.65-19.87,14.81-20,14.89l-.17-.33C125.81,109.48,132.51,102.24,145.87,94.53Z"/></g><path class="cls-23" d="M126,57.51l.21.32c-.09,0-9.42,2.14-21.55,10.17-13,8.66-16.14,13.85-16.17,13.9L88,81.79c0-.05,3.15-5.31,16.28-14C116.46,59.68,125.92,57.53,126,57.51Z"/><path class="cls-23" d="M121.47,54.89l.21.32c-.09,0-9.42,2.14-21.55,10.17C87.08,74,84,79.22,84,79.28l-.54-.12s3.15-5.31,16.28-14C111.92,57.06,121.37,54.91,121.47,54.89Z"/><path class="cls-23" d="M116.93,52.27l.21.32c-.09,0-9.42,2.14-21.55,10.17-13,8.65-16.13,13.85-16.16,13.9l-.55-.11c0-.06,3.15-5.32,16.28-14C107.39,54.43,116.84,52.29,116.93,52.27Z"/><path class="cls-23" d="M101,43.1l.21.31c-.09,0-9.42,2.15-21.55,10.18-13,8.65-16.13,13.84-16.16,13.89L63,67.37c0-.05,3.15-5.31,16.28-14C91.5,45.26,101,43.12,101,43.1Z"/><g class="cls-8"><path class="cls-23" d="M85.15,33.92l.21.32c-.09,0-9.42,2.14-21.55,10.17-13.05,8.65-16.13,13.85-16.16,13.9l-.55-.11c0-.06,3.15-5.31,16.28-14C75.61,36.09,85.06,33.94,85.15,33.92Z"/><path class="cls-23" d="M87.43,35.23l.2.32c-.08,0-9.42,2.14-21.54,10.17C53,54.37,49.94,59.57,49.91,59.62l-.54-.11s3.16-5.31,16.28-14C77.88,37.4,87.33,35.26,87.43,35.23Z"/><path class="cls-23" d="M89.69,36.54l.21.32c-.09,0-9.42,2.14-21.55,10.17-13,8.65-16.14,13.85-16.16,13.9l-.55-.11s3.15-5.31,16.28-14C80.14,38.71,89.6,36.56,89.69,36.54Z"/><path class="cls-23" d="M92,37.85l.21.32c-.08,0-9.42,2.14-21.54,10.17-13,8.66-16.14,13.85-16.17,13.9l-.55-.11c0-.05,3.15-5.31,16.28-14C82.42,40,91.87,37.88,92,37.85Z"/><path class="cls-23" d="M94.23,39.16l.21.32c-.09,0-9.42,2.15-21.54,10.18C59.84,58.3,56.75,63.5,56.72,63.55l-.54-.11s3.15-5.31,16.28-14C84.69,41.33,94.13,39.18,94.23,39.16Z"/><path class="cls-23" d="M96.51,40.48l.2.31c-.09,0-9.42,2.15-21.54,10.18C62.11,59.62,59,64.81,59,64.86l-.55-.11s3.15-5.31,16.28-14C87,42.64,96.41,40.5,96.51,40.48Z"/><path class="cls-23" d="M98.77,41.78l.21.32c-.09,0-9.42,2.15-21.54,10.18C64.38,60.93,61.29,66.12,61.26,66.17l-.55-.11s3.16-5.31,16.29-14C89.23,44,98.68,41.81,98.77,41.78Z"/><path class="cls-23" d="M103.32,44.41l.2.31c-.09,0-9.42,2.14-21.54,10.18C68.92,63.54,65.83,68.74,65.8,68.79l-.54-.11c0-.05,3.15-5.31,16.28-14C93.77,46.57,103.22,44.43,103.32,44.41Z"/><path class="cls-23" d="M105.58,45.72l.21.31c-.09,0-9.42,2.15-21.55,10.18-13,8.65-16.14,13.84-16.17,13.89L67.53,70s3.15-5.31,16.28-14C96,47.88,105.48,45.74,105.58,45.72Z"/><path class="cls-23" d="M107.85,47l.21.31c-.08,0-9.42,2.15-21.54,10.18C73.46,66.17,70.37,71.36,70.34,71.41l-.54-.11S73,66,86.08,57.29C98.31,49.19,107.76,47.05,107.85,47Z"/><path class="cls-23" d="M110.12,48.34l.21.31c-.09,0-9.42,2.15-21.55,10.18-13,8.65-16.14,13.84-16.17,13.89l-.54-.11s3.15-5.31,16.28-14C100.57,50.5,110,48.36,110.12,48.34Z"/><path class="cls-23" d="M112.39,49.65l.2.31c-.08,0-9.42,2.15-21.54,10.18C78,68.79,74.92,74,74.89,74l-.55-.12s3.15-5.3,16.28-14C102.85,51.81,112.3,49.67,112.39,49.65Z"/></g><path class="cls-23" d="M114.66,51l.21.32c-.09,0-9.42,2.14-21.54,10.17C80.27,70.1,77.18,75.29,77.15,75.34l-.55-.11s3.16-5.31,16.29-14C105.11,53.12,114.56,51,114.66,51Z"/><path class="cls-23" d="M119.2,53.58l.21.32c-.09,0-9.42,2.14-21.54,10.17C84.81,72.72,81.72,77.91,81.69,78l-.55-.11s3.16-5.31,16.29-14C109.66,55.75,119.11,53.6,119.2,53.58Z"/><path class="cls-23" d="M123.75,56.2l.2.32c-.09,0-9.42,2.14-21.55,10.17-13.05,8.65-16.14,13.84-16.17,13.9l-.54-.11s3.15-5.31,16.28-14C114.2,58.37,123.65,56.22,123.75,56.2Z"/><polygon class="cls-24" points="154.68 21.53 155 21.73 121.39 40.25 121.07 40.05 154.68 21.53"/><g class="cls-8"><polygon class="cls-24" points="140.15 12.69 140.47 12.88 106.86 31.4 106.54 31.21 140.15 12.69"/><polygon class="cls-24" points="142.57 14.16 142.89 14.36 109.28 32.87 108.97 32.68 142.57 14.16"/><polygon class="cls-24" points="144.99 15.64 145.31 15.83 111.7 34.35 111.39 34.15 144.99 15.64"/><polygon class="cls-24" points="147.41 17.11 147.74 17.3 114.12 35.82 113.81 35.63 147.41 17.11"/><polygon class="cls-24" points="149.83 18.58 150.15 18.78 116.55 37.29 116.23 37.1 149.83 18.58"/></g><polygon class="cls-24" points="152.26 20.06 152.57 20.25 118.97 38.77 118.65 38.58 152.26 20.06"/><polygon class="cls-24" points="157.09 23.01 157.42 23.2 123.81 41.72 123.5 41.52 157.09 23.01"/><polygon class="cls-24" points="159.52 24.48 159.84 24.68 126.24 43.19 125.91 43 159.52 24.48"/><polygon class="cls-24" points="161.95 25.96 162.26 26.15 128.66 44.67 128.33 44.47 161.95 25.96"/><g class="cls-8"><polygon class="cls-24" points="164.37 27.43 164.68 27.62 131.08 46.14 130.76 45.95 164.37 27.43"/><polygon class="cls-24" points="166.79 28.9 167.1 29.1 133.5 47.62 133.18 47.42 166.79 28.9"/><polygon class="cls-24" points="169.21 30.38 169.53 30.57 135.92 49.09 135.61 48.9 169.21 30.38"/><polygon class="cls-24" points="171.63 31.85 171.95 32.04 138.34 50.56 138.02 50.37 171.63 31.85"/><polygon class="cls-24" points="174.05 33.33 174.37 33.52 140.76 52.04 140.44 51.84 174.05 33.33"/></g><polygon class="cls-24" points="176.47 34.8 176.79 34.99 143.19 53.51 142.87 53.32 176.47 34.8"/><polygon class="cls-24" points="178.9 36.27 179.22 36.47 145.6 54.99 145.29 54.79 178.9 36.27"/><polygon class="cls-24" points="183.74 39.22 184.06 39.42 150.45 57.93 150.14 57.74 183.74 39.22"/><polygon class="cls-24" points="181.31 37.75 181.64 37.94 148.03 56.46 147.71 56.27 181.31 37.75"/><polygon class="cls-24" points="186.16 40.7 186.48 40.89 152.87 59.41 152.55 59.22 186.16 40.7"/><polygon class="cls-24" points="188.58 42.17 188.9 42.37 155.29 60.88 154.97 60.69 188.58 42.17"/><path class="cls-25" d="M189.53,112.85a39.31,39.31,0,0,1,7.71,6.25c.21-.57,1.24-4.22,1.68-4.21l5.27.17c-3.63-4.07-8.65-7.14-13.49-9.53a38.6,38.6,0,0,0-7.39-2.87c-2.68-.67-5.42-.65-8.07-1.54-6.2-2.07-11.48-6.39-15.93-11.05a102.83,102.83,0,0,1-11.92-15.48c-3.59-5.53-6.77-11.22-10.95-16.35a97.4,97.4,0,0,0-13.11-13.13A111.7,111.7,0,0,0,91.48,26.47c-.54-.2-1.38-.75-1.91-.44l-2.22,1.3-4.47,2.59A90.83,90.83,0,0,1,98.54,37a113.22,113.22,0,0,1,16.87,11.32,97.28,97.28,0,0,1,14.35,14.27c4.25,5.28,7.49,11.16,11.19,16.8C146.56,88,153.2,96.69,162,102.16a29.5,29.5,0,0,0,6.68,3.13,47.24,47.24,0,0,0,6.44,1.15c5.11.9,10.08,3.64,14.39,6.41Z"/><g class="cls-8"><path class="cls-26" d="M200,117.56c.21-.57,1.24-4.22,1.68-4.21l5.27.17c-.14.69-4.43.09-5.19,0-.21,0-.79,1.9-.87,2.13-.17.42-.53,2.12-1,2.14.05-.09.09-.19.14-.28Z"/><path class="cls-27" d="M192.31,111.31a39.31,39.31,0,0,1,7.71,6.25c.21-.57,1.24-4.22,1.68-4.21l5.27.17c-3.63-4.07-8.65-7.14-13.49-9.53a38,38,0,0,0-7.39-2.87c-2.68-.67-5.42-.65-8.07-1.54-6.21-2.07-11.48-6.39-15.94-11.06a103.41,103.41,0,0,1-11.92-15.47c-3.58-5.53-6.76-11.23-10.94-16.35a98,98,0,0,0-13.11-13.13A111.52,111.52,0,0,0,94.25,24.93c-.53-.2-1.37-.74-1.9-.44l-2.23,1.3-4.46,2.59a91.17,91.17,0,0,1,15.66,7.1A113.13,113.13,0,0,1,118.18,46.8a96.87,96.87,0,0,1,14.36,14.27c4.24,5.28,7.48,11.16,11.18,16.8,5.62,8.57,12.25,17.28,21.07,22.75a29.77,29.77,0,0,0,6.69,3.13,47.24,47.24,0,0,0,6.44,1.15c5.11.9,10.08,3.64,14.39,6.41Z"/><path class="cls-28" d="M103.47,36.69A107,107,0,0,1,129,57a98.65,98.65,0,0,1,11.56,15.89,122,122,0,0,0,11.75,16.6c5.68,6.62,12.91,13.25,21.75,15a60.71,60.71,0,0,1,6.15,1,42.43,42.43,0,0,1,7.3,3.07,56.08,56.08,0,0,1,7.39,4.57c.67.48,5.57,4.08,5,4.75-4.56-5-11-8.67-17.21-11.11a26.74,26.74,0,0,0-3.9-1.23c-1.36-.32-2.75-.32-4.12-.56a27.53,27.53,0,0,1-9.37-3.61c-10-6-17.25-16-23.31-25.66-3.6-5.74-7-11.42-11.46-16.57a97.18,97.18,0,0,0-13-12.41A114.1,114.1,0,0,0,89,30.05c-.54-.22-3.51-.86-3.37-1.67a96.82,96.82,0,0,1,17.81,8.31Z"/></g><path class="cls-29" d="M104.59,110.72s1.47,9.14,1.24,12.32a8.45,8.45,0,0,1-2.35,4.85s.36,2.78,3-.27c2.14-2.45,1.81-2.24,1.81-5.31a20.39,20.39,0,0,1,.77-3.25,12.66,12.66,0,0,0,.48-7.15C109.35,111.07,103.45,106.35,104.59,110.72Z"/><path class="cls-30" d="M103.48,127.89a8.45,8.45,0,0,0,2.35-4.85c.23-3.18-1.24-12.32-1.24-12.32-1.14-4.37,3.38,0,3.59.89a16,16,0,0,1-.48,8.07,10.53,10.53,0,0,0-.28,3.49c0,2.84-.27,3.37-1.37,4.93C103.79,130.35,103.48,127.89,103.48,127.89Z"/><path class="cls-31" d="M108.31,123.17s1.23.89.4,3.36a25.64,25.64,0,0,0-.33,3l-.34.18s.19-3.13.09-3.23a7.55,7.55,0,0,0-1.38,3s-.3,1.76-4,1.25l-.43-.09,1.31-1.11s1.6.47,2.13-.4,2.72-4.35,2.6-6Z"/><path class="cls-32" d="M108,129.75l-.62-.24.21-2.45.58-1A22.42,22.42,0,0,1,108,129.75Z"/><path class="cls-31" d="M104,127.35s-2.79,3-1.87,3.24c1.78.57,3.26-.4,4.25-1.81C107.44,127.2,102.46,130.13,104,127.35Z"/><path class="cls-31" d="M107.68,125.55a5.93,5.93,0,0,1-2.51,2.93S107.61,129.54,107.68,125.55Z"/><path class="cls-29" d="M96.78,106.89S98.25,116,98,119.21a8.42,8.42,0,0,1-2.35,4.85s.35,2.78,3-.27c2.14-2.45,1.81-2.24,1.81-5.3a20.14,20.14,0,0,1,.77-3.25,12.76,12.76,0,0,0,.49-7.16C101.54,107.25,96.88,103.21,96.78,106.89Z"/><path class="cls-30" d="M95.67,124.06A8.42,8.42,0,0,0,98,119.21c.23-3.17-.67-11.71-.67-11.71-1.13-4.37,2.81-.65,3,.29a16,16,0,0,1-.49,8.07,10.18,10.18,0,0,0-.28,3.48c0,2.84-.27,3.37-1.38,4.94C96,126.51,95.67,124.06,95.67,124.06Z"/><path class="cls-31" d="M100.5,119.34s1.23.89.39,3.37a24,24,0,0,0-.32,3l-.35.19s.19-3.14.1-3.24a7.39,7.39,0,0,0-1.38,3s-.3,1.75-4,1.24l-.44-.09,1.32-1.11s1.6.47,2.13-.4,2.72-4.35,2.6-6Z"/><path class="cls-32" d="M100.22,125.93l-.62-.25.22-2.44.58-1A21.79,21.79,0,0,1,100.22,125.93Z"/><path class="cls-31" d="M96.15,123.52s-2.79,3-1.88,3.24c1.79.57,3.27-.4,4.26-1.81C99.63,123.38,94.65,126.29,96.15,123.52Z"/><path class="cls-31" d="M99.87,121.72a6,6,0,0,1-2.52,2.93S99.8,125.71,99.87,121.72Z"/><path class="cls-33" d="M112.74,93.09s-16,4.47-16.09,8.68a115,115,0,0,0,.75,12.89l.16,4.16s3,1.17,3.33-.19a49.91,49.91,0,0,1,1.33-6.31s1.08-5.84-.74-8.25c0,0,11-2.81,14.44-4.55s4-4.29,4-4.29l-5.82-3.17Z"/><path class="cls-34" d="M122.47,92.67s4.51,8-3.3,11.54-10.5,4.86-10.5,4.86,1.82,3.74,1.63,5.8-1.41,7.11-1.41,7.11-.61,1.67-3.42.33c0,0-1.12-8.74-1.44-10s-1.57-5.35-.32-6.91c2.15-2.69,10.49-7.92,10.79-8.42S116,92.16,116,92.16Z"/><path class="cls-35" d="M117,74.05s-2.57-1.49-10.32,5.65c0,0-8,2.62-8.7,3s.35,2,.35,2,8-.72,8.74-1.36,3.91-1.5,5.11-2.57S117,74.05,117,74.05Z"/><path class="cls-36" d="M111.93,81.55s-.72,2.18,1.18,5.37c0,0-.19,5.23-1.51,6.51,0,0,5.08,6.17,12.06,2.29,0,0-1.82-4.89-1-7.09a7.67,7.67,0,0,0,.85-2.24Z"/><path class="cls-36" d="M112,84.14a18.14,18.14,0,0,1,.94,7.46l1.7-.33s.79-3.35.79-3.79S112,84.14,112,84.14Z"/><path class="cls-36" d="M117,87.2s1.91,1.56,6.61-.63c0,0,2.12-3.11,1.27-6.27,0,0-6.6-7.4-10.46-6.19-.49.15-.57.82-.63,2a10.31,10.31,0,0,1-1,3.08c-1.08,1.25-1.69,4-.27,5Z"/><path class="cls-36" d="M126,81.26s-.83-5-10.87-7.13a5.7,5.7,0,0,0-1.26,3,4.89,4.89,0,0,1-.88,3.24,4.69,4.69,0,0,0-.76,1.24l11.3,4.74c0,.27-2.15,1.53-2.25,2h0S126.81,84.42,126,81.26Z"/><path class="cls-37" d="M122.79,77.09l.87.78s-5.11,5-7.61,2.33c0,0-2.35-2.1-.84-4.33Z"/><g class="cls-38"><path d="M125.52,80.27s-4-1.84-3.69,3c.19,3-.22,4-1.35,5.16-.26.26-2.62,1-6.19-1.55,0,0-2.56-2.34-2.46-3.53a29.31,29.31,0,0,0,1,3.76c.1.3-.12-.33,0,0s-.16-.84,0,0c0,0,2.32,2.4,4.42,2.62,4.17.44,4,1.16,2.57,7.31,0,0,3.25-.57,3.89-1.28,0,0-2-5.25-.9-7.33,0,0,2-6.47,2.72-7.21Z"/></g><path class="cls-37" d="M123,79.26s-4.27,2.29.11,8.21l1.67-1.68-1.87-2.49Z"/><path class="cls-39" d="M118.35,72.87A19.16,19.16,0,0,1,116,78.2a7.87,7.87,0,0,0-1.36,4.38c-.16.75-1.13-3.77-.3-5.49S116.5,73,116.5,73Z"/><path class="cls-29" d="M117.53,79.81s-1-1.11-1-1.89c.07-1,1.19-2.46,1-4.27,0,0,3.38.11,4.45-.94v4.6S120.18,79.81,117.53,79.81Z"/><path class="cls-40" d="M116.52,65.89s-.49.31-.49,2.29c0,0-.47.39-.69,2.52,0,0,.2,3.36,1.54,3.36,0,0,4.72.47,5.79-1.24,0,0,1.93-2.84,1.93-4.59a4.92,4.92,0,0,0-1.45-4C122.11,63.34,118,62.42,116.52,65.89Z"/><path class="cls-41" d="M117.75,74.12s2,2.42,1.5,3.75c0,0,2.31-2.62,2.56-4.14A22,22,0,0,1,117.75,74.12Z"/><path class="cls-42" d="M119.37,65.36a4.79,4.79,0,0,0,1.09,2.38c.51.47-.54,1.21-.84,1.52s-.84.89-.25,1.47c.87.88.44,2-1.62,3.39a11.71,11.71,0,0,0,4.23-.49s5-5.5-.86-8.4Z"/><path class="cls-43" d="M117.55,64.38S117.27,68.06,122,71c0,0,1-1.21,1.45-.71s.28,1.83-1.45,2.33a5.43,5.43,0,0,1-3.74,4.88c-3.78,1.45-2.63,9.06-2.63,11,0,0,2.09-8,4.54-8.88,2.25-.28,1.09-1.62,3.71-1.55v.07s-.36-2.29,1.62-7.32c.24-.6,1.31-4.23-1.3-6.09s-5.06-1.63-6.55-.54Z"/><path class="cls-43" d="M117.69,65.78a3.63,3.63,0,0,0-1.61,1.41c-.35.84-.61-3.43,3-3.73Z"/><path class="cls-44" d="M117.69,65.78s.75,2.34,1.65,3a5.41,5.41,0,0,1-.4-1.75s.78,1,1.3,1.24a5.91,5.91,0,0,1-.68-2.09s1.73.88,2,2.13c0,0,.08-2.46-.66-2.92,0,0,1.81.37,2,1.48a3,3,0,0,0-.76-2c-.75-.62,1.75.13,2.09,1,0,0,0-1.24-.9-1.65s-3.64-1.72-5.85.14A3,3,0,0,0,117.69,65.78Z"/><path class="cls-39" d="M122,72.61a5.29,5.29,0,0,1-2.37,4.17s-3,.74-3.49,3l-.2.59s2.43-3.25.86-.46a32.39,32.39,0,0,1,2.84-2.25c.59-.3,4-3,3.11-5.4Z"/><path class="cls-45" d="M108.77,122.2s1.61-5.67,1.49-8.39a17.19,17.19,0,0,0-1.59-4.74s10.3-4.48,11.62-5.45,3.4-2.5,3.47-5.55l-.1-2.35s-.76,6.14-8.74,8.53L106,108.8S110.34,112.51,108.77,122.2Z"/><path class="cls-46" d="M111.6,99.12s-8.29,5.53-8.34,7.35c0,0-.25,1.07.47,4.7s1.11,6.37,1.11,6.37-1.23-7.9-.64-10.5S108.69,102.14,111.6,99.12Z"/><path class="cls-47" d="M111.6,93.43s-14.51,4.19-14.95,8.34c0,0,.12,14.49.91,17a9,9,0,0,0,2,.46s-2.64-14-.91-17.26c0,0,8.87-5.24,15.29-6.54A10.91,10.91,0,0,1,111.6,93.43Z"/><path class="cls-35" d="M112.79,91.56c1.23-.06,4.87-.45,7.2-.48a38.94,38.94,0,0,1,1.26-5.85c.08-6.38,2.34-7,3.06-7.06,5,.21-2,14.57-2,14.57a4.06,4.06,0,0,1-.59.7l-.22.17c-2,1.68-5.78,1.16-8.1.61-.64-.18-2-.43-2-.43C111.75,93.22,112.79,91.56,112.79,91.56Z"/><g class="cls-8"><polygon class="cls-48" points="103.43 79.61 104.84 78.79 104.8 93.02 103.39 93.83 103.43 79.61"/><polygon class="cls-17" points="96.53 76.12 98.36 75.05 104.84 78.79 103.43 79.61 96.53 76.12"/><polygon class="cls-49" points="103.43 79.61 103.39 93.83 96.49 90.34 96.53 76.12 103.43 79.61"/></g><g class="cls-8"><polygon class="cls-50" points="109.99 83.4 111.4 82.59 111.36 96.81 109.95 97.63 109.99 83.4"/><polygon class="cls-17" points="103.5 79.66 104.91 78.84 111.4 82.59 109.99 83.4 103.5 79.66"/><polygon class="cls-51" points="109.99 83.4 109.95 97.63 103.46 93.88 103.5 79.66 109.99 83.4"/></g><g class="cls-8"><polygon class="cls-52" points="102.51 79.48 102.92 79.25 102.87 93.36 102.47 93.59 102.51 79.48"/><polygon class="cls-53" points="96.09 75.78 96.5 75.55 102.92 79.25 102.51 79.48 96.09 75.78"/><polygon class="cls-54" points="102.51 79.48 102.47 93.59 96.06 89.89 96.09 75.78 102.51 79.48"/></g><g class="cls-8"><polygon class="cls-52" points="110.04 83.81 110.45 83.58 110.41 97.69 110 97.92 110.04 83.81"/><polygon class="cls-53" points="103.63 80.11 104.03 79.87 110.45 83.58 110.04 83.81 103.63 80.11"/><polygon class="cls-54" points="110.04 83.81 110 97.92 103.59 94.22 103.63 80.11 110.04 83.81"/></g><g class="cls-8"><polygon class="cls-52" points="104.15 80.1 104.29 80.02 104.25 94.38 104.11 94.46 104.15 80.1"/><polygon class="cls-53" points="101.56 78.6 101.7 78.52 104.29 80.02 104.15 80.1 101.56 78.6"/><polygon class="cls-55" points="104.15 80.1 104.11 94.46 101.52 92.96 101.56 78.6 104.15 80.1"/></g><path class="cls-56" d="M108.58,93.46a8.17,8.17,0,0,0,2.27.63,3.17,3.17,0,0,0,1.54-.36l1.56.21L115,92.38a6.38,6.38,0,0,0-1.38-.6c-.38,0-2.25-.45-2.54-.46s-.35,1-.85.68c-.07,0-.26.28-.31.34s-.3-.17-.41-.06C109.11,92.74,108.51,93.2,108.58,93.46Z"/><path class="cls-56" d="M112,91.47c-.07,0-.56-.8-.88-.48s-.16.87-1.83.73c-.14,0-.37.11-1.19-.55s-.84-.3-.84-.3c0,.3.34.66.42.78a4.3,4.3,0,0,0,1.44,1.29Z"/><path class="cls-56" d="M109,92.27c-.52-.33-.15,0-1-.59s-.86-.28-.86-.28c0,.3.36.65.44.77a3.35,3.35,0,0,0,.83.82,2.82,2.82,0,0,0,.65.42Z"/><path class="cls-56" d="M108.88,92.88c-.46-.31-.11.21-.86-.37s-.85-.51-.85-.51c-.15.35.26.63.5.85a2.31,2.31,0,0,0,.91.61s.53.18.86.32Z"/><path class="cls-56" d="M110.79,91.93a16,16,0,0,1-2.22-1.05c-.72-.56-.9-.43-.9-.43-.15.35.26.63.49.85a2.4,2.4,0,0,0,.91.61s.54.18.87.32Z"/><path class="cls-56" d="M99.11,86a.53.53,0,0,0,.47-.31s0-.26-1.11-.38a7.54,7.54,0,0,1-2.12-.73,2.87,2.87,0,0,1-.12-1.28c0-.53-.53.93-.6.89s-.33.2-.37,1.36A2.92,2.92,0,0,0,95.57,87a5.37,5.37,0,0,0,.79.5,2.63,2.63,0,0,0,1.26.23c.38,0,1,.11,1.12-.31,0,0-.06-.1-.76-.21l.21,0c.17,0,.78,0,1-.28,0,0,.11-.13-.15-.27a.93.93,0,0,0,.52-.24S99.73,86.16,99.11,86Z"/><path class="cls-6" d="M33.66,48.24c-1.37-.78-1.36-2.79-.25-4.12a4.43,4.43,0,0,1,3.88-1.21c2.58.45,10.71,4.23,13.13,6l4.26-.41c.48,2.19.63,2.17.15,4.62-.29,1.51.25,1.16-1,1.92a9.9,9.9,0,0,1-2.51,1.09,5,5,0,0,1-3.19-.42C45.06,54.23,35.44,49.24,33.66,48.24Z"/><path class="cls-6" d="M27.71,50.87c-1.38-.78-1.36-2.79-.25-4.12A3.68,3.68,0,0,1,31,45.88c2.57.45,11.49,2.52,13.92,4.25h5c.49,2.2.22,2.32-.26,4.77a3.12,3.12,0,0,1-1.85,2.73,10,10,0,0,1-2.52,1.09,5,5,0,0,1-3.19-.42C39.1,56.86,29.49,51.87,27.71,50.87Z"/><g class="cls-57"><path class="cls-58" d="M49.94,50.13h-5C42.49,48.4,33.57,46.33,31,45.88a3.82,3.82,0,0,0-3.38.71,2.08,2.08,0,0,0,1.05,1.73c1.77,1,11.39,6,14.41,7.44a5,5,0,0,0,3.19.41,9.82,9.82,0,0,0,2.51-1.08,4.48,4.48,0,0,0,1-.74C50.2,52.42,50.39,52.15,49.94,50.13Z"/></g><path class="cls-59" d="M49.94,50.13h-5C42.49,48.4,33.57,46.33,31,45.88a5.26,5.26,0,0,0-2.07,0,2,2,0,0,0,1,1.32c1.78,1,11.4,6,14.41,7.43a5.09,5.09,0,0,0,3.2.42,10,10,0,0,0,2.34-1A6.72,6.72,0,0,0,49.94,50.13Z"/><g class="cls-8"><polygon class="cls-9" points="40.75 45.53 30.5 39.57 36.15 36.61 46.4 42.57 40.75 45.53"/><g class="cls-8"><g class="cls-60"><g class="cls-8"><path class="cls-11" d="M40.18,46.43l-10.25-6a.15.15,0,0,1-.08-.08l10.25,6a.24.24,0,0,0,.08.09Z"/></g></g></g><polygon class="cls-12" points="35.18 49.48 24.93 43.52 24.93 43.09 35.18 49.04 35.18 49.48"/><polygon class="cls-13" points="35.18 49.04 24.93 43.09 30.5 39.57 40.75 45.53 35.18 49.04"/><path class="cls-14" d="M40.75,45.53l5.65-3V43l-4.92,2.54a1.23,1.23,0,0,1-.68.7c-.31.18-.58.33-.7.1l-4.92,3.14V49Z"/><path class="cls-15" d="M40.74,46a1.26,1.26,0,0,0,.68-.7v-.15l-.66.35L40,46l0,.14C40.16,46.35,40.43,46.21,40.74,46Z"/></g><polygon class="cls-16" points="41.41 45.2 40.03 46 30.24 40.35 31.61 39.55 41.41 45.2"/><g class="cls-8"><polygon class="cls-17" points="40.54 43.87 31.05 38.35 36.32 35.96 45.81 41.47 40.54 43.87"/><polygon class="cls-18" points="40.55 45.44 31.06 39.92 31.05 38.35 40.54 43.87 40.55 45.44"/><polygon class="cls-19" points="40.54 43.87 45.81 41.47 45.97 42.6 40.55 45.44 40.54 43.87"/></g><g class="cls-8"><polygon class="cls-20" points="35.1 48.88 25.61 43.36 25.77 42.05 35.26 47.56 35.1 48.88"/><polygon class="cls-17" points="35.26 47.56 25.77 42.05 31.03 38.36 40.52 43.87 35.26 47.56"/><polygon class="cls-19" points="40.52 43.87 40.52 45.45 35.1 48.88 35.26 47.56 40.52 43.87"/></g><g class="cls-8"><polygon class="cls-61" points="40.53 43.92 31.05 38.41 31.05 38.37 40.52 43.87 40.53 43.92"/><path class="cls-17" d="M44.28,41.37l.18-.1.09,0,.15-.08.1,0,.13-.06L45,41l.1,0,.09,0,.09,0,.08,0,.08,0,.07,0,.07,0h.07l0,0h.19l.13,0h.09l-9.48-5.5-.16,0h-.18l-.07,0h-.11l-.08,0-.07,0-.08,0-.08,0-.09,0-.09,0-.09,0,0,0,0,0-.13.05-.1,0-.14.07a.31.31,0,0,0-.1.05l-.18.08-.09,0-.28.16-.59.37a32.12,32.12,0,0,0-2.79,1.94l9.47,5.5s.82-.65,2.79-1.94l.6-.36.28-.16Z"/><path class="cls-19" d="M43.91,41.57a5.33,5.33,0,0,1,2.22-.86l0,.06a5.32,5.32,0,0,0-2.2.85l-.59.36c-2,1.29-2.78,1.93-2.79,1.94v-.05s.82-.65,2.79-1.94Z"/></g><g class="cls-8"><polygon class="cls-21" points="40.55 43.88 31.08 38.38 31.07 38.35 40.53 43.85 40.55 43.88"/><path class="cls-17" d="M43.78,41.52l.13-.07.07,0,.12-.07.06,0,.15-.07h0l.16-.08,0,0,.11,0,.05,0,.09,0,.05,0L45,41h0l.12-.05h0l.11,0h0l.08,0h0l.06,0h0l.06,0h0l.05,0h.17l.15,0h0l.11,0h.13l-9.46-5.5h-.25l-.06,0h0l-.08,0h-.1l0,0H36l-.05,0h0l-.06,0,0,0-.07,0h0l-.1,0h0l-.12,0h0l-.11,0,0,0-.1,0-.05,0-.12.06h0l-.33.17-.05,0-.14.07,0,0-.14.08-.06,0-.2.12-.27.15-.3.18-.1,0-.18.12-.11.07a.91.91,0,0,0-.16.11l-.1.06-.16.11-.09.06-.16.12-.06,0-.21.16,0,0-.15.11-.06.05-.11.09-.06.05-.1.08-.05,0-.09.07,0,0-.09.08,0,0a.38.38,0,0,0-.09.09s0,0,0,0l-.05,0,0,0v0h0l0,0h0l9.46,5.5,0-.05h0l0,0h0l.06-.06h0l.21-.19,0,0,.09-.08.05,0,.1-.08.06-.05.11-.1.06-.05.15-.11,0,0,.21-.16.06,0,.16-.12.09-.06.16-.11.1-.07.16-.1.11-.07.18-.12L43,42a2.14,2.14,0,0,1,.3-.17l.27-.16.2-.11Z"/><path class="cls-19" d="M43.25,41.82l.27-.16a6.66,6.66,0,0,1,2.61-1l0,.06a6.58,6.58,0,0,0-2.59,1l-.28.16a12.8,12.8,0,0,0-2.7,2v0A12.66,12.66,0,0,1,43.25,41.82Z"/></g><polygon class="cls-21" points="34.95 47.19 25.49 41.69 25.48 41.66 34.93 47.16 34.95 47.19"/><path class="cls-17" d="M38.13,44.94l.29-.15h0l.26-.12,0,0,.25-.11,0,0,.21-.09,0,0,.21-.1h0l.16-.07,0,0,.16-.07h0l.13,0h0l.12,0h0l.08,0,0,0,.08,0,0,0h.14l-9.46-5.5h0l-.05,0h0l-.06,0h0l-.09,0h0l-.06,0-.05,0h0l-.13,0h0l-.14.06h0l-.16.07h0l-.17.08h0l-.2.09,0,0-.21.1h0l-.24.12-.06,0-.26.13h0l-.29.14-.07,0-.32.16-.59.32-.24.14-.06,0-.18.11-.05,0-.2.13,0,0-.16.11-.05,0-.16.11,0,0-.16.13,0,0-.12.09,0,0-.13.11v0l-.1.09,0,0-.08.07,0,0-.08.08,0,0s0,0,0,0v0l-.05,0s0,0,0,0l0,0v0l0,0h0l9.46,5.5,0,0v0l0,0,0,0,0,0,0,0,.06-.06h0l.09-.08h0l.1-.09,0,0,.12-.1h0l.14-.11,0,0,.12-.1,0,0,.17-.13,0,0,.16-.11a.1.1,0,0,1,0,0,.91.91,0,0,1,.16-.11l0,0,.2-.14.05,0,.18-.11.06,0,.24-.14c.18-.11.38-.21.59-.32l.32-.16Z"/><path class="cls-19" d="M37.15,45.45c.18-.11.38-.21.59-.32a27.15,27.15,0,0,1,2.79-1.28v0s-.81.29-2.78,1.28c-.21.11-.41.21-.59.32A9.25,9.25,0,0,0,35,47.19l0,0A9.6,9.6,0,0,1,37.15,45.45Z"/><g class="cls-8"><polygon class="cls-21" points="34.96 47.08 25.5 41.58 25.48 41.55 34.94 47.05 34.96 47.08"/><path class="cls-17" d="M38.17,44.73l.27-.14h0l.23-.12.05,0,.24-.11,0,0,.19-.08,0,0,.2-.08h0l.18-.07h0l.16-.06h0l.14-.05h0l.13,0,.06,0h.08l.12,0h.14l-9.46-5.49H31l-.18,0h0l-.09,0h0l-.12,0h0l-.14.05h0l-.16,0h0l-.18.06,0,0-.17.06h0l0,0-.19.08,0,0-.23.11-.06,0-.23.12h0l-.27.14-.06,0-.29.17-.27.16-.23.14-.06,0-.21.13h0l-.2.13-.06,0-.16.11,0,0-.17.12-.05,0-.13.1,0,0-.15.11,0,0-.11.09,0,0-.12.09,0,0-.09.08h0l-.1.09,0,0L26,41.1l0,0-.08.07,0,0-.05,0,0,0-.06,0a0,0,0,0,1,0,0l0,0h0l0,.05h0a.08.08,0,0,0,0,0h0l0,0h0l9.46,5.5h0L35,47h0s0,0,0-.05h0l0-.06h0a.17.17,0,0,0,.06-.06h0l.06,0,0,0,.09-.07h0l.08-.07,0,0,.1-.08,0,0,.09-.07,0,0,.12-.1h0l.12-.09,0,0,.15-.11,0,0,.14-.1.05,0,.18-.12v0l.18-.11.05,0,.2-.13h0l.21-.13.06,0,.23-.15.27-.16.29-.16Z"/><path class="cls-19" d="M37.8,44.92a7.77,7.77,0,0,1,2.72-1.11l0,.06A7.85,7.85,0,0,0,37.81,45l-.28.16a11.62,11.62,0,0,0-2.59,1.95l0,0a11.47,11.47,0,0,1,2.61-2Z"/></g><g class="cls-8"><polygon class="cls-21" points="34.98 46.81 25.52 41.32 25.5 41.28 34.96 46.78 34.98 46.81"/><path class="cls-17" d="M38.15,44.65l.21-.1.11,0,.19-.08.1,0,.23-.1h0l.21-.08h0l.2-.08h0l.18-.05h0l.16-.05h0l.1,0,.06,0,.09,0h.42L31.1,38.35h-.37l-.06,0H30.6l-.07,0-.07,0H30.4l-.16,0h0a1.27,1.27,0,0,0-.18.06h0l-.2.07h0l-.21.08h0l-.18.08-.05,0-.1,0L29,39l-.11,0-.21.1-.1,0-.33.17c-.23.12-.46.24-.66.36l-.24.14-.07,0-.15.09-.07,0-.14.09-.07,0a.91.91,0,0,1-.16.11l0,0-.18.13,0,0-.12.09-.05,0-.1.07,0,0-.1.08,0,0-.11.1,0,0a.27.27,0,0,0-.08.07l0,0-.06.06,0,0s0,0-.05,0h0l-.06.05,0,0h0l0,0h0L35,46.78l0,0h0l.1-.09h0l.06,0a0,0,0,0,1,0,0l.06-.06,0,0,.08-.07h0l.11-.1,0,0,.1-.08,0,0,.1-.07,0-.05.12-.08,0,0,.17-.12,0,0,.15-.11.07,0,.13-.09.08,0,.15-.09.07,0,.23-.14.67-.36.33-.16Z"/><path class="cls-22" d="M38.16,44.65h0a13.38,13.38,0,0,1,1.31-.54,3.77,3.77,0,0,1,1.09-.26l-2-1.15-4-2.33-3.12-1.82-.3-.17,0,0s-.14,0-.17,0l-.35.07h0c1,.61,2.08,1.23,3.12,1.82,6.14,3.44,1.51,5.38.65,6.17a2,2,0,0,0,.25.14l.27.16.06,0s.16-.14.18-.16a11.7,11.7,0,0,1,3-2Z"/><path class="cls-19" d="M37,45.21l.67-.36a8.12,8.12,0,0,1,2.84-1l0,.06a7.77,7.77,0,0,0-2.82,1c-.24.11-.46.24-.67.35A9.48,9.48,0,0,0,35,46.82v0A9.61,9.61,0,0,1,37,45.21Z"/></g><g class="cls-8"><polygon class="cls-21" points="34.95 46.79 25.49 41.3 25.48 41.26 34.93 46.76 34.95 46.79"/><path class="cls-17" d="M38.13,44.62l.21-.09.11-.05.18-.08.1,0,.24-.09h0l.21-.08,0,0,.21-.07h0l.17-.06h0l.17,0h0l.1,0,.06,0,.08,0h.06l.07,0h0l.07,0h.19l-9.46-5.49h-.43l-.08,0-.06,0-.07,0h-.06l-.17,0h0l-.19.06h0l-.21.08h0l-.22.08h0l-.19.08-.05,0-.1,0L29,39l-.11.05-.21.1-.1,0-.33.16-.67.36-.23.14-.07,0-.15.1L27,40l-.14.09-.06,0-.16.11,0,0-.17.13,0,0-.12.09-.05,0-.1.08s0,0,0,0l-.1.08,0,0-.12.1h0l-.09.07,0,0-.06,0,0,0-.05,0v0l-.06,0s0,0,0,0h0l0,0h0l9.45,5.5,0,0h0l.1-.09v0s0,0,.05,0l0,0,.06,0,0,0,.09-.07v0l.12-.09,0,0,.09-.07.05,0,.1-.08.05,0,.11-.08,0,0,.17-.12,0,0,.15-.1.07,0,.13-.09.08-.05.15-.1.07,0,.23-.14.67-.36.33-.16Z"/><path class="cls-22" d="M38.14,44.63s0,0,0,0a13.3,13.3,0,0,1,1.31-.53,3.47,3.47,0,0,1,1.09-.26l-2-1.16-4-2.33-3.12-1.81-.3-.17-.05,0s-.13,0-.17,0l-.34.07h0c1,.6,2.07,1.23,3.12,1.81,6.13,3.44,1.51,5.39.65,6.18l.24.14.28.16.06,0s.15-.14.18-.17a11.67,11.67,0,0,1,3-2Z"/><path class="cls-19" d="M37,45.19l.67-.36a7.84,7.84,0,0,1,2.84-1l0,.06a7.83,7.83,0,0,0-2.82,1l-.67.36a9.67,9.67,0,0,0-2.08,1.55v0A9.29,9.29,0,0,1,37,45.19Z"/></g><path class="cls-23" d="M34.94,41.34l0,0a7.44,7.44,0,0,0-2.24,1.06A5.45,5.45,0,0,0,31,43.88l-.06,0a5.79,5.79,0,0,1,1.7-1.45A7.32,7.32,0,0,1,34.94,41.34Z"/><path class="cls-23" d="M34.47,41.06l0,0a7.33,7.33,0,0,0-2.24,1.06,6.14,6.14,0,0,0-1.69,1.44h0a5.9,5.9,0,0,1,1.69-1.46A8.07,8.07,0,0,1,34.47,41.06Z"/><path class="cls-23" d="M34,40.79l0,0a7.75,7.75,0,0,0-2.25,1.06,5.83,5.83,0,0,0-1.68,1.45H30a5.89,5.89,0,0,1,1.7-1.46A7.6,7.6,0,0,1,34,40.79Z"/><path class="cls-23" d="M32.34,39.83l0,0a7.44,7.44,0,0,0-2.24,1.06,5.73,5.73,0,0,0-1.68,1.44h-.06a5.9,5.9,0,0,1,1.69-1.46A8.07,8.07,0,0,1,32.34,39.83Z"/><g class="cls-8"><path class="cls-23" d="M30.69,38.88l0,0A7.64,7.64,0,0,0,28.47,40a5.62,5.62,0,0,0-1.69,1.45h-.06A5.7,5.7,0,0,1,28.42,40,7.6,7.6,0,0,1,30.69,38.88Z"/><path class="cls-23" d="M30.92,39l0,0a7.31,7.31,0,0,0-2.25,1.06A5.45,5.45,0,0,0,27,41.56l-.06,0a5.88,5.88,0,0,1,1.7-1.46A7.41,7.41,0,0,1,30.92,39Z"/><path class="cls-23" d="M31.16,39.15l0,0a7.33,7.33,0,0,0-2.24,1.06,6.14,6.14,0,0,0-1.69,1.44H27.2a5.69,5.69,0,0,1,1.69-1.46A7.73,7.73,0,0,1,31.16,39.15Z"/><path class="cls-23" d="M31.4,39.29l0,0a7.75,7.75,0,0,0-2.25,1.06,5.45,5.45,0,0,0-1.68,1.45h-.06a5.7,5.7,0,0,1,1.7-1.46A7.3,7.3,0,0,1,31.4,39.29Z"/><path class="cls-23" d="M31.63,39.43l0,0a7.44,7.44,0,0,0-2.24,1.06A5.73,5.73,0,0,0,27.73,42h-.06a5.88,5.88,0,0,1,1.7-1.46A7.41,7.41,0,0,1,31.63,39.43Z"/><path class="cls-23" d="M31.87,39.56l0,0a8,8,0,0,0-2.24,1.06A6.23,6.23,0,0,0,28,42.1h-.05a5.51,5.51,0,0,1,1.69-1.46A7.6,7.6,0,0,1,31.87,39.56Z"/><path class="cls-23" d="M32.11,39.7l0,0a7.43,7.43,0,0,0-2.25,1.06,5.45,5.45,0,0,0-1.68,1.45h-.06a5.51,5.51,0,0,1,1.7-1.46A7.3,7.3,0,0,1,32.11,39.7Z"/><path class="cls-23" d="M32.58,40l0,0a8,8,0,0,0-2.24,1.06,5.81,5.81,0,0,0-1.69,1.45h-.06A5.89,5.89,0,0,1,30.31,41,7.73,7.73,0,0,1,32.58,40Z"/><path class="cls-23" d="M32.82,40.11l0,0a7.43,7.43,0,0,0-2.25,1.06,5.45,5.45,0,0,0-1.68,1.45h-.06a5.51,5.51,0,0,1,1.7-1.46A7.3,7.3,0,0,1,32.82,40.11Z"/><path class="cls-23" d="M33.05,40.24l0,0a7.33,7.33,0,0,0-2.24,1.06,6.14,6.14,0,0,0-1.69,1.44h-.05a5.9,5.9,0,0,1,1.69-1.46A8.07,8.07,0,0,1,33.05,40.24Z"/><path class="cls-23" d="M33.29,40.38l0,0a8.1,8.1,0,0,0-2.25,1.06,5.83,5.83,0,0,0-1.68,1.45h-.06A5.89,5.89,0,0,1,31,41.45,7.6,7.6,0,0,1,33.29,40.38Z"/><path class="cls-23" d="M33.52,40.52l0,0a7.31,7.31,0,0,0-2.25,1.06,5.45,5.45,0,0,0-1.68,1.45h-.06a5.51,5.51,0,0,1,1.7-1.46A7.43,7.43,0,0,1,33.52,40.52Z"/></g><path class="cls-23" d="M33.76,40.65l0,0a7.33,7.33,0,0,0-2.24,1.06,6.14,6.14,0,0,0-1.69,1.44H29.8a5.9,5.9,0,0,1,1.69-1.46A8.07,8.07,0,0,1,33.76,40.65Z"/><path class="cls-23" d="M34.23,40.93l0,0A7.31,7.31,0,0,0,32,42a5.45,5.45,0,0,0-1.68,1.45h-.06A5.51,5.51,0,0,1,32,42,7.32,7.32,0,0,1,34.23,40.93Z"/><path class="cls-23" d="M34.71,41.2l0,0a7.75,7.75,0,0,0-2.25,1.06,5.45,5.45,0,0,0-1.68,1.45h-.06a5.7,5.7,0,0,1,1.7-1.46A7.6,7.6,0,0,1,34.71,41.2Z"/><path class="cls-23" d="M40.64,38l0,0a7.33,7.33,0,0,0-2.24,1.06,6.14,6.14,0,0,0-1.69,1.44h-.06a6.09,6.09,0,0,1,1.7-1.46A7.93,7.93,0,0,1,40.64,38Z"/><path class="cls-23" d="M40.17,37.75l0,0a8.1,8.1,0,0,0-2.25,1.06,5.62,5.62,0,0,0-1.68,1.45H36.2a5.69,5.69,0,0,1,1.7-1.46A7.6,7.6,0,0,1,40.17,37.75Z"/><path class="cls-23" d="M39.93,37.61l0,0a7.33,7.33,0,0,0-2.24,1.06A6.14,6.14,0,0,0,36,40.15H36a5.69,5.69,0,0,1,1.69-1.46A8.07,8.07,0,0,1,39.93,37.61Z"/><path class="cls-23" d="M40.4,37.89l0,0A7.33,7.33,0,0,0,38.18,39a5.45,5.45,0,0,0-1.68,1.45h-.06A5.53,5.53,0,0,1,38.13,39,7.41,7.41,0,0,1,40.4,37.89Z"/><path class="cls-23" d="M39.69,37.48l0,0a7.44,7.44,0,0,0-2.24,1.06A5.45,5.45,0,0,0,35.79,40h-.06a5.53,5.53,0,0,1,1.69-1.46A7.41,7.41,0,0,1,39.69,37.48Z"/><path class="cls-23" d="M39.46,37.34l0,0a8.1,8.1,0,0,0-2.25,1.06,5.62,5.62,0,0,0-1.68,1.45h-.06a5.88,5.88,0,0,1,1.7-1.46A7.6,7.6,0,0,1,39.46,37.34Z"/><path class="cls-23" d="M39,37.07l0,0a7.62,7.62,0,0,0-2.25,1.06,5.45,5.45,0,0,0-1.68,1.45H35a5.51,5.51,0,0,1,1.7-1.46A7.32,7.32,0,0,1,39,37.07Z"/><g class="cls-8"><path class="cls-23" d="M36.38,35.57l0,0a7.2,7.2,0,0,0-2.25,1.06,5.45,5.45,0,0,0-1.68,1.45h-.06a5.51,5.51,0,0,1,1.7-1.46A7.32,7.32,0,0,1,36.38,35.57Z"/><path class="cls-23" d="M36.62,35.7l0,0A7.33,7.33,0,0,0,34.4,36.8a6.14,6.14,0,0,0-1.69,1.44h-.05a5.69,5.69,0,0,1,1.69-1.46A8.07,8.07,0,0,1,36.62,35.7Z"/><path class="cls-23" d="M36.86,35.84l0,0a7.64,7.64,0,0,0-2.24,1.06A5.43,5.43,0,0,0,33,38.38h-.06a5.89,5.89,0,0,1,1.7-1.46A7.6,7.6,0,0,1,36.86,35.84Z"/><path class="cls-23" d="M37.09,36l0,0a7.2,7.2,0,0,0-2.25,1.06,5.45,5.45,0,0,0-1.68,1.45h-.06a5.53,5.53,0,0,1,1.69-1.46A7.41,7.41,0,0,1,37.09,36Z"/><path class="cls-23" d="M37.33,36.11l0,0a7.33,7.33,0,0,0-2.24,1.06,5.92,5.92,0,0,0-1.69,1.44h-.06a6.09,6.09,0,0,1,1.7-1.46A8.07,8.07,0,0,1,37.33,36.11Z"/><path class="cls-23" d="M37.57,36.25l0,0a8.1,8.1,0,0,0-2.25,1.06,5.45,5.45,0,0,0-1.68,1.45H33.6a5.69,5.69,0,0,1,1.7-1.46A7.6,7.6,0,0,1,37.57,36.25Z"/><path class="cls-23" d="M38,36.52l0,0a7.53,7.53,0,0,0-2.25,1,6.26,6.26,0,0,0-1.68,1.45h-.06a6.09,6.09,0,0,1,1.7-1.46A7.6,7.6,0,0,1,38,36.52Z"/><path class="cls-23" d="M38.27,36.66l0,0a7.62,7.62,0,0,0-2.25,1.06,5.45,5.45,0,0,0-1.68,1.45h-.06A5.69,5.69,0,0,1,36,37.73,7.32,7.32,0,0,1,38.27,36.66Z"/><path class="cls-23" d="M38.51,36.79l0,0a7.33,7.33,0,0,0-2.24,1.06,5.82,5.82,0,0,0-1.69,1.45l-.05,0a5.61,5.61,0,0,1,1.69-1.45A8,8,0,0,1,38.51,36.79Z"/><path class="cls-23" d="M39.22,37.2l0,0A7.33,7.33,0,0,0,37,38.3a5.82,5.82,0,0,0-1.69,1.45l-.05,0A5.69,5.69,0,0,1,37,38.27,8.07,8.07,0,0,1,39.22,37.2Z"/></g><path class="cls-23" d="M37.8,36.39l0,0a7.33,7.33,0,0,0-2.24,1.06,5.82,5.82,0,0,0-1.69,1.45l0,0a5.81,5.81,0,0,1,1.69-1.45A7.41,7.41,0,0,1,37.8,36.39Z"/><path class="cls-23" d="M38.75,36.93l0,0A7.42,7.42,0,0,0,36.53,38a6,6,0,0,0-1.69,1.45h-.06A6.09,6.09,0,0,1,36.48,38,7.6,7.6,0,0,1,38.75,36.93Z"/><path class="cls-23" d="M43.05,39.47l0,0a7.33,7.33,0,0,0-2.24,1.06A6.14,6.14,0,0,0,39.14,42h0a5.9,5.9,0,0,1,1.69-1.46A8.07,8.07,0,0,1,43.05,39.47Z"/><g class="cls-8"><path class="cls-23" d="M40.92,38.25l0,0a7.31,7.31,0,0,0-2.25,1.06A5.45,5.45,0,0,0,37,40.79l-.06,0a5.79,5.79,0,0,1,1.7-1.45A7.32,7.32,0,0,1,40.92,38.25Z"/><path class="cls-23" d="M41.16,38.38l0,0a7.33,7.33,0,0,0-2.24,1.06,6.14,6.14,0,0,0-1.69,1.44h0a5.9,5.9,0,0,1,1.69-1.46A7.73,7.73,0,0,1,41.16,38.38Z"/><path class="cls-23" d="M41.4,38.52l0,0a7.43,7.43,0,0,0-2.25,1.06,5.64,5.64,0,0,0-1.68,1.45h-.06a5.7,5.7,0,0,1,1.7-1.46A7.3,7.3,0,0,1,41.4,38.52Z"/><path class="cls-23" d="M41.63,38.66l0,0a7.33,7.33,0,0,0-2.24,1.06,5.73,5.73,0,0,0-1.68,1.44h-.06a5.9,5.9,0,0,1,1.69-1.46A7.51,7.51,0,0,1,41.63,38.66Z"/><path class="cls-23" d="M41.87,38.79l0,0a8,8,0,0,0-2.24,1.06A6.23,6.23,0,0,0,38,41.33h-.05a5.69,5.69,0,0,1,1.69-1.46A7.6,7.6,0,0,1,41.87,38.79Z"/><path class="cls-23" d="M42.11,38.93l0,0A7.43,7.43,0,0,0,39.88,40a5.45,5.45,0,0,0-1.68,1.45h-.06A5.7,5.7,0,0,1,39.84,40,7.3,7.3,0,0,1,42.11,38.93Z"/><path class="cls-23" d="M42.34,39.06l0,0a7.33,7.33,0,0,0-2.24,1.06,5.73,5.73,0,0,0-1.68,1.44h-.06a5.9,5.9,0,0,1,1.69-1.46A8.07,8.07,0,0,1,42.34,39.06Z"/><path class="cls-23" d="M42.58,39.2l0,0a8,8,0,0,0-2.24,1.06,5.81,5.81,0,0,0-1.69,1.45h-.06a6.09,6.09,0,0,1,1.7-1.46A7.73,7.73,0,0,1,42.58,39.2Z"/><path class="cls-23" d="M42.82,39.34l0,0a7.43,7.43,0,0,0-2.25,1.06,5.45,5.45,0,0,0-1.68,1.45h-.06a5.51,5.51,0,0,1,1.7-1.46A7.3,7.3,0,0,1,42.82,39.34Z"/><path class="cls-23" d="M43.29,39.61l0,0a8,8,0,0,0-2.24,1.06,5.81,5.81,0,0,0-1.69,1.45h-.06A5.89,5.89,0,0,1,41,40.68,7.6,7.6,0,0,1,43.29,39.61Z"/><path class="cls-23" d="M43.52,39.75l0,0a7.43,7.43,0,0,0-2.25,1.06,5.45,5.45,0,0,0-1.68,1.45h-.06a5.51,5.51,0,0,1,1.7-1.46A7.32,7.32,0,0,1,43.52,39.75Z"/><path class="cls-23" d="M44,40l0,0a7.64,7.64,0,0,0-2.24,1.06,5.43,5.43,0,0,0-1.69,1.45H40a5.89,5.89,0,0,1,1.7-1.46A7.6,7.6,0,0,1,44,40Z"/><path class="cls-23" d="M44.23,40.16l0,0A7.31,7.31,0,0,0,42,41.25a5.45,5.45,0,0,0-1.68,1.45h-.06A5.51,5.51,0,0,1,42,41.23,7.32,7.32,0,0,1,44.23,40.16Z"/><path class="cls-23" d="M44.47,40.29l0,0a7.33,7.33,0,0,0-2.24,1.06,6.14,6.14,0,0,0-1.69,1.44h-.05a5.69,5.69,0,0,1,1.69-1.46A7.73,7.73,0,0,1,44.47,40.29Z"/></g><path class="cls-23" d="M43.76,39.88l0,0A7.33,7.33,0,0,0,41.54,41a6.14,6.14,0,0,0-1.69,1.44H39.8A5.9,5.9,0,0,1,41.49,41,8.07,8.07,0,0,1,43.76,39.88Z"/><path class="cls-25" d="M41.56,47.1a4.21,4.21,0,0,1,.8.65c0-.06.13-.44.18-.44l.55,0a4.67,4.67,0,0,0-1.41-1,4.24,4.24,0,0,0-.77-.3c-.28-.07-.56-.07-.84-.16a4.36,4.36,0,0,1-1.66-1.15,10.78,10.78,0,0,1-1.24-1.61A17.52,17.52,0,0,0,36,41.41a10.28,10.28,0,0,0-1.36-1.36,11.7,11.7,0,0,0-3.32-1.95c-.06,0-.15-.07-.2,0l-.23.13-.47.27a9.58,9.58,0,0,1,1.63.74,12.29,12.29,0,0,1,1.76,1.18,10,10,0,0,1,1.49,1.49,20.5,20.5,0,0,1,1.17,1.75A7.52,7.52,0,0,0,38.69,46a3,3,0,0,0,.7.32,4.94,4.94,0,0,0,.67.12,4.4,4.4,0,0,1,1.5.67Z"/><g class="cls-8"><path class="cls-26" d="M42.65,47.59c0-.06.13-.44.18-.44l.54,0c0,.07-.46,0-.54,0a1,1,0,0,0-.09.23s-.05.22-.1.22v0Z"/><path class="cls-27" d="M41.85,46.94a4.21,4.21,0,0,1,.8.65c0-.06.13-.44.18-.44l.54,0a4.62,4.62,0,0,0-1.4-1,4.24,4.24,0,0,0-.77-.3c-.28-.07-.56-.07-.84-.16a4.28,4.28,0,0,1-1.66-1.15A11.31,11.31,0,0,1,37.46,43a19.54,19.54,0,0,0-1.14-1.71A10.43,10.43,0,0,0,35,39.88a11.48,11.48,0,0,0-3.31-1.94c-.06,0-.15-.07-.2,0l-.23.13-.47.27a9.58,9.58,0,0,1,1.63.74,12.29,12.29,0,0,1,1.76,1.18,10,10,0,0,1,1.49,1.49c.44.55.78,1.16,1.17,1.75A7.52,7.52,0,0,0,39,45.83a3.42,3.42,0,0,0,.7.32,4.94,4.94,0,0,0,.67.12,4.4,4.4,0,0,1,1.5.67Z"/><path class="cls-28" d="M32.6,39.17a10.81,10.81,0,0,1,2.65,2.11,10.29,10.29,0,0,1,1.21,1.65,11.71,11.71,0,0,0,1.22,1.73A4.28,4.28,0,0,0,40,46.22a4.76,4.76,0,0,1,.64.11,4.55,4.55,0,0,1,.76.32,7.54,7.54,0,0,1,.77.47c.07.05.58.43.52.5a5,5,0,0,0-1.8-1.16l-.4-.13c-.14,0-.29,0-.43,0a2.86,2.86,0,0,1-1-.38,8.09,8.09,0,0,1-2.43-2.67,12.65,12.65,0,0,0-1.19-1.73,10.3,10.3,0,0,0-1.35-1.29,11.78,11.78,0,0,0-3-1.73c-.06,0-.36-.09-.35-.18a10.5,10.5,0,0,1,1.86.87Z"/></g><polygon class="cls-62" points="45.07 59 46.02 58.45 49.48 46.25 48.52 46.81 45.07 59"/><g class="cls-8"><g class="cls-63"><g class="cls-8"><path class="cls-64" d="M48.52,46.81l1-.56a1.66,1.66,0,0,1,.72-1l-1,.56a1.66,1.66,0,0,0-.72,1Z"/></g></g></g><path class="cls-2" d="M49.9,44.64l-1,.56a2,2,0,0,1,2.07.18l1-.55A2,2,0,0,0,49.9,44.64Z"/><g class="cls-65"><g class="cls-8"><path class="cls-2" d="M51,45.38l1-.55a3.07,3.07,0,0,0-.41-.2l-1,.56a3.75,3.75,0,0,1,.41.19Z"/><path class="cls-2" d="M50.6,45.19l1-.56a2.13,2.13,0,0,0-.33-.11l-.95.55.32.12Z"/><path class="cls-2" d="M50.28,45.07l.95-.55a1.14,1.14,0,0,0-.25-.06L50,45l.26,0Z"/><path class="cls-2" d="M50,45l1-.56-.21,0-1,.56L50,45Z"/><path class="cls-2" d="M49.81,45l1-.56h-.2l-1,.56Z"/><path class="cls-2" d="M49.62,45l1-.56-.17,0-1,.56.18,0Z"/><path class="cls-2" d="M49.44,45l1-.56-.17,0-1,.56.17,0Z"/><path class="cls-2" d="M49.27,45.06l1-.56-.16.06-1,.55.16,0Z"/><path class="cls-2" d="M49.11,45.11l1-.55-.15.07-1,.56.15-.08Z"/><path class="cls-2" d="M49,45.19l1-.56h0l-1,.56Z"/></g></g><path class="cls-66" d="M52.43,25.47a2.69,2.69,0,0,1,2.36,1.74,6.54,6.54,0,0,1,.59,3.25c0,2.36.48,8,.48,8a1.49,1.49,0,0,1-.07.55l-.29,1.29c-.27.88-1.6,1.26-2.57,1.09h0a2.29,2.29,0,0,1-1.72-1.48,10.81,10.81,0,0,0-.27-2.49c-.52-2.51-1.17-6.18-1.38-8C49.17,26.31,51.2,25.31,52.43,25.47Z"/><path class="cls-66" d="M55.65,38.12a2,2,0,0,1,.12,1.5A14.38,14.38,0,0,1,54.94,42l-2.58,6.43c-.07.15-.32.92-.51,1-1,.22-3.28-1.18-3.45-2,0,0,1.73-7,2.9-9.41C52.31,36,55.36,37.19,55.65,38.12Z"/><path class="cls-67" d="M43.8,28.81s-3.75,1.59-4.67,3.43.34,9.21.34,10.94-.75,11.9-.75,12.94,2.94,3,5.08,3c0,0,9.29-2.16,11.65-5,.64-.78,0-5.94-1.6-11.48,0,0,.52-9.89.9-12.43.22-1.41-.42-6.58-5.26-3.72l-2.68,1.64Z"/><path class="cls-67" d="M41.62,30a9.75,9.75,0,0,0,8-.85s3.32-2.09,1.81-3.52C51.42,25.58,43.29,28.7,41.62,30Z"/><g class="cls-68"><path class="cls-69" d="M43.8,59.11s-1.74-5.32-.28-13.39c2.07-11.49.86-13.19.3-14.17-.19-.34.15-1.21,1.83-.69s5.68-1,6.48-3.77c0,0,.61-1.71,1.27-.28s.79,4.52.53,6.88-.8,8.55-.8,9.49.92,5.12.92,6.28v4.61S52,56.74,43.8,59.11Z"/></g><path class="cls-70" d="M54.78,29.89s0,6,.07,6.76a30.58,30.58,0,0,1-.35,3.65c0,.27-.65,2.28-.65,2.28s.2-4.76.2-6.34C54.05,34.26,54.78,30.49,54.78,29.89Z"/><path class="cls-29" d="M44.45,28.86s2.6,1.28,4.76-2.48l-.52-.9L48.48,25l-2.93-4.86a25.84,25.84,0,0,1-.3,5.27A11.1,11.1,0,0,1,44,27.23,2.77,2.77,0,0,1,44.45,28.86Z"/><path class="cls-37" d="M44.37,30.41s1-2,4.61-5.14l-5.22,1.84A4,4,0,0,1,44.37,30.41Z"/><path class="cls-35" d="M39.67,17.89s-.87,2.15-.43,3.22a14.37,14.37,0,0,1,.67,1.77c.09.42-.1.69,0,1.05s1.52,3.77,2.83,3.5,3.42.76,6.42-3.83c0,0,2-4.4-1.23-7.59C47.91,16,44,12.92,39.67,17.89Z"/><path class="cls-29" d="M39.2,20.39A4.65,4.65,0,0,1,40.43,22c.2.77.13,2.11.65,2.41s1.24.35,1.77,1a4.54,4.54,0,0,1,1.07,1.89s2.64.06,2.89-1.33l-1.69-4.27-2.21-2.61L39.2,20.33Z"/><path class="cls-43" d="M49.56,18.22c.49,1.61,0,6-.79,7.37a2.94,2.94,0,0,1-2.58,1.15c-1.83-.39-.66-3.82-2.95-3.92a1.25,1.25,0,0,0-1.16,1.57,1.82,1.82,0,0,1-1-2.06,1.93,1.93,0,0,0-1-2.23c-.6-.33-.69-.15-.91.22s-1.4-1.67,0-3.13C41.51,14.86,47.76,12.23,49.56,18.22Z"/><path class="cls-71" d="M44.46,23.5s5,.51,5.29-3.91c0,0,.5,5.78-1.92,6.8A1.7,1.7,0,0,1,45,25.1Z"/><path class="cls-72" d="M40.61,20.52s7.29-.74,8.31-3.8a2.43,2.43,0,0,0-.56-.79s.73,3.48-7.75,4.59Z"/><path class="cls-72" d="M47.43,18.16c-1.25,1.25-5.6,2.49-7.61,2.37-1.64-.09-1.8-1.78-.91-2.93.08.63-1.15,2.92,2.6,2.14.12,0-.58-.33-.84-.55,0,0,2.25.66,2.61-.07.08-.16-.2-.34-.47-.51.4-.05,1.68.21,2,0s-.94-.73-.94-.73,2.27.36,2.46-.17c.05-.15-.24-.33-.48-.4,1-.36,2.44-.45,2.56-1.13,0,0,0,0,0,0A2.75,2.75,0,0,1,47.43,18.16Z"/><path class="cls-44" d="M41,21s6.4.54,8.61-2.56a3.8,3.8,0,0,0-.7-1.71s-.72,2.84-8.25,3.8Z"/><path class="cls-44" d="M41,21s6.7-.89,8.34-3.38a8.26,8.26,0,0,1,.3,1,2,2,0,0,1-.69,2.1,1,1,0,0,0-.09-1.32S49,20.61,48.36,21c0,0,.08-.6-.27-.73,0,0-.14,1-.63,1.24,0,0,.38-1.24-.1-1.42a1.65,1.65,0,0,1-.81,1.8s.29-.76-.27-1c0,0-.07,1.07-.76,1.26,0,0,.1-.84-.17-1.14a1.72,1.72,0,0,1-.68,1.17s.06-.84-.29-1a1.64,1.64,0,0,1-1.05,1.25s.54-1.1-.17-1.39A10.29,10.29,0,0,0,41,21Z"/><path class="cls-73" d="M47.59,15.26s-2.48-2.09-7.11.9c0,0,1.64-.49,2.29-.66s-.42.52-1,.82a21.65,21.65,0,0,0,2.55-.79c.81-.22,2.31-.33,1.35.09S47.38,15.13,47.59,15.26Z"/><path class="cls-74" d="M43.24,27.44l-.79,1.95s2.75,1.94,6.53-.45c.6-.38,2.24-1,.18-2.78C49.16,26.16,47.85,29.21,43.24,27.44Z"/><path class="cls-75" d="M49.16,25.9s2.86,1.5-.59,3.56a6.63,6.63,0,0,1-4.73.48s3.1-.53,2.85-2A4.17,4.17,0,0,0,49.16,25.9Z"/><path class="cls-56" d="M31.4,42c-.88.09-1.49-.65-1.76-.84a1.29,1.29,0,0,0-.86-.23c-.78,0-1.15,0-1.37.26-1.22,1.47-1.3,2.94-1.12,3.1a1.78,1.78,0,0,1,1.12-.06c.34.13.62.43,1,.53s1.72-.1,2.43-.08Z"/><path class="cls-42" d="M26.24,43.67a.68.68,0,0,0,.05.64c.27.3.71-.23,1.12-.06s.62.43,1,.53,1.72-.1,2.43-.08l.07-.34-1.21,0c-1,.09-1-.57-1.29-.69a2.65,2.65,0,0,0-1-.25A3,3,0,0,0,26.24,43.67Z"/><path class="cls-66" d="M42.71,30.21a3.35,3.35,0,0,1,1.81,2.37,21.57,21.57,0,0,1,0,2.45c.26,6.5-2,9.8-2,9.8.18-.35-.1.21-.19.36a10.2,10.2,0,0,1-1,1.59,2.59,2.59,0,0,1-1.75.84c-.85-.71.08-3.34-.61-3.69h0c-.43.55-1.7,1.64-1.66,1a43,43,0,0,0,1.17-4.8c.23-2.21.67-5.44,1-7C40,30.45,41.83,29.81,42.71,30.21Z"/><path class="cls-66" d="M42.34,40.71c-.51.37-.48,3-.56,3.3-.29,1-1.18,3.16-2.12,3.61-2.2,1-10.27-2.54-10.27-2.54-.08-2,.6-2.43.6-2.43a1.58,1.58,0,0,1,.86-.9,42.72,42.72,0,0,0,6.35,1.43C39.1,43.32,43,40.25,42.34,40.71Z"/><path class="cls-76" d="M30,42.65a1.58,1.58,0,0,1,.86-.9,42.72,42.72,0,0,0,6.35,1.43,2.73,2.73,0,0,0,.68-.06,24.88,24.88,0,0,0,.66-3c.23-2.21.67-5.44,1-7,.49-2.65,2.32-3.29,3.2-2.89a2.56,2.56,0,0,1,1.64,1.68,5.2,5.2,0,0,1,.23,1.72c-.27,6.17-2.78,9.14-3,9.46,0-.1.07-.14,0,0l0,0a3.29,3.29,0,0,1-.2.38,10.18,10.18,0,0,1-1,1.6,2.55,2.55,0,0,1-1.75.83c-1.7.81-6.94-1.16-9.21-2.08A1.75,1.75,0,0,1,30,42.65Z"/><path class="cls-77" d="M199.06,42.68c-.72,1-.28,1.75.1,2.53a10,10,0,0,0,2.4,3c1.73,1.59,5.13,5.73,5.13,5.73a2.15,2.15,0,0,0,.44.34l1.12.68A2,2,0,0,0,210.6,54v0c.36-.58.76,0,.36-.58A32.38,32.38,0,0,0,208.91,50c-1.52-2-3.81-4.94-5-6.34C201.85,41.35,199.68,41.79,199.06,42.68Z"/><path class="cls-78" d="M209.92,91.51a11.94,11.94,0,0,0-.34,3.63l2,1.13.06-.36A7.46,7.46,0,0,0,216,98.69c2.62.35,3.91-.69,2.72-1.9s-1.91-1.36-2.63-2.19a3,3,0,0,1-1-2C215.09,92,209.92,91.51,209.92,91.51Z"/><path class="cls-79" d="M209.58,95.14l2,1.13.06-.36s3.32,4.24,7.25,2.38c0,0-4.77.8-7-2.68l-.32-.19-.27.31-1.78-1.11Z"/><path class="cls-80" d="M215,93.85a12.41,12.41,0,0,0,2.53,2.24c1,.45,1.42,1.28.78,1.36s-2.54.44-5.21-2.62A4.36,4.36,0,0,0,215,93.85Z"/><path class="cls-78" d="M203.77,94.14a12,12,0,0,0-.33,3.62l2,1.13.06-.36a7.46,7.46,0,0,0,4.41,2.78c2.62.35,3.9-.69,2.71-1.9s-1.9-1.36-2.62-2.19-1-1.33-1-2S203.77,94.14,203.77,94.14Z"/><path class="cls-79" d="M203.44,97.76l2,1.13.06-.36s3.31,4.25,7.24,2.38c0,0-4.77.81-7-2.67l-.32-.19-.27.31-1.78-1.11Z"/><path class="cls-80" d="M208.81,96.48a12.12,12.12,0,0,0,2.53,2.24c.95.45,1.41,1.27.78,1.36s-3.25-.24-5.92-3.3A2.66,2.66,0,0,0,208.81,96.48Z"/><path class="cls-81" d="M196.53,65.25s-.9,4.65,1.95,6.07,5.92,4.53,10.84,5.67c0,0-.73,11.81-.31,16.71,0,0,2.26,1.27,6.19-.68,0,0,1.34-16.26.55-19.69C215.2,71,205.51,65.77,202.88,65A9.26,9.26,0,0,0,196.53,65.25Z"/><path class="cls-81" d="M190.23,67s-1.18,5.49,1.67,6.91,9.07,4,11.6,5.54c0,0-1,10.83-.14,15.69,0,0,1.63,2.74,5.55.79,0,0,1.81-16.71,1-20.14-.54-2.37-10.24-7.56-12.87-8.35C197.06,67.44,193.2,65.55,190.23,67Z"/><path class="cls-82" d="M209.93,75.79c.68,3-.67,16.72-1,20.14a6.2,6.2,0,0,1-1.49.55,11,11,0,0,1-1.87.08c.56-4.86,2.46-15.49.65-19-1.34-2.58-8.81-5.1-11.67-6.51-2.15-1.07-.59-2.88-.39-4.49a11.45,11.45,0,0,1,2.92.88C199.69,68.23,209.39,73.42,209.93,75.79Z"/><path class="cls-83" d="M209.93,75.79c.66,2.85-.56,15.61-1,19.66l0,.23c-.83-4.85.2-15.78-1.62-19.29-1.34-2.58-8.59-4.9-11.44-6.31-1.63-.81-1.13-2-.7-3.3a10.46,10.46,0,0,1,1.88.66C199.69,68.23,209.39,73.42,209.93,75.79Z"/><path class="cls-82" d="M215.91,73.44c.69,3-.36,16.16-.71,19.58a11.78,11.78,0,0,1-1.8.72l-1.2.27c.21-6.26,1.8-15.29,0-18.8-1.33-2.57-8.81-5.09-11.67-6.51-2.15-1.07-.59-2.88-.39-4.49a11.61,11.61,0,0,1,2.93.88C205.67,65.88,215.37,71.07,215.91,73.44Z"/><path class="cls-83" d="M215.91,73.44c.66,2.85-.21,14.4-.62,18.46L215.2,93c-.82-4.86-.08-15.47-1.9-19-1.33-2.57-8.58-4.9-11.44-6.31-1.63-.81-1.13-2-.7-3.3a10.4,10.4,0,0,1,1.89.66C205.67,65.88,215.37,71.07,215.91,73.44Z"/><path class="cls-84" d="M198.93,42.77s4.8-1.83,4.48,11.72c0,0-.11,8.08.63,10s.33,1.37-.12.8-.85,2.45-8.28,3.41c-2.38.3-2.92,2.63-5.87,1.9,0,0-.86-.64-.86-1.32,0-1.41,2.71-7.12,2-11.12-.65-3.64-3.24-7.84-2.55-10.14C188.35,48,192,41.59,198.93,42.77Z"/><path class="cls-85" d="M196.35,42.87s4.13-3,5.92,10.41a67.14,67.14,0,0,1,.17,15s2.56-.39,3.08-1.49c.29-.62-2.61-4.68-2-13C203.54,53.8,205.54,38,196.35,42.87Z"/><path class="cls-86" d="M196.73,42.07S202,40.51,203,50l-.8.85,1.15.4s0,6.3-.6,13.23c0,0-.65-10.06-2.18-16.18C200.52,48.25,199.92,43.8,196.73,42.07Z"/><path class="cls-85" d="M193.59,43.12s.33.05.08.2c-1.15.65-2.13,1.17,2,7.25,0,0,5.26,12.71,1.18,21.65,0,0-5.14,1.18-8.17-2.34-.65-.75,1.72-4.53,1.94-8.47s-.84-6-3.14-11.85c0,0-.3-2.47,3.64-4.29C193.61,44.15,193.59,43.12,193.59,43.12Z"/><path class="cls-87" d="M195.7,50.57s5.26,12.71,1.18,21.65l-.16,0a7.29,7.29,0,0,1-4.36-2.39c-.65-.75.41-4.51.63-8.45s-2.27-8.78-4.57-14.6c0,0,.89-1.69,4.69-2.82C192.71,45.13,188.23,42.91,195.7,50.57Z"/><path class="cls-85" d="M191.2,43.84c-.8.54-3.29,2.6-3.6,3.43-.5,1.32,2.52,2.73,7.25,9.68,2.26,3.32,1.73,9.1-2,15.26a9,9,0,0,0,4.05,0s4.07-9.71,0-17.49c-8.19-15.64,0-11.83,0-12.62C196.86,42.14,194.42,41.68,191.2,43.84Z"/><g class="cls-38"><path d="M194.42,47.51s4.09,11.59,3.73,20.27C198.15,67.78,202,54.11,194.42,47.51Z"/></g><path class="cls-77" d="M198.7,43.81s-4.28-2.18-6.85,1.34c0,0-1.88-1.67,2-3.3a7.85,7.85,0,0,1,4.55.22Z"/><path class="cls-88" d="M199.07,43.27A2.78,2.78,0,0,0,198,45.71s-3.13,2-4.72-1.84c0,0,.85-1.26-.7-5.11Z"/><path class="cls-89" d="M198.29,44s-3.31-.7-5-.17a5.66,5.66,0,0,0-.16-3.41,5.59,5.59,0,0,1-1.64-4.9,3.65,3.65,0,0,1,3.23-3.16S190.55,39,198.29,44Z"/><path class="cls-89" d="M200.73,36.51c0,.44-.53.54.29,2.3.5,1.08.31,1.11-.06,3-.2,1.1-.72,3.43-4.29,1.7,0,0-3.52-2.42-4.58-4.53a4.79,4.79,0,0,1,.75-6S200.6,30.07,200.73,36.51Z"/><path class="cls-90" d="M200.66,35.64a8.53,8.53,0,0,1-3,1.5s-1.66,0-1.66.59a5.48,5.48,0,0,0,.8,2.33,7.29,7.29,0,0,1,1.34,2.33c0,.31.52,1.68,1.39,1.68,0,0-2.18.87-5.38-2.54,0,0-2.61-2.49-2.61-3s3.23-2.26,4.12-2.63,4.61-1.75,4.61-1.75S200.63,35.37,200.66,35.64Z"/><path class="cls-43" d="M200.47,34.35c.09,1.2-2.68,2-4.52,2.33-.69.14-1.16.7-.49,2.57s-.48,2.16-.57,1.82c-.39-1.53-2.12-2.69-1.64-.22,0,0-3.88-3.45-2.7-6.23.76-1.82,3.07-3.83,7.64-2.57C199,32.26,200.37,33,200.47,34.35Z"/><path class="cls-43" d="M195.46,39.25c.67,2-.53,2-.53,2-.39-1.8-2.19-2.45-1.68-.38,0,0-3.88-3.45-2.7-6.23a4.62,4.62,0,0,1,2.06-2.27c-2.27,4.08,1.83,3.75,2.89,4.47C195.09,37.11,195,37.82,195.46,39.25Z"/><path class="cls-44" d="M195.18,38.27s-.85-.66-.85.19a1.41,1.41,0,0,1-.71-1.17s-.62.09-.62.93c0,0-.78-.64-.57-1.38a2.41,2.41,0,0,0-.67,1.43s-.91-1.12-.71-1.85c0,0-.34.06-.34,1a3,3,0,0,1,.16-3.45s0,2.2,4.63,2.83A2.15,2.15,0,0,0,195.18,38.27Z"/><path class="cls-91" d="M193.62,39.56s-1.7,0-2.23-.89a14.88,14.88,0,0,0,1.86,2.18S192.82,39.56,193.62,39.56Z"/><path class="cls-39" d="M190.87,34s.13,2.35,4.63,2.83c0,0,3.78-.1,4.92-2.14a1.2,1.2,0,0,0-.18-1.13s0,1-.63,1.24c0,0,.24-.57,0-.8a2.28,2.28,0,0,1-1.15,1.2.68.68,0,0,0-.17-.78A2.78,2.78,0,0,1,196.35,36a1.32,1.32,0,0,0,.46-.83s-1.23,1.05-2.2.81c0,0,.79-.37.79-.81,0,0-1.59.66-2.53,0a1.24,1.24,0,0,0,.95-.4S191.35,35,190.87,34Z"/><path class="cls-73" d="M191.55,33.15s2.69-2.89,7.52-.73c0,0-2-.26-2.7-.26s.55.38,1.19.52a21.72,21.72,0,0,1-2.73-.1c-.86,0-2.37.28-1.31.43S191.73,33,191.55,33.15Z"/><path class="cls-86" d="M193.35,42.56h0c-3.86.83-2.24,3.77,1.53,10.8h1.23l-.7,1.26s3,6.3,3,10.88c0,0,2.28-9.31-2.35-15.8C194.93,48.15,193,47,193.35,42.56Z"/><g class="cls-8"><polygon class="cls-48" points="208.27 52.44 206.94 51.66 206.98 65.08 208.31 65.86 208.27 52.44"/><polygon class="cls-17" points="214.78 49.14 213.06 48.13 206.94 51.66 208.27 52.44 214.78 49.14"/><polygon class="cls-49" points="208.27 52.44 208.31 65.86 214.82 62.56 214.78 49.14 208.27 52.44"/></g><g class="cls-8"><polygon class="cls-50" points="202.09 56.01 200.76 55.24 200.8 68.66 202.13 69.43 202.09 56.01"/><polygon class="cls-17" points="208.21 52.48 206.88 51.71 200.76 55.24 202.09 56.01 208.21 52.48"/><polygon class="cls-51" points="202.09 56.01 202.13 69.43 208.25 65.9 208.21 52.48 202.09 56.01"/></g><g class="cls-8"><polygon class="cls-52" points="209.15 52.31 208.76 52.09 208.8 65.41 209.18 65.63 209.15 52.31"/><polygon class="cls-53" points="215.2 48.82 214.81 48.6 208.76 52.09 209.15 52.31 215.2 48.82"/><polygon class="cls-54" points="209.15 52.31 209.18 65.63 215.23 62.14 215.2 48.82 209.15 52.31"/></g><g class="cls-8"><polygon class="cls-52" points="202.04 56.4 201.66 56.18 201.69 69.49 202.08 69.71 202.04 56.4"/><polygon class="cls-53" points="208.09 52.91 207.71 52.69 201.66 56.18 202.04 56.4 208.09 52.91"/><polygon class="cls-54" points="202.04 56.4 202.08 69.71 208.13 66.22 208.09 52.91 202.04 56.4"/></g><g class="cls-8"><polygon class="cls-52" points="207.6 52.9 207.47 52.82 207.5 66.37 207.64 66.45 207.6 52.9"/><polygon class="cls-53" points="210.04 51.48 209.91 51.41 207.47 52.82 207.6 52.9 210.04 51.48"/><polygon class="cls-55" points="207.6 52.9 207.64 66.45 210.08 65.03 210.04 51.48 207.6 52.9"/></g><path class="cls-92" d="M212.46,55.54a.47.47,0,0,1-.44-.29s0-.25,1-.36a7.23,7.23,0,0,0,2-.69,2.83,2.83,0,0,0,.11-1.21c0-.5.5.89.56.85s.31.19.36,1.28a2.85,2.85,0,0,1-.29,1.34,6.9,6.9,0,0,1-.75.47,2.52,2.52,0,0,1-1.19.22c-.36,0-.9.1-1.06-.29,0,0,.06-.1.72-.21a.69.69,0,0,1-.2,0c-.16,0-.74,0-1-.26,0,0-.1-.12.14-.25a.84.84,0,0,1-.49-.23S211.87,55.67,212.46,55.54Z"/><path class="cls-92" d="M202.14,63.89a7.8,7.8,0,0,1-2.23-.24,3,3,0,0,1-1.24-.86l-1.45-.36-.41-1.77a6.48,6.48,0,0,1,1.43,0c.36.09,2.15.4,2.41.5s0,1,.52.9c.08,0,.13.34.15.41s.33-.05.39.09C201.92,63.06,202.3,63.68,202.14,63.89Z"/><path class="cls-92" d="M199.8,60.92c.06,0,.77-.51.95-.12s-.17.83,1.36,1.29c.12,0,.29.23,1.24-.06s.86,0,.86,0c-.08.27-.54.46-.65.54a3.26,3.26,0,0,1-1,.47,2.6,2.6,0,0,1-.73.16Z"/><path class="cls-92" d="M202.16,62.68a4.22,4.22,0,0,0,1.07-.18c1-.26.86,0,.86,0-.09.28-.55.45-.67.53a3.07,3.07,0,0,1-1,.43,2.57,2.57,0,0,1-.73.14Z"/><path class="cls-92" d="M202.08,63.27c.52-.11,0,.23.89,0s.93-.16.93-.16c0,.37-.45.47-.73.58a2.15,2.15,0,0,1-1,.22s-.53,0-.87,0Z"/><path class="cls-92" d="M200.72,61.76a15.44,15.44,0,0,0,2.34-.15c.83-.24.95-.06.95-.06,0,.36-.45.46-.74.57a2.11,2.11,0,0,1-1,.22s-.54,0-.88,0Z"/><path class="cls-93" d="M187.28,47c-2.18,1.6-2.48,10.55-.89,13.41.51.91,4.69-.23,5-.45,0,0,1.14-7.83-.43-11.44C191,48.53,190,45,187.28,47Z"/><path class="cls-93" d="M186.32,60.54c.88,1.37,11.37,4.14,11.66,4.22.74.2,1.6-4.22,1.39-4.54.77.51-8.38-3.17-10.46-3C188.91,57.2,184.64,57.93,186.32,60.54Z"/></g></g></svg>