<svg xmlns="http://www.w3.org/2000/svg" viewBox="0 0 156.41 160.94"><defs><style>.cls-1{opacity:0.2;}.cls-2{fill:#181a18;}.cls-3{fill:#ffdba7;}.cls-10,.cls-11,.cls-12,.cls-13,.cls-14,.cls-15,.cls-16,.cls-17,.cls-18,.cls-19,.cls-20,.cls-21,.cls-22,.cls-23,.cls-24,.cls-25,.cls-26,.cls-27,.cls-28,.cls-29,.cls-3,.cls-30,.cls-31,.cls-4,.cls-5,.cls-6,.cls-7,.cls-8,.cls-9{fill-rule:evenodd;}.cls-4{fill:#084478;}.cls-5{fill:#032747;}.cls-6{fill:#05345e;}.cls-7{fill:#929190;}.cls-8{fill:#d1d2d2;}.cls-9{fill:#e4eced;}.cls-10{fill:#f7fcfc;}.cls-11{fill:#c5d7d9;}.cls-12{fill:#a9cce8;}.cls-13{fill:#087872;}.cls-14,.cls-32{fill:#120878;}.cls-15{fill:#c6def2;}.cls-16{fill:#f0c17d;}.cls-17{fill:#1c3347;}.cls-18{fill:#365a78;}.cls-19{fill:#234159;}.cls-20{fill:#406a8c;}.cls-21{fill:#632404;}.cls-22{fill:#d8ecfc;}.cls-23{fill:#9dafb0;}.cls-24{fill:#041d33;}.cls-25{fill:#d0dbdf;}.cls-26{fill:#08355c;}.cls-27{fill:#25232b;}.cls-28{fill:#33303b;}.cls-29{fill:#afc6c7;}.cls-30{fill:#331202;}.cls-31{fill:#c1d8d9;}</style></defs><g id="Camada_2" data-name="Camada 2"><g id="icons"><g class="cls-1"><path class="cls-2" d="M133.32,83.61c30.64,17.69,30.8,46.37.36,64.06s-80,17.69-110.6,0-30.8-46.37-.35-64.06S102.68,65.92,133.32,83.61Z"/></g><path class="cls-3" d="M95.58,14.13c.94,2.09,2,2.92,2,4.51a45.34,45.34,0,0,0,.23,6.44l-1.78.66-1.69-1.11-.62-10Z"/><polygon class="cls-4" points="96.22 101.52 100.09 99.27 100.1 95.31 96.23 97.56 96.22 101.52"/><polygon class="cls-5" points="96.23 97.56 100.1 95.31 87.45 88.01 83.58 90.25 96.23 97.56"/><polygon class="cls-6" points="83.58 90.25 83.57 94.22 96.22 101.52 96.23 97.56 83.58 90.25"/><polygon class="cls-7" points="94.4 57.82 92.12 56.49 89.81 57.82 92.1 59.15 94.4 57.82"/><polygon class="cls-6" points="92.1 59.15 91.48 74.05 92.2 94.35 94.5 93.02 94.4 57.82 92.1 59.15"/><polygon class="cls-5" points="92.1 59.15 89.81 57.82 89.91 93.02 92.2 94.35 92.1 59.15"/><polygon class="cls-4" points="48.48 129.16 52.35 126.91 52.36 122.94 48.5 125.19 48.48 129.16"/><polygon class="cls-5" points="48.5 125.19 52.36 122.94 39.71 115.64 35.84 117.89 48.5 125.19"/><polygon class="cls-6" points="35.84 117.89 35.83 121.85 48.48 129.16 48.5 125.19 35.84 117.89"/><polygon class="cls-6" points="44.6 86.78 43.33 103.7 44.7 121.98 47.01 120.65 46.91 85.45 44.6 86.78"/><polygon class="cls-5" points="44.6 86.78 42.32 85.46 42.42 120.66 44.7 121.98 44.6 86.78"/><polygon class="cls-7" points="46.91 85.45 44.62 84.13 42.32 85.46 44.6 86.78 46.91 85.45"/><polygon class="cls-6" points="39.48 87.15 36.37 85.34 36.38 88.61 39.49 90.41 39.48 87.15"/><polygon class="cls-5" points="97.56 53.77 94.46 51.96 36.37 85.34 39.48 87.15 97.56 53.77"/><polygon class="cls-4" points="39.48 87.15 39.49 90.41 97.57 57.03 97.56 53.77 39.48 87.15"/><polygon class="cls-8" points="95.87 4.66 94.63 3.93 38.12 36.71 39.36 37.43 95.87 4.66"/><polygon class="cls-9" points="39.36 37.43 38.12 36.71 38.26 85.54 39.5 86.26 39.36 37.43"/><polygon class="cls-10" points="39.36 37.43 39.5 86.26 96.01 53.48 95.87 4.66 39.36 37.43"/><path class="cls-11" d="M45.74,42.92l-1,.55V44l1-.56v-.56Zm4.58,31.69V73.5l-.48.27v1.11l.47-.27Zm0-2.2V71.3l-.47.27v1.11l.47-.27Zm0-2.21V69.1l-.47.28v1.09l.47-.27Zm0-2.2V66.9l-.47.27v1.1L50.3,68Zm0-2.2V64.69l-.47.27v1.11l.47-.27Zm0-2.2V62.49l-.47.28v1.1l.47-.27Zm0-2.21v-1.1l-.47.28v1.09l.47-.27Zm0-2.2V58.08l-.47.27v1.11l.47-.27Zm0-2.2V55.88l-.47.27v1.11l.47-.27Zm0-2.2V53.68l-.47.28v1.1l.47-.27Zm0-2.21v-1.1l-.47.28v1.09l.47-.27Zm0-2.17V49.32l-.47.27v1.09l.47-.27Zm0-2.2v-1.1l-.47.27v1.11l.47-.28Zm0-2.2v-1.1l-.48.27v1.11l.47-.28Zm0-2.21V42.71l-.47.27v1.09l.47-.27Zm0-2.2V40.5l-.47.27v1.11l.48-.28Zm0-2.2V38.3l-.48.27v1.11l.47-.28Zm0-3.3-.47.27v1.09l.47-.27V36.1ZM56.65,71v-1.1l-.46.26v1.11l.46-.27Zm0-2.2v-1.1l-.46.26V69l.46-.27Zm0-4.41V63.25l-.46.26v1.1l.46-.27Zm0-2.2V61l-.46.26v1.11l.47-.27Zm0-4.41V56.64l-.46.26V58l.46-.27Zm0-2.2v-1.1l-.46.26V55.8l.47-.27Zm0-2.2v-1.1l-.46.26V53.6l.46-.27Zm0-4.41V47.83l-.46.26v1.1l.46-.27Zm0-2.16v-1.1l-.46.27V47l.46-.26Zm0-4.4V41.25l-.46.27v1.1l.46-.26Zm0-2.21v-1.1l-.46.27v1.09l.46-.26ZM56.22,37l-.13.08v1.1l.46-.26v-.71l.61-.36v-.56l-1,.54V37Zm.33-1.28V34.64l-.46.27V36l.46-.26Zm0-3.31-.46.27V33.8l.46-.26v-1.1ZM63,67.27v-1.1l-.46.26v1.11l.46-.27Zm0-2.19V64l-.46.26v1.11l.46-.26Zm0-2.22V61.77l-.47.27v.56l-.53.31v.57l1-.55v0l0,0Zm0-2.2V59.57l-.46.27v1.09l.46-.27Zm0-2.2v-1.1l-.46.27v1.1l.46-.27Zm0-4.41V53l-.46.27v1.09l.46-.27Zm0-2.2v-1.1l-.46.27v1.1l.46-.27Zm0-6.61V44.15l-.46.27v1.09l.46-.27Zm0-2.16V42l-.46.27v1.1l.46-.27Zm0-4.4V37.57l-.46.27v1.1l.46-.26Zm0-2.21v-1.1l-.46.27v1.1l.46-.27Zm0-4.4V31l-.46.27v1.11l.46-.27Zm0-3.31-.46.27v1.09l.46-.26v-1.1ZM69.39,63.6V62.49l-.5.29v1.1l.5-.28Zm0-2.2V60.29l-.5.29v1.1l.51-.28Zm0-2.22V58.09l-.51.29v1.09l.5-.29Zm0-2.19v-1.1l-.5.29v1.09l.5-.28Zm0-2.2V53.68l-.5.29v1.11l.5-.29Zm0-2.2V51.48l-.5.29v1.11l.5-.29Zm0-2.21v-1.1l-.5.29v1.1l.51-.29Zm0-2.2V47.07l-.51.29v1.11l.5-.29Zm0-2.2V44.87l-.5.29v1.11l.5-.29Zm0-2.2V42.67l-.5.29v1.11l.51-.29Zm0-2.21v-1.1l-.5.29v1.1l.5-.29Zm0-2.17V38.31l-.5.28v1.1l.5-.29Zm0-2.2V36.1l-.5.29v1.1l.5-.29Zm0-2.2V33.9l-.5.28v1.11l.5-.29Zm0-2.21V31.7l-.5.29v1.09l.5-.29Zm0-2.2V29.48l-.5.29v1.11l.5-.29Zm0-2.2v-1.1l-.5.29v1.1l.5-.29Zm0-3.3-.5.29v1.09l.51-.29V25.09Zm6.44,34.85V58.83l-.46.27v1.11l.46-.27Zm0-2.2v-1.1l-.46.26V58l.46-.27Zm0-2.74v-.56l-.46.26v1.1l.1-.06v0l1-.55v-.57l-.59.34Zm0-1.67v-1.1l-.46.27v1.1l.47-.27Zm0-2.2V50l-.47.27V51.4l.46-.27ZM75.33,48l-.1.06V49.2l.46-.27v-.71l.59-.34v-.54l-1,.55V48Zm.36-1.31V45.63l-.46.26V47l.47-.27Zm0-2.2V43.41l-.46.27v1.11l.46-.27Zm0-2.2v-1.1l-.46.26v1.11l.46-.27Zm0-2.2V39l-.46.26v1.11l.46-.27Zm0-2.21V36.82l-.46.26v1.1l.46-.27Zm0-2.16v-1.1l-.46.27V36l.47-.26Zm0-4.4V30.24l-.46.27v1.1l.46-.26Zm0-2.22V28l-.46.27V29.4l.47-.27Zm0-4.39V23.63l-.46.27V25l.46-.26Zm0-3.31-.46.27v1.09l.46-.27V21.43ZM88.44,52.6V51.5l-.46.26v1.11l.47-.27Zm0-2.2V49.3l-.47.26v1.11l.46-.27Zm0-2.21V47.1l-.46.26v1.1l.46-.27Zm0-2.2V44.9l-.46.26v1.1l.46-.27Zm0-2.2v-1.1L88,43v1.11l.46-.27Zm0-2.2v-1.1l-.46.26v1.11l.46-.27Zm0-2.21V38.29l-.47.26v1.1l.46-.27Zm0-2.2v-1.1l-.46.26v1.11l.46-.27Zm0-2.2v-1.1l-.46.26v1.11l.47-.27Zm0-2.2v-1.1l-.46.26v1.11l.46-.27Zm0-2.21V29.48l-.46.26v1.1l.46-.27Zm0-2.16v-1.1l-.47.27v1.09l.46-.26Zm0-2.2V25.1l-.46.27v1.1l.46-.26Zm0-2.2V22.9l-.46.27v1.1l.47-.26Zm0-2.21V20.7l-.46.27v1.09l.46-.26Zm0-2.2V18.49l-.46.27v1.1l.46-.26Zm0-2.2V16.29l-.46.27v1.1l.46-.26Zm0-3.31-.46.27v1.09l.46-.26v-1.1ZM82.09,56.26v-1.1l-.49.28v1.1l.49-.28Zm0-2.2V53l-.49.28v1.11l.49-.29Zm0-2.21V50.76l-.49.28v.56l-.53.31v.58l1-.56v0l.06,0Zm0-2.2V48.56l-.49.28v1.1l.5-.29Zm0-2.2v-1.1l-.49.28v1.1l.49-.28Zm0-4.41V42l-.49.28v1.1l.49-.29Zm0-2.2v-1.1l-.49.28v1.1l.49-.28Zm0-6.61V33.14l-.49.28v1.1l.49-.29Zm0-2.16V31l-.49.29v1.09l.49-.28Zm0-4.4V26.56l-.49.28V28l.49-.28Zm0-2.21v-1.1l-.49.29v1.09l.49-.28Zm0-4.4V20l-.49.28v1.11l.5-.28Zm0-3.31L81.5,18v1.09l.49-.28v-1.1ZM93.46,45.33v-.58l-1,.55v.58l.95-.55Zm-1.91,1.1v-.57l-.92.53V47l.93-.54Zm-1.89,1.09V47l-1,.55v.58l1-.56Zm-1.91,1.11v-.58l-1,.56v.57l1-.55Zm-1.89,1.09v-.58l-1,.55v.58l1-.55Zm-1.92,1.11v-.58l-1,.55v.58l1-.55ZM80.14,53v-.58l-1,.56v.57l1-.55Zm-1.92,1.1v-.57l-1,.55v.58l1-.56Zm-3.81,2.2v-.57l-1,.55v.57l1-.55ZM72.5,57.43v-.58l-1,.56V58l1-.55Zm-1.91,1.1V58l-1,.55v.58l1-.56ZM68.7,59.62v-.57l-1,.55v.58l1-.56Zm-1.92,1.11v-.57l-1,.55v.57l1-.55Zm-1.91,1.11v-.58l-.93.54v.58l.94-.54ZM61.07,64v-.57l-1,.55v.58l1-.56Zm-1.93,1.11v-.57l-.92.53v.57l.92-.53ZM56.3,66.73v0l1-.55v-.58l-.62.36v-.56l-.47.26v1.1l.12-.08Zm-1,.6v-.57l-1,.55v.58l1-.56Zm-1.91,1.11v-.57l-.94.53V69l.93-.54Zm-1.89,1.09V69l-1,.56v.57l1-.55Zm-1.92,1.11v-.58l-.95.55v.58l.95-.55Zm-1.91,1.1v-.57l-.93.54v.57l.94-.54Zm-1.89.52-1,.55v.58l1-.56v-.57ZM93.44,38v-.54l-1,.55v.54l1-.55Zm-1.92,1.11v-.54l-.92.53v.54l.92-.53Zm-1.88,1.09v-.55l-1,.56v.54l1-.55Zm-1.92,1.1v-.54l-1,.56v.54l1-.56Zm-1.88,1.09v-.54l-1,.55v.54l1-.55Zm-1.92,1.11v-.54l-1,.55V44l1-.55ZM82,44.18V44l-1,.56v.54l.53-.3v.71l.49-.29v-1.1l-.06,0Zm-1.88,1.48v-.54l-1,.56v.54l1-.56ZM78.2,46.77v-.54l-1,.55v.54l1-.55ZM74.39,49v-.54l-1,.55v.54l1-.55Zm-1.91,1.1v-.54l-1,.56v.54l1-.56Zm-1.91,1.11v-.54l-1,.55v.54l1-.55Zm-1.89,1.09v-.55l-1,.56v.54l1-.55Zm-1.92,1.11v-.54l-1,.55v.54l1-.55Zm-1.92,1.1v-.54l-.93.54V55l.93-.54Zm-1.88.7V55l-1,.56v.54l.53-.31v.71l.46-.27v-1.1l0,0Zm-1.91,1.5v-.55l-1,.56v.54l1-.55Zm-1.93,1.11v-.54l-.92.53v.54l.92-.53Zm-1.88,1.09v-.55l-.95.55V59l-.13.07v1.11l.46-.27v-.71l.62-.35ZM55.32,60v-.54l-1,.56v.54l1-.56Zm-1.91,1.1v-.54l-.94.54v.54l.93-.54Zm-1.89,1.09v-.54l-1,.56v.54l1-.56ZM49.6,63.29v-.55l-1,.55v.54l1-.54Zm-1.92,1.1v-.54l-.93.54v.54l.93-.54Zm-1.88.55-1,.55V66l1-.55v-.54ZM93.42,30.65v-.57l-1,.55v.57l1-.55ZM91.5,31.76v-.58l-.92.54v.57l.92-.53Zm-1.88,1.09v-.58l-1,.56v.57l1-.55ZM87.71,34v-.57l-1,.55v.58l1-.56ZM85.82,35v-.58l-1,.56v.57l1-.55Zm-1.93,1.11v-.58l-1,.56v.57l1-.55ZM82,37.26v-.58l-1,.56v.57l1-.55ZM82,38.64l-.49.29V37.82l.49-.28v1.1Zm0-2.2-.49.29V35.62l.5-.28v1.1Zm-1.94,1.9v-.57l-1,.55v.58l1-.56Zm-1.92,1.11v-.58l-1,.56V40l1-.55Zm-1.92,1.11-1,.55v-.57l1-.56v.58Zm-1.89,1.09v-.58l-1,.55v.58l1-.55Zm-1.91,1.1v-.57l-1,.55v.58l1-.56Zm-1.92,1.11v-.58l-1,.56v.57l1-.55ZM68.66,45v-.58l-1,.56v.57l1-.55Zm-1.92,1.11v-.58l-1,.55v.58l.95-.55Zm-1.92,1.1v-.57l-.93.54v.57l.93-.54Zm-1.88,1.09v-.58l-1,.56v.58l1-.56Zm0,1.41-.46.26v-1.1l.46-.27v1.11Zm0-2.21-.47.27v-1.1l.46-.27v1.1ZM61,49.36v-.58l-1,.56v.57l1-.55ZM59.1,50.47v-.58l-.92.53V51l.92-.53Zm-1.88,1.08V51l-1,.55v.57l1-.55Zm-.63-.42-.46.27V50.29l.46-.26v1.1ZM55.3,52.66v-.58l-1,.56v.57l1-.55Zm-1.91,1.1v-.57l-.94.54v.57l.94-.54ZM51.5,54.85v-.57l-1,.55v.58l1-.56ZM49.58,56v-.57l-1,.55v.57l.95-.55Zm-1.92,1.11v-.58l-.93.54v.58l.93-.54Zm-1.88.51-1,.56v.57l1-.55v-.58ZM93.4,23.3v-.53l-1,.55v.53l1-.55Zm-1.92,1.1v-.53l-.92.54v.53l.92-.54ZM89.6,25.49V25l-1,.56v.53l1-.56ZM87.68,26.6v-.53l-1,.55v.53l1-.55ZM85.8,27.68v-.52l-1,.55v.53l1-.56ZM83.87,28.8v-.53l-1,.55v.53l1-.55Zm-2.34.82-.53.31v.53l.53-.31L82,29.9l.06,0V28.76l-.49.29v.57ZM80.08,31v-.53l-1,.55v.54l1-.56Zm-1.92,1.1v-.53l-1,.56v.53l1-.56Zm-1.92.59-.59.33v-.57l-.46.27v1.1l.1-.06.36-.2.59-.34v-.53Zm-1.89,1.61v-.53l-.95.55v.53l.95-.55ZM72.44,35.4v-.53l-1,.55V36l1-.55Zm-1.91,1.1V36l-1,.56v.53l1-.56Zm-1.89,1.09v-.53l-1,.56v.53l1-.56ZM66.72,38.7v-.53l-.95.55v.53l1-.55ZM64.8,39.81v-.53l-.93.54v.53l.93-.54Zm-2.32.8-.53.31v.53l.53-.31.43-.24,0,0V39.77l-.46.27v.57ZM61,42v-.53L60,42v.53L61,42Zm-1.92,1.11v-.53l-.93.53v.53l.92-.53Zm-1.89.56-.62.36v-.58l-.46.27v1.1l.13-.07.34-.19.61-.36v-.53Zm-1.91,1.64v-.54l-1,.56v.53l1-.55Zm-1.91,1.1v-.53l-.93.54V47l.94-.54ZM51.48,47.5V47l-1,.55v.53l1-.55Zm-1.92,1.11v-.53l-1,.55v.53l1-.55Zm-1.92,1.11v-.54l-.93.54v.53l.93-.53Zm-1.88.55-1,.56v.53l1-.56v-.53ZM93.37,16v-.57l-1,.55v.57l1-.55Zm-1.91,1.1v-.56l-.92.53v.57l.92-.54Zm-1.88,1.09v-.56l-1,.55v.57l1-.56Zm-1.92,1.11v-.57l-1,.56v.56l1-.55Zm-1.88,1.08V19.8l-1,.56v.56l1-.56Zm-1.93,1.12v-.57l-.95.55V22l.95-.54Zm-1.91.71V22l-1,.55v.57l.53-.31v.71l.49-.28V22.15l-.06,0Zm-1.89,1.48V23.1l-1,.56v.56l1-.55Zm-1.91,1.1v-.56l-1,.55v.57l1-.56Zm-1.92,1.11v-.56l-.95.55V26l-.1.06v1.1l.46-.26v-.71l.59-.35ZM74.33,27v-.56l-1,.55v.56l1-.55Zm-1.91,1.11v-.57l-1,.56v.56l1-.55Zm-1.92,1.1v-.56l-1,.55v.57l1-.56Zm-1.88,1.09v-.56l-1,.55v.57l1-.56ZM66.7,31.38v-.56l-1,.55v.56l1-.55Zm-1.92,1.11v-.57l-.93.54V33l.93-.54Zm-1.89.69V33l-1,.56v.56l.53-.3v.71l.46-.27V33.16l0,0ZM61,34.68v-.56l-1,.55v.57l1-.56Zm-1.92,1.11v-.56l-.93.53v.56l.92-.53ZM55.26,38v-.56l-1,.56v.56l1-.56Zm-1.91,1.11v-.56l-.93.53v.57l.94-.54Zm-1.89,1.09v-.57l-1,.56v.56l1-.55Zm-1.92,1.11v-.56l-1,.54v.57l1-.55Zm-1.92,1.1v-.56l-.93.54v.56Z"/><polygon class="cls-6" points="39.48 35.19 36.37 33.38 36.38 36.64 39.49 38.45 39.48 35.19"/><polygon class="cls-5" points="97.56 1.81 94.46 0 36.37 33.38 39.48 35.19 97.56 1.81"/><polygon class="cls-4" points="39.48 35.19 39.49 38.45 97.57 5.07 97.56 1.81 39.48 35.19"/><path class="cls-12" d="M98,24.41c1.08,3.37,3.28,8.1,4.41,11.42a23.14,23.14,0,0,1,.58,3.6c-2.69,1.56-4.17.9-4.94-1.1a70.79,70.79,0,0,1-2.79-12.55Z"/><path class="cls-3" d="M97.08,20.34a2.8,2.8,0,0,1-1.74-2.11A4,4,0,0,0,95,17.12a.47.47,0,0,0-.44-.19c-.32.05-.78.85-.37,1.85l.64,1.6c-.53,2.07-.43,2.8,1.1,4.36l1.61-.61,0-2.49Z"/><polygon class="cls-13" points="87.56 24.15 89.65 26.22 91.22 19.54 91.7 19.65 90.03 26.77 89.93 27.2 89.61 26.89 87.2 24.5 87.56 24.15"/><path class="cls-14" d="M86.52,28.45a1,1,0,0,1-.3,0,1.61,1.61,0,0,1-1.08-1,4.14,4.14,0,0,1-.32-1.62h0a5.32,5.32,0,0,1,.1-1.14,3.68,3.68,0,0,1,1.59-2.19h0a5.27,5.27,0,0,1,2.92-1,2.56,2.56,0,0,1,1.95,1A4.15,4.15,0,0,1,92.2,25a5.35,5.35,0,0,1-.08,1.2,6.6,6.6,0,0,1-1.72,3.37,4.86,4.86,0,0,1-3.23,1.57,4,4,0,0,1-.85-.05,3.09,3.09,0,0,1-2.18-1.86,6.27,6.27,0,0,1-.53-3.54l.5.07A5.65,5.65,0,0,0,84.59,29a2.63,2.63,0,0,0,1.82,1.57,3.11,3.11,0,0,0,.74.05A4.31,4.31,0,0,0,90,29.18a6.16,6.16,0,0,0,1.59-3.1A5.13,5.13,0,0,0,91.7,25,3.63,3.63,0,0,0,91,22.86,2.07,2.07,0,0,0,89.41,22a4.67,4.67,0,0,0-2.61.89h0a3.19,3.19,0,0,0-1.38,1.88,4.39,4.39,0,0,0-.09,1,3.33,3.33,0,0,0,.28,1.42,1.08,1.08,0,0,0,.72.68l.19,0Z"/><path class="cls-14" d="M88.7,26.42l3,6.61c.49,1-1,1.25-1.29.59l-3-6.6C87.05,26.24,88.26,25.47,88.7,26.42Z"/><path class="cls-14" d="M87.75,25.52l1.07,2.33c.17.37-.35.43-.45.2l-1.08-2.32C87.17,25.45,87.59,25.18,87.75,25.52Z"/><path class="cls-15" d="M112.68,25.23c3.47,2,5.37,4.16,4.24,4.81s-4.85-.44-8.31-2.44-5.37-4.15-4.24-4.81S109.22,23.23,112.68,25.23Z"/><path class="cls-16" d="M106.7,84.72c.79,1.79,3.06,8,3.25,9.58a14.42,14.42,0,0,1,.12,2.92s1.91-.12,2.12-.19,2.44-2.12,2.44-2.12-1-4.89-1.11-5.14c-1.44-2.8.22-3.28-2.47-4.58-1.19-.58-1.66-2-2.2-3.1Z"/><path class="cls-17" d="M110.08,95.86c.09,1.3-.33,1.82,0,2.4.46.77,2.1,0,2.62-.3a5.48,5.48,0,0,0,2.11-3,51.59,51.59,0,0,1-1.25-5.4l2.08,4.08.35-.23a41.39,41.39,0,0,1-1.64-4.75c-.15-.55-.16-1.15-.27-1.44-.48-1.27-1.8-1.6-2.93-2.13.68,2.44,2.81,7.72,1.15,9.87A2.46,2.46,0,0,1,110.08,95.86Z"/><path class="cls-18" d="M97.43,68.24l9.82,20.25h0a.23.23,0,0,0,.25.14c.54,0,1.59-1.24,2.34-2.71.6-1.17.84-2.15.64-2.49-1.23-4.38-2.63-9.44-5.16-13.27-.9-1.36-1.21-1.17-2.09-2.3C101,65,97.19,65.87,97.43,68.24Z"/><path class="cls-3" d="M106.81,91c-.1,2-.81,8.49-1.37,10a14.27,14.27,0,0,1-1.19,2.66s1.76.75,2,.78,3.14-.8,3.14-.8,1.3-4.82,1.29-5.1c0-3.15,1.67-2.84-.16-5.2-.81-1.05-.6-2.5-.58-3.75Z"/><path class="cls-19" d="M104.86,102.48c-.5,1.21-1.11,1.49-1,2.16.07.89,1.88.93,2.48.9a5.51,5.51,0,0,0,3.21-1.71,48.51,48.51,0,0,1,1.29-5.39l0,4.58.41,0a42.32,42.32,0,0,1,.66-5c.11-.56.36-1.1.39-1.41.14-1.35-.89-2.24-1.66-3.22-.49,2.49-.94,8.17-3.38,9.36A2.49,2.49,0,0,1,104.86,102.48Z"/><path class="cls-18" d="M97.48,67.5c-.66,2.12,3.85,4.22,6,1.33l10.76-18.61-10.42-7.73c-1.24,3.69-1.67,4.47-2.67,8.36C99.82,56.24,98.42,62.93,97.48,67.5Z"/><path class="cls-20" d="M108.46,46.37l-.8,0-.55,4.3c-1.88,4.66-1.65,15.22-1.61,19.58,0,.65,0,1.33,0,1.85-.06,3.58,5.42,2.28,6.09.39a90.85,90.85,0,0,0,2.53-8.76c1.74-6.59,5.61-11.86-1.18-17.72Z"/><path class="cls-20" d="M105.55,72.25l.28,22.55h0A.23.23,0,0,0,106,95c.49.22,2-.41,3.3-1.4,1-.79,1.69-1.56,1.67-2,1-5.25,1.46-8.36,1.34-12.22s-.6-5.7-.58-7.29C111.78,68.56,105.62,65.46,105.55,72.25Z"/><path class="cls-21" d="M110.05,7.81c-2.2-.17-3.77.13-4.51,1.13-3.26,4.38.17,9.75-2.47,13.31l4.45.51,5.28-8.28Z"/><path class="cls-12" d="M103.82,24.58A43.43,43.43,0,0,0,98.44,37c-.59,2.63,2.17,4.51,3.63,2.45,2.43-3.42,6.06-9,6-12.51C108.09,23.81,105.07,22.79,103.82,24.58Z"/><path class="cls-16" d="M112,17.8c-.16,1.05-1.11,3.45,0,6.12l-3.76,2.87-1.79-1.69a11.73,11.73,0,0,0,.14-5.66Z"/><path class="cls-15" d="M112,23.16a8.11,8.11,0,0,0,3.54,3.89c3,1.81.9,7.4-.57,11.1a12.79,12.79,0,0,0-1,5,4.38,4.38,0,0,0,.38,2.37c1.73,3.26,3,7.3,2.29,9.83a60.79,60.79,0,0,1-14.78-7.5,26.41,26.41,0,0,0,1.31-6,37.77,37.77,0,0,0-1.34-6.76,7,7,0,0,1-1.36-4.31c0-1.32,2.66-6.42,3.69-7.71.43-.54,1.69-.27,2.53.07C106.36,24.68,110.13,26,112,23.16Z"/><path class="cls-22" d="M113.74,27.71a43.31,43.31,0,0,0-8.93,10.14c-1.37,2.32.68,5,2.7,3.45,3.36-2.51,8.53-6.68,9.6-10C118.05,28.29,115.49,26.39,113.74,27.71Z"/><path class="cls-3" d="M96.34,35l-2.43-1.11c-2.43.43-2.67-1-4.56-1.31a3.72,3.72,0,0,1-1.17-3,11.31,11.31,0,0,1,3.9-.19,35,35,0,0,1,4.72,4Z"/><path class="cls-22" d="M94.88,31.27c3.11,1.69,8,3.58,11.08,5.2a23.67,23.67,0,0,1,2.91,2.2c-.86,3-2.39,3.53-4.33,2.62a71.07,71.07,0,0,1-10.69-7.14Z"/><path class="cls-3" d="M106.23,9.16c-2.14,3.07-1.24,5.21-1.56,7.73a6.56,6.56,0,0,0,.49,3.21c.42,1.11.93,1.66,1.58,1.87,1.23.4,6.46-1.78,6.87-3.48l1.6-6.56Z"/><path class="cls-21" d="M111.72,17.56c.12-1.46.91-1.57,1.25-1.47,1.4.39-.2,2.5-.89,3.44-1.24,1-1.82,3.33-2.59,4.57,5-.9,6.74-1.8,7-9.44.16-4.18-2-8.1-7.44-7.33a4,4,0,0,0-3.57,2.47C104.13,13.53,110.59,14.5,111.72,17.56Z"/><path class="cls-15" d="M111.52,50.21c3.9,2.25,6,4.67,4.77,5.4s-5.46-.49-9.35-2.74-6-4.67-4.77-5.41S107.62,48,111.52,50.21Z"/><path class="cls-3" d="M92.79,51.47c-.56-.56-1.34-.62-2.79-1.56-1-.82-1.71-.92-2.09-.71s-.51.44.19,1.21L89.79,52,88,52.13l-1.06-.22L84.45,50c-.77-.67-1-.12-1.68.79-.93,1.15.75,2.47,2.33,4.14,1.54,1.27,1.31,1.58,3.27,1.52l3-.11,1.36,1.58,2.88-2.61a10.39,10.39,0,0,1-1.47-1.33C93.51,53,93.52,52.2,92.79,51.47Z"/><path class="cls-23" d="M94,53.27c-1.28.34-2.35,2.61-2.66,3.43l10.53,9c1.46,1.34,4.84,2.74,6.55.91s.45-3.19-.19-4.28C105.9,58.38,98.71,56.56,94,53.27Z"/><path class="cls-23" d="M112.2,73c-.66-5.29-1.3-5.84-4.14-5-5.51,1.54-10.32,5.32-9.38,8.94.61,2.35,1.44,2.59,3.38,2.13C105.45,78.27,110.34,74.15,112.2,73Z"/><path class="cls-24" d="M118.63,130.79l3.07,2.35c0,2.82,0,4.21-1.13,4.94-1.33.89-3.57.17-4.93-.45l-.37-1.09c-1.3-.18-1,.21-2.42-.58-2.36-1.31-5.84-3.33-6.3-5.68-.12-.6.34-1.68,1-1.58l6.85,1.19Z"/><path class="cls-25" d="M121.42,136.87a2.13,2.13,0,0,1-.79,1.18c-1.29.95-3.61.21-5-.42l-.37-1.07c-1.86-.18-1.35.11-3.24-.87-2.28-1.19-5.07-2.86-5.57-4.93a1.74,1.74,0,0,1,.42-1.44,1.39,1.39,0,0,0,0,.61c.5,2.08,3.28,3.75,5.57,4.93,1.89,1,1.38.7,3.24.88l.41,1.07c1.38.57,3.7,1.35,5,.4A1.94,1.94,0,0,0,121.42,136.87Z"/><path class="cls-26" d="M111.2,135.05l3.16,2.21c.09,2.82.15,4.21-.91,5-1.29.95-3.57.32-5-.24l-.41-1.08c-1.86-.18-1.35.11-3.24-.87-2.29-1.19-5.07-2.86-5.57-4.93-.15-.6.27-1.69.88-1.62l6.72.82Z"/><path class="cls-25" d="M114.22,141.08a2.08,2.08,0,0,1-.77,1.17c-1.29.95-3.57.32-5-.24l-.41-1.08c-1.86-.18-1.35.11-3.24-.87-2.29-1.19-5.07-2.86-5.57-4.93a1.74,1.74,0,0,1,.42-1.44,1.58,1.58,0,0,0,0,.61c.5,2.07,3.29,3.74,5.57,4.93,1.9,1,1.39.7,3.24.88l.42,1.07c1.38.57,3.65,1.19,4.94.24A1.67,1.67,0,0,0,114.22,141.08Z"/><path class="cls-23" d="M123.92,58.38c-3,4-10.65,6.81-15.26,8.78-4.14,1.77-6-3.64-2.84-5.81l10.06-7.48c3.32-1.82,5.82-1.82,7.39-1.12C126.1,54,125.18,56.71,123.92,58.38Z"/><path class="cls-27" d="M123.84,80.62c.25,2.63,1.23,7.79,1.23,9.32-.26,8-1.56,14.56-2,22.55L122,134.06h0a.37.37,0,0,1-.2.41c-.72.42-3.12-.28-5.34-1.57a11.22,11.22,0,0,1-2.18-1.57l-.82-.56,1.33-38.35.52-9.36Z"/><path class="cls-28" d="M116.25,85.32c.27,2.63,2.09,5.14,2,7.78-.86,8.33-2.57,16-2.81,24l-.65,21.25,0,0a.39.39,0,0,1-.21.31c-.72.42-3.11-.29-5.34-1.57s-3.34-2.56-2.8-3l.16-37.84,1.93-9.29Z"/><path class="cls-29" d="M122.23,52.51a5.49,5.49,0,0,1,1,.51c6.23,3.28.25,19.6.5,25.73.08,2,1,5.57,1.27,9.42-.77,3.12-11.3,9.64-17.67,3.4.08-4.72-2.1-23.49-3-28.18-.55-2.71,2.28-6.41,7.24-8.82C114.79,53,119.85,51.7,122.23,52.51Z"/><path class="cls-16" d="M118.79,46.43c-.55,4.63-.68,4.29.19,7.85.44,1.84-5.71,1.73-6.58.91,0-4.19-.47-5.74-2.13-11.37Z"/><path class="cls-3" d="M108.16,40.27a7.6,7.6,0,0,0-.75,3.92,42.49,42.49,0,0,0,.68,4.48c.21,1.06.74,5,1.61,5.34.61.27,3.67-1,4.68-2.22.73-.9-.09-3.13.24-3.65L112,40.37Z"/><path class="cls-30" d="M117.41,38c3.36,1,3.68,5.93,2.18,9.21a10.45,10.45,0,0,0-1.11,5c-2.15.88-3.41.47-5.06-1.6s-1.5-4.43-2.78-4.47c-.52,0-.92.66-.62,2.68-.55-1-2.33-7.09-4.07-7.57.38-1.51,1.84-2.41,3.5-3.21C112.19,36.64,115.71,36.1,117.41,38Z"/><path class="cls-10" d="M118.9,52.27c-.45,1.56-4.75,2.4-6.52,1.68l-.26,1.45c1.67,2.31,7.31,1.56,7.17-1.27Z"/><path class="cls-31" d="M103.69,60.27c-5.1,13.82-6.42,17.17-3.63,18.83,4.83,1.73,9.6-10.89,10.11-14.91C110.85,58.8,107.12,55.8,103.69,60.27Z"/><path class="cls-30" d="M117.36,37.92c-1.1-1.53-3.54-1.7-4.6-1.41a3,3,0,0,1,1.21.3,5.77,5.77,0,0,0-4.11.31,4.75,4.75,0,0,1,1.75,0,4.87,4.87,0,0,0-3.42,1.18c.9-.22,1.38-.28,1.67-.09Z"/><path class="cls-30" d="M117.35,37.93c2.74-.08,4,4,3.35,6.07a3.56,3.56,0,0,0-.37-1.35,5.37,5.37,0,0,1-.17,4.19,3.36,3.36,0,0,0-.15-1.53l-1.25,1.44Z"/><path class="cls-14" d="M53.89,61.09a1.45,1.45,0,0,1-.3,0,1.56,1.56,0,0,1-1.08-1,4.1,4.1,0,0,1-.32-1.62h0a5.32,5.32,0,0,1,.1-1.14,3.68,3.68,0,0,1,1.59-2.19h0a5.24,5.24,0,0,1,2.92-1,2.56,2.56,0,0,1,2,1,4.17,4.17,0,0,1,.82,2.41,6,6,0,0,1-.08,1.2,6.6,6.6,0,0,1-1.72,3.37,4.88,4.88,0,0,1-3.23,1.57,3.47,3.47,0,0,1-.85,0,3.1,3.1,0,0,1-2.18-1.85A6.23,6.23,0,0,1,51,58.28l.49.07A5.81,5.81,0,0,0,52,61.61a2.66,2.66,0,0,0,1.82,1.58,3.18,3.18,0,0,0,.75,0,4.33,4.33,0,0,0,2.89-1.42A6.12,6.12,0,0,0,59,58.71a5.81,5.81,0,0,0,.07-1.1,3.63,3.63,0,0,0-.71-2.12,2.07,2.07,0,0,0-1.58-.82,4.72,4.72,0,0,0-2.62.89h0a3.19,3.19,0,0,0-1.38,1.88,5,5,0,0,0-.1,1A3.48,3.48,0,0,0,53,59.89a1.08,1.08,0,0,0,.72.68l.19,0Z"/><path class="cls-14" d="M55.91,60.34c.43,0,.78-.59.78-1.32s-.35-1.32-.78-1.32-.77.59-.77,1.32S55.49,60.34,55.91,60.34Z"/><rect class="cls-32" x="49.06" y="42.02" width="45.74" height="0.37" transform="translate(-8.11 65.62) rotate(-46.71)"/></g></g></svg>