<svg xmlns="http://www.w3.org/2000/svg" viewBox="0 0 124.37 75.08"><defs><style>.cls-1{isolation:isolate;}.cls-2{fill:#827a7d;}.cls-3{fill:#c6c1c3;}.cls-4{fill:#636061;}.cls-5{fill:#302c2e;}.cls-6{fill:#d1e5dd;}.cls-7{fill:#8da098;}.cls-8{fill:#3f3b3c;}.cls-9{fill:#292628;}.cls-10{fill:#302e2f;}.cls-11{opacity:0.3;}.cls-12{fill:#fff;}</style></defs><g id="Camada_2" data-name="Camada 2"><g id="Layer_2" data-name="Layer 2"><g class="cls-1"><path class="cls-2" d="M.07,28.65a.11.11,0,0,1,0,.05,2.4,2.4,0,0,0,.2.39l0,.07a2.7,2.7,0,0,0,.33.36,2.32,2.32,0,0,0,.3.22,1.6,1.6,0,0,0,.25.18v3l-.05,0A1.66,1.66,0,0,1,1,32.73c-.1-.07-.21-.14-.29-.21l0,0a3.32,3.32,0,0,1-.26-.28.25.25,0,0,0,0-.07l-.05-.06L.22,32a.86.86,0,0,1-.11-.24l0,0s0,0,0-.05,0-.1,0-.15a1,1,0,0,1,0-.24v0c0-1,0-2,0-3A1.55,1.55,0,0,0,.07,28.65Z"/><path class="cls-2" d="M124.37,43.86v3a2.07,2.07,0,0,1-1.23,1.72v-3A2.08,2.08,0,0,0,124.37,43.86Z"/><polygon class="cls-3" points="1.21 29.92 1.22 32.92 72.56 74.38 72.56 71.38 1.21 29.92"/><polygon class="cls-4" points="78.45 71.38 78.46 74.38 123.14 48.58 123.14 45.58 78.45 71.38"/><path class="cls-2" d="M72.56,74.38v-3a4.53,4.53,0,0,0,.59.28l.15.06c.13,0,.27.08.41.12a2.73,2.73,0,0,0,.41.1,3.86,3.86,0,0,0,.51.09l.12,0c.23,0,.47,0,.7,0h.11l.69,0h.11c.23,0,.45-.07.67-.12l.11,0a5.08,5.08,0,0,0,.59-.18.32.32,0,0,0,.09,0,3.41,3.41,0,0,0,.64-.3v3a5.55,5.55,0,0,1-.6.29h0l-.1,0-.37.13-.21,0-.11,0-.11,0L76.5,75h-.25l-.15,0-.41,0h-.43a3.55,3.55,0,0,1-.46,0h-.17l-.36,0-.16,0-.41-.1-.22-.06-.17-.07a.44.44,0,0,1-.16-.06A4.58,4.58,0,0,1,72.56,74.38Z"/><path class="cls-5" d="M1.23,26.51c-1.63.94-1.64,2.47,0,3.41L72.55,71.38a6.52,6.52,0,0,0,5.9,0l44.69-25.8c1.63-.94,1.64-2.47,0-3.41L51.81.71a6.44,6.44,0,0,0-5.89,0Z"/></g><polygon class="cls-6" points="9.27 29.3 62.13 60.02 103.34 36.23 50.48 5.51 9.27 29.3"/><polygon class="cls-7" points="50.48 6.43 10.06 29.76 9.27 29.3 50.48 5.51 103.34 36.23 102.55 36.69 50.48 6.43"/><g class="cls-1"><path class="cls-4" d="M108.2,45.43c1.15-.66,1.76-1.49,1.75-2.25v1.11a2.91,2.91,0,0,1-1.75,2.25l-5,2.89V48.32Z"/><polygon class="cls-2" points="95.02 43.57 95.03 44.68 103.2 49.43 103.2 48.32 95.02 43.57"/><path class="cls-8" d="M95,43.57l8.18,4.75,5-2.89c2-1.13,2.33-2.76.83-3.63l-5.45-3.17Z"/></g><g class="cls-1"><polygon class="cls-2" points="85.77 48.91 85.77 50.02 93.95 54.78 93.95 53.66 85.77 48.91"/><polygon class="cls-4" points="93.95 53.66 93.95 54.78 102.5 49.84 102.5 48.73 93.95 53.66"/><polygon class="cls-8" points="85.77 48.91 93.95 53.66 102.5 48.73 94.32 43.98 85.77 48.91"/></g><g class="cls-1"><polygon class="cls-2" points="76.52 54.25 76.52 55.37 84.7 60.12 84.7 59 76.52 54.25"/><polygon class="cls-4" points="84.7 59 84.7 60.12 93.25 55.18 93.25 54.07 84.7 59"/><polygon class="cls-8" points="76.52 54.25 84.7 59 93.25 54.07 85.07 49.31 76.52 54.25"/></g><g class="cls-1"><path class="cls-4" d="M72.72,62.76a3.12,3.12,0,0,0,.64.29,4.51,4.51,0,0,0,.68.16h.07a5.47,5.47,0,0,0,.72.08h0a6.77,6.77,0,0,0,.78,0h.08a6.72,6.72,0,0,0,.75-.1l.15,0a7,7,0,0,0,.76-.19l.19-.06a5.49,5.49,0,0,0,.57-.2A7.57,7.57,0,0,0,79,62.3l5-2.89v1.11l-5,2.89a6.9,6.9,0,0,1-.87.41s0,0-.06,0-.32.11-.49.17l-.21.07h0a5.66,5.66,0,0,1-.59.15l-.14,0-.15,0-.23,0-.48,0h-.11l-.33,0c-.14,0-.29,0-.43,0h-.06l-.36,0-.35,0H74a4,4,0,0,1-.62-.16h0a3.74,3.74,0,0,1-.64-.28l-5.45-3.17V59.6Z"/><path class="cls-8" d="M67.26,59.6l5.46,3.16c1.5.88,4.31.67,6.27-.46l5-2.89-8.18-4.75Z"/></g><polygon class="cls-5" points="98.76 42.05 105.73 46.09 105.76 42.05 98.76 42.05"/><polygon class="cls-5" points="72.7 57.12 72.67 61.17 79.66 61.17 72.7 57.12"/><polygon class="cls-5" points="88.97 48.76 94.16 51.77 99.37 48.76 94.19 45.75 88.97 48.76"/><path class="cls-9" d="M82,52.36c-1.66,1-1.67,2.5,0,3.46a6.57,6.57,0,0,0,6,0c1.65-1,1.66-2.51,0-3.46A6.57,6.57,0,0,0,82,52.36Z"/><g class="cls-1"><path d="M43.31,16.63c.57.33.57.77,0,1.11a2.13,2.13,0,0,1-1.11.27v-.26a1.51,1.51,0,0,0,.75-.18c.3-.17.34-.41.12-.61l-1.44.83c-.73-.37-.89-.78-.22-1.16A2,2,0,0,1,43.31,16.63Zm-.55.15a1.17,1.17,0,0,0-1,0c-.31.18-.33.4,0,.58l1.09-.62Z"/><polygon points="37.25 19.03 39.83 19.73 40.26 19.48 39.34 18.39 41.22 18.93 41.64 18.68 40.45 17.18 40.03 17.42 41.02 18.57 39.06 17.98 38.64 18.23 39.64 19.37 37.66 18.79 37.25 19.03"/></g><g class="cls-1"><path d="M34.58,19.86a1.28,1.28,0,0,0-.62.66l.54.11a1.25,1.25,0,0,1,.5-.56.7.7,0,0,1,.67-.08c.54.31-1.1.93-.21,1.44a1.76,1.76,0,0,0,1.67-.12,1.12,1.12,0,0,0,.62-.83l-.54-.1a.94.94,0,0,1-.48.7.78.78,0,0,1-.78.09c-.55-.32,1.11-.92.23-1.43A1.66,1.66,0,0,0,34.58,19.86Z"/><path d="M32.88,21l.52.3-.56.33.3.17.56-.32.91.53c.2.11.18.19,0,.26a1.06,1.06,0,0,1-.37.12l.21.24a1.69,1.69,0,0,0,.61-.19c.29-.16.37-.4,0-.62l-1-.57.27-.16-.31-.18-.26.16-.52-.3Z"/><path d="M48.39,21.52A.65.65,0,0,0,48,22l.25,0a.51.51,0,0,1,.29-.41,1.42,1.42,0,0,1,1.33,0c.37.21.36.56,0,.77a1.39,1.39,0,0,1-.7.17l0,.14a1.79,1.79,0,0,0,.88-.21c.48-.27.49-.71,0-1A1.85,1.85,0,0,0,48.39,21.52Z"/><path d="M47.17,22.11l.79.46a1.16,1.16,0,0,0-.78.11c-.3.18-.29.39,0,.57l.76.44.19-.11-.72-.42c-.22-.12-.22-.27,0-.41a.89.89,0,0,1,.88,0l.61.35.19-.1-1.76-1Z"/><path d="M33.5,22.29c.57.33.56.79,0,1.13a2,2,0,0,1-1.95,0c-.57-.33-.55-.79,0-1.12A2,2,0,0,1,33.5,22.29Zm-.38.93c.35-.2.34-.48,0-.69a1.23,1.23,0,0,0-1.19,0c-.34.19-.33.48,0,.69a1.23,1.23,0,0,0,1.19,0Z"/><path d="M29.06,23.74l.39.23,0,0a1.28,1.28,0,0,1,1.14-.05l1,.58.42-.24-1.89-1.1-.42.24.37.22A1.47,1.47,0,0,0,29.06,23.74Z"/><path d="M45.77,24c-.27-.15-.26-.35,0-.53a1.68,1.68,0,0,1,.68-.19l.06.12a1.33,1.33,0,0,0-.54.15c-.23.13-.23.25-.05.36L46,24l.42-.24a.89.89,0,0,1,.83-.06c.21.13.21.32,0,.47a1.08,1.08,0,0,1-.66.15l.19.11-.18.11Zm1.27.05c.18-.1.2-.22.06-.3a.47.47,0,0,0-.51.07l-.4.22.15.09a.91.91,0,0,0,.7-.08Z"/><path d="M45,24.27l-.27-.16.19-.11,1.7,1-.18.11-.73-.43c.08.16,0,.32-.21.44a1.28,1.28,0,0,1-1.23,0c-.38-.22-.39-.52,0-.72A1.09,1.09,0,0,1,45,24.27Zm.37.74c.26-.16.25-.38,0-.53a.92.92,0,0,0-.91,0c-.27.15-.26.37,0,.53a1,1,0,0,0,.92,0Z"/><path d="M27,24.93l3,.75a1.34,1.34,0,0,0,1.06-.1.5.5,0,0,0,.29-.34l-.49-.09a.32.32,0,0,1-.16.2.74.74,0,0,1-.5,0l-.2,0L29,23.82l-.42.24.86,1.16-2-.52Z"/><path d="M42.8,24.89l.32.2-.4.23.15.08.4-.23.68.4c.16.09.15.15,0,.22a.74.74,0,0,1-.26.07l.1.12a1.06,1.06,0,0,0,.38-.11c.18-.1.21-.25,0-.39l-.71-.41.18-.11-.15-.09-.18.11L43,24.79Z"/><path d="M41.9,25.74a1.31,1.31,0,0,1,1.26,0c.37.21.37.51,0,.72a1.33,1.33,0,0,1-.71.17v-.12a1,1,0,0,0,.55-.13c.24-.14.26-.33,0-.5l-1,.6c-.44-.24-.53-.51-.13-.74Zm1,.07a1,1,0,0,0-.83,0c-.24.14-.26.32,0,.47l.86-.49Z"/><path d="M40.35,26.63l.19.11h0a.91.91,0,0,1,.85,0l.67.39.18-.11L41,26.27l-.18.1.27.17A1,1,0,0,0,40.35,26.63Z"/><polygon points="38.71 27.11 40.37 28.08 40.56 27.97 39.07 27.11 39.42 26.91 39.24 26.81 38.71 27.11"/><polygon class="cls-10" points="27.8 28.17 28.33 28.47 51.43 15.13 50.91 14.83 27.8 28.17"/><polygon class="cls-10" points="52.04 34.74 52.3 34.89 74.06 22.33 73.8 22.18 52.04 34.74"/><polygon class="cls-10" points="33.6 37.5 33.86 37.64 64.86 19.75 64.6 19.6 33.6 37.5"/><polygon class="cls-10" points="74.01 37.84 74.27 37.99 87.68 30.24 87.42 30.1 74.01 37.84"/><polygon class="cls-10" points="35.31 38.48 35.56 38.63 68.95 19.36 68.69 19.21 35.31 38.48"/><polygon class="cls-10" points="37.01 39.48 37.27 39.62 70.65 20.35 70.39 20.2 37.01 39.48"/><polygon class="cls-10" points="38.71 40.46 38.97 40.61 72.35 21.34 72.1 21.19 38.71 40.46"/><polygon class="cls-10" points="53.78 41.62 54.05 41.77 80.87 26.29 80.61 26.14 53.78 41.62"/><polygon class="cls-10" points="42.12 42.44 42.38 42.59 73.38 24.7 73.12 24.55 42.12 42.44"/><polygon class="cls-10" points="43.82 43.43 44.08 43.58 77.47 24.31 77.2 24.16 43.82 43.43"/><polygon class="cls-10" points="45.52 44.42 45.78 44.57 79.17 25.3 78.91 25.15 45.52 44.42"/><polygon class="cls-10" points="48.93 46.4 49.19 46.55 82.57 27.28 82.31 27.13 48.93 46.4"/><polygon class="cls-10" points="50.63 47.39 50.89 47.54 84.28 28.27 84.01 28.11 50.63 47.39"/><polygon class="cls-10" points="52.34 48.38 52.59 48.53 85.98 29.26 85.72 29.11 52.34 48.38"/><polygon class="cls-10" points="55.74 50.36 56 50.51 87 32.61 86.74 32.46 55.74 50.36"/><polygon class="cls-10" points="94.23 34.05 64.5 51.3 64.76 51.45 94.49 34.2 94.23 34.05"/><polygon class="cls-10" points="57.45 51.35 57.7 51.5 91.08 32.22 90.83 32.07 57.45 51.35"/><polygon class="cls-10" points="59.15 52.34 59.4 52.49 92.79 33.21 92.53 33.07 59.15 52.34"/><polygon class="cls-10" points="62.55 54.32 62.81 54.47 93.81 36.57 93.55 36.42 62.55 54.32"/></g><polygon points="42.23 15.46 44.71 16.91 45.13 16.67 44.67 14.86 46.46 15.9 46.88 15.66 44.4 14.21 43.98 14.45 44.43 16.26 42.64 15.23 42.23 15.46"/><g class="cls-11"><polygon class="cls-12" points="8.5 29.21 61.36 59.93 102.57 36.14 8.5 29.21"/></g></g></g></svg>