<svg xmlns="http://www.w3.org/2000/svg" xmlns:xlink="http://www.w3.org/1999/xlink" viewBox="0 0 147.46 120.97"><defs><style>.cls-1{isolation:isolate;}.cls-2,.cls-63{opacity:0.2;}.cls-3{fill:#181a18;}.cls-4{fill:#ccccdb;}.cls-5{fill:url(#linear-gradient);}.cls-6,.cls-9{fill:#8f8faa;}.cls-7{opacity:0.3;fill:url(#linear-gradient-2);}.cls-52,.cls-63,.cls-66,.cls-67,.cls-68,.cls-7,.cls-9{mix-blend-mode:multiply;}.cls-8{fill:#bcbcc9;mix-blend-mode:screen;}.cls-79,.cls-8{opacity:0.1;}.cls-49,.cls-52,.cls-9{opacity:0.5;}.cls-10{fill:#c6b8ab;}.cls-11{fill:#a79a8b;}.cls-12{fill:#baac9b;}.cls-13{fill:#9b8b7b;}.cls-14{fill:#196e90;}.cls-15{fill:#114c63;}.cls-16{fill:#198baf;}.cls-17{fill:#e0e0e0;}.cls-18{fill:#1a868e;}.cls-19{fill:#117375;}.cls-20{fill:#18a7aa;}.cls-21{fill:#029fa3;}.cls-22{fill:#d32043;}.cls-23{fill:#a0051c;}.cls-24{fill:#ad1212;}.cls-25{fill:#c32b2b;}.cls-26{fill:#e03636;}.cls-27{fill:#efa500;}.cls-28{fill:#c18100;}.cls-29{fill:#ffb727;}.cls-30{fill:#d39700;}.cls-31{fill:#871e1e;}.cls-32{fill:#d93030;}.cls-33{fill:#821515;}.cls-34{fill:#d63030;}.cls-35{fill:#b68808;}.cls-36{fill:#f4a800;}.cls-37{fill:#0984aa;}.cls-38{fill:#006272;}.cls-39{fill:#12a2c4;}.cls-40{fill:#b57d00;}.cls-41{fill:#8e5f00;}.cls-42{fill:#d89000;}.cls-43{fill:#bc7800;}.cls-44{fill:#db8c00;}.cls-45{fill:#ea3232;}.cls-46{fill:#cc2323;}.cls-47,.cls-49{fill:#ff4343;}.cls-48{fill:#bc1e1e;}.cls-50{fill:#84451a;}.cls-51,.cls-52{fill:#bf6426;}.cls-53{fill:#036b32;}.cls-54{fill:url(#linear-gradient-3);}.cls-55{fill:#056537;}.cls-56{fill:#067c3e;}.cls-57{fill:#064729;}.cls-58{fill:#096b3a;}.cls-59{fill:#00602b;}.cls-60{fill:#0a7242;}.cls-61{fill:url(#linear-gradient-4);}.cls-62{fill:#0d7f46;}.cls-63{fill:url(#linear-gradient-5);}.cls-64{fill:url(#linear-gradient-6);}.cls-65{fill:#435282;}.cls-66,.cls-67,.cls-68{opacity:0.4;}.cls-66{fill:url(#linear-gradient-7);}.cls-67{fill:#e8343d;}.cls-68{fill:url(#linear-gradient-8);}.cls-69,.cls-83{fill:#e8a476;}.cls-70{fill:#f1b488;}.cls-71{fill:#70afe9;}.cls-72{fill:#63a4d6;}.cls-73,.cls-88{fill:#071b3d;}.cls-100,.cls-73,.cls-74,.cls-82,.cls-83{fill-rule:evenodd;}.cls-74,.cls-90{fill:#01305c;}.cls-100,.cls-75{fill:#f1b287;}.cls-76{fill:#ccffd9;}.cls-77{fill:#99bfa3;}.cls-78,.cls-82{fill:#db9669;}.cls-80{fill:#f6ff98;}.cls-81{fill:#f2b387;}.cls-84{fill:#fffc5c;}.cls-85{fill:#fff173;}.cls-86{fill:#ffea5c;}.cls-87{fill:#ffe173;}.cls-89{fill:#033d6d;}.cls-91{fill:#b8b8b8;}.cls-92{fill:#fff;}.cls-93{fill:#c1c1c1;}.cls-94{fill:#dbdbdb;}.cls-95{fill:#6d6a6a;}.cls-96{fill:#8c2b2b;}.cls-97{fill:#9c3030;}.cls-98{fill:#611e1e;}.cls-99{fill:#4c1717;}.cls-101{fill:url(#linear-gradient-9);}.cls-102{fill:url(#linear-gradient-10);}</style><linearGradient id="linear-gradient" x1="-869.04" y1="57.77" x2="-977.05" y2="110.44" gradientTransform="translate(994.53)" gradientUnits="userSpaceOnUse"><stop offset="0.01" stop-color="#656570"/><stop offset="0.99" stop-color="#9292a1"/></linearGradient><linearGradient id="linear-gradient-2" x1="-864.83" y1="70.85" x2="-908.52" y2="92.14" xlink:href="#linear-gradient"/><linearGradient id="linear-gradient-3" x1="706.34" y1="80.35" x2="724.94" y2="80.35" gradientTransform="matrix(-1, 0, 0, 1, 763.18, 0)" gradientUnits="userSpaceOnUse"><stop offset="0" stop-color="#064729"/><stop offset="0.97" stop-color="#043f21"/></linearGradient><linearGradient id="linear-gradient-4" x1="-944.81" y1="64.19" x2="-944.4" y2="37.12" gradientTransform="translate(994.53)" gradientUnits="userSpaceOnUse"><stop offset="0.03" stop-color="#056537"/><stop offset="0.99" stop-color="#056837"/></linearGradient><linearGradient id="linear-gradient-5" x1="-950.52" y1="58.9" x2="-913.97" y2="83.19" gradientTransform="translate(994.53)" gradientUnits="userSpaceOnUse"><stop offset="0" stop-color="#064729"/><stop offset="0.13" stop-color="#0d4b29"/><stop offset="0.22" stop-color="#154f28"/><stop offset="0.81" stop-color="#115a23"/><stop offset="1" stop-color="#0f5f21"/></linearGradient><linearGradient id="linear-gradient-6" x1="-930.72" y1="44.92" x2="-918.49" y2="67.8" gradientTransform="translate(994.53)" gradientUnits="userSpaceOnUse"><stop offset="0" stop-color="#055931"/><stop offset="0.1" stop-color="#055f35"/><stop offset="0.52" stop-color="#057646"/><stop offset="0.99" stop-color="#005436"/></linearGradient><linearGradient id="linear-gradient-7" x1="-930.24" y1="56.14" x2="-919.5" y2="56.14" gradientTransform="translate(994.53)" gradientUnits="userSpaceOnUse"><stop offset="0.01" stop-color="#dba292"/><stop offset="0.99" stop-color="#df807a"/></linearGradient><linearGradient id="linear-gradient-8" x1="-942.33" y1="45.02" x2="-938.97" y2="45.02" xlink:href="#linear-gradient-7"/><linearGradient id="linear-gradient-9" x1="-957.36" y1="63.56" x2="-931.48" y2="80.76" xlink:href="#linear-gradient-5"/><linearGradient id="linear-gradient-10" x1="710.29" y1="62.24" x2="716.87" y2="72.41" gradientTransform="matrix(-1, 0, 0, 1, 763.18, 0)" gradientUnits="userSpaceOnUse"><stop offset="0" stop-color="#055931"/><stop offset="0.52" stop-color="#057646"/><stop offset="0.99" stop-color="#056836"/></linearGradient></defs><g class="cls-1"><g id="Camada_2" data-name="Camada 2"><g id="Layer_1" data-name="Layer 1"><g class="cls-2"><path class="cls-3" d="M125.7,48.06c28.88,16.68,29,43.72.33,60.4s-75.38,16.68-104.27,0-29-43.72-.33-60.4S96.81,31.38,125.7,48.06Z"/></g><path class="cls-4" d="M126.14,69.74l-33,19.16-30,17.46-1.69,1a5,5,0,0,1-4.47,0L23.09,87.78c-1.24-.72-1.25-1.88,0-2.6L76.23,54.29l11.54-6.7a4.9,4.9,0,0,1,4.47,0L103.32,54l22.8,13.16C127.36,67.87,127.37,69,126.14,69.74Z"/><path class="cls-5" d="M127.06,68.45c0,1.12,0,2.24,0,3.36v0s0,0,0,.07,0,.06,0,.1v0s0,0,0,.06l0,.09v0l0,.06,0,.1,0,0,0,0-.07.11,0,0,0,0a.87.87,0,0,1-.13.15l0,0,0,0a.39.39,0,0,1-.1.08.71.71,0,0,1-.09.07l-.12.08-.07,0,0,0-33.9,19.7-30.8,17.9-.3.15-.08,0-.26.09,0,0h0l-.17,0a.53.53,0,0,1-.12,0l-.17,0-.11,0h0l-.36,0H58.67l-.15,0h-.14a.86.86,0,0,1-.17,0h-.13l-.2,0-.08,0h0l-.34-.11a0,0,0,0,0,0,0l0,0a3.36,3.36,0,0,1-.43-.2L23.08,91.13a1.59,1.59,0,0,1-.94-1.31c0-1.11,0-2.23,0-3.35a1.59,1.59,0,0,0,.94,1.31L57,107.34l.43.2,0,0c.11,0,.23.08.34.12l.11,0,.2,0,.13,0,.16,0,.15,0,.15,0h.76l.22,0h.12l.35,0,.12,0,.18,0,.11,0,.18,0,.09,0,.24-.09.09,0,.3-.15L93.5,88.71l32.64-19,.11-.07.12-.08.09-.07.1-.09,0,0,.13-.15.06-.07.07-.1a.3.3,0,0,0,0-.08.41.41,0,0,0,0-.09l0-.08,0-.1s0,0,0-.07,0-.07,0-.1S127.06,68.48,127.06,68.45Z"/><polygon class="cls-6" points="66.46 102.03 31.51 81.85 85.91 50.44 120.87 70.63 66.46 102.03"/><path class="cls-6" d="M47.61,93c1.61.93,1.61,2.45,0,3.38a6.5,6.5,0,0,1-5.86,0c-1.62-.93-1.62-2.45,0-3.38A6.5,6.5,0,0,1,47.61,93Z"/><path class="cls-7" d="M127.06,68.45c0,1.12,0,2.24,0,3.36v0s0,0,0,.07,0,.06,0,.1v0s0,0,0,.06l0,.09v0l0,.06,0,.1,0,0,0,0-.07.11,0,0,0,0a.87.87,0,0,1-.13.15l0,0,0,0a.39.39,0,0,1-.1.08.71.71,0,0,1-.09.07l-.12.08-.07,0,0,0-33.9,19.7,1.27-4.08,32.64-19,.11-.07.12-.08.09-.07.1-.09,0,0,.13-.15.06-.07.07-.1a.3.3,0,0,0,0-.08.41.41,0,0,0,0-.09l0-.08,0-.1s0,0,0-.07,0-.07,0-.1S127.06,68.48,127.06,68.45Z"/><path class="cls-8" d="M103.32,54c-1.81,6.29-6.8,23.59-10.15,34.91l-30,17.46,13.1-52.07,11.54-6.7a4.9,4.9,0,0,1,4.47,0Z"/><polygon class="cls-9" points="107.29 76.97 74.49 61.28 86.35 55.6 119.14 71.3 107.29 76.97"/><g class="cls-1"><polygon class="cls-10" points="106.87 73.93 106.86 75.64 78.42 62.03 78.43 60.32 106.87 73.93"/><polygon class="cls-11" points="106.87 73.93 116.9 69.1 116.89 70.81 106.86 75.64 106.87 73.93"/><polygon class="cls-12" points="78.43 60.32 88.46 55.49 116.9 69.1 106.87 73.93 78.43 60.32"/></g><g class="cls-1"><polygon class="cls-10" points="80.55 7.41 80.36 61.26 78.42 60.33 78.6 6.48 80.55 7.41"/><polygon class="cls-13" points="80.55 7.41 90.58 2.58 90.39 56.43 80.36 61.26 80.55 7.41"/><polygon class="cls-12" points="78.6 6.48 88.63 1.65 90.58 2.58 80.55 7.41 78.6 6.48"/></g><g class="cls-1"><polygon class="cls-14" points="81.36 53.63 81.33 61.2 82.34 61.68 82.36 54.11 81.36 53.63"/><polygon class="cls-15" points="82.34 61.68 84.78 60.48 84.78 52.94 82.36 54.11 82.34 61.68"/><polygon class="cls-16" points="82.36 54.11 84.78 52.94 83.78 52.46 81.36 53.63 82.36 54.11"/><polygon class="cls-15" points="81.61 53.63 81.79 53.71 82.36 53.99 84.66 52.88 84.08 52.6 83.9 52.52 81.61 53.63"/><polygon class="cls-17" points="81.79 53.71 82.36 53.99 84.66 52.88 84.08 52.6 81.79 53.71"/></g><polygon class="cls-16" points="81.59 60.89 82.11 61.14 82.11 54.7 81.59 54.45 81.59 60.89"/><g class="cls-1"><polygon class="cls-18" points="82.94 54.35 82.92 61.92 83.92 62.4 83.95 54.83 82.94 54.35"/><polygon class="cls-19" points="83.92 62.4 86.37 61.21 86.37 53.67 83.95 54.83 83.92 62.4"/><polygon class="cls-20" points="83.95 54.83 86.37 53.67 85.36 53.19 82.94 54.35 83.95 54.83"/><polygon class="cls-19" points="83.2 54.35 83.37 54.43 83.95 54.71 86.24 53.61 85.66 53.33 85.48 53.24 83.2 54.35"/><polygon class="cls-17" points="83.37 54.43 83.95 54.71 86.24 53.61 85.66 53.33 83.37 54.43"/></g><path class="cls-21" d="M83.67,61.89l-.51-.25s0,0,0,0V55.17s0,0,0,0h0l.52.25s0,0,0,0v6.44l0,0h0Zm-.46-6.66V61.6l.45.21V55.44Z"/><g class="cls-1"><polygon class="cls-14" points="84.37 55.07 84.34 62.64 85.35 63.12 85.38 55.56 84.37 55.07"/><polygon class="cls-15" points="85.35 63.12 87.79 61.93 87.79 54.39 85.38 55.56 85.35 63.12"/><polygon class="cls-16" points="85.38 55.56 87.79 54.39 86.79 53.91 84.37 55.07 85.38 55.56"/><polygon class="cls-15" points="84.62 55.07 84.8 55.16 85.38 55.43 87.66 54.33 87.09 54.05 86.91 53.97 84.62 55.07"/><polygon class="cls-17" points="84.8 55.16 85.38 55.43 87.66 54.33 87.09 54.05 84.8 55.16"/></g><polygon class="cls-16" points="84.6 62.34 85.12 62.59 85.12 56.14 84.6 55.9 84.6 62.34"/><polygon class="cls-22" points="85.82 59.72 85.81 63.3 86.65 63.7 86.66 60.12 85.82 59.72"/><polygon class="cls-23" points="86.65 63.7 88.15 62.98 88.16 59.4 86.66 60.12 86.65 63.7"/><polygon class="cls-22" points="85.82 59.72 86.66 60.12 88.16 59.4 88.08 59.36 87.4 59.03 87.32 59 85.82 59.72"/><polygon class="cls-23" points="85.98 59.72 86.13 59.78 86.66 60.04 88.08 59.36 87.54 59.1 87.4 59.03 85.98 59.72"/><polygon class="cls-17" points="86.13 59.78 86.66 60.04 88.08 59.36 87.54 59.1 86.13 59.78"/><path class="cls-24" d="M86.48,63.35,86,63.1h0v-3s0,0,0,0h0l.51.25h0v3a0,0,0,0,1,0,0h0ZM86,60.11v3l.47.23v-3Z"/><polygon class="cls-25" points="87.12 59.1 87.1 63.91 88.23 64.45 88.25 59.64 87.12 59.1"/><polygon class="cls-24" points="88.23 64.45 90.23 63.48 90.25 58.68 88.25 59.64 88.23 64.45"/><polygon class="cls-26" points="87.12 59.1 88.25 59.64 90.25 58.68 90.14 58.62 89.22 58.19 89.12 58.14 87.12 59.1"/><polygon class="cls-24" points="87.33 59.1 87.53 59.2 88.25 59.54 90.14 58.62 89.42 58.28 89.22 58.19 87.33 59.1"/><polygon class="cls-17" points="87.53 59.2 88.25 59.54 90.14 58.62 89.42 58.28 87.53 59.2"/><path class="cls-24" d="M88,64l-.69-.33a0,0,0,0,1,0,0v-4h0l.69.33s0,0,0,0v4s0,0,0,0h0Zm-.65-4.33v4l.64.31v-4Z"/><polygon class="cls-27" points="88.43 59.81 88.41 64.62 89.54 65.16 89.56 60.35 88.43 59.81"/><polygon class="cls-28" points="89.54 65.16 91.55 64.2 91.56 59.39 89.56 60.35 89.54 65.16"/><polygon class="cls-29" points="88.43 59.81 89.56 60.35 91.56 59.39 91.45 59.34 90.54 58.9 90.44 58.85 88.43 59.81"/><polygon class="cls-28" points="88.64 59.81 88.84 59.91 89.56 60.25 91.45 59.34 90.73 58.99 90.54 58.9 88.64 59.81"/><polygon class="cls-17" points="88.84 59.91 89.56 60.25 91.45 59.34 90.73 58.99 88.84 59.91"/><path class="cls-30" d="M89.32,64.69l-.69-.34h0v-4s0,0,0,0h0l.7.33s0,0,0,0v4h0Zm-.65-4.34v4l.64.31v-4Z"/><g class="cls-1"><polygon class="cls-25" points="90.09 59.3 90.08 65.35 90.88 65.73 90.9 59.69 90.09 59.3"/><polygon class="cls-31" points="90.88 65.73 92.83 64.78 92.83 58.76 90.9 59.69 90.88 65.73"/><polygon class="cls-32" points="90.9 59.69 92.83 58.76 92.03 58.38 90.09 59.3 90.9 59.69"/><polygon class="cls-33" points="90.3 59.3 90.44 59.37 90.9 59.59 92.73 58.71 92.27 58.49 92.13 58.42 90.3 59.3"/><polygon class="cls-17" points="90.44 59.37 90.9 59.59 92.73 58.71 92.27 58.49 90.44 59.37"/></g><polygon class="cls-34" points="90.28 65.11 90.69 65.3 90.69 60.16 90.28 59.96 90.28 65.11"/><g class="cls-1"><polygon class="cls-30" points="91.15 60.17 91.13 65.84 92.06 66.28 92.08 60.6 91.15 60.17"/><polygon class="cls-35" points="92.06 66.28 93.91 65.41 93.92 59.73 92.08 60.6 92.06 66.28"/><polygon class="cls-36" points="91.15 60.16 92.08 60.6 93.92 59.73 93.83 59.69 93.09 59.34 92.99 59.29 91.15 60.16"/><polygon class="cls-35" points="91.34 60.16 91.5 60.24 92.08 60.51 93.83 59.69 93.24 59.41 93.09 59.34 91.34 60.16"/><polygon class="cls-17" points="91.5 60.24 92.08 60.51 93.83 59.69 93.24 59.41 91.5 60.24"/></g><polygon class="cls-36" points="91.17 60.69 92.03 61.09 92.03 60.73 91.17 60.33 91.17 60.69"/><polygon class="cls-36" points="91.17 61.31 92.03 61.72 92.03 61.35 91.17 60.95 91.17 61.31"/><polygon class="cls-36" points="91.17 61.93 92.03 62.34 92.03 61.98 91.17 61.57 91.17 61.93"/><polygon class="cls-36" points="91.17 62.55 92.03 62.96 92.03 62.6 91.17 62.19 91.17 62.55"/><polygon class="cls-36" points="91.17 63.17 92.03 63.58 92.03 63.22 91.17 62.81 91.17 63.17"/><polygon class="cls-36" points="91.17 63.79 92.03 64.2 92.03 63.84 91.17 63.43 91.17 63.79"/><g class="cls-1"><polygon class="cls-14" points="92.28 60.65 92.27 66.42 93.03 66.78 93.05 61.02 92.28 60.65"/><polygon class="cls-15" points="93.03 66.78 94.89 65.88 94.89 60.13 93.05 61.02 93.03 66.78"/><polygon class="cls-16" points="93.05 61.02 94.89 60.13 94.13 59.76 92.28 60.65 93.05 61.02"/><polygon class="cls-15" points="92.48 60.65 92.61 60.71 93.05 60.92 94.79 60.08 94.36 59.87 94.22 59.81 92.48 60.65"/><polygon class="cls-17" points="92.61 60.71 93.05 60.92 94.79 60.08 94.36 59.87 92.61 60.71"/></g><polygon class="cls-16" points="92.46 66.18 92.86 66.37 92.86 61.47 92.46 61.28 92.46 66.18"/><g class="cls-1"><polygon class="cls-37" points="93.78 60.96 93.76 67.09 94.57 67.48 94.59 61.35 93.78 60.96"/><polygon class="cls-38" points="94.57 67.48 96.55 66.52 96.55 60.41 94.59 61.35 94.57 67.48"/><polygon class="cls-39" points="94.59 61.35 96.55 60.41 95.74 60.02 93.78 60.96 94.59 61.35"/><polygon class="cls-38" points="93.98 60.96 94.13 61.03 94.59 61.25 96.45 60.36 95.98 60.13 95.84 60.06 93.98 60.96"/><polygon class="cls-17" points="94.13 61.03 94.59 61.25 96.45 60.36 95.98 60.13 94.13 61.03"/></g><polygon class="cls-14" points="93.97 66.84 94.38 67.05 94.38 61.83 93.97 61.63 93.97 66.84"/><g class="cls-1"><polygon class="cls-25" points="95.34 61.79 95.32 67.85 96.13 68.23 96.15 62.18 95.34 61.79"/><polygon class="cls-31" points="96.13 68.23 98.08 67.28 98.08 61.25 96.15 62.18 96.13 68.23"/><polygon class="cls-32" points="96.15 62.18 98.08 61.25 97.28 60.86 95.34 61.79 96.15 62.18"/><polygon class="cls-33" points="95.54 61.79 95.68 61.86 96.15 62.08 97.98 61.2 97.52 60.98 97.38 60.91 95.54 61.79"/><polygon class="cls-17" points="95.68 61.86 96.15 62.08 97.98 61.2 97.52 60.98 95.68 61.86"/></g><polygon class="cls-34" points="95.53 67.6 95.94 67.8 95.94 62.65 95.53 62.45 95.53 67.6"/><g class="cls-1"><polygon class="cls-14" points="96.97 62.55 96.95 68.64 97.75 69.02 97.78 62.94 96.97 62.55"/><polygon class="cls-15" points="97.75 69.02 99.72 68.06 99.72 62.01 97.78 62.94 97.75 69.02"/><polygon class="cls-16" points="97.78 62.94 99.72 62.01 98.91 61.62 96.97 62.55 97.78 62.94"/><polygon class="cls-15" points="97.17 62.55 97.31 62.62 97.78 62.84 99.62 61.96 99.15 61.73 99.01 61.67 97.17 62.55"/><polygon class="cls-17" points="97.31 62.62 97.78 62.84 99.62 61.96 99.15 61.73 97.31 62.62"/></g><polygon class="cls-16" points="97.15 68.39 97.57 68.59 97.57 63.41 97.15 63.21 97.15 68.39"/><g class="cls-1"><polygon class="cls-40" points="97.98 63.05 97.96 69.12 98.95 69.59 98.98 63.51 97.98 63.05"/><polygon class="cls-41" points="98.95 69.59 100.93 68.66 100.95 62.58 98.98 63.51 98.95 69.59"/><polygon class="cls-42" points="97.98 63.05 98.98 63.51 100.95 62.58 100.84 62.53 100.06 62.16 99.95 62.11 97.98 63.05"/><polygon class="cls-43" points="98.19 63.05 98.35 63.12 98.98 63.41 100.84 62.53 100.22 62.23 100.06 62.16 98.19 63.05"/><polygon class="cls-17" points="98.35 63.12 98.98 63.41 100.84 62.53 100.22 62.23 98.35 63.12"/></g><polygon class="cls-44" points="98 63.6 98.93 64.04 98.93 63.65 98 63.22 98 63.6"/><polygon class="cls-44" points="98 64.27 98.93 64.7 98.93 64.32 98 63.88 98 64.27"/><polygon class="cls-44" points="98 64.93 98.93 65.37 98.93 64.98 98 64.55 98 64.93"/><polygon class="cls-44" points="98 65.6 98.93 66.03 98.93 65.65 98 65.21 98 65.6"/><polygon class="cls-44" points="98 66.26 98.93 66.7 98.93 66.31 98 65.88 98 66.26"/><polygon class="cls-44" points="98 66.93 98.93 67.36 98.93 66.97 98 66.54 98 66.93"/><g class="cls-1"><polygon class="cls-30" points="99.16 63.69 99.13 69.68 100.12 70.14 100.14 64.16 99.16 63.69"/><polygon class="cls-35" points="100.12 70.14 102.06 69.22 102.08 63.24 100.14 64.16 100.12 70.14"/><polygon class="cls-36" points="99.16 63.69 100.14 64.16 102.08 63.24 101.98 63.19 101.21 62.82 101.1 62.77 99.16 63.69"/><polygon class="cls-35" points="99.36 63.69 99.52 63.77 100.14 64.06 101.98 63.19 101.37 62.9 101.21 62.82 99.36 63.69"/><polygon class="cls-17" points="99.52 63.77 100.14 64.06 101.98 63.19 101.37 62.9 99.52 63.77"/></g><polygon class="cls-36" points="99.19 64.25 100.09 64.67 100.09 64.29 99.19 63.87 99.19 64.25"/><polygon class="cls-36" points="99.19 64.9 100.09 65.33 100.09 64.95 99.19 64.52 99.19 64.9"/><polygon class="cls-36" points="99.19 65.56 100.09 65.98 100.09 65.6 99.19 65.17 99.19 65.56"/><polygon class="cls-36" points="99.19 66.21 100.09 66.64 100.09 66.26 99.19 65.83 99.19 66.21"/><polygon class="cls-36" points="99.19 66.87 100.09 67.29 100.09 66.91 99.19 66.48 99.19 66.87"/><polygon class="cls-36" points="99.19 67.52 100.09 67.95 100.09 67.57 99.19 67.14 99.19 67.52"/><polygon class="cls-14" points="100.3 65.56 100.29 70.22 101.38 70.74 101.39 66.08 100.3 65.56"/><polygon class="cls-15" points="101.38 70.74 103.32 69.8 103.34 65.14 101.39 66.08 101.38 70.74"/><polygon class="cls-16" points="100.3 65.56 101.39 66.08 103.34 65.14 103.23 65.09 102.35 64.67 102.25 64.62 100.3 65.56"/><polygon class="cls-15" points="100.5 65.56 100.7 65.64 101.39 65.98 103.23 65.09 102.54 64.75 102.35 64.67 100.5 65.56"/><polygon class="cls-17" points="100.7 65.64 101.39 65.98 103.23 65.09 102.54 64.75 100.7 65.64"/><path class="cls-15" d="M101.16,70.28l-.67-.32s0,0,0,0V66s0,0,0,0h0l.67.32s0,0,0,0v3.92h0Zm-.63-4.21v3.86l.62.29V66.37Z"/><polygon class="cls-27" points="102.14 65.03 102.12 71.4 103.61 72.11 103.63 65.74 102.14 65.03"/><polygon class="cls-28" points="103.61 72.11 106.27 70.83 106.29 64.46 103.63 65.74 103.61 72.11"/><polygon class="cls-29" points="102.14 65.03 103.63 65.74 106.29 64.46 106.14 64.39 104.93 63.81 104.8 63.75 102.14 65.03"/><polygon class="cls-28" points="102.42 65.03 102.68 65.15 103.63 65.61 106.14 64.39 105.19 63.94 104.93 63.81 102.42 65.03"/><polygon class="cls-17" points="102.68 65.15 103.63 65.61 106.14 64.39 105.19 63.94 102.68 65.15"/><path class="cls-30" d="M103.31,71.48,102.4,71l0,0V65.69l0,0h0l.91.44s0,0,0,0v5.33l0,0h0Zm-.86-5.74V71l.85.4V66.14Z"/><g class="cls-1"><polygon class="cls-10" points="104.94 64.27 104.93 65.75 80.36 53.99 80.37 52.52 104.94 64.27"/><polygon class="cls-11" points="104.94 64.27 113.6 60.1 113.59 61.58 104.93 65.75 104.94 64.27"/><polygon class="cls-12" points="80.37 52.52 90.41 47.66 114.97 59.42 104.94 64.27 80.37 52.52"/></g><g class="cls-1"><polygon class="cls-25" points="81.62 44.44 81.59 52.03 82.6 52.51 82.62 44.92 81.62 44.44"/><polygon class="cls-31" points="82.6 52.51 85.05 51.32 85.05 43.75 82.62 44.92 82.6 52.51"/><polygon class="cls-32" points="82.62 44.92 85.05 43.75 84.04 43.27 81.62 44.44 82.62 44.92"/><polygon class="cls-33" points="81.87 44.44 82.04 44.52 82.62 44.8 84.92 43.69 84.34 43.41 84.17 43.33 81.87 44.44"/><polygon class="cls-17" points="82.04 44.52 82.62 44.8 84.92 43.69 84.34 43.41 82.04 44.52"/></g><polygon class="cls-34" points="81.85 51.72 82.37 51.97 82.37 45.51 81.85 45.26 81.85 51.72"/><g class="cls-1"><polygon class="cls-45" points="82.95 45.08 82.92 52.67 83.93 53.15 83.96 45.56 82.95 45.08"/><polygon class="cls-46" points="83.93 53.15 86.38 51.96 86.38 44.39 83.96 45.56 83.93 53.15"/><polygon class="cls-47" points="83.96 45.56 86.38 44.39 85.38 43.91 82.95 45.08 83.96 45.56"/><polygon class="cls-48" points="83.21 45.08 83.38 45.16 83.96 45.44 86.25 44.33 85.68 44.05 85.5 43.97 83.21 45.08"/><polygon class="cls-17" points="83.38 45.16 83.96 45.44 86.25 44.33 85.68 44.05 83.38 45.16"/></g><polygon class="cls-49" points="83.18 52.36 83.7 52.61 83.7 46.15 83.18 45.9 83.18 52.36"/><g class="cls-1"><polygon class="cls-25" points="84.38 45.77 84.35 53.36 85.36 53.84 85.38 46.25 84.38 45.77"/><polygon class="cls-31" points="85.36 53.84 87.81 52.65 87.81 45.08 85.38 46.25 85.36 53.84"/><polygon class="cls-32" points="85.38 46.25 87.81 45.08 86.8 44.6 84.38 45.77 85.38 46.25"/><polygon class="cls-33" points="84.63 45.77 84.81 45.85 85.38 46.13 87.68 45.02 87.1 44.74 86.93 44.66 84.63 45.77"/><polygon class="cls-17" points="84.81 45.85 85.38 46.13 87.68 45.02 87.1 44.74 84.81 45.85"/></g><polygon class="cls-34" points="84.61 53.05 85.13 53.3 85.13 46.84 84.61 46.59 84.61 53.05"/><g class="cls-1"><polygon class="cls-14" points="86.03 46.97 86.01 54.22 86.97 54.68 87 47.43 86.03 46.97"/><polygon class="cls-15" points="86.97 54.68 89.31 53.54 89.31 46.32 87 47.43 86.97 54.68"/><polygon class="cls-16" points="87 47.43 89.31 46.32 88.35 45.86 86.03 46.97 87 47.43"/><polygon class="cls-15" points="86.28 46.97 86.45 47.05 87 47.32 89.19 46.26 88.64 45.99 88.47 45.91 86.28 46.97"/><polygon class="cls-17" points="86.45 47.05 87 47.32 89.19 46.26 88.64 45.99 86.45 47.05"/></g><polygon class="cls-16" points="86.26 53.92 86.75 54.16 86.75 48 86.26 47.76 86.26 53.92"/><g class="cls-1"><polygon class="cls-40" points="87.54 47.69 87.52 54.92 88.7 55.48 88.73 48.24 87.54 47.69"/><polygon class="cls-41" points="88.7 55.48 91.06 54.37 91.08 47.13 88.73 48.24 88.7 55.48"/><polygon class="cls-42" points="87.54 47.69 88.73 48.24 91.08 47.13 90.96 47.07 90.02 46.63 89.89 46.57 87.54 47.69"/><polygon class="cls-43" points="87.79 47.69 87.98 47.78 88.73 48.13 90.96 47.07 90.21 46.72 90.02 46.63 87.79 47.69"/><polygon class="cls-17" points="87.98 47.78 88.73 48.13 90.96 47.07 90.21 46.72 87.98 47.78"/></g><polygon class="cls-44" points="87.57 48.35 88.67 48.87 88.67 48.41 87.57 47.89 87.57 48.35"/><polygon class="cls-44" points="87.57 49.14 88.67 49.66 88.67 49.2 87.57 48.68 87.57 49.14"/><polygon class="cls-44" points="87.57 49.94 88.67 50.45 88.67 49.99 87.57 49.48 87.57 49.94"/><polygon class="cls-44" points="87.57 50.73 88.67 51.24 88.67 50.78 87.57 50.27 87.57 50.73"/><polygon class="cls-44" points="87.57 51.52 88.67 52.04 88.67 51.58 87.57 51.06 87.57 51.52"/><polygon class="cls-44" points="87.57 52.31 88.67 52.83 88.67 52.37 87.57 51.85 87.57 52.31"/><g class="cls-1"><polygon class="cls-25" points="89.33 48.17 89.3 55.76 90.31 56.24 90.33 48.65 89.33 48.17"/><polygon class="cls-31" points="90.31 56.24 92.76 55.05 92.76 47.48 90.33 48.65 90.31 56.24"/><polygon class="cls-32" points="90.33 48.65 92.76 47.48 91.75 47 89.33 48.17 90.33 48.65"/><polygon class="cls-33" points="89.58 48.17 89.75 48.26 90.33 48.53 92.63 47.42 92.05 47.15 91.88 47.06 89.58 48.17"/><polygon class="cls-17" points="89.75 48.26 90.33 48.53 92.63 47.42 92.05 47.15 89.75 48.26"/></g><polygon class="cls-34" points="89.56 55.45 90.08 55.7 90.08 49.24 89.56 48.99 89.56 55.45"/><g class="cls-1"><polygon class="cls-30" points="90.73 49.31 90.7 56.44 91.88 56.99 91.9 49.87 90.73 49.31"/><polygon class="cls-35" points="91.88 56.99 94.19 55.9 94.22 48.77 91.9 49.87 91.88 56.99"/><polygon class="cls-36" points="90.73 49.31 91.9 49.87 94.22 48.77 94.09 48.71 93.17 48.27 93.05 48.21 90.73 49.31"/><polygon class="cls-35" points="90.97 49.31 91.17 49.4 91.9 49.75 94.09 48.71 93.36 48.36 93.17 48.27 90.97 49.31"/><polygon class="cls-17" points="91.17 49.4 91.9 49.75 94.09 48.71 93.36 48.36 91.17 49.4"/></g><polygon class="cls-36" points="90.76 49.97 91.84 50.48 91.84 50.02 90.76 49.52 90.76 49.97"/><polygon class="cls-36" points="90.76 50.75 91.84 51.26 91.84 50.81 90.76 50.3 90.76 50.75"/><polygon class="cls-36" points="90.76 51.53 91.84 52.04 91.84 51.59 90.76 51.08 90.76 51.53"/><polygon class="cls-36" points="90.76 52.31 91.84 52.82 91.84 52.37 90.76 51.86 90.76 52.31"/><polygon class="cls-36" points="90.76 53.09 91.84 53.6 91.84 53.15 90.76 52.64 90.76 53.09"/><polygon class="cls-36" points="90.76 53.87 91.84 54.38 91.84 53.92 90.76 53.42 90.76 53.87"/><g class="cls-1"><polygon class="cls-14" points="92.15 49.87 92.13 57.12 93.09 57.58 93.12 50.33 92.15 49.87"/><polygon class="cls-15" points="93.09 57.58 95.43 56.44 95.43 49.22 93.12 50.33 93.09 57.58"/><polygon class="cls-16" points="93.12 50.33 95.43 49.22 94.47 48.76 92.15 49.87 93.12 50.33"/><polygon class="cls-15" points="92.4 49.87 92.56 49.95 93.12 50.22 95.3 49.16 94.75 48.9 94.59 48.81 92.4 49.87"/><polygon class="cls-17" points="92.56 49.95 93.12 50.22 95.3 49.16 94.75 48.9 92.56 49.95"/></g><polygon class="cls-16" points="92.37 56.82 92.87 57.06 92.87 50.9 92.37 50.66 92.37 56.82"/><g class="cls-1"><polygon class="cls-37" points="93.83 50.23 93.81 57.93 94.83 58.42 94.86 50.72 93.83 50.23"/><polygon class="cls-38" points="94.83 58.42 97.32 57.21 97.32 49.54 94.86 50.72 94.83 58.42"/><polygon class="cls-39" points="94.86 50.72 97.32 49.54 96.3 49.05 93.83 50.23 94.86 50.72"/><polygon class="cls-38" points="94.09 50.23 94.27 50.31 94.86 50.6 97.19 49.47 96.6 49.19 96.42 49.11 94.09 50.23"/><polygon class="cls-17" points="94.27 50.31 94.86 50.6 97.19 49.47 96.6 49.19 94.27 50.31"/></g><polygon class="cls-14" points="94.07 57.62 94.6 57.87 94.6 51.32 94.07 51.07 94.07 57.62"/><g class="cls-1"><polygon class="cls-25" points="96.07 51.4 96.04 58.99 97.05 59.47 97.08 51.88 96.07 51.4"/><polygon class="cls-31" points="97.05 59.47 99.5 58.28 99.5 50.71 97.08 51.88 97.05 59.47"/><polygon class="cls-32" points="97.08 51.88 99.5 50.71 98.49 50.23 96.07 51.4 97.08 51.88"/><polygon class="cls-33" points="96.32 51.4 96.5 51.48 97.08 51.76 99.37 50.65 98.8 50.38 98.62 50.29 96.32 51.4"/><polygon class="cls-17" points="96.5 51.48 97.08 51.76 99.37 50.65 98.8 50.38 96.5 51.48"/></g><polygon class="cls-34" points="96.3 58.69 96.82 58.93 96.82 52.47 96.3 52.22 96.3 58.69"/><g class="cls-1"><polygon class="cls-14" points="98.15 52.31 98.13 59.94 99.14 60.42 99.17 52.8 98.15 52.31"/><polygon class="cls-15" points="99.14 60.42 101.6 59.22 101.6 51.62 99.17 52.8 99.14 60.42"/><polygon class="cls-16" points="99.17 52.8 101.6 51.62 100.59 51.14 98.15 52.31 99.17 52.8"/><polygon class="cls-15" points="98.41 52.31 98.58 52.4 99.17 52.67 101.47 51.56 100.89 51.28 100.72 51.2 98.41 52.31"/><polygon class="cls-17" points="98.58 52.4 99.17 52.67 101.47 51.56 100.89 51.28 98.58 52.4"/></g><polygon class="cls-16" points="98.39 59.63 98.91 59.88 98.91 53.39 98.39 53.14 98.39 59.63"/><g class="cls-1"><polygon class="cls-40" points="99.4 52.95 99.37 60.57 100.63 61.16 100.65 53.54 99.4 52.95"/><polygon class="cls-41" points="100.63 61.16 103.1 59.99 103.13 52.37 100.65 53.54 100.63 61.16"/><polygon class="cls-42" points="99.4 52.95 100.65 53.54 103.13 52.37 103 52.31 102 51.84 101.88 51.78 99.4 52.95"/><polygon class="cls-43" points="99.66 52.95 99.87 53.05 100.65 53.42 103 52.31 102.21 51.94 102 51.84 99.66 52.95"/><polygon class="cls-17" points="99.87 53.05 100.65 53.42 103 52.31 102.21 51.94 99.87 53.05"/></g><polygon class="cls-44" points="99.44 53.65 100.59 54.2 100.59 53.71 99.44 53.17 99.44 53.65"/><polygon class="cls-44" points="99.44 54.48 100.59 55.03 100.59 54.55 99.44 54 99.44 54.48"/><polygon class="cls-44" points="99.44 55.32 100.59 55.86 100.59 55.38 99.44 54.84 99.44 55.32"/><polygon class="cls-44" points="99.44 56.15 100.59 56.7 100.59 56.21 99.44 55.67 99.44 56.15"/><polygon class="cls-44" points="99.44 56.99 100.59 57.53 100.59 57.05 99.44 56.5 99.44 56.99"/><polygon class="cls-44" points="99.44 57.82 100.59 58.36 100.59 57.88 99.44 57.34 99.44 57.82"/><g class="cls-1"><polygon class="cls-30" points="100.93 53.73 100.9 61.24 102.14 61.82 102.16 54.31 100.93 53.73"/><polygon class="cls-35" points="102.14 61.82 104.58 60.66 104.6 53.16 102.16 54.31 102.14 61.82"/><polygon class="cls-36" points="100.93 53.73 102.16 54.31 104.6 53.16 104.47 53.1 103.5 52.64 103.37 52.58 100.93 53.73"/><polygon class="cls-35" points="101.19 53.73 101.39 53.83 102.16 54.19 104.47 53.1 103.7 52.73 103.5 52.64 101.19 53.73"/><polygon class="cls-17" points="101.39 53.83 102.16 54.19 104.47 53.1 103.7 52.73 101.39 53.83"/></g><polygon class="cls-36" points="100.96 54.42 102.1 54.96 102.1 54.48 100.96 53.95 100.96 54.42"/><polygon class="cls-36" points="100.96 55.25 102.1 55.78 102.1 55.3 100.96 54.77 100.96 55.25"/><polygon class="cls-36" points="100.96 56.07 102.1 56.6 102.1 56.12 100.96 55.59 100.96 56.07"/><polygon class="cls-36" points="100.96 56.89 102.1 57.42 102.1 56.95 100.96 56.41 100.96 56.89"/><polygon class="cls-36" points="100.96 57.71 102.1 58.24 102.1 57.77 100.96 57.23 100.96 57.71"/><polygon class="cls-36" points="100.96 58.53 102.1 59.06 102.1 58.59 100.96 58.05 100.96 58.53"/><polygon class="cls-14" points="102.37 56.09 102.36 61.94 103.72 62.6 103.74 56.75 102.37 56.09"/><polygon class="cls-15" points="103.72 62.6 106.17 61.42 106.18 55.58 103.74 56.75 103.72 62.6"/><polygon class="cls-16" points="102.37 56.1 103.75 56.75 106.18 55.58 106.05 55.51 104.94 54.98 104.81 54.92 102.37 56.1"/><polygon class="cls-15" points="102.63 56.09 102.87 56.21 103.75 56.63 106.05 55.51 105.18 55.09 104.94 54.98 102.63 56.09"/><polygon class="cls-17" points="102.87 56.21 103.75 56.63 106.05 55.51 105.18 55.09 102.87 56.21"/><path class="cls-15" d="M103.45,62l-.84-.41s0,0,0,0V56.7s0,0,0,0h0l.84.4V62s0,0,0,0h0Zm-.79-5.27v4.83l.78.37V57.12Z"/><g class="cls-1"><polygon class="cls-10" points="104.94 52.44 104.93 53.91 80.37 42.15 80.37 40.68 104.94 52.44"/><polygon class="cls-11" points="104.94 52.44 113.6 48.26 113.6 49.74 104.93 53.91 104.94 52.44"/><polygon class="cls-12" points="80.37 40.68 90.41 35.82 114.98 47.58 104.94 52.44 80.37 40.68"/></g><polygon class="cls-27" points="82.88 35.13 82.86 40.68 84.16 41.31 84.18 35.75 82.88 35.13"/><polygon class="cls-28" points="84.16 41.31 86.48 40.19 86.5 34.63 84.18 35.75 84.16 41.31"/><polygon class="cls-29" points="82.88 35.13 84.18 35.75 86.5 34.63 86.37 34.57 85.31 34.07 85.19 34.01 82.88 35.13"/><polygon class="cls-28" points="83.12 35.13 83.35 35.24 84.18 35.63 86.37 34.57 85.54 34.18 85.31 34.07 83.12 35.13"/><polygon class="cls-17" points="83.35 35.24 84.18 35.63 86.37 34.57 85.54 34.18 83.35 35.24"/><path class="cls-30" d="M83.9,40.75l-.8-.38V35.7s0,0,0,0h0l.79.38,0,0v4.65a0,0,0,0,1,0,0h0Zm-.75-5v4.58l.74.36V36.1Z"/><g class="cls-1"><polygon class="cls-14" points="84.76 34.33 84.74 41.57 85.69 42.03 85.72 34.79 84.76 34.33"/><polygon class="cls-15" points="85.69 42.03 88.03 40.89 88.03 33.67 85.72 34.79 85.69 42.03"/><polygon class="cls-16" points="85.72 34.79 88.03 33.67 87.07 33.22 84.76 34.33 85.72 34.79"/><polygon class="cls-15" points="85 34.33 85.17 34.41 85.72 34.67 87.91 33.62 87.36 33.35 87.19 33.27 85 34.33"/><polygon class="cls-17" points="85.17 34.41 85.72 34.67 87.91 33.62 87.36 33.35 85.17 34.41"/></g><polygon class="cls-16" points="84.98 41.28 85.48 41.52 85.48 35.35 84.98 35.12 84.98 41.28"/><g class="cls-1"><polygon class="cls-18" points="85.97 34.89 85.94 42.13 86.91 42.59 86.93 35.35 85.97 34.89"/><polygon class="cls-19" points="86.91 42.59 89.25 41.45 89.25 34.23 86.93 35.35 86.91 42.59"/><polygon class="cls-20" points="86.93 35.35 89.25 34.23 88.28 33.77 85.97 34.89 86.93 35.35"/><polygon class="cls-19" points="86.21 34.89 86.38 34.97 86.93 35.23 89.12 34.18 88.57 33.91 88.4 33.83 86.21 34.89"/><polygon class="cls-17" points="86.38 34.97 86.93 35.23 89.12 34.18 88.57 33.91 86.38 34.97"/></g><path class="cls-21" d="M86.67,42.1l-.5-.24a0,0,0,0,1,0,0V35.67a0,0,0,0,1,0,0h0l.5.24s0,0,0,0v6.17s0,0,0,0h0Zm-.44-6.37v6.09l.42.2V35.93Z"/><g class="cls-1"><polygon class="cls-14" points="87.3 35.49 87.28 42.73 88.24 43.19 88.26 35.95 87.3 35.49"/><polygon class="cls-15" points="88.24 43.19 90.58 42.05 90.58 34.84 88.26 35.95 88.24 43.19"/><polygon class="cls-16" points="88.26 35.95 90.58 34.84 89.61 34.38 87.3 35.49 88.26 35.95"/><polygon class="cls-15" points="87.54 35.49 87.71 35.57 88.26 35.83 90.45 34.78 89.9 34.51 89.73 34.43 87.54 35.49"/><polygon class="cls-17" points="87.71 35.57 88.26 35.83 90.45 34.78 89.9 34.51 87.71 35.57"/></g><polygon class="cls-16" points="87.52 42.44 88.02 42.67 88.02 36.51 87.52 36.27 87.52 42.44"/><g class="cls-1"><polygon class="cls-25" points="88.76 35.92 88.74 43.48 89.74 43.96 89.77 36.4 88.76 35.92"/><polygon class="cls-31" points="89.74 43.96 92.18 42.77 92.18 35.24 89.77 36.4 89.74 43.96"/><polygon class="cls-32" points="89.77 36.4 92.18 35.24 91.18 34.76 88.76 35.92 89.77 36.4"/><polygon class="cls-33" points="89.02 35.92 89.19 36.01 89.77 36.28 92.05 35.18 91.47 34.9 91.3 34.82 89.02 35.92"/><polygon class="cls-17" points="89.19 36.01 89.77 36.28 92.05 35.18 91.47 34.9 89.19 36.01"/></g><polygon class="cls-34" points="88.99 43.17 89.51 43.42 89.51 36.99 88.99 36.74 88.99 43.17"/><g class="cls-1"><polygon class="cls-30" points="90.02 36.94 90 44.07 91.17 44.62 91.19 37.49 90.02 36.94"/><polygon class="cls-35" points="91.17 44.62 93.49 43.52 93.51 36.39 91.19 37.49 91.17 44.62"/><polygon class="cls-36" points="90.02 36.94 91.19 37.49 93.51 36.39 93.39 36.34 92.46 35.9 92.34 35.84 90.02 36.94"/><polygon class="cls-35" points="90.27 36.94 90.46 37.03 91.19 37.37 93.39 36.34 92.66 35.99 92.46 35.9 90.27 36.94"/><polygon class="cls-17" points="90.46 37.03 91.19 37.37 93.39 36.34 92.66 35.99 90.46 37.03"/></g><polygon class="cls-36" points="90.05 37.59 91.14 38.1 91.14 37.65 90.05 37.14 90.05 37.59"/><polygon class="cls-36" points="90.05 38.38 91.14 38.88 91.14 38.43 90.05 37.92 90.05 38.38"/><polygon class="cls-36" points="90.05 39.16 91.14 39.66 91.14 39.21 90.05 38.7 90.05 39.16"/><polygon class="cls-36" points="90.05 39.93 91.14 40.44 91.14 39.99 90.05 39.48 90.05 39.93"/><polygon class="cls-36" points="90.05 40.72 91.14 41.22 91.14 40.77 90.05 40.26 90.05 40.72"/><polygon class="cls-36" points="90.05 41.49 91.14 42.01 91.14 41.55 90.05 41.04 90.05 41.49"/><g class="cls-1"><polygon class="cls-14" points="91.29 37.48 91.26 44.73 92.22 45.19 92.25 37.94 91.29 37.48"/><polygon class="cls-15" points="92.22 45.19 94.56 44.05 94.56 36.83 92.25 37.94 92.22 45.19"/><polygon class="cls-16" points="92.25 37.94 94.56 36.83 93.6 36.37 91.29 37.48 92.25 37.94"/><polygon class="cls-15" points="91.53 37.48 91.69 37.56 92.25 37.83 94.44 36.77 93.89 36.51 93.72 36.43 91.53 37.48"/><polygon class="cls-17" points="91.69 37.56 92.25 37.83 94.44 36.77 93.89 36.51 91.69 37.56"/></g><polygon class="cls-16" points="91.5 44.43 92 44.67 92 38.51 91.5 38.27 91.5 44.43"/><polygon class="cls-25" points="92.79 39.83 92.77 45.39 94.07 46.01 94.09 40.45 92.79 39.83"/><polygon class="cls-24" points="94.07 46.01 96.38 44.9 96.4 39.34 94.09 40.45 94.07 46.01"/><polygon class="cls-26" points="92.79 39.83 94.09 40.46 96.4 39.34 96.28 39.28 95.22 38.77 95.1 38.72 92.79 39.83"/><polygon class="cls-24" points="93.03 39.83 93.26 39.94 94.09 40.34 96.28 39.28 95.45 38.88 95.22 38.77 93.03 39.83"/><polygon class="cls-17" points="93.26 39.94 94.09 40.34 96.28 39.28 95.45 38.88 93.26 39.94"/><path class="cls-24" d="M93.81,45.46l-.8-.38a0,0,0,0,1,0,0V40.41s0,0,0,0h0l.8.38,0,0v4.65s0,0,0,0h0Zm-.75-5V45l.74.35V40.8Z"/><g class="cls-1"><polygon class="cls-14" points="94.48 38.68 94.46 46.25 95.46 46.73 95.49 39.16 94.48 38.68"/><polygon class="cls-15" points="95.46 46.73 97.91 45.54 97.91 38 95.49 39.16 95.46 46.73"/><polygon class="cls-16" points="95.49 39.16 97.91 38 96.9 37.52 94.48 38.68 95.49 39.16"/><polygon class="cls-15" points="94.74 38.68 94.91 38.76 95.49 39.04 97.78 37.94 97.2 37.66 97.03 37.58 94.74 38.68"/><polygon class="cls-17" points="94.91 38.76 95.49 39.04 97.78 37.94 97.2 37.66 94.91 38.76"/></g><polygon class="cls-16" points="94.71 45.94 95.23 46.19 95.23 39.75 94.71 39.5 94.71 45.94"/><g class="cls-1"><polygon class="cls-18" points="95.75 39.27 95.73 46.84 96.73 47.32 96.76 39.75 95.75 39.27"/><polygon class="cls-19" points="96.73 47.32 99.18 46.13 99.18 38.58 96.76 39.75 96.73 47.32"/><polygon class="cls-20" points="96.76 39.75 99.18 38.58 98.17 38.1 95.75 39.27 96.76 39.75"/><polygon class="cls-19" points="96.01 39.27 96.18 39.35 96.76 39.63 99.05 38.52 98.47 38.25 98.3 38.16 96.01 39.27"/><polygon class="cls-17" points="96.18 39.35 96.76 39.63 99.05 38.52 98.47 38.25 96.18 39.35"/></g><path class="cls-21" d="M96.49,46.81,96,46.56s0,0,0,0V40.09s0,0,0,0h0l.52.25s0,0,0,0v6.44l0,0h0ZM96,40.14v6.37l.45.22V40.35Z"/><g class="cls-1"><polygon class="cls-14" points="97.06 39.87 97.03 47.44 98.04 47.92 98.06 40.35 97.06 39.87"/><polygon class="cls-15" points="98.04 47.92 100.48 46.73 100.48 39.19 98.06 40.35 98.04 47.92"/><polygon class="cls-16" points="98.06 40.35 100.48 39.19 99.47 38.71 97.06 39.87 98.06 40.35"/><polygon class="cls-15" points="97.31 39.87 97.49 39.95 98.06 40.23 100.35 39.13 99.78 38.85 99.6 38.77 97.31 39.87"/><polygon class="cls-17" points="97.49 39.95 98.06 40.23 100.35 39.13 99.78 38.85 97.49 39.95"/></g><polygon class="cls-16" points="97.29 47.13 97.81 47.38 97.81 40.94 97.29 40.69 97.29 47.13"/><polygon class="cls-22" points="98.44 42.55 98.42 48.1 99.72 48.73 99.74 43.17 98.44 42.55"/><polygon class="cls-23" points="99.72 48.73 102.03 47.61 102.05 42.06 99.74 43.17 99.72 48.73"/><polygon class="cls-22" points="98.44 42.55 99.74 43.17 102.06 42.06 101.93 42 100.87 41.49 100.75 41.43 98.44 42.55"/><polygon class="cls-23" points="98.68 42.55 98.91 42.66 99.74 43.05 101.93 42 101.1 41.6 100.87 41.49 98.68 42.55"/><polygon class="cls-17" points="98.91 42.66 99.74 43.05 101.93 42 101.1 41.6 98.91 42.66"/><path class="cls-24" d="M99.46,48.17l-.8-.38s0,0,0,0V43.1h0l.8.38,0,0v4.64a0,0,0,0,1,0,0h0Zm-.75-5v4.59l.74.35V43.52Z"/><polygon class="cls-25" points="99.88 41.39 99.85 48.84 101.6 49.67 101.62 42.22 99.88 41.39"/><polygon class="cls-24" points="101.6 49.67 104.7 48.18 104.73 40.73 101.62 42.22 101.6 49.67"/><polygon class="cls-26" points="99.88 41.39 101.62 42.22 104.73 40.73 104.56 40.65 103.14 39.97 102.98 39.89 99.88 41.39"/><polygon class="cls-24" points="100.2 41.39 100.51 41.53 101.62 42.06 104.56 40.65 103.45 40.11 103.14 39.97 100.2 41.39"/><polygon class="cls-17" points="100.51 41.53 101.62 42.06 104.56 40.65 103.45 40.11 100.51 41.53"/><path class="cls-24" d="M101.25,48.93l-1.07-.51,0,0V42.16s0,0,0,0a0,0,0,0,1,0,0l1.07.51s0,0,0,0V48.9s0,0,0,0h0Zm-1-6.71v6.15l1,.48V42.69Z"/><polygon class="cls-27" points="101.83 42.29 101.8 49.74 103.55 50.58 103.57 43.13 101.83 42.29"/><polygon class="cls-28" points="103.55 50.58 106.65 49.08 106.68 41.63 103.57 43.13 103.55 50.58"/><polygon class="cls-29" points="101.83 42.29 103.57 43.13 106.68 41.63 106.51 41.55 105.09 40.87 104.93 40.8 101.83 42.29"/><polygon class="cls-28" points="102.15 42.29 102.46 42.44 103.57 42.97 106.51 41.55 105.39 41.02 105.09 40.87 102.15 42.29"/><polygon class="cls-17" points="102.46 42.44 103.57 42.97 106.51 41.55 105.39 41.02 102.46 42.44"/><path class="cls-30" d="M103.2,49.84l-1.07-.51s0,0,0,0V43.06s0,0,0,0h0l1.07.52s0,0,0,0v6.23l0,0h0Zm-1-6.72v6.16l1,.47V43.6Z"/><g class="cls-1"><polygon class="cls-10" points="105.02 40.6 105.01 42.08 80.45 30.32 80.45 28.84 105.02 40.6"/><polygon class="cls-11" points="105.02 40.6 113.69 36.42 113.68 37.9 105.01 42.08 105.02 40.6"/><polygon class="cls-12" points="80.45 28.84 90.5 23.99 115.06 35.74 105.02 40.6 80.45 28.84"/></g><g class="cls-1"><polygon class="cls-14" points="82.78 21.52 82.76 29.09 83.76 29.57 83.79 22 82.78 21.52"/><polygon class="cls-15" points="83.76 29.57 86.21 28.38 86.21 20.83 83.79 22 83.76 29.57"/><polygon class="cls-16" points="83.79 22 86.21 20.83 85.2 20.35 82.78 21.52 83.79 22"/><polygon class="cls-15" points="83.04 21.52 83.21 21.6 83.79 21.88 86.08 20.77 85.5 20.5 85.33 20.41 83.04 21.52"/><polygon class="cls-17" points="83.21 21.6 83.79 21.88 86.08 20.77 85.5 20.5 83.21 21.6"/></g><polygon class="cls-16" points="83.01 28.78 83.53 29.03 83.53 22.59 83.01 22.34 83.01 28.78"/><g class="cls-1"><polygon class="cls-18" points="84.23 22.23 84.2 29.8 85.21 30.28 85.23 22.71 84.23 22.23"/><polygon class="cls-19" points="85.21 30.28 87.65 29.09 87.65 21.55 85.23 22.71 85.21 30.28"/><polygon class="cls-20" points="85.23 22.71 87.65 21.55 86.64 21.07 84.23 22.23 85.23 22.71"/><polygon class="cls-19" points="84.48 22.23 84.66 22.31 85.23 22.59 87.52 21.49 86.94 21.21 86.77 21.13 84.48 22.23"/><polygon class="cls-17" points="84.66 22.31 85.23 22.59 87.52 21.49 86.94 21.21 84.66 22.31"/></g><path class="cls-21" d="M85,29.77l-.52-.25s0,0,0,0V23.05a0,0,0,0,1,0,0,0,0,0,0,1,0,0l.52.24s0,0,0,0v6.44s0,0,0,0h0Zm-.46-6.66v6.37l.44.21V23.32Z"/><g class="cls-1"><polygon class="cls-14" points="85.5 22.83 85.47 30.4 86.48 30.88 86.5 23.32 85.5 22.83"/><polygon class="cls-15" points="86.48 30.88 88.92 29.69 88.92 22.15 86.5 23.32 86.48 30.88"/><polygon class="cls-16" points="86.5 23.32 88.92 22.15 87.92 21.67 85.5 22.83 86.5 23.32"/><polygon class="cls-15" points="85.75 22.83 85.92 22.92 86.5 23.19 88.79 22.09 88.21 21.81 88.04 21.73 85.75 22.83"/><polygon class="cls-17" points="85.92 22.92 86.5 23.19 88.79 22.09 88.21 21.81 85.92 22.92"/></g><polygon class="cls-16" points="85.73 30.1 86.25 30.34 86.25 23.9 85.73 23.66 85.73 30.1"/><g class="cls-1"><polygon class="cls-14" points="86.89 23.52 86.87 31.09 87.87 31.57 87.9 24 86.89 23.52"/><polygon class="cls-15" points="87.87 31.57 90.32 30.38 90.32 22.84 87.9 24 87.87 31.57"/><polygon class="cls-16" points="87.9 24 90.32 22.84 89.31 22.36 86.89 23.52 87.9 24"/><polygon class="cls-15" points="87.15 23.52 87.32 23.6 87.9 23.88 90.19 22.77 89.61 22.5 89.43 22.41 87.15 23.52"/><polygon class="cls-17" points="87.32 23.6 87.9 23.88 90.19 22.77 89.61 22.5 87.32 23.6"/></g><polygon class="cls-16" points="87.12 30.78 87.64 31.03 87.64 24.59 87.12 24.34 87.12 30.78"/><g class="cls-1"><polygon class="cls-18" points="88.16 24.13 88.13 31.7 89.13 32.18 89.16 24.61 88.16 24.13"/><polygon class="cls-19" points="89.13 32.18 91.58 30.99 91.58 23.45 89.16 24.61 89.13 32.18"/><polygon class="cls-20" points="89.16 24.61 91.58 23.45 90.57 22.96 88.16 24.13 89.16 24.61"/><polygon class="cls-19" points="88.41 24.13 88.58 24.21 89.16 24.49 91.45 23.38 90.87 23.11 90.7 23.02 88.41 24.13"/><polygon class="cls-17" points="88.58 24.21 89.16 24.49 91.45 23.38 90.87 23.11 88.58 24.21"/></g><path class="cls-21" d="M88.88,31.67l-.52-.25a0,0,0,0,1,0,0V25a0,0,0,0,1,0,0h0l.52.25,0,0v6.44l0,0h0ZM88.42,25v6.37l.45.22V25.22Z"/><g class="cls-1"><polygon class="cls-14" points="89.55 24.75 89.52 32.32 90.53 32.8 90.55 25.23 89.55 24.75"/><polygon class="cls-15" points="90.53 32.8 92.97 31.61 92.97 24.07 90.55 25.23 90.53 32.8"/><polygon class="cls-16" points="90.55 25.23 92.97 24.07 91.97 23.59 89.55 24.75 90.55 25.23"/><polygon class="cls-15" points="89.8 24.75 89.98 24.84 90.55 25.11 92.84 24.01 92.27 23.73 92.09 23.65 89.8 24.75"/><polygon class="cls-17" points="89.98 24.84 90.55 25.11 92.84 24.01 92.27 23.73 89.98 24.84"/></g><polygon class="cls-16" points="89.78 32.01 90.3 32.26 90.3 25.82 89.78 25.57 89.78 32.01"/><g class="cls-1"><polygon class="cls-14" points="90.84 25.53 90.81 32.98 91.8 33.45 91.83 26 90.84 25.53"/><polygon class="cls-15" points="91.8 33.45 94.21 32.28 94.21 24.86 91.83 26 91.8 33.45"/><polygon class="cls-16" points="91.83 26 94.21 24.86 93.22 24.39 90.84 25.53 91.83 26"/><polygon class="cls-15" points="91.09 25.53 91.26 25.61 91.83 25.89 94.08 24.8 93.51 24.53 93.34 24.45 91.09 25.53"/><polygon class="cls-17" points="91.26 25.61 91.83 25.89 94.08 24.8 93.51 24.53 91.26 25.61"/></g><polygon class="cls-16" points="91.07 32.68 91.58 32.92 91.58 26.59 91.07 26.34 91.07 32.68"/><g class="cls-1"><polygon class="cls-18" points="92.21 26.23 92.18 33.67 93.17 34.15 93.19 26.7 92.21 26.23"/><polygon class="cls-19" points="93.17 34.15 95.58 32.98 95.58 25.55 93.19 26.7 93.17 34.15"/><polygon class="cls-20" points="93.19 26.7 95.58 25.55 94.58 25.08 92.21 26.23 93.19 26.7"/><polygon class="cls-19" points="92.46 26.23 92.63 26.31 93.19 26.58 95.45 25.49 94.88 25.22 94.71 25.14 92.46 26.23"/><polygon class="cls-17" points="92.63 26.31 93.19 26.58 95.45 25.49 94.88 25.22 92.63 26.31"/></g><path class="cls-21" d="M92.92,33.64l-.51-.24a0,0,0,0,1,0,0V27s0,0,0,0,0,0,0,0l.51.24s0,0,0,0v6.34a0,0,0,0,1,0,0h0Zm-.45-6.55v6.27l.44.21V27.3Z"/><g class="cls-1"><polygon class="cls-25" points="94.09 26.96 94.07 34.55 95.08 35.04 95.1 27.44 94.09 26.96"/><polygon class="cls-31" points="95.08 35.04 97.53 33.84 97.53 26.28 95.1 27.44 95.08 35.04"/><polygon class="cls-32" points="95.1 27.44 97.53 26.28 96.52 25.79 94.09 26.96 95.1 27.44"/><polygon class="cls-33" points="94.35 26.96 94.52 27.05 95.1 27.32 97.4 26.21 96.82 25.94 96.64 25.85 94.35 26.96"/><polygon class="cls-17" points="94.52 27.05 95.1 27.32 97.4 26.21 96.82 25.94 94.52 27.05"/></g><polygon class="cls-34" points="94.33 34.25 94.84 34.5 94.84 28.03 94.33 27.79 94.33 34.25"/><g class="cls-1"><polygon class="cls-45" points="95.5 27.57 95.47 35.16 96.48 35.65 96.51 28.05 95.5 27.57"/><polygon class="cls-46" points="96.48 35.65 98.94 34.45 98.94 26.89 96.51 28.05 96.48 35.65"/><polygon class="cls-47" points="96.51 28.05 98.94 26.89 97.93 26.4 95.5 27.57 96.51 28.05"/><polygon class="cls-48" points="95.75 27.57 95.93 27.65 96.51 27.93 98.8 26.82 98.22 26.55 98.05 26.46 95.75 27.57"/><polygon class="cls-17" points="95.93 27.65 96.51 27.93 98.8 26.82 98.22 26.55 95.93 27.65"/></g><polygon class="cls-49" points="95.73 34.86 96.25 35.1 96.25 28.64 95.73 28.39 95.73 34.86"/><g class="cls-1"><polygon class="cls-25" points="96.97 28.34 96.95 35.93 97.96 36.41 97.98 28.82 96.97 28.34"/><polygon class="cls-31" points="97.96 36.41 100.41 35.21 100.41 27.65 97.98 28.82 97.96 36.41"/><polygon class="cls-32" points="97.98 28.82 100.41 27.65 99.4 27.17 96.97 28.34 97.98 28.82"/><polygon class="cls-33" points="97.23 28.34 97.4 28.42 97.98 28.7 100.28 27.59 99.7 27.31 99.52 27.23 97.23 28.34"/><polygon class="cls-17" points="97.4 28.42 97.98 28.7 100.28 27.59 99.7 27.31 97.4 28.42"/></g><polygon class="cls-34" points="97.2 35.62 97.73 35.87 97.73 29.41 97.2 29.16 97.2 35.62"/><g class="cls-1"><polygon class="cls-14" points="98.59 29.09 98.56 36.72 99.57 37.2 99.6 29.58 98.59 29.09"/><polygon class="cls-15" points="99.57 37.2 102.03 36.01 102.03 28.41 99.6 29.58 99.57 37.2"/><polygon class="cls-16" points="99.6 29.58 102.03 28.41 101.02 27.92 98.59 29.09 99.6 29.58"/><polygon class="cls-15" points="98.84 29.09 99.02 29.18 99.6 29.46 101.9 28.34 101.32 28.06 101.15 27.98 98.84 29.09"/><polygon class="cls-17" points="99.02 29.18 99.6 29.46 101.9 28.34 101.32 28.06 99.02 29.18"/></g><polygon class="cls-16" points="98.82 36.41 99.34 36.66 99.34 30.17 98.82 29.92 98.82 36.41"/><g class="cls-1"><polygon class="cls-40" points="99.85 29.71 99.83 37.33 101.08 37.92 101.11 30.3 99.85 29.71"/><polygon class="cls-41" points="101.08 37.92 103.56 36.75 103.58 29.13 101.11 30.3 101.08 37.92"/><polygon class="cls-42" points="99.85 29.71 101.11 30.3 103.58 29.13 103.45 29.06 102.46 28.6 102.33 28.54 99.85 29.71"/><polygon class="cls-43" points="100.11 29.71 100.32 29.81 101.11 30.18 103.45 29.06 102.66 28.69 102.46 28.6 100.11 29.71"/><polygon class="cls-17" points="100.32 29.81 101.11 30.18 103.45 29.06 102.66 28.69 100.32 29.81"/></g><polygon class="cls-44" points="99.89 30.41 101.04 30.95 101.04 30.47 99.89 29.93 99.89 30.41"/><polygon class="cls-44" points="99.89 31.24 101.04 31.79 101.04 31.3 99.89 30.76 99.89 31.24"/><polygon class="cls-44" points="99.89 32.08 101.04 32.62 101.04 32.14 99.89 31.59 99.89 32.08"/><polygon class="cls-44" points="99.89 32.91 101.04 33.45 101.04 32.97 99.89 32.43 99.89 32.91"/><polygon class="cls-44" points="99.89 33.74 101.04 34.29 101.04 33.8 99.89 33.26 99.89 33.74"/><polygon class="cls-44" points="99.89 34.58 101.04 35.12 101.04 34.64 99.89 34.09 99.89 34.58"/><g class="cls-1"><polygon class="cls-30" points="101.33 30.53 101.31 38.03 102.54 38.61 102.57 31.11 101.33 30.53"/><polygon class="cls-35" points="102.54 38.61 104.98 37.46 105.01 29.95 102.57 31.11 102.54 38.61"/><polygon class="cls-36" points="101.33 30.52 102.57 31.11 105.01 29.95 104.88 29.89 103.9 29.43 103.77 29.37 101.33 30.52"/><polygon class="cls-35" points="101.59 30.52 101.79 30.62 102.57 30.98 104.88 29.89 104.1 29.52 103.9 29.43 101.59 30.52"/><polygon class="cls-17" points="101.79 30.62 102.57 30.98 104.88 29.89 104.1 29.52 101.79 30.62"/></g><polygon class="cls-36" points="101.37 31.22 102.5 31.75 102.5 31.27 101.37 30.74 101.37 31.22"/><polygon class="cls-36" points="101.37 32.04 102.5 32.57 102.5 32.1 101.37 31.56 101.37 32.04"/><polygon class="cls-36" points="101.37 32.86 102.5 33.4 102.5 32.92 101.37 32.38 101.37 32.86"/><polygon class="cls-36" points="101.37 33.68 102.5 34.22 102.5 33.74 101.37 33.2 101.37 33.68"/><polygon class="cls-36" points="101.37 34.5 102.5 35.04 102.5 34.56 101.37 34.02 101.37 34.5"/><polygon class="cls-36" points="101.37 35.32 102.5 35.86 102.5 35.38 101.37 34.85 101.37 35.32"/><polygon class="cls-14" points="102.77 32.86 102.75 38.71 104.12 39.36 104.14 33.51 102.77 32.86"/><polygon class="cls-15" points="104.12 39.36 106.56 38.19 106.58 32.34 104.14 33.51 104.12 39.36"/><polygon class="cls-16" points="102.77 32.86 104.14 33.51 106.58 32.34 106.44 32.27 105.33 31.74 105.21 31.68 102.77 32.86"/><polygon class="cls-15" points="103.02 32.86 103.26 32.97 104.14 33.39 106.44 32.27 105.57 31.86 105.33 31.74 103.02 32.86"/><polygon class="cls-17" points="103.26 32.97 104.14 33.39 106.44 32.27 105.57 31.86 103.26 32.97"/><path class="cls-15" d="M103.85,38.78l-.84-.4,0,0V33.46a0,0,0,0,1,0,0h0l.84.4v4.92s0,0,0,0h0Zm-.79-5.27v4.83l.77.37V33.88Z"/><g class="cls-1"><polygon class="cls-10" points="105.11 28.76 105.11 30.24 80.54 18.48 80.54 17 105.11 28.76"/><polygon class="cls-11" points="105.11 28.76 113.78 24.59 113.77 26.06 105.11 30.24 105.11 28.76"/><polygon class="cls-12" points="80.54 17 90.59 12.15 115.15 23.91 105.11 28.76 80.54 17"/></g><polygon class="cls-27" points="82.54 11.98 82.52 17.54 83.82 18.16 83.84 12.61 82.54 11.98"/><polygon class="cls-28" points="83.82 18.16 86.14 17.05 86.16 11.49 83.84 12.61 83.82 18.16"/><polygon class="cls-29" points="82.54 11.98 83.84 12.61 86.16 11.49 86.03 11.43 84.97 10.93 84.86 10.87 82.54 11.98"/><polygon class="cls-28" points="82.78 11.98 83.01 12.09 83.84 12.49 86.03 11.43 85.2 11.03 84.97 10.93 82.78 11.98"/><polygon class="cls-17" points="83.01 12.09 83.84 12.49 86.03 11.43 85.2 11.03 83.01 12.09"/><path class="cls-30" d="M83.56,17.61l-.79-.38s0,0,0,0V12.56l0,0h0l.8.38s0,0,0,0v4.65s0,0,0,0h0Zm-.75-5v4.59l.74.35V13Z"/><g class="cls-1"><polygon class="cls-14" points="84.31 11.2 84.29 18.44 85.25 18.9 85.28 11.66 84.31 11.2"/><polygon class="cls-15" points="85.25 18.9 87.59 17.76 87.59 10.55 85.28 11.66 85.25 18.9"/><polygon class="cls-16" points="85.28 11.66 87.59 10.55 86.63 10.08 84.31 11.2 85.28 11.66"/><polygon class="cls-15" points="84.56 11.2 84.72 11.28 85.28 11.54 87.46 10.49 86.92 10.22 86.74 10.14 84.56 11.2"/><polygon class="cls-17" points="84.72 11.28 85.28 11.54 87.46 10.49 86.92 10.22 84.72 11.28"/></g><polygon class="cls-16" points="84.53 18.15 85.03 18.39 85.03 12.22 84.53 11.99 84.53 18.15"/><g class="cls-1"><polygon class="cls-14" points="85.69 11.81 85.67 19.06 86.63 19.52 86.66 12.27 85.69 11.81"/><polygon class="cls-15" points="86.63 19.52 88.97 18.38 88.97 11.16 86.66 12.27 86.63 19.52"/><polygon class="cls-16" points="86.66 12.27 88.97 11.16 88.01 10.7 85.69 11.81 86.66 12.27"/><polygon class="cls-15" points="85.94 11.81 86.1 11.89 86.66 12.16 88.85 11.1 88.29 10.84 88.13 10.76 85.94 11.81"/><polygon class="cls-17" points="86.1 11.89 86.66 12.16 88.85 11.1 88.29 10.84 86.1 11.89"/></g><polygon class="cls-16" points="85.91 18.76 86.41 19 86.41 12.84 85.91 12.6 85.91 18.76"/><g class="cls-1"><polygon class="cls-40" points="86.91 12.42 86.88 19.66 88.07 20.22 88.1 12.98 86.91 12.42"/><polygon class="cls-41" points="88.07 20.22 90.42 19.1 90.45 11.87 88.1 12.98 88.07 20.22"/><polygon class="cls-42" points="86.91 12.42 88.1 12.98 90.45 11.87 90.32 11.8 89.38 11.36 89.26 11.3 86.91 12.42"/><polygon class="cls-43" points="87.16 12.42 87.35 12.51 88.1 12.86 90.32 11.8 89.58 11.45 89.38 11.36 87.16 12.42"/><polygon class="cls-17" points="87.35 12.51 88.1 12.86 90.32 11.8 89.58 11.45 87.35 12.51"/></g><polygon class="cls-44" points="86.94 13.09 88.04 13.6 88.04 13.14 86.94 12.63 86.94 13.09"/><polygon class="cls-44" points="86.94 13.88 88.04 14.39 88.04 13.93 86.94 13.42 86.94 13.88"/><polygon class="cls-44" points="86.94 14.67 88.04 15.19 88.04 14.72 86.94 14.21 86.94 14.67"/><polygon class="cls-44" points="86.94 15.46 88.04 15.98 88.04 15.52 86.94 15 86.94 15.46"/><polygon class="cls-44" points="86.94 16.25 88.04 16.77 88.04 16.31 86.94 15.79 86.94 16.25"/><polygon class="cls-44" points="86.94 17.04 88.04 17.56 88.04 17.1 86.94 16.58 86.94 17.04"/><g class="cls-1"><polygon class="cls-14" points="88.53 13.17 88.5 20.41 89.46 20.87 89.49 13.63 88.53 13.17"/><polygon class="cls-15" points="89.46 20.87 91.8 19.73 91.8 12.52 89.49 13.63 89.46 20.87"/><polygon class="cls-16" points="89.49 13.63 91.8 12.52 90.84 12.05 88.53 13.17 89.49 13.63"/><polygon class="cls-15" points="88.77 13.17 88.94 13.25 89.49 13.51 91.68 12.46 91.13 12.19 90.96 12.11 88.77 13.17"/><polygon class="cls-17" points="88.94 13.25 89.49 13.51 91.68 12.46 91.13 12.19 88.94 13.25"/></g><polygon class="cls-16" points="88.75 20.12 89.24 20.36 89.24 14.19 88.75 13.96 88.75 20.12"/><g class="cls-1"><polygon class="cls-14" points="89.68 13.71 89.66 20.95 90.62 21.41 90.64 14.17 89.68 13.71"/><polygon class="cls-15" points="90.62 21.41 92.96 20.27 92.96 13.05 90.64 14.17 90.62 21.41"/><polygon class="cls-16" points="90.64 14.17 92.96 13.05 92 12.59 89.68 13.71 90.64 14.17"/><polygon class="cls-15" points="89.92 13.71 90.09 13.79 90.64 14.05 92.83 13 92.28 12.73 92.12 12.65 89.92 13.71"/><polygon class="cls-17" points="90.09 13.79 90.64 14.05 92.83 13 92.28 12.73 90.09 13.79"/></g><polygon class="cls-16" points="89.9 20.66 90.4 20.89 90.4 14.73 89.9 14.49 89.9 20.66"/><g class="cls-1"><polygon class="cls-40" points="90.87 14.3 90.84 21.54 92.03 22.1 92.06 14.86 90.87 14.3"/><polygon class="cls-41" points="92.03 22.1 94.38 20.98 94.41 13.75 92.06 14.86 92.03 22.1"/><polygon class="cls-42" points="90.87 14.3 92.06 14.86 94.41 13.75 94.29 13.69 93.34 13.24 93.22 13.18 90.87 14.3"/><polygon class="cls-43" points="91.12 14.3 91.31 14.39 92.06 14.74 94.29 13.69 93.54 13.33 93.34 13.24 91.12 14.3"/><polygon class="cls-17" points="91.31 14.39 92.06 14.74 94.29 13.69 93.54 13.33 91.31 14.39"/></g><polygon class="cls-44" points="90.91 14.96 92 15.48 92 15.02 90.91 14.51 90.91 14.96"/><polygon class="cls-44" points="90.91 15.76 92 16.27 92 15.81 90.91 15.3 90.91 15.76"/><polygon class="cls-44" points="90.91 16.55 92 17.07 92 16.61 90.91 16.09 90.91 16.55"/><polygon class="cls-44" points="90.91 17.34 92 17.86 92 17.4 90.91 16.88 90.91 17.34"/><polygon class="cls-44" points="90.91 18.13 92 18.65 92 18.19 90.91 17.67 90.91 18.13"/><polygon class="cls-44" points="90.91 18.92 92 19.44 92 18.98 90.91 18.46 90.91 18.92"/><g class="cls-1"><polygon class="cls-25" points="93.02 14.95 93 22.54 94 23.02 94.03 15.43 93.02 14.95"/><polygon class="cls-31" points="94 23.02 96.45 21.83 96.45 14.26 94.03 15.43 94 23.02"/><polygon class="cls-32" points="94.03 15.43 96.45 14.26 95.45 13.78 93.02 14.95 94.03 15.43"/><polygon class="cls-33" points="93.27 14.95 93.45 15.03 94.03 15.31 96.32 14.2 95.75 13.93 95.57 13.84 93.27 14.95"/><polygon class="cls-17" points="93.45 15.03 94.03 15.31 96.32 14.2 95.75 13.93 93.45 15.03"/></g><polygon class="cls-34" points="93.25 22.23 93.77 22.48 93.77 16.02 93.25 15.77 93.25 22.23"/><g class="cls-1"><polygon class="cls-30" points="94.15 15.95 94.13 23.08 95.3 23.63 95.32 16.5 94.15 15.95"/><polygon class="cls-35" points="95.3 23.63 97.61 22.53 97.64 15.4 95.32 16.5 95.3 23.63"/><polygon class="cls-36" points="94.15 15.95 95.32 16.5 97.64 15.4 97.52 15.35 96.59 14.91 96.47 14.85 94.15 15.95"/><polygon class="cls-35" points="94.39 15.95 94.59 16.04 95.32 16.39 97.52 15.35 96.78 15 96.59 14.91 94.39 15.95"/><polygon class="cls-17" points="94.59 16.04 95.32 16.39 97.52 15.35 96.78 15 94.59 16.04"/></g><polygon class="cls-36" points="94.19 16.61 95.27 17.11 95.27 16.66 94.19 16.15 94.19 16.61"/><polygon class="cls-36" points="94.19 17.38 95.27 17.89 95.27 17.44 94.19 16.93 94.19 17.38"/><polygon class="cls-36" points="94.19 18.17 95.27 18.67 95.27 18.22 94.19 17.71 94.19 18.17"/><polygon class="cls-36" points="94.19 18.95 95.27 19.45 95.27 19 94.19 18.49 94.19 18.95"/><polygon class="cls-36" points="94.19 19.73 95.27 20.23 95.27 19.78 94.19 19.27 94.19 19.73"/><polygon class="cls-36" points="94.19 20.5 95.27 21.02 95.27 20.56 94.19 20.05 94.19 20.5"/><g class="cls-1"><polygon class="cls-14" points="95.47 16.46 95.45 23.71 96.41 24.17 96.44 16.92 95.47 16.46"/><polygon class="cls-15" points="96.41 24.17 98.75 23.03 98.75 15.81 96.44 16.92 96.41 24.17"/><polygon class="cls-16" points="96.44 16.92 98.75 15.81 97.79 15.35 95.47 16.46 96.44 16.92"/><polygon class="cls-15" points="95.72 16.46 95.88 16.54 96.44 16.81 98.63 15.75 98.07 15.49 97.91 15.41 95.72 16.46"/><polygon class="cls-17" points="95.88 16.54 96.44 16.81 98.63 15.75 98.07 15.49 95.88 16.54"/></g><polygon class="cls-16" points="95.69 23.41 96.19 23.65 96.19 17.49 95.69 17.25 95.69 23.41"/><g class="cls-1"><polygon class="cls-37" points="97.75 17.1 97.72 24.8 98.74 25.29 98.77 17.59 97.75 17.1"/><polygon class="cls-38" points="98.74 25.29 101.23 24.08 101.23 16.4 98.77 17.59 98.74 25.29"/><polygon class="cls-39" points="98.77 17.59 101.23 16.4 100.21 15.91 97.75 17.1 98.77 17.59"/><polygon class="cls-38" points="98 17.1 98.19 17.18 98.77 17.46 101.1 16.34 100.51 16.06 100.34 15.97 98 17.1"/><polygon class="cls-17" points="98.19 17.18 98.77 17.46 101.1 16.34 100.51 16.06 98.19 17.18"/></g><polygon class="cls-14" points="97.98 24.49 98.51 24.74 98.51 18.19 97.98 17.93 97.98 24.49"/><polygon class="cls-14" points="98.9 18.8 98.88 25.36 100.42 26.1 100.44 19.53 98.9 18.8"/><polygon class="cls-15" points="100.42 26.1 103.16 24.78 103.18 18.21 100.44 19.53 100.42 26.1"/><polygon class="cls-16" points="98.9 18.8 100.44 19.53 103.18 18.21 103.03 18.14 101.78 17.55 101.64 17.48 98.9 18.8"/><polygon class="cls-15" points="99.19 18.8 99.46 18.92 100.44 19.39 103.03 18.14 102.05 17.67 101.78 17.55 99.19 18.8"/><polygon class="cls-17" points="99.46 18.92 100.44 19.39 103.03 18.14 102.05 17.67 99.46 18.92"/><path class="cls-15" d="M100.11,25.44,99.17,25a0,0,0,0,1,0,0v-5.5a0,0,0,0,1,0,0h0l.94.45s0,0,0,0v5.49l0,0h0Zm-.89-5.92V25l.88.42V19.94Z"/><g class="cls-1"><polygon class="cls-25" points="100.56 18.46 100.53 26.16 101.55 26.65 101.58 18.95 100.56 18.46"/><polygon class="cls-31" points="101.55 26.65 104.04 25.43 104.04 17.76 101.58 18.95 101.55 26.65"/><polygon class="cls-32" points="101.58 18.95 104.04 17.76 103.02 17.27 100.56 18.46 101.58 18.95"/><polygon class="cls-33" points="100.81 18.45 100.99 18.54 101.58 18.82 103.91 17.7 103.32 17.42 103.14 17.33 100.81 18.45"/><polygon class="cls-17" points="100.99 18.54 101.58 18.82 103.91 17.7 103.32 17.42 100.99 18.54"/></g><polygon class="cls-34" points="100.79 25.84 101.32 26.1 101.32 19.54 100.79 19.29 100.79 25.84"/><g class="cls-1"><polygon class="cls-25" points="101.69 19 101.66 26.71 102.69 27.19 102.71 19.49 101.69 19"/><polygon class="cls-31" points="102.69 27.19 105.17 25.98 105.17 18.31 102.71 19.49 102.69 27.19"/><polygon class="cls-32" points="102.71 19.49 105.17 18.31 104.15 17.82 101.69 19 102.71 19.49"/><polygon class="cls-33" points="101.94 19 102.12 19.09 102.71 19.37 105.04 18.25 104.45 17.96 104.28 17.88 101.94 19"/><polygon class="cls-17" points="102.12 19.09 102.71 19.37 105.04 18.25 104.45 17.96 102.12 19.09"/></g><polygon class="cls-34" points="101.92 26.39 102.45 26.65 102.45 20.09 101.92 19.84 101.92 26.39"/><polygon class="cls-25" points="103.37 21.9 103.35 27.46 104.65 28.08 104.67 22.52 103.37 21.9"/><polygon class="cls-24" points="104.65 28.08 106.97 26.96 106.99 21.41 104.67 22.52 104.65 28.08"/><polygon class="cls-26" points="103.37 21.9 104.67 22.52 106.99 21.41 106.86 21.35 105.8 20.84 105.69 20.79 103.37 21.9"/><polygon class="cls-24" points="103.61 21.9 103.84 22.01 104.67 22.41 106.86 21.35 106.03 20.95 105.8 20.84 103.61 21.9"/><polygon class="cls-17" points="103.84 22.01 104.67 22.41 106.86 21.35 106.03 20.95 103.84 22.01"/><path class="cls-24" d="M104.4,27.53l-.8-.39,0,0V22.48s0,0,0,0h0l.8.39s0,0,0,0V27.5a0,0,0,0,1,0,0h0Zm-.76-5v4.59l.74.35V22.87Z"/><g class="cls-1"><polygon class="cls-10" points="107.03 20.14 106.84 73.99 104.9 73.06 105.08 19.21 107.03 20.14"/><polygon class="cls-11" points="107.03 20.14 117.06 15.31 116.87 69.16 106.84 73.99 107.03 20.14"/><polygon class="cls-12" points="105.08 19.21 115.11 14.38 117.06 15.31 107.03 20.14 105.08 19.21"/></g><g class="cls-1"><polygon class="cls-10" points="107.06 18.45 107.05 20.15 78.6 6.54 78.61 4.83 107.06 18.45"/><polygon class="cls-11" points="107.06 18.45 117.08 13.61 117.08 15.32 107.05 20.15 107.06 18.45"/><polygon class="cls-12" points="78.61 4.83 88.64 0 117.08 13.61 107.06 18.45 78.61 4.83"/></g><polygon class="cls-9" points="77.56 81.72 56.88 93.66 38.3 82.83 58.98 70.89 77.56 81.72"/><path class="cls-50" d="M55.33,88.3l.31,2L56,92.6a.4.4,0,0,0,.24.34,1.25,1.25,0,0,0,1.16,0,.4.4,0,0,0,.24-.34L58,90.16l.28-1.82a.84.84,0,0,1-.42.47,2.33,2.33,0,0,1-2.12,0A.8.8,0,0,1,55.33,88.3Z"/><path class="cls-51" d="M55.32,88.24a.71.71,0,0,1,.44-.66,2.39,2.39,0,0,1,2.12,0,.74.74,0,0,1,.44.63h0l0,.13a.84.84,0,0,1-.42.47,2.35,2.35,0,0,1-2.13,0,.84.84,0,0,1-.43-.5v-.07Z"/><path class="cls-50" d="M74.11,77.5l.47,3,.19,1.26a.41.41,0,0,0,.24.34,1.34,1.34,0,0,0,1.17,0,.43.43,0,0,0,.24-.34l.39-2.49.27-1.77a.88.88,0,0,1-.42.47,2.42,2.42,0,0,1-2.13,0A.83.83,0,0,1,74.11,77.5Z"/><path class="cls-51" d="M74.09,77.44a.75.75,0,0,1,.44-.66,2.35,2.35,0,0,1,2.13,0,.73.73,0,0,1,.44.62h0l0,.13a.84.84,0,0,1-.42.47,2.39,2.39,0,0,1-2.12,0,.82.82,0,0,1-.43-.51v-.06Z"/><path class="cls-50" d="M38.43,78.64l.29,1.85.38,2.45a.41.41,0,0,0,.24.34,1.25,1.25,0,0,0,1.16,0,.43.43,0,0,0,.24-.34l.2-1.25.46-3a.84.84,0,0,1-.42.47,2.39,2.39,0,0,1-2.12,0A.82.82,0,0,1,38.43,78.64Z"/><path class="cls-51" d="M38.42,78.58a.71.71,0,0,1,.44-.66,2.33,2.33,0,0,1,2.12,0,.73.73,0,0,1,.44.62h0l0,.13a.88.88,0,0,1-.42.47,2.35,2.35,0,0,1-2.13,0,.86.86,0,0,1-.43-.51v-.06h0Z"/><path class="cls-52" d="M74.11,77.5l.47,3,2.23-1.23.27-1.77a.88.88,0,0,1-.42.47,2.42,2.42,0,0,1-2.13,0A.83.83,0,0,1,74.11,77.5Z"/><path class="cls-52" d="M55.33,88.3l.31,2,1.16.55L58,90.16l.28-1.82a.84.84,0,0,1-.42.47,2.33,2.33,0,0,1-2.12,0A.8.8,0,0,1,55.33,88.3Z"/><path class="cls-52" d="M38.43,78.64l.29,1.85,2.22,1.2.46-3a.84.84,0,0,1-.42.47,2.39,2.39,0,0,1-2.12,0A.82.82,0,0,1,38.43,78.64Z"/><g class="cls-1"><polygon class="cls-53" points="77.43 77.72 72.56 80.54 67 83.76 56.84 89.64 56.82 81.87 66.27 76.41 72.4 72.86 77.41 69.96 77.43 77.72"/><polygon class="cls-54" points="56.82 81.87 38.23 71.06 38.26 78.83 56.84 89.64 56.82 81.87"/><polygon class="cls-55" points="77.41 69.97 59.04 59.31 38.45 71.2 56.82 81.87 77.41 69.97"/></g><g class="cls-1"><polygon class="cls-56" points="56.8 77.5 56.82 81.88 77.42 69.96 77.42 65.43 56.8 77.5"/><polygon class="cls-57" points="56.8 77.5 38.23 66.77 38.24 71.1 56.82 81.88 56.8 77.5"/><polygon class="cls-58" points="77.42 65.43 59.72 55.3 38.23 66.77 56.8 77.5 77.42 65.43"/></g><path class="cls-59" d="M60.79,42.77l-.41,15.64a.22.22,0,0,0,0,.08.34.34,0,0,0,.06.12.2.2,0,0,0,.06.07l-1.72-1-1.73-1s-.05,0-.07-.06v0a0,0,0,0,1,0,0,0,0,0,0,1,0,0s0,0,0,0,0,0,0,0h0v0h0V56.4l.41-15.76.19-7.16,0-1,.88.52.94.54,1.63,1Z"/><path class="cls-53" d="M61.38,33.8a.81.81,0,0,0-.37.64l-.63,24c0,.23.17.38.37.27l.66-.39a.91.91,0,0,0,.36-.68l.63-24c0-.22-.16-.34-.36-.23Z"/><path class="cls-60" d="M61.17,34h0a.22.22,0,0,0-.05.08h0l0,.09h0a.7.7,0,0,0-.06.27l-3.45-2v0h0v-.06s0,0,0,0v-.06s0,0,0,0v-.08h0v0s0,0,0,0l0,0h0v0l0,0a0,0,0,0,1,0,0h0s0,0,0,0v0s0,0,0,0h0l0,0h0l0,0h.07l.67-.39h.21l0,0,3.45,2-.05,0h-.12l-.07,0-.66.39-.15.11h0Z"/><path class="cls-61" d="M59.4,32.82l0,.68-.17,7.08L58.8,57.67h0l-10.42,6-6.91,4-.62-24.14a.77.77,0,0,1,.33-.61l9.06-5.24,3-1.75,4.26-2.46.91-.52.62-.36C59.25,32.49,59.39,32.59,59.4,32.82Z"/><path class="cls-62" d="M37.71,41.7v-.06h0s0,0,0,0v-.05h0v-.06h0v0h0l0,0v0a0,0,0,0,0,0,0h0v0l0-.05h0v0l0,0a0,0,0,0,1,0,0h0v0h.09L55.94,30.78h.22l3.13,1.82,0,0h0s0,0-.05,0h-.07s0,0-.06,0L41.17,42.93l-.07,0h0L41,43h0L41,43.1h0l0,.07h0a.87.87,0,0,0-.07.17h0s0,.06,0,.09h0s0,.06,0,.08l.63,24.15-3.12-1.81-.63-24.15Z"/><path class="cls-63" d="M72.56,80.54,67,83.76c-.17-1.67-.47-4.78-.73-7.35-.19-1.87-.37-3.45-.46-4-.26-1.64-2.49-2.49-4.19-2.45a8.47,8.47,0,0,1-5.25-1.3c-.68-.44-10.82-4-10.82-4l8-3.4s11.69,5.48,13.92,5.37,4.52-.13,4.77,3.86c0,.71.08,1.51.12,2.35C72.51,75.71,72.55,79,72.56,80.54Z"/><path class="cls-53" d="M41.28,44.79a.85.85,0,0,0-.35.64l.76,23.16c0,.23.16.38.36.26l.67-.38a.91.91,0,0,0,.36-.68l-.76-23.16c0-.23-.17-.34-.37-.23Z"/><path class="cls-60" d="M41.14,44.91l0,.07h0a.56.56,0,0,0,0,.08h0a.36.36,0,0,0,0,.09h0l0,.09h0a.29.29,0,0,0,0,.09h0a.31.31,0,0,0,0,.09l-3.45-2h0v-.06h0v-.08h0a0,0,0,0,0,0,0s0,0,0,0v0h0v0s0,0,0,0v0l0,0h0a0,0,0,0,0,0,0s0,0,0,0h0v0l0,0h0v0h.08v0h0l.67-.38h0a0,0,0,0,1,0,0h.16l0,0,3.45,2-.05,0H42l-.07,0-.67.39-.07.05h0l-.07.07Z"/><path class="cls-57" d="M40.93,45.43l.71,21.65h0a10.24,10.24,0,0,1,.18,1.14c0,.3.06.6,0,.65h0s-.07,0-.13-.08l-3.31-1.92-.07-.07h0l0,0h0a0,0,0,0,0,0,0,0,0,0,0,0,0,0v0h0v-.08h0l-.76-23.16Z"/><path class="cls-64" d="M80.54,56.59c-.22,1.34-1.31,2.56-2.14,4.43-.15.33-.28.68-.41,1a11.88,11.88,0,0,0-.57,3.37L74.73,67l0,0-14.36-8.4a.75.75,0,0,1,0-.15h0c0-.07,0-.15,0-.25h0c0-.05,0-.1,0-.15v0a.88.88,0,0,1,0-.16v-.06s0-.06,0-.1a.17.17,0,0,0,0-.07v-.11a.34.34,0,0,1,0-.1.22.22,0,0,0,0-.09v-.22h0v0c0-.1,0-.2,0-.3v-.07c0-.11,0-.22,0-.33h0V56a2.44,2.44,0,0,1,0-.27v-.08c0-.18,0-.37,0-.56v0a.06.06,0,0,0,0,0c0-.18,0-.35,0-.53h0v0c0-.14,0-.29,0-.44a.13.13,0,0,0,0-.06v0a3.56,3.56,0,0,1,.06-.44h0a.15.15,0,0,1,0-.07h0l.06-.31s0-.05,0-.07l0-.08a2.21,2.21,0,0,1,.05-.25s0-.07,0-.1a.14.14,0,0,0,0-.06,1.17,1.17,0,0,1,0-.2s0-.09,0-.13a.08.08,0,0,0,0,0c0-.06,0-.12,0-.17s0-.1,0-.15,0,0,0-.05a.74.74,0,0,0,0-.14.88.88,0,0,0,0-.15s0,0,0-.06l0-.11a.93.93,0,0,0,0-.13.36.36,0,0,0,0-.09S61,51,61,51a.41.41,0,0,1,0-.08.78.78,0,0,1,0-.14l0-.06v0s0,0,0,0,.07-.17.1-.25l0-.08a1.17,1.17,0,0,0,0-.11,1,1,0,0,0,.06-.16,1.09,1.09,0,0,0,.08-.15.56.56,0,0,1,.05-.08,0,0,0,0,1,0,0l0-.07.14-.25a.35.35,0,0,0,0-.08l.1-.15.09-.14L62,49l0,0v0a.79.79,0,0,0,.12-.15l.11-.13.05-.06,0,0,0,0a1.14,1.14,0,0,1,.11-.11.43.43,0,0,1,.11-.12l0,0,0,0,0,0a.68.68,0,0,0,.12-.12l.13-.1h0l.11-.09.12-.09.08-.06h0l0,0,.13-.08.13-.08s0,0,0,0l.1,0,.13-.07.07,0h0l0,0,.13,0,.11,0h0l.13,0,.13,0h0l.12,0,.14,0h.56a.35.35,0,0,1,.11,0h.06l.17.08,14,8.16.64.38A1.15,1.15,0,0,1,80.54,56.59Z"/><path class="cls-56" d="M74.67,67a.35.35,0,0,0,0,.06l0,0,2.69-1.55c.13-4.81,2.76-6.69,3.12-8.84a1.16,1.16,0,0,0-.16-.9,1,1,0,0,0-.64-.37,2.57,2.57,0,0,0-1.69.41,6,6,0,0,0-2.42,2.92A17.33,17.33,0,0,0,74.67,67Z"/><path class="cls-65" d="M66.28,51.31l-2,2.26C66.71,53,66.28,51.31,66.28,51.31Z"/><path class="cls-66" d="M75,59c-.26.18-.92-.32-1-.35a.35.35,0,0,0-.16,0,1.81,1.81,0,0,1-1.16-.25,27,27,0,0,1-3.87-1.82c-2.68-1.42-4.61-2.78-4.57-3a3.92,3.92,0,0,0,.9-.31,20.68,20.68,0,0,0,4.88,3.47c2.7,1.46,3.19,1.76,3.65,1.78A4.23,4.23,0,0,1,75,59Z"/><path class="cls-67" d="M57.69,44.06c-.17,1.61-2,1.57-2.71,1.52A4.75,4.75,0,0,1,52.36,44L57,41.5A2.81,2.81,0,0,1,57.69,44.06Z"/><path class="cls-68" d="M55.4,46.31A2.59,2.59,0,0,1,54,46.14,5,5,0,0,1,52.2,43.7a1.6,1.6,0,0,0,.23.38,3,3,0,0,0,3.12,1.42A1.4,1.4,0,0,1,55.4,46.31Z"/><path class="cls-69" d="M66,73.83s-1.22,7.6-1,10.23a7,7,0,0,0,2,4s-.3,2.32-2.52-.22c-1.78-2-1.5-1.86-1.5-4.41a16.85,16.85,0,0,0-.64-2.7,10.52,10.52,0,0,1-.4-5.94C62,74.12,66.92,70.2,66,73.83Z"/><path class="cls-70" d="M66.9,88.09a7,7,0,0,1-2-4c-.19-2.63,1-10.23,1-10.23,1-3.63-2.81,0-3,.74a13.47,13.47,0,0,0,.39,6.71,8.5,8.5,0,0,1,.24,2.89c0,2.36.22,2.8,1.14,4.1C66.63,90.14,66.9,88.09,66.9,88.09Z"/><path class="cls-71" d="M62.88,84.17s-1,.74-.33,2.8a19.71,19.71,0,0,1,.27,2.52l.29.15S63,87,63,87a6.28,6.28,0,0,1,1.14,2.47s.25,1.46,3.37,1l.36-.07-1.09-.93s-1.33.4-1.77-.32-2.26-3.62-2.16-5Z"/><path class="cls-72" d="M63.11,89.64l.51-.2-.17-2L63,86.55A18.52,18.52,0,0,0,63.11,89.64Z"/><path class="cls-71" d="M66.49,87.65s2.32,2.45,1.56,2.69a3.11,3.11,0,0,1-3.53-1.51C63.6,87.52,67.74,90,66.49,87.65Z"/><path class="cls-71" d="M63.41,86.15a4.92,4.92,0,0,0,2.08,2.43S63.46,89.47,63.41,86.15Z"/><path class="cls-69" d="M72.46,70.65s-1.22,7.6-1,10.23a7,7,0,0,0,2,4s-.3,2.31-2.51-.22c-1.78-2-1.51-1.86-1.51-4.41a16.6,16.6,0,0,0-.64-2.7,10.51,10.51,0,0,1-.4-5.94C68.5,71,72.38,67.59,72.46,70.65Z"/><path class="cls-70" d="M73.39,84.91a7,7,0,0,1-2-4A89.91,89.91,0,0,1,72,71.15c1-3.63-2.33-.54-2.51.24a13.45,13.45,0,0,0,.4,6.71A8.5,8.5,0,0,1,70.11,81c0,2.36.22,2.8,1.14,4.1C73.13,87,73.39,84.91,73.39,84.91Z"/><path class="cls-71" d="M69.37,81s-1,.74-.33,2.8a21.3,21.3,0,0,1,.28,2.52l.28.15s-.16-2.6-.08-2.68a6.28,6.28,0,0,1,1.15,2.46s.25,1.46,3.36,1l.36-.07-1.09-.93s-1.33.4-1.77-.32-2.26-3.62-2.16-5Z"/><path class="cls-72" d="M69.6,86.46l.51-.2-.17-2-.49-.86A18.52,18.52,0,0,0,69.6,86.46Z"/><path class="cls-71" d="M73,84.47s2.31,2.45,1.55,2.69A3.11,3.11,0,0,1,71,85.65C70.09,84.35,74.23,86.77,73,84.47Z"/><path class="cls-71" d="M69.9,83A4.92,4.92,0,0,0,72,85.4S70,86.29,69.9,83Z"/><path class="cls-73" d="M59.2,59.18s13.29,3.71,13.37,7.21A96.36,96.36,0,0,1,72,77.11l-.13,3.45s-2.54,1-2.77-.16a42.12,42.12,0,0,0-1.11-5.24s-.9-4.86.61-6.86c0,0-9.12-2.33-12-3.78A6,6,0,0,1,53.2,61L58,58.32Z"/><path class="cls-74" d="M51.12,58.84s-3.75,6.63,2.74,9.58,8.72,4,8.72,4-1.51,3.1-1.36,4.82,1.18,5.91,1.18,5.91.5,1.38,2.84.27c0,0,.93-7.26,1.19-8.29s1.31-4.45.28-5.74c-1.8-2.24-8.72-6.58-9-7s-1.28-4-1.28-4Z"/><path class="cls-75" d="M55.7,43.36s2.13-1.24,8.57,4.7c0,0,6.69,2.17,7.23,2.49s-.3,1.67-.3,1.67-6.64-.6-7.26-1.13S60.69,49.84,59.7,49A53.72,53.72,0,0,1,55.7,43.36Z"/><path class="cls-76" d="M59.87,49.59s.6,1.81-1,4.47c0,0,.16,4.34,1.26,5.41,0,0-4.23,5.12-10,1.9,0,0,1.51-4.07.85-5.89a6.4,6.4,0,0,1-.71-1.86Z"/><path class="cls-77" d="M59.84,51.74A15,15,0,0,0,59.06,58l-1.41-.28S57,54.88,57,54.52,59.84,51.74,59.84,51.74Z"/><path class="cls-76" d="M55.63,54.29s-1.59,1.29-5.49-.53a7.1,7.1,0,0,1-1.06-5.21s5.48-6.15,8.69-5.14c.41.13.48.68.52,1.63a8.83,8.83,0,0,0,.8,2.56c.9,1,1.41,3.36.23,4.14Z"/><path class="cls-77" d="M48.21,49.35s.7-4.15,9-5.92a4.74,4.74,0,0,1,1,2.53A4.12,4.12,0,0,0,59,48.65a3.71,3.71,0,0,1,.64,1l-9.39,3.94c0,.22,1.79,1.26,1.87,1.64h0S47.51,52,48.21,49.35Z"/><path class="cls-78" d="M50.85,45.89l-.72.65s4.24,4.17,6.32,1.93c0,0,1.95-1.74.69-3.6Z"/><g class="cls-79"><path d="M48.58,48.53S51.9,47,51.65,51c-.16,2.52.18,3.33,1.12,4.28.21.22,2.17.85,5.14-1.28,0,0,2.13-1.94,2-2.94a22.74,22.74,0,0,1-.78,3.13c-.09.24.1-.28,0,0s.13-.7,0,0c0,0-1.93,2-3.68,2.18-3.46.36-3.31,1-2.13,6.07,0,0-2.7-.47-3.23-1.06,0,0,1.67-4.36.74-6.1,0,0-1.7-5.37-2.26-6Z"/></g><path class="cls-78" d="M50.71,47.69s3.56,1.9-.09,6.82l-1.38-1.4,1.55-2.06Z"/><path class="cls-80" d="M54.54,42.38a16.28,16.28,0,0,0,2,4.43,6.47,6.47,0,0,1,1.13,3.64c.14.62,1-3.14.26-4.56s-1.82-3.44-1.82-3.44Z"/><path class="cls-69" d="M55.22,48.15s.85-.93.81-1.58c-.06-.86-1-2-.81-3.54,0,0-2.81.09-3.7-.79v3.83A5.18,5.18,0,0,0,55.22,48.15Z"/><path class="cls-81" d="M56.06,36.58s.4.26.4,1.9c0,0,.4.33.58,2.1,0,0-.17,2.79-1.28,2.79,0,0-3.92.39-4.81-1,0,0-1.6-2.36-1.6-3.82a4.09,4.09,0,0,1,1.2-3.33C51.41,34.47,54.85,33.7,56.06,36.58Z"/><path class="cls-82" d="M55,43.42s-1.7,2-1.25,3.12c0,0-1.92-2.18-2.13-3.45A18.52,18.52,0,0,0,55,43.42Z"/><path class="cls-83" d="M53.69,36.14a4,4,0,0,1-.91,2c-.42.38.45,1,.7,1.26s.7.74.21,1.23c-.72.72-.37,1.63,1.35,2.81A9.56,9.56,0,0,1,51.52,43s-4.15-4.56.71-7Z"/><path class="cls-84" d="M55.2,35.32s.24,3.06-3.68,5.5c0,0-.79-1-1.2-.6s-.24,1.53,1.2,1.94a4.52,4.52,0,0,0,3.11,4.06c3.14,1.2,2.18,7.53,2.18,9.11,0,0-1.73-6.61-3.77-7.38-1.87-.23-.9-1.35-3.08-1.29v.06s.3-1.9-1.34-6.09c-.2-.49-1.09-3.51,1.08-5.06s4.2-1.35,5.44-.45Z"/><path class="cls-85" d="M55.09,36.49a3,3,0,0,1,1.33,1.17c.29.7.51-2.85-2.48-3.1Z"/><path class="cls-86" d="M55.09,36.49A6.59,6.59,0,0,1,53.72,39a4.56,4.56,0,0,0,.33-1.45s-.65.87-1.08,1a4.93,4.93,0,0,0,.56-1.74s-1.44.74-1.63,1.77c0,0-.07-2,.55-2.42,0,0-1.5.3-1.69,1.22a2.49,2.49,0,0,1,.63-1.68c.62-.52-1.45.11-1.73.79,0,0,0-1,.74-1.37s3-1.43,4.86.12A2.51,2.51,0,0,1,55.09,36.49Z"/><path class="cls-87" d="M51.52,42.16a4.43,4.43,0,0,0,2,3.47s2.54.62,2.9,2.52l.17.49s-2-2.7-.71-.38a27.59,27.59,0,0,0-2.37-1.88c-.49-.24-3.34-2.49-2.58-4.48Z"/><path class="cls-88" d="M62.5,83.37s-1.34-4.72-1.24-7a14.24,14.24,0,0,1,1.32-3.94S54,68.74,52.93,67.93A5.77,5.77,0,0,1,50,63.32l.09-2s.62,5.1,7.26,7.08l7.42,3.79S61.19,75.32,62.5,83.37Z"/><path class="cls-89" d="M60.15,64.19S67,68.78,67.08,70.3a11.84,11.84,0,0,1-.39,3.9c-.6,3-.92,5.3-.92,5.3s1-6.57.52-8.73S62.56,66.7,60.15,64.19Z"/><path class="cls-90" d="M60.15,59.47s12.05,3.47,12.42,6.92c0,0-.1,12-.75,14.17a7.84,7.84,0,0,1-1.71.39s2.21-11.63.77-14.35c0,0-7.37-4.36-12.71-5.43A9.26,9.26,0,0,0,60.15,59.47Z"/><path class="cls-75" d="M59.16,57.91c-1,0-4-.38-6-.4a32.85,32.85,0,0,0-1-4.86c-.07-5.3-2-5.84-2.55-5.87-4.14.18,1.65,12.11,1.65,12.11a3.43,3.43,0,0,0,.49.58l.19.15c1.66,1.39,4.8,1,6.72.5.54-.15,1.63-.36,1.63-.36C60,59.29,59.16,57.91,59.16,57.91Z"/><g class="cls-1"><polygon class="cls-91" points="66.93 47.98 65.76 47.3 65.79 59.12 66.97 59.8 66.93 47.98"/><polygon class="cls-92" points="72.67 45.08 71.15 44.19 65.76 47.3 66.93 47.98 72.67 45.08"/><polygon class="cls-93" points="66.93 47.98 66.97 59.8 72.7 56.9 72.67 45.08 66.93 47.98"/></g><g class="cls-1"><polygon class="cls-94" points="61.49 51.13 60.31 50.45 60.35 62.27 61.52 62.95 61.49 51.13"/><polygon class="cls-92" points="66.88 48.02 65.7 47.34 60.31 50.45 61.49 51.13 66.88 48.02"/><polygon class="cls-95" points="61.49 51.13 61.52 62.95 66.91 59.84 66.88 48.02 61.49 51.13"/></g><g class="cls-1"><polygon class="cls-96" points="67.7 47.88 67.36 47.68 67.4 59.41 67.73 59.6 67.7 47.88"/><polygon class="cls-97" points="73.03 44.8 72.69 44.6 67.36 47.68 67.7 47.88 73.03 44.8"/><polygon class="cls-98" points="67.7 47.88 67.73 59.6 73.06 56.52 73.03 44.8 67.7 47.88"/></g><g class="cls-1"><polygon class="cls-96" points="61.44 51.47 61.11 51.27 61.14 63 61.48 63.19 61.44 51.47"/><polygon class="cls-97" points="66.77 48.4 66.43 48.2 61.11 51.27 61.44 51.47 66.77 48.4"/><polygon class="cls-98" points="61.44 51.47 61.48 63.19 66.8 60.12 66.77 48.4 61.44 51.47"/></g><g class="cls-1"><polygon class="cls-96" points="66.34 48.39 66.22 48.32 66.25 60.25 66.37 60.32 66.34 48.39"/><polygon class="cls-97" points="68.49 47.14 68.38 47.08 66.22 48.32 66.34 48.39 68.49 47.14"/><polygon class="cls-99" points="66.34 48.39 66.37 60.32 68.53 59.08 68.49 47.14 66.34 48.39"/></g><path class="cls-100" d="M62.66,59.49a6.92,6.92,0,0,1-1.89.52,2.75,2.75,0,0,1-1.28-.29l-1.3.17-.89-1.3a5.7,5.7,0,0,1,1.14-.5c.32,0,1.87-.38,2.11-.38s.3.82.71.57c.06,0,.22.23.26.28s.25-.15.34-.05C62.21,58.89,62.71,59.27,62.66,59.49Z"/><path class="cls-100" d="M59.8,57.83c.06,0,.46-.66.73-.4s.13.73,1.52.61c.12,0,.31.09,1-.45s.71-.25.71-.25c0,.25-.29.55-.35.65a3.92,3.92,0,0,1-1.19,1.07Z"/><path class="cls-100" d="M62.28,58.5c.43-.27.12,0,.81-.49s.72-.23.72-.23c0,.24-.31.54-.37.64a2.87,2.87,0,0,1-.69.68,2.28,2.28,0,0,1-.55.34Z"/><path class="cls-100" d="M62.4,59c.39-.25.1.18.72-.3s.71-.42.71-.42c.13.29-.22.52-.41.7a2,2,0,0,1-.76.51l-.72.26Z"/><path class="cls-100" d="M60.82,58.22a12.67,12.67,0,0,0,1.84-.88c.61-.46.76-.35.76-.35.12.29-.22.52-.42.7a1.86,1.86,0,0,1-.75.51s-.45.15-.72.27Z"/><path class="cls-100" d="M70.52,53.3a.43.43,0,0,1-.39-.25s0-.22.93-.32a6.5,6.5,0,0,0,1.76-.6,2.49,2.49,0,0,0,.1-1.07c0-.44.44.78.49.74s.28.17.32,1.13a2.58,2.58,0,0,1-.26,1.18,4.65,4.65,0,0,1-.66.42,2.29,2.29,0,0,1-1,.19c-.31,0-.79.09-.92-.26,0,0,0-.08.62-.18l-.17,0c-.14,0-.65,0-.84-.23,0,0-.09-.11.12-.22a.76.76,0,0,1-.43-.21S70,53.42,70.52,53.3Z"/><path class="cls-101" d="M40.1,64.89l0,0,.12.07.05,0,.1.07.06.05.09.08.07,0a.6.6,0,0,0,.08.08l.06.07.09.09.06.08a.39.39,0,0,1,.08.1l.06.08.08.12,0,.06.09.15,0,.06.05.12c0,.06,0,.11.08.18s0,.09,0,.14l.06.14a1.21,1.21,0,0,0,0,.18l0,.14c0,.07,0,.15,0,.22s0,.08,0,.12,0,.2,0,.3,0,.05,0,.08,0,.27.05.42v.1c0,.13,0,.35,0,.49l15,8.7h0l2.45-1.42a.08.08,0,0,0,0,0L59.15,76l-.1-.07,0,0-.12-.07,0,0-.16-.1-3.5-2h0Z"/><path class="cls-102" d="M38.66,63.23s0,0,0,.05v.1a.13.13,0,0,0,0,.06.09.09,0,0,0,0,.05v.07s0,.06,0,.09l0,.06v0h0a.61.61,0,0,1,0,.12l0,0a.05.05,0,0,0,0,0l0,.06s0,0,0,0a1.71,1.71,0,0,0,.11.14s0,0,0,0a1.07,1.07,0,0,0,.16.14s0,0,0,0l.13.09,0,0a1.18,1.18,0,0,0,.19.11L55.3,73.73l3,1.75-.18-.11-.06,0-.13-.1-.05,0-.15-.14,0,0a.71.71,0,0,1-.1-.14l-.06-.08,0,0a.52.52,0,0,1-.07-.15,0,0,0,0,0,0,0s0-.11,0-.18a.71.71,0,0,1,0-.21h0a1.7,1.7,0,0,1,0-.22h0a1.85,1.85,0,0,1,0-.23h0c0-.08,0-.15.07-.24h0l.09-.25h0l.12-.24v0l.13-.24.17-.27.17-.24,0,0,.18-.22,0,0,.2-.22,0,0,.21-.21a0,0,0,0,1,0,0c.06-.07.14-.13.21-.2l0,0,.21-.18,0,0,.13-.1a4.88,4.88,0,0,0-.91-2.26,1.27,1.27,0,0,0-.3-.27h0l-.19-.11h0L43.14,59.63a1,1,0,0,0-.23-.11h0l-.19-.05h-.54l-.12,0-.12,0h0l-.09,0-.11,0h-.06l-.06,0-.12.05-.06,0h0l0,0-.12.06-.1.05,0,0-.13.08-.08.06h0l0,0-.14.1-.06,0,0,0a.05.05,0,0,1,0,0l-.14.12,0,0,0,0-.08.07-.14.12h0l-.12.12-.09.09v0l0,0-.12.13-.07.07v0l0,0-.1.13,0,.06,0,0,0,0a1.33,1.33,0,0,0-.14.19h0c-.06.09-.12.18-.17.27h0L39,62s0,0,0,.06,0,0,0,0l0,0,0,.09a.3.3,0,0,0,0,.08s0,0,0,0h0a0,0,0,0,0,0,0l0,.07,0,.07a.25.25,0,0,0,0,.07h0s0,0,0,.06l0,.07s0,0,0,.07a.06.06,0,0,0,0,0h0s0,0,0,.06,0,0,0,.07a.43.43,0,0,0,0,.05v0h0v.13Z"/><path class="cls-56" d="M53.75,72.28c.16.77.78,1,1.42,1.37h0l.11.07c.73.49,1.4,1.35,1.48,3.68a.28.28,0,0,1,0,.09l.07,0,2.39-1.38.34-.2A18.91,18.91,0,0,0,59.51,71a4.88,4.88,0,0,0-.91-2.26,1.27,1.27,0,0,0-.3-.27h0l-.19-.11h0a2.08,2.08,0,0,0-1.88.28C54.81,69.4,53.52,71.22,53.75,72.28Z"/></g></g></g></svg>