<svg xmlns="http://www.w3.org/2000/svg" xmlns:xlink="http://www.w3.org/1999/xlink" viewBox="0 0 104.92 127.11"><defs><style>.cls-1{isolation:isolate;}.cls-2{fill:#ccccdb;}.cls-3{fill:url(#linear-gradient);}.cls-4,.cls-7{fill:#8f8faa;}.cls-5,.cls-84{opacity:0.3;}.cls-100,.cls-101,.cls-5,.cls-50,.cls-61,.cls-63,.cls-64,.cls-7,.cls-81,.cls-84,.cls-86,.cls-92{mix-blend-mode:multiply;}.cls-5{fill:url(#linear-gradient-2);}.cls-6{fill:#bcbcc9;opacity:0.1;mix-blend-mode:screen;}.cls-47,.cls-50,.cls-7{opacity:0.5;}.cls-8{fill:#c6b8ab;}.cls-9{fill:#a79a8b;}.cls-10{fill:#baac9b;}.cls-11{fill:#9b8b7b;}.cls-12{fill:#196e90;}.cls-13{fill:#114c63;}.cls-14{fill:#198baf;}.cls-15{fill:#e0e0e0;}.cls-16{fill:#1a868e;}.cls-17{fill:#117375;}.cls-18{fill:#18a7aa;}.cls-19{fill:#029fa3;}.cls-20{fill:#d32043;}.cls-21{fill:#a0051c;}.cls-22{fill:#ad1212;}.cls-23{fill:#c32b2b;}.cls-24{fill:#e03636;}.cls-25{fill:#efa500;}.cls-26{fill:#c18100;}.cls-27{fill:#ffb727;}.cls-28{fill:#d39700;}.cls-29{fill:#871e1e;}.cls-30{fill:#d93030;}.cls-31{fill:#821515;}.cls-32{fill:#d63030;}.cls-33{fill:#b68808;}.cls-34{fill:#f4a800;}.cls-35{fill:#0984aa;}.cls-36{fill:#006272;}.cls-37{fill:#12a2c4;}.cls-38{fill:#b57d00;}.cls-39{fill:#8e5f00;}.cls-40{fill:#d89000;}.cls-41{fill:#bc7800;}.cls-42{fill:#db8c00;}.cls-43{fill:#ea3232;}.cls-44{fill:#cc2323;}.cls-45,.cls-47{fill:#ff4343;}.cls-46{fill:#bc1e1e;}.cls-48{fill:#84451a;}.cls-49,.cls-50{fill:#bf6426;}.cls-51{fill:#036b32;}.cls-52{fill:url(#linear-gradient-3);}.cls-53{fill:#056537;}.cls-54{fill:#067c3e;}.cls-55{fill:#064729;}.cls-56{fill:#096b3a;}.cls-57{fill:#00602b;}.cls-58{fill:#0a7242;}.cls-59{fill:url(#linear-gradient-4);}.cls-60{fill:#0d7f46;}.cls-101,.cls-61,.cls-63,.cls-64{opacity:0.2;}.cls-61{fill:url(#linear-gradient-5);}.cls-62{fill:url(#linear-gradient-6);}.cls-63{fill:url(#linear-gradient-7);}.cls-64{fill:url(#linear-gradient-8);}.cls-65{fill:url(#linear-gradient-9);}.cls-66{fill:#ace0f9;}.cls-67{fill:#d2f4ff;}.cls-68{fill:#e6f7ff;}.cls-69{fill:#b9e2ef;}.cls-70{fill:#d4edfc;}.cls-71{fill:#d4f7ff;}.cls-72{fill:#a3d6e2;}.cls-73{fill:#e9f8ff;}.cls-74{fill:#c3e1ea;}.cls-75{fill:#7c1419;}.cls-76{fill:#b31d24;}.cls-77{fill:#c82029;}.cls-78{fill:#a8dae2;}.cls-79{fill:url(#linear-gradient-10);}.cls-80{fill:#435282;}.cls-100,.cls-81,.cls-86,.cls-92{opacity:0.4;}.cls-81{fill:url(#linear-gradient-11);}.cls-82{fill:url(#linear-gradient-12);}.cls-83{fill:url(#linear-gradient-13);}.cls-84{fill:#3562bc;}.cls-85{fill:url(#linear-gradient-14);}.cls-86{fill:#e8343d;}.cls-87{fill:url(#linear-gradient-15);}.cls-88{fill:url(#linear-gradient-16);}.cls-89{fill:url(#linear-gradient-17);}.cls-90{fill:url(#linear-gradient-18);}.cls-91{fill:#84571b;}.cls-92{fill:url(#linear-gradient-19);}.cls-93{fill:#293860;}.cls-94{fill:#1c2b4c;}.cls-95{fill:url(#linear-gradient-20);}.cls-96{fill:url(#linear-gradient-21);}.cls-97{fill:url(#linear-gradient-22);}.cls-98{fill:url(#linear-gradient-23);}.cls-99{fill:url(#linear-gradient-24);}.cls-100{fill:url(#linear-gradient-25);}.cls-101{fill:url(#linear-gradient-26);}</style><linearGradient id="linear-gradient" x1="-891.18" y1="73.66" x2="-999.19" y2="126.33" gradientTransform="translate(994.53)" gradientUnits="userSpaceOnUse"><stop offset="0.01" stop-color="#656570"/><stop offset="0.99" stop-color="#9292a1"/></linearGradient><linearGradient id="linear-gradient-2" x1="-886.97" y1="86.73" x2="-930.66" y2="108.03" xlink:href="#linear-gradient"/><linearGradient id="linear-gradient-3" x1="1538.49" y1="96.24" x2="1557.09" y2="96.24" gradientTransform="matrix(-1, 0, 0, 1, 1573.18, 0)" gradientUnits="userSpaceOnUse"><stop offset="0" stop-color="#064729"/><stop offset="0.97" stop-color="#043f21"/></linearGradient><linearGradient id="linear-gradient-4" x1="-966.95" y1="80.08" x2="-966.54" y2="53.01" gradientTransform="translate(994.53)" gradientUnits="userSpaceOnUse"><stop offset="0.03" stop-color="#056537"/><stop offset="0.99" stop-color="#056837"/></linearGradient><linearGradient id="linear-gradient-5" x1="-972.66" y1="74.79" x2="-936.11" y2="99.08" gradientTransform="translate(994.53)" gradientUnits="userSpaceOnUse"><stop offset="0" stop-color="#064729"/><stop offset="0.13" stop-color="#0d4b29"/><stop offset="0.22" stop-color="#154f28"/><stop offset="0.81" stop-color="#115a23"/><stop offset="1" stop-color="#0f5f21"/></linearGradient><linearGradient id="linear-gradient-6" x1="-952.86" y1="60.81" x2="-940.64" y2="83.69" gradientTransform="translate(994.53)" gradientUnits="userSpaceOnUse"><stop offset="0" stop-color="#055931"/><stop offset="0.1" stop-color="#055f35"/><stop offset="0.52" stop-color="#057646"/><stop offset="0.99" stop-color="#005436"/></linearGradient><linearGradient id="linear-gradient-7" x1="-974.21" y1="60.05" x2="-950.63" y2="75.72" xlink:href="#linear-gradient-5"/><linearGradient id="linear-gradient-8" x1="-958.49" y1="65.74" x2="-934.71" y2="81.54" xlink:href="#linear-gradient-5"/><linearGradient id="linear-gradient-9" x1="-960.64" y1="57.42" x2="-966.56" y2="80.29" gradientTransform="translate(994.53)" gradientUnits="userSpaceOnUse"><stop offset="0" stop-color="#f44051"/><stop offset="1" stop-color="#e8343d"/></linearGradient><linearGradient id="linear-gradient-10" x1="-941.63" y1="75.75" x2="-950.67" y2="68.9" gradientTransform="translate(994.53)" gradientUnits="userSpaceOnUse"><stop offset="0.01" stop-color="#dba292"/><stop offset="0.99" stop-color="#df807a"/></linearGradient><linearGradient id="linear-gradient-11" x1="-952.38" y1="72.03" x2="-941.64" y2="72.03" xlink:href="#linear-gradient-10"/><linearGradient id="linear-gradient-12" x1="-932.47" y1="92.66" x2="-967.48" y2="75.83" gradientTransform="translate(994.53)" gradientUnits="userSpaceOnUse"><stop offset="0.01" stop-color="#3962c6"/><stop offset="1" stop-color="#2453b2"/></linearGradient><linearGradient id="linear-gradient-13" x1="-946.2" y1="80.38" x2="-957.7" y2="75.98" xlink:href="#linear-gradient-12"/><linearGradient id="linear-gradient-14" x1="-949.66" y1="74.54" x2="-956.46" y2="59.12" gradientTransform="translate(994.53)" gradientUnits="userSpaceOnUse"><stop offset="0" stop-color="#cc1f38"/><stop offset="1" stop-color="#e8343d"/></linearGradient><linearGradient id="linear-gradient-15" x1="-26" y1="50.05" x2="-3.47" y2="83" gradientTransform="matrix(-1, 0, 0, 1, 8.47, 0)" gradientUnits="userSpaceOnUse"><stop offset="0.01" stop-color="#daa191"/><stop offset="0.99" stop-color="#de807a"/></linearGradient><linearGradient id="linear-gradient-16" x1="-27.06" y1="58.92" x2="-21.17" y2="54.72" xlink:href="#linear-gradient-15"/><linearGradient id="linear-gradient-17" x1="-21.43" y1="58.79" x2="-17.04" y2="52.58" xlink:href="#linear-gradient-15"/><linearGradient id="linear-gradient-18" x1="-964.05" y1="63.4" x2="-963.37" y2="59.91" gradientTransform="translate(994.53)" xlink:href="#linear-gradient-15"/><linearGradient id="linear-gradient-19" x1="-964.47" y1="60.9" x2="-961.11" y2="60.9" xlink:href="#linear-gradient-10"/><linearGradient id="linear-gradient-20" x1="-948.65" y1="84.14" x2="-947.95" y2="103.66" gradientTransform="translate(994.53)" gradientUnits="userSpaceOnUse"><stop offset="0.01" stop-color="#0b41ab"/><stop offset="1" stop-color="#2453b2"/></linearGradient><linearGradient id="linear-gradient-21" x1="-979.5" y1="79.44" x2="-953.62" y2="96.64" xlink:href="#linear-gradient-5"/><linearGradient id="linear-gradient-22" x1="1542.44" y1="78.13" x2="1549.02" y2="88.3" gradientTransform="matrix(-1, 0, 0, 1, 1573.18, 0)" gradientUnits="userSpaceOnUse"><stop offset="0" stop-color="#055931"/><stop offset="0.52" stop-color="#057646"/><stop offset="0.99" stop-color="#056836"/></linearGradient><linearGradient id="linear-gradient-23" x1="-968.6" y1="83.09" x2="-971.65" y2="61.52" xlink:href="#linear-gradient-14"/><linearGradient id="linear-gradient-24" x1="-958.86" y1="86.71" x2="-973.01" y2="74.94" xlink:href="#linear-gradient-10"/><linearGradient id="linear-gradient-25" x1="-972.4" y1="81.72" x2="-961.69" y2="81.72" xlink:href="#linear-gradient-10"/><linearGradient id="linear-gradient-26" x1="-976.13" y1="75.15" x2="-955.86" y2="88.62" xlink:href="#linear-gradient-5"/></defs><g class="cls-1"><g id="Camada_2" data-name="Camada 2"><g id="Layer_1" data-name="Layer 1"><path class="cls-2" d="M104,85.63,71,104.79,41,122.25l-1.69,1a5,5,0,0,1-4.47,0L.94,103.66a1.37,1.37,0,0,1,0-2.59L54.09,70.18l11.54-6.7a4.9,4.9,0,0,1,4.47,0l11.08,6.39L104,83A1.37,1.37,0,0,1,104,85.63Z"/><path class="cls-3" d="M104.92,84.34c0,1.12,0,2.23,0,3.36v0s0,0,0,.07,0,.06,0,.1h0l0,.07,0,.09v0l0,.06,0,.1s0,0,0,0l0,0-.07.1,0,0,0,0a.87.87,0,0,1-.13.15l0,0,0,0-.1.08-.09.07-.12.08L104,89l0,0-33.9,19.7-30.8,17.9-.3.15-.08,0-.26.09,0,0h0l-.17,0-.13,0-.16,0L38,127h0l-.36,0H36.53l-.15,0h-.14l-.17,0h-.13l-.2-.06h-.11l-.34-.12h0s0,0,0,0a2.83,2.83,0,0,1-.43-.2L.94,107A1.59,1.59,0,0,1,0,105.71c0-1.12,0-2.23,0-3.35a1.58,1.58,0,0,0,.93,1.3l33.89,19.57a4.09,4.09,0,0,0,.42.2l0,0c.11,0,.23.08.34.12l.11,0,.2,0,.13,0,.16,0,.15,0h.15l.15,0h.61l.22,0h.11l.36,0,.12,0,.18,0,.11,0,.17,0,.1,0a1.73,1.73,0,0,0,.24-.1l.09,0,.3-.15,32.06-18.64,32.64-19,.11-.07.12-.09.09-.06.1-.09,0,0a.86.86,0,0,0,.13-.14l.06-.07.07-.1a.3.3,0,0,0,0-.08l0-.09,0-.08,0-.1a.19.19,0,0,1,0-.07s0-.07,0-.11S104.92,84.37,104.92,84.34Z"/><polygon class="cls-4" points="44.32 117.92 9.37 97.74 63.77 66.33 98.73 86.51 44.32 117.92"/><path class="cls-4" d="M25.46,108.86c1.62.93,1.62,2.45,0,3.38a6.48,6.48,0,0,1-5.85,0c-1.62-.93-1.62-2.45,0-3.38A6.48,6.48,0,0,1,25.46,108.86Z"/><path class="cls-5" d="M104.92,84.34c0,1.12,0,2.23,0,3.36v0s0,0,0,.07,0,.06,0,.1h0l0,.07,0,.09v0l0,.06,0,.1s0,0,0,0l0,0-.07.1,0,0,0,0a.87.87,0,0,1-.13.15l0,0,0,0-.1.08-.09.07-.12.08L104,89l0,0-33.9,19.7,1.27-4.09,32.64-19,.11-.07.12-.09.09-.06.1-.09,0,0a.86.86,0,0,0,.13-.14l.06-.07.07-.1a.3.3,0,0,0,0-.08l0-.09,0-.08,0-.1a.19.19,0,0,1,0-.07s0-.07,0-.11S104.92,84.37,104.92,84.34Z"/><path class="cls-6" d="M81.18,69.87c-1.81,6.3-6.8,23.59-10.15,34.92L41,122.25l13.1-52.07,11.54-6.7a4.9,4.9,0,0,1,4.47,0Z"/><polygon class="cls-7" points="85.15 92.86 52.35 73.93 64.21 67.08 97 86.01 85.15 92.86"/><g class="cls-1"><polygon class="cls-8" points="84.73 89.19 84.72 91.25 56.28 74.83 56.28 72.77 84.73 89.19"/><polygon class="cls-9" points="84.73 89.19 94.76 83.36 94.75 85.42 84.72 91.25 84.73 89.19"/><polygon class="cls-10" points="56.28 72.77 66.31 66.94 94.76 83.36 84.73 89.19 56.28 72.77"/></g><g class="cls-1"><polygon class="cls-8" points="58.41 8.94 58.22 73.91 56.28 72.79 56.46 7.82 58.41 8.94"/><polygon class="cls-11" points="58.41 8.94 68.44 3.11 68.25 68.08 58.22 73.91 58.41 8.94"/><polygon class="cls-10" points="56.46 7.82 66.49 1.99 68.44 3.11 58.41 8.94 56.46 7.82"/></g><g class="cls-1"><polygon class="cls-12" points="59.22 64.69 59.19 73.83 60.2 74.41 60.22 65.28 59.22 64.69"/><polygon class="cls-13" points="60.2 74.41 62.64 72.97 62.64 63.87 60.22 65.28 60.2 74.41"/><polygon class="cls-14" points="60.22 65.28 62.64 63.87 61.64 63.29 59.22 64.69 60.22 65.28"/><polygon class="cls-13" points="59.47 64.69 59.65 64.8 60.22 65.13 62.51 63.8 61.94 63.46 61.76 63.36 59.47 64.69"/><polygon class="cls-15" points="59.65 64.8 60.22 65.13 62.51 63.8 61.94 63.46 59.65 64.8"/></g><polygon class="cls-14" points="59.45 73.46 59.97 73.76 59.97 65.99 59.45 65.69 59.45 73.46"/><g class="cls-1"><polygon class="cls-16" points="60.8 65.57 60.78 74.7 61.78 75.28 61.81 66.15 60.8 65.57"/><polygon class="cls-17" points="61.78 75.28 64.23 73.84 64.23 64.75 61.81 66.15 61.78 75.28"/><polygon class="cls-18" points="61.81 66.15 64.23 64.75 63.22 64.16 60.8 65.57 61.81 66.15"/><polygon class="cls-17" points="61.06 65.57 61.23 65.67 61.81 66 64.09 64.67 63.52 64.34 63.34 64.24 61.06 65.57"/><polygon class="cls-15" points="61.23 65.67 61.81 66 64.09 64.67 63.52 64.34 61.23 65.67"/></g><path class="cls-19" d="M61.53,74.66l-.52-.3s0,0,0,0V66.56s0,0,0,0a0,0,0,0,1,0,0l.52.3s0,0,0,0v7.77s0,0,0,0,0,0,0,0Zm-.46-8v7.69l.44.26V66.88Z"/><g class="cls-1"><polygon class="cls-12" points="62.23 66.44 62.2 75.57 63.21 76.15 63.23 67.02 62.23 66.44"/><polygon class="cls-13" points="63.21 76.15 65.65 74.72 65.65 65.62 63.23 67.02 63.21 76.15"/><polygon class="cls-14" points="63.23 67.02 65.65 65.62 64.65 65.04 62.23 66.44 63.23 67.02"/><polygon class="cls-13" points="62.48 66.44 62.66 66.54 63.23 66.88 65.52 65.54 64.95 65.21 64.77 65.11 62.48 66.44"/><polygon class="cls-15" points="62.66 66.54 63.23 66.88 65.52 65.54 64.95 65.21 62.66 66.54"/></g><polygon class="cls-14" points="62.46 75.2 62.98 75.5 62.98 67.73 62.46 67.43 62.46 75.2"/><polygon class="cls-20" points="63.68 72.04 63.67 76.37 64.51 76.85 64.52 72.53 63.68 72.04"/><polygon class="cls-21" points="64.51 76.85 66.01 75.98 66.02 71.66 64.52 72.53 64.51 76.85"/><polygon class="cls-20" points="63.68 72.04 64.52 72.53 66.02 71.66 65.94 71.61 65.25 71.22 65.18 71.17 63.68 72.04"/><polygon class="cls-21" points="63.84 72.04 63.99 72.13 64.52 72.44 65.94 71.61 65.4 71.3 65.25 71.22 63.84 72.04"/><polygon class="cls-15" points="63.99 72.13 64.52 72.44 65.94 71.61 65.4 71.3 63.99 72.13"/><path class="cls-22" d="M64.34,76.42l-.51-.29s0,0,0,0V72.47h0l.51.3s0,0,0,0v3.62a0,0,0,0,1,0,0h0Zm-.48-3.9V76.1l.47.27V72.8Z"/><polygon class="cls-23" points="64.98 71.3 64.96 77.1 66.09 77.75 66.1 71.95 64.98 71.3"/><polygon class="cls-22" points="66.09 77.75 68.09 76.59 68.11 70.79 66.1 71.95 66.09 77.75"/><polygon class="cls-24" points="64.98 71.3 66.1 71.95 68.11 70.79 68 70.72 67.08 70.19 66.98 70.14 64.98 71.3"/><polygon class="cls-22" points="65.19 71.3 65.39 71.41 66.1 71.83 68 70.72 67.28 70.31 67.08 70.19 65.19 71.3"/><polygon class="cls-15" points="65.39 71.41 66.1 71.83 68 70.72 67.28 70.31 65.39 71.41"/><path class="cls-22" d="M65.86,77.18l-.69-.4V71.9s0,0,0,0h0l.69.4s0,0,0,0v4.86a0,0,0,0,1,0,0h0ZM65.21,72v4.79l.64.37V72.32Z"/><polygon class="cls-25" points="66.29 72.16 66.27 77.96 67.4 78.61 67.42 72.81 66.29 72.16"/><polygon class="cls-26" points="67.4 78.61 69.41 77.45 69.42 71.64 67.42 72.81 67.4 78.61"/><polygon class="cls-27" points="66.29 72.16 67.42 72.81 69.42 71.65 69.31 71.58 68.4 71.05 68.3 71 66.29 72.16"/><polygon class="cls-26" points="66.5 72.16 66.7 72.27 67.42 72.69 69.31 71.58 68.59 71.17 68.4 71.05 66.5 72.16"/><polygon class="cls-15" points="66.7 72.27 67.42 72.69 69.31 71.58 68.59 71.17 66.7 72.27"/><path class="cls-28" d="M67.18,78l-.69-.4,0,0V72.76a0,0,0,0,1,0,0h0l.69.4,0,0V78l0,0h0Zm-.66-5.23V77.6l.64.37V73.18Z"/><g class="cls-1"><polygon class="cls-23" points="67.95 71.55 67.93 78.84 68.73 79.3 68.76 72.01 67.95 71.55"/><polygon class="cls-29" points="68.73 79.3 70.69 78.15 70.69 70.89 68.76 72.01 68.73 79.3"/><polygon class="cls-30" points="68.76 72.01 70.69 70.89 69.89 70.43 67.95 71.55 68.76 72.01"/><polygon class="cls-31" points="68.16 71.55 68.3 71.63 68.76 71.89 70.59 70.83 70.13 70.56 69.98 70.48 68.16 71.55"/><polygon class="cls-15" points="68.3 71.63 68.76 71.89 70.59 70.83 70.13 70.56 68.3 71.63"/></g><polygon class="cls-32" points="68.14 78.54 68.55 78.78 68.55 72.58 68.14 72.34 68.14 78.54"/><g class="cls-1"><polygon class="cls-28" points="69.01 72.59 68.99 79.44 69.92 79.96 69.94 73.11 69.01 72.59"/><polygon class="cls-33" points="69.92 79.96 71.76 78.91 71.78 72.06 69.94 73.11 69.92 79.96"/><polygon class="cls-34" points="69.01 72.58 69.94 73.11 71.78 72.06 71.69 72 70.95 71.58 70.85 71.53 69.01 72.58"/><polygon class="cls-33" points="69.2 72.58 69.36 72.67 69.94 73 71.69 72 71.1 71.67 70.95 71.58 69.2 72.58"/><polygon class="cls-15" points="69.36 72.67 69.94 73 71.69 72 71.1 71.67 69.36 72.67"/></g><polygon class="cls-34" points="69.03 73.22 69.89 73.71 69.89 73.27 69.03 72.78 69.03 73.22"/><polygon class="cls-34" points="69.03 73.97 69.89 74.45 69.89 74.02 69.03 73.53 69.03 73.97"/><polygon class="cls-34" points="69.03 74.71 69.89 75.2 69.89 74.77 69.03 74.28 69.03 74.71"/><polygon class="cls-34" points="69.03 75.46 69.89 75.95 69.89 75.52 69.03 75.03 69.03 75.46"/><polygon class="cls-34" points="69.03 76.21 69.89 76.7 69.89 76.27 69.03 75.78 69.03 76.21"/><polygon class="cls-34" points="69.03 76.96 69.89 77.45 69.89 77.02 69.03 76.53 69.03 76.96"/><g class="cls-1"><polygon class="cls-12" points="70.14 73.17 70.13 80.13 70.89 80.57 70.91 73.61 70.14 73.17"/><polygon class="cls-13" points="70.89 80.57 72.75 79.47 72.75 72.54 70.91 73.61 70.89 80.57"/><polygon class="cls-14" points="70.91 73.61 72.75 72.54 71.98 72.1 70.14 73.17 70.91 73.61"/><polygon class="cls-13" points="70.34 73.17 70.47 73.25 70.91 73.5 72.65 72.48 72.22 72.23 72.08 72.16 70.34 73.17"/><polygon class="cls-15" points="70.47 73.25 70.91 73.5 72.65 72.48 72.22 72.23 70.47 73.25"/></g><polygon class="cls-14" points="70.32 79.84 70.72 80.07 70.72 74.15 70.32 73.92 70.32 79.84"/><g class="cls-1"><polygon class="cls-35" points="71.64 73.54 71.62 80.94 72.43 81.41 72.45 74.02 71.64 73.54"/><polygon class="cls-36" points="72.43 81.41 74.41 80.25 74.41 72.88 72.45 74.02 72.43 81.41"/><polygon class="cls-37" points="72.45 74.02 74.41 72.88 73.6 72.41 71.64 73.54 72.45 74.02"/><polygon class="cls-36" points="71.84 73.54 71.98 73.62 72.45 73.89 74.31 72.82 73.84 72.55 73.7 72.46 71.84 73.54"/><polygon class="cls-15" points="71.98 73.62 72.45 73.89 74.31 72.82 73.84 72.55 71.98 73.62"/></g><polygon class="cls-12" points="71.83 80.64 72.24 80.88 72.24 74.59 71.83 74.34 71.83 80.64"/><g class="cls-1"><polygon class="cls-23" points="73.2 74.55 73.18 81.85 73.98 82.32 74 75.02 73.2 74.55"/><polygon class="cls-29" points="73.98 82.32 75.94 81.17 75.94 73.89 74 75.02 73.98 82.32"/><polygon class="cls-30" points="74 75.02 75.94 73.89 75.13 73.43 73.2 74.55 74 75.02"/><polygon class="cls-31" points="73.4 74.55 73.54 74.63 74 74.9 75.84 73.83 75.38 73.56 75.23 73.48 73.4 74.55"/><polygon class="cls-15" points="73.54 74.63 74 74.9 75.84 73.83 75.38 73.56 73.54 74.63"/></g><polygon class="cls-32" points="73.39 81.56 73.8 81.8 73.8 75.58 73.39 75.34 73.39 81.56"/><g class="cls-1"><polygon class="cls-12" points="74.83 75.47 74.81 82.81 75.61 83.27 75.64 75.94 74.83 75.47"/><polygon class="cls-13" points="75.61 83.27 77.58 82.11 77.58 74.81 75.64 75.94 75.61 83.27"/><polygon class="cls-14" points="75.64 75.94 77.58 74.81 76.77 74.34 74.83 75.47 75.64 75.94"/><polygon class="cls-13" points="75.03 75.47 75.17 75.55 75.64 75.82 77.47 74.75 77.01 74.48 76.87 74.39 75.03 75.47"/><polygon class="cls-15" points="75.17 75.55 75.64 75.82 77.47 74.75 77.01 74.48 75.17 75.55"/></g><polygon class="cls-14" points="75.01 82.51 75.43 82.75 75.43 76.5 75.01 76.26 75.01 82.51"/><g class="cls-1"><polygon class="cls-38" points="75.84 76.06 75.82 83.39 76.81 83.96 76.84 76.62 75.84 76.06"/><polygon class="cls-39" points="76.81 83.96 78.79 82.83 78.81 75.5 76.84 76.62 76.81 83.96"/><polygon class="cls-40" points="75.84 76.06 76.84 76.62 78.81 75.5 78.7 75.44 77.91 74.99 77.81 74.93 75.84 76.06"/><polygon class="cls-41" points="76.04 76.06 76.21 76.15 76.84 76.5 78.7 75.44 78.08 75.08 77.91 74.99 76.04 76.06"/><polygon class="cls-15" points="76.21 76.15 76.84 76.5 78.7 75.44 78.08 75.08 76.21 76.15"/></g><polygon class="cls-42" points="75.86 76.73 76.78 77.26 76.78 76.79 75.86 76.27 75.86 76.73"/><polygon class="cls-42" points="75.86 77.53 76.78 78.06 76.78 77.59 75.86 77.07 75.86 77.53"/><polygon class="cls-42" points="75.86 78.34 76.78 78.86 76.78 78.39 75.86 77.87 75.86 78.34"/><polygon class="cls-42" points="75.86 79.14 76.78 79.66 76.78 79.2 75.86 78.67 75.86 79.14"/><polygon class="cls-42" points="75.86 79.94 76.78 80.46 76.78 80 75.86 79.47 75.86 79.94"/><polygon class="cls-42" points="75.86 80.74 76.78 81.27 76.78 80.8 75.86 80.28 75.86 80.74"/><g class="cls-1"><polygon class="cls-28" points="77.02 76.84 76.99 84.06 77.98 84.62 78 77.4 77.02 76.84"/><polygon class="cls-33" points="77.98 84.62 79.92 83.51 79.94 76.29 78 77.4 77.98 84.62"/><polygon class="cls-34" points="77.02 76.84 78 77.4 79.94 76.29 79.84 76.23 79.06 75.79 78.96 75.73 77.02 76.84"/><polygon class="cls-33" points="77.22 76.84 77.38 76.93 78 77.29 79.84 76.23 79.22 75.88 79.06 75.79 77.22 76.84"/><polygon class="cls-15" points="77.38 76.93 78 77.29 79.84 76.23 79.22 75.88 77.38 76.93"/></g><polygon class="cls-34" points="77.04 77.51 77.95 78.02 77.95 77.56 77.04 77.05 77.04 77.51"/><polygon class="cls-34" points="77.04 78.3 77.95 78.81 77.95 78.35 77.04 77.84 77.04 78.3"/><polygon class="cls-34" points="77.04 79.09 77.95 79.61 77.95 79.14 77.04 78.63 77.04 79.09"/><polygon class="cls-34" points="77.04 79.88 77.95 80.39 77.95 79.93 77.04 79.42 77.04 79.88"/><polygon class="cls-34" points="77.04 80.67 77.95 81.18 77.95 80.72 77.04 80.21 77.04 80.67"/><polygon class="cls-34" points="77.04 81.46 77.95 81.97 77.95 81.52 77.04 81 77.04 81.46"/><polygon class="cls-12" points="78.16 79.09 78.15 84.71 79.24 85.34 79.25 79.72 78.16 79.09"/><polygon class="cls-13" points="79.24 85.34 81.18 84.21 81.2 78.59 79.25 79.72 79.24 85.34"/><polygon class="cls-14" points="78.16 79.09 79.25 79.72 81.2 78.59 81.09 78.53 80.21 78.01 80.1 77.96 78.16 79.09"/><polygon class="cls-13" points="78.36 79.09 78.56 79.19 79.25 79.6 81.09 78.53 80.39 78.12 80.21 78.01 78.36 79.09"/><polygon class="cls-15" points="78.56 79.19 79.25 79.6 81.09 78.53 80.39 78.12 78.56 79.19"/><path class="cls-13" d="M79,84.79l-.67-.39a0,0,0,0,1,0,0V79.67a0,0,0,0,1,0,0h0l.67.39a0,0,0,0,1,0,0v4.7a0,0,0,0,1,0,0h0Zm-.63-5.08v4.65l.62.36V80.07Z"/><polygon class="cls-25" points="80 78.45 79.98 86.13 81.47 87 81.49 79.31 80 78.45"/><polygon class="cls-26" points="81.47 87 84.12 85.45 84.14 77.77 81.49 79.31 81.47 87"/><polygon class="cls-27" points="80 78.45 81.49 79.31 84.15 77.77 84 77.69 82.79 76.99 82.66 76.91 80 78.45"/><polygon class="cls-26" points="80.28 78.45 80.54 78.6 81.49 79.15 84 77.69 83.05 77.14 82.79 76.99 80.28 78.45"/><polygon class="cls-15" points="80.54 78.6 81.49 79.15 84 77.69 83.05 77.14 80.54 78.6"/><path class="cls-28" d="M81.17,86.23l-.91-.53s0,0,0,0V79.25a.05.05,0,0,1,0,0h0l.92.53,0,0V86.2l0,0h0Zm-.86-6.92v6.34l.85.49V79.79Z"/><g class="cls-1"><polygon class="cls-8" points="82.8 77.54 82.79 79.32 58.22 65.14 58.23 63.36 82.8 77.54"/><polygon class="cls-9" points="82.8 77.54 91.46 72.5 91.45 74.29 82.79 79.32 82.8 77.54"/><polygon class="cls-10" points="58.23 63.36 68.27 57.5 92.83 71.68 82.8 77.54 58.23 63.36"/></g><g class="cls-1"><polygon class="cls-23" points="59.48 53.61 59.45 62.77 60.46 63.35 60.48 54.2 59.48 53.61"/><polygon class="cls-29" points="60.46 63.35 62.91 61.91 62.91 52.79 60.48 54.2 60.46 63.35"/><polygon class="cls-30" points="60.48 54.2 62.91 52.79 61.9 52.2 59.48 53.61 60.48 54.2"/><polygon class="cls-31" points="59.73 53.61 59.9 53.71 60.48 54.05 62.78 52.71 62.2 52.38 62.02 52.27 59.73 53.61"/><polygon class="cls-15" points="59.9 53.71 60.48 54.05 62.78 52.71 62.2 52.38 59.9 53.71"/></g><polygon class="cls-32" points="59.71 62.4 60.23 62.7 60.23 54.91 59.71 54.6 59.71 62.4"/><g class="cls-1"><polygon class="cls-43" points="60.81 54.38 60.78 63.54 61.79 64.13 61.82 54.97 60.81 54.38"/><polygon class="cls-44" points="61.79 64.13 64.24 62.68 64.24 53.56 61.82 54.97 61.79 64.13"/><polygon class="cls-45" points="61.82 54.97 64.24 53.56 63.24 52.97 60.81 54.38 61.82 54.97"/><polygon class="cls-46" points="61.07 54.38 61.24 54.48 61.82 54.82 64.11 53.48 63.53 53.15 63.36 53.05 61.07 54.38"/><polygon class="cls-15" points="61.24 54.48 61.82 54.82 64.11 53.48 63.53 53.15 61.24 54.48"/></g><polygon class="cls-47" points="61.04 63.17 61.56 63.47 61.56 55.68 61.04 55.38 61.04 63.17"/><g class="cls-1"><polygon class="cls-23" points="62.23 55.21 62.21 64.37 63.22 64.95 63.24 55.8 62.23 55.21"/><polygon class="cls-29" points="63.22 64.95 65.67 63.51 65.67 54.38 63.24 55.8 63.22 64.95"/><polygon class="cls-30" points="63.24 55.8 65.67 54.38 64.66 53.8 62.23 55.21 63.24 55.8"/><polygon class="cls-31" points="62.49 55.21 62.66 55.31 63.24 55.65 65.54 54.31 64.96 53.98 64.79 53.88 62.49 55.21"/><polygon class="cls-15" points="62.66 55.31 63.24 55.65 65.54 54.31 64.96 53.98 62.66 55.31"/></g><polygon class="cls-32" points="62.47 64 62.99 64.3 62.99 56.51 62.47 56.21 62.47 64"/><g class="cls-1"><polygon class="cls-12" points="63.89 56.67 63.87 65.41 64.83 65.96 64.86 57.23 63.89 56.67"/><polygon class="cls-13" points="64.83 65.96 67.17 64.59 67.17 55.88 64.86 57.23 64.83 65.96"/><polygon class="cls-14" points="64.86 57.23 67.17 55.88 66.21 55.33 63.89 56.67 64.86 57.23"/><polygon class="cls-13" points="64.14 56.67 64.31 56.76 64.86 57.08 67.05 55.81 66.5 55.49 66.33 55.39 64.14 56.67"/><polygon class="cls-15" points="64.31 56.76 64.86 57.08 67.05 55.81 66.5 55.49 64.31 56.76"/></g><polygon class="cls-14" points="64.12 65.05 64.61 65.34 64.61 57.9 64.12 57.62 64.12 65.05"/><g class="cls-1"><polygon class="cls-38" points="65.4 57.53 65.38 66.26 66.56 66.94 66.59 58.2 65.4 57.53"/><polygon class="cls-39" points="66.56 66.94 68.91 65.59 68.94 56.86 66.59 58.2 66.56 66.94"/><polygon class="cls-40" points="65.4 57.53 66.59 58.2 68.94 56.86 68.82 56.79 67.87 56.25 67.75 56.18 65.4 57.53"/><polygon class="cls-41" points="65.64 57.53 65.84 57.64 66.59 58.06 68.82 56.79 68.07 56.37 67.87 56.25 65.64 57.53"/><polygon class="cls-15" points="65.84 57.64 66.59 58.06 68.82 56.79 68.07 56.37 65.84 57.64"/></g><polygon class="cls-42" points="65.43 58.33 66.53 58.95 66.53 58.4 65.43 57.78 65.43 58.33"/><polygon class="cls-42" points="65.43 59.29 66.53 59.91 66.53 59.36 65.43 58.73 65.43 59.29"/><polygon class="cls-42" points="65.43 60.24 66.53 60.87 66.53 60.31 65.43 59.69 65.43 60.24"/><polygon class="cls-42" points="65.43 61.2 66.53 61.82 66.53 61.27 65.43 60.64 65.43 61.2"/><polygon class="cls-42" points="65.43 62.15 66.53 62.78 66.53 62.22 65.43 61.6 65.43 62.15"/><polygon class="cls-42" points="65.43 63.11 66.53 63.73 66.53 63.18 65.43 62.55 65.43 63.11"/><g class="cls-1"><polygon class="cls-23" points="67.18 58.11 67.16 67.27 68.17 67.86 68.19 58.7 67.18 58.11"/><polygon class="cls-29" points="68.17 67.86 70.62 66.41 70.62 57.28 68.19 58.7 68.17 67.86"/><polygon class="cls-30" points="68.19 58.7 70.62 57.28 69.61 56.71 67.18 58.11 68.19 58.7"/><polygon class="cls-31" points="67.44 58.11 67.61 58.22 68.19 58.55 70.49 57.21 69.91 56.88 69.73 56.78 67.44 58.11"/><polygon class="cls-15" points="67.61 58.22 68.19 58.55 70.49 57.21 69.91 56.88 67.61 58.22"/></g><polygon class="cls-32" points="67.41 66.9 67.94 67.2 67.94 59.41 67.41 59.11 67.41 66.9"/><g class="cls-1"><polygon class="cls-28" points="68.59 59.49 68.56 68.09 69.73 68.76 69.76 60.16 68.59 59.49"/><polygon class="cls-33" points="69.73 68.76 72.05 67.44 72.08 58.83 69.76 60.16 69.73 68.76"/><polygon class="cls-34" points="68.59 59.49 69.76 60.16 72.08 58.83 71.95 58.76 71.03 58.24 70.9 58.17 68.59 59.49"/><polygon class="cls-33" points="68.83 59.49 69.03 59.6 69.76 60.02 71.95 58.76 71.22 58.35 71.03 58.24 68.83 59.49"/><polygon class="cls-15" points="69.03 59.6 69.76 60.02 71.95 58.76 71.22 58.35 69.03 59.6"/></g><polygon class="cls-34" points="68.62 60.29 69.7 60.9 69.7 60.35 68.62 59.74 68.62 60.29"/><polygon class="cls-34" points="68.62 61.23 69.7 61.84 69.7 61.29 68.62 60.68 68.62 61.23"/><polygon class="cls-34" points="68.62 62.17 69.7 62.78 69.7 62.23 68.62 61.62 68.62 62.17"/><polygon class="cls-34" points="68.62 63.11 69.7 63.72 69.7 63.17 68.62 62.56 68.62 63.11"/><polygon class="cls-34" points="68.62 64.05 69.7 64.66 69.7 64.11 68.62 63.5 68.62 64.05"/><polygon class="cls-34" points="68.62 64.99 69.7 65.6 69.7 65.06 68.62 64.44 68.62 64.99"/><g class="cls-1"><polygon class="cls-12" points="70.01 60.17 69.99 68.9 70.95 69.46 70.98 60.72 70.01 60.17"/><polygon class="cls-13" points="70.95 69.46 73.29 68.08 73.29 59.38 70.98 60.72 70.95 69.46"/><polygon class="cls-14" points="70.98 60.72 73.29 59.38 72.33 58.82 70.01 60.17 70.98 60.72"/><polygon class="cls-13" points="70.26 60.17 70.42 60.26 70.98 60.58 73.16 59.31 72.61 58.99 72.45 58.89 70.26 60.17"/><polygon class="cls-15" points="70.42 60.26 70.98 60.58 73.16 59.31 72.61 58.99 70.42 60.26"/></g><polygon class="cls-14" points="70.23 68.55 70.73 68.84 70.73 61.4 70.23 61.12 70.23 68.55"/><g class="cls-1"><polygon class="cls-35" points="71.69 60.6 71.67 69.89 72.69 70.48 72.72 61.19 71.69 60.6"/><polygon class="cls-36" points="72.69 70.48 75.18 69.02 75.18 59.76 72.72 61.19 72.69 70.48"/><polygon class="cls-37" points="72.72 61.19 75.18 59.76 74.15 59.17 71.69 60.6 72.72 61.19"/><polygon class="cls-36" points="71.95 60.6 72.13 60.7 72.72 61.04 75.05 59.69 74.46 59.35 74.28 59.24 71.95 60.6"/><polygon class="cls-15" points="72.13 60.7 72.72 61.04 75.05 59.69 74.46 59.35 72.13 60.7"/></g><polygon class="cls-12" points="71.93 69.52 72.46 69.82 72.46 61.91 71.93 61.61 71.93 69.52"/><g class="cls-1"><polygon class="cls-23" points="73.93 62.01 73.9 71.17 74.91 71.75 74.94 62.59 73.93 62.01"/><polygon class="cls-29" points="74.91 71.75 77.36 70.31 77.36 61.18 74.94 62.59 74.91 71.75"/><polygon class="cls-30" points="74.94 62.59 77.36 61.18 76.35 60.6 73.93 62.01 74.94 62.59"/><polygon class="cls-31" points="74.18 62.01 74.36 62.11 74.94 62.45 77.23 61.11 76.65 60.77 76.48 60.67 74.18 62.01"/><polygon class="cls-15" points="74.36 62.11 74.94 62.45 77.23 61.11 76.65 60.77 74.36 62.11"/></g><polygon class="cls-32" points="74.16 70.8 74.68 71.1 74.68 63.3 74.16 63 74.16 70.8"/><g class="cls-1"><polygon class="cls-12" points="76.01 63.11 75.98 72.31 77 72.89 77.03 63.7 76.01 63.11"/><polygon class="cls-13" points="77 72.89 79.46 71.45 79.46 62.28 77.03 63.7 77 72.89"/><polygon class="cls-14" points="77.03 63.7 79.46 62.28 78.45 61.69 76.01 63.11 77.03 63.7"/><polygon class="cls-13" points="76.27 63.11 76.44 63.21 77.03 63.55 79.33 62.2 78.75 61.87 78.58 61.77 76.27 63.11"/><polygon class="cls-15" points="76.44 63.21 77.03 63.55 79.33 62.2 78.75 61.87 76.44 63.21"/></g><polygon class="cls-14" points="76.24 71.94 76.77 72.24 76.77 64.41 76.24 64.11 76.24 71.94"/><g class="cls-1"><polygon class="cls-38" points="77.26 63.88 77.23 73.08 78.48 73.78 78.51 64.59 77.26 63.88"/><polygon class="cls-39" points="78.48 73.78 80.96 72.37 80.99 63.18 78.51 64.59 78.48 73.78"/><polygon class="cls-40" points="77.26 63.88 78.51 64.59 80.99 63.18 80.86 63.1 79.86 62.54 79.73 62.46 77.26 63.88"/><polygon class="cls-41" points="77.52 63.88 77.72 64 78.51 64.44 80.86 63.1 80.07 62.66 79.86 62.54 77.52 63.88"/><polygon class="cls-15" points="77.72 64 78.51 64.44 80.86 63.1 80.07 62.66 77.72 64"/></g><polygon class="cls-42" points="77.3 64.73 78.45 65.38 78.45 64.8 77.3 64.14 77.3 64.73"/><polygon class="cls-42" points="77.3 65.73 78.45 66.39 78.45 65.81 77.3 65.15 77.3 65.73"/><polygon class="cls-42" points="77.3 66.74 78.45 67.39 78.45 66.81 77.3 66.16 77.3 66.74"/><polygon class="cls-42" points="77.3 67.74 78.45 68.4 78.45 67.82 77.3 67.16 77.3 67.74"/><polygon class="cls-42" points="77.3 68.75 78.45 69.41 78.45 68.82 77.3 68.17 77.3 68.75"/><polygon class="cls-42" points="77.3 69.75 78.45 70.41 78.45 69.83 77.3 69.17 77.3 69.75"/><g class="cls-1"><polygon class="cls-28" points="78.79 64.82 78.76 73.88 79.99 74.58 80.02 65.52 78.79 64.82"/><polygon class="cls-33" points="79.99 74.58 82.43 73.19 82.46 64.13 80.02 65.52 79.99 74.58"/><polygon class="cls-34" points="78.79 64.82 80.02 65.52 82.46 64.13 82.33 64.06 81.35 63.5 81.23 63.43 78.79 64.82"/><polygon class="cls-33" points="79.05 64.82 79.25 64.94 80.02 65.38 82.33 64.06 81.56 63.62 81.35 63.5 79.05 64.82"/><polygon class="cls-15" points="79.25 64.94 80.02 65.38 82.33 64.06 81.56 63.62 79.25 64.94"/></g><polygon class="cls-34" points="78.82 65.66 79.96 66.3 79.96 65.73 78.82 65.08 78.82 65.66"/><polygon class="cls-34" points="78.82 66.65 79.96 67.3 79.96 66.72 78.82 66.07 78.82 66.65"/><polygon class="cls-34" points="78.82 67.64 79.96 68.28 79.96 67.71 78.82 67.06 78.82 67.64"/><polygon class="cls-34" points="78.82 68.63 79.96 69.28 79.96 68.7 78.82 68.06 78.82 68.63"/><polygon class="cls-34" points="78.82 69.62 79.96 70.27 79.96 69.69 78.82 69.05 78.82 69.62"/><polygon class="cls-34" points="78.82 70.61 79.96 71.26 79.96 70.68 78.82 70.04 78.82 70.61"/><polygon class="cls-12" points="80.23 67.67 80.21 74.73 81.58 75.52 81.6 68.47 80.23 67.67"/><polygon class="cls-13" points="81.58 75.52 84.02 74.1 84.04 67.05 81.6 68.47 81.58 75.52"/><polygon class="cls-14" points="80.23 67.68 81.6 68.47 84.04 67.05 83.91 66.97 82.8 66.33 82.67 66.26 80.23 67.68"/><polygon class="cls-13" points="80.49 67.67 80.73 67.81 81.6 68.32 83.91 66.97 83.03 66.47 82.8 66.33 80.49 67.67"/><polygon class="cls-15" points="80.73 67.81 81.6 68.32 83.91 66.97 83.03 66.47 80.73 67.81"/><path class="cls-13" d="M81.31,74.82l-.84-.49s0,0,0,0V68.4s0,0,0,0h0l.84.48s0,0,0,0v5.9l0,0h0Zm-.79-6.36v5.83l.78.45V68.91Z"/><g class="cls-1"><polygon class="cls-8" points="82.8 63.26 82.79 65.04 58.23 50.85 58.23 49.08 82.8 63.26"/><polygon class="cls-9" points="82.8 63.26 91.46 58.22 91.46 60.01 82.79 65.04 82.8 63.26"/><polygon class="cls-10" points="58.23 49.08 68.27 43.22 92.84 57.4 82.8 63.26 58.23 49.08"/></g><polygon class="cls-25" points="60.74 42.38 60.72 49.08 62.02 49.83 62.04 43.13 60.74 42.38"/><polygon class="cls-26" points="62.02 49.83 64.33 48.48 64.35 41.78 62.04 43.13 62.02 49.83"/><polygon class="cls-27" points="60.74 42.38 62.04 43.13 64.35 41.78 64.23 41.71 63.17 41.1 63.05 41.03 60.74 42.38"/><polygon class="cls-26" points="60.98 42.38 61.21 42.51 62.04 42.99 64.23 41.71 63.4 41.23 63.17 41.1 60.98 42.38"/><polygon class="cls-15" points="61.21 42.51 62.04 42.99 64.23 41.71 63.4 41.23 61.21 42.51"/><path class="cls-28" d="M61.76,49.17,61,48.7V43h0l.8.47,0,0v5.61l0,0h0ZM61,43.12v5.54l.74.43V43.55Z"/><g class="cls-1"><polygon class="cls-12" points="62.62 41.42 62.59 50.15 63.55 50.71 63.58 41.97 62.62 41.42"/><polygon class="cls-13" points="63.55 50.71 65.89 49.33 65.89 40.63 63.58 41.97 63.55 50.71"/><polygon class="cls-14" points="63.58 41.97 65.89 40.63 64.93 40.07 62.62 41.42 63.58 41.97"/><polygon class="cls-13" points="62.86 41.41 63.02 41.51 63.58 41.83 65.77 40.55 65.22 40.23 65.05 40.14 62.86 41.41"/><polygon class="cls-15" points="63.02 41.51 63.58 41.83 65.77 40.55 65.22 40.23 63.02 41.51"/></g><polygon class="cls-14" points="62.84 49.8 63.34 50.09 63.34 42.65 62.84 42.36 62.84 49.8"/><g class="cls-1"><polygon class="cls-16" points="63.83 42.09 63.8 50.83 64.77 51.38 64.79 42.65 63.83 42.09"/><polygon class="cls-17" points="64.77 51.38 67.11 50.01 67.11 41.3 64.79 42.65 64.77 51.38"/><polygon class="cls-18" points="64.79 42.65 67.11 41.3 66.14 40.75 63.83 42.09 64.79 42.65"/><polygon class="cls-17" points="64.07 42.09 64.24 42.19 64.79 42.51 66.98 41.23 66.43 40.91 66.26 40.81 64.07 42.09"/><polygon class="cls-15" points="64.24 42.19 64.79 42.51 66.98 41.23 66.43 40.91 64.24 42.19"/></g><path class="cls-19" d="M64.53,50.79,64,50.5a0,0,0,0,1,0,0V43s0,0,0,0h0l.5.28v7.47a.1.1,0,0,1,0,0h0Zm-.44-7.69v7.35l.42.25V43.35Z"/><g class="cls-1"><polygon class="cls-12" points="65.16 42.82 65.14 51.55 66.1 52.11 66.12 43.37 65.16 42.82"/><polygon class="cls-13" points="66.1 52.11 68.44 50.73 68.44 42.03 66.12 43.37 66.1 52.11"/><polygon class="cls-14" points="66.12 43.37 68.44 42.03 67.47 41.47 65.16 42.82 66.12 43.37"/><polygon class="cls-13" points="65.4 42.82 65.57 42.91 66.12 43.23 68.31 41.95 67.76 41.63 67.59 41.54 65.4 42.82"/><polygon class="cls-15" points="65.57 42.91 66.12 43.23 68.31 41.95 67.76 41.63 65.57 42.91"/></g><polygon class="cls-14" points="65.38 51.2 65.88 51.48 65.88 44.05 65.38 43.76 65.38 51.2"/><g class="cls-1"><polygon class="cls-23" points="66.62 43.34 66.6 52.45 67.6 53.03 67.63 43.92 66.62 43.34"/><polygon class="cls-29" points="67.6 53.03 70.04 51.6 70.04 42.52 67.63 43.92 67.6 53.03"/><polygon class="cls-30" points="67.63 43.92 70.04 42.52 69.04 41.94 66.62 43.34 67.63 43.92"/><polygon class="cls-31" points="66.88 43.34 67.05 43.44 67.63 43.77 69.91 42.44 69.33 42.11 69.16 42.01 66.88 43.34"/><polygon class="cls-15" points="67.05 43.44 67.63 43.77 69.91 42.44 69.33 42.11 67.05 43.44"/></g><polygon class="cls-32" points="66.85 52.09 67.37 52.38 67.37 44.63 66.85 44.33 66.85 52.09"/><g class="cls-1"><polygon class="cls-28" points="67.88 44.56 67.86 53.17 69.03 53.83 69.05 45.23 67.88 44.56"/><polygon class="cls-33" points="69.03 53.83 71.34 52.51 71.37 43.91 69.05 45.23 69.03 53.83"/><polygon class="cls-34" points="67.88 44.56 69.05 45.23 71.37 43.91 71.25 43.84 70.32 43.31 70.2 43.24 67.88 44.56"/><polygon class="cls-33" points="68.13 44.56 68.32 44.67 69.05 45.09 71.25 43.84 70.51 43.42 70.32 43.31 68.13 44.56"/><polygon class="cls-15" points="68.32 44.67 69.05 45.09 71.25 43.84 70.51 43.42 68.32 44.67"/></g><polygon class="cls-34" points="67.91 45.35 69 45.97 69 45.42 67.91 44.81 67.91 45.35"/><polygon class="cls-34" points="67.91 46.3 69 46.91 69 46.36 67.91 45.75 67.91 46.3"/><polygon class="cls-34" points="67.91 47.24 69 47.85 69 47.3 67.91 46.69 67.91 47.24"/><polygon class="cls-34" points="67.91 48.18 69 48.79 69 48.25 67.91 47.63 67.91 48.18"/><polygon class="cls-34" points="67.91 49.12 69 49.73 69 49.19 67.91 48.57 67.91 49.12"/><polygon class="cls-34" points="67.91 50.06 69 50.67 69 50.13 67.91 49.51 67.91 50.06"/><g class="cls-1"><polygon class="cls-12" points="69.14 45.22 69.12 53.96 70.08 54.51 70.11 45.78 69.14 45.22"/><polygon class="cls-13" points="70.08 54.51 72.42 53.14 72.42 44.43 70.11 45.78 70.08 54.51"/><polygon class="cls-14" points="70.11 45.78 72.42 44.43 71.46 43.88 69.14 45.22 70.11 45.78"/><polygon class="cls-13" points="69.39 45.22 69.55 45.32 70.11 45.64 72.3 44.36 71.75 44.04 71.58 43.95 69.39 45.22"/><polygon class="cls-15" points="69.55 45.32 70.11 45.64 72.3 44.36 71.75 44.04 69.55 45.32"/></g><polygon class="cls-14" points="69.36 53.6 69.86 53.89 69.86 46.46 69.36 46.17 69.36 53.6"/><polygon class="cls-23" points="70.64 48.05 70.63 54.76 71.93 55.51 71.95 48.81 70.64 48.05"/><polygon class="cls-22" points="71.93 55.51 74.24 54.16 74.26 47.46 71.95 48.81 71.93 55.51"/><polygon class="cls-24" points="70.64 48.06 71.95 48.81 74.26 47.46 74.13 47.39 73.08 46.78 72.96 46.71 70.64 48.06"/><polygon class="cls-22" points="70.89 48.05 71.11 48.19 71.95 48.67 74.13 47.39 73.31 46.91 73.08 46.78 70.89 48.05"/><polygon class="cls-15" points="71.11 48.19 71.95 48.67 74.13 47.39 73.31 46.91 71.11 48.19"/><path class="cls-22" d="M71.67,54.84l-.8-.46s0,0,0,0v-5.6l0,0h0l.8.46a0,0,0,0,1,0,0v5.6s0,0,0,0h0Zm-.75-6v5.54l.73.42V49.23Z"/><g class="cls-1"><polygon class="cls-12" points="72.34 46.66 72.32 55.8 73.32 56.38 73.35 47.25 72.34 46.66"/><polygon class="cls-13" points="73.32 56.38 75.77 54.94 75.77 45.84 73.35 47.25 73.32 56.38"/><polygon class="cls-14" points="73.35 47.25 75.77 45.84 74.76 45.26 72.34 46.66 73.35 47.25"/><polygon class="cls-13" points="72.6 46.66 72.77 46.77 73.35 47.1 75.64 45.77 75.06 45.43 74.89 45.33 72.6 46.66"/><polygon class="cls-15" points="72.77 46.77 73.35 47.1 75.64 45.77 75.06 45.43 72.77 46.77"/></g><polygon class="cls-14" points="72.57 55.43 73.09 55.73 73.09 47.95 72.57 47.66 72.57 55.43"/><g class="cls-1"><polygon class="cls-16" points="73.61 47.37 73.59 56.5 74.59 57.08 74.62 47.95 73.61 47.37"/><polygon class="cls-17" points="74.59 57.08 77.04 55.65 77.04 46.55 74.62 47.95 74.59 57.08"/><polygon class="cls-18" points="74.62 47.95 77.04 46.55 76.03 45.97 73.61 47.37 74.62 47.95"/><polygon class="cls-17" points="73.87 47.37 74.04 47.47 74.62 47.81 76.91 46.47 76.33 46.14 76.16 46.04 73.87 47.37"/><polygon class="cls-15" points="74.04 47.47 74.62 47.81 76.91 46.47 76.33 46.14 74.04 47.47"/></g><path class="cls-19" d="M74.34,56.47l-.51-.3s0,0,0,0V48.36s0,0,0,0h0l.52.3,0,0v7.78s0,0,0,0h0Zm-.46-8v7.68l.45.26V48.69Z"/><g class="cls-1"><polygon class="cls-12" points="74.92 48.1 74.89 57.23 75.89 57.81 75.92 48.68 74.92 48.1"/><polygon class="cls-13" points="75.89 57.81 78.34 56.38 78.34 47.27 75.92 48.68 75.89 57.81"/><polygon class="cls-14" points="75.92 48.68 78.34 47.27 77.33 46.7 74.92 48.1 75.92 48.68"/><polygon class="cls-13" points="75.17 48.1 75.35 48.2 75.92 48.53 78.21 47.2 77.63 46.87 77.46 46.77 75.17 48.1"/><polygon class="cls-15" points="75.35 48.2 75.92 48.53 78.21 47.2 77.63 46.87 75.35 48.2"/></g><polygon class="cls-14" points="75.14 56.86 75.67 57.16 75.67 49.39 75.14 49.09 75.14 56.86"/><polygon class="cls-20" points="76.29 51.33 76.28 58.03 77.58 58.78 77.6 52.08 76.29 51.33"/><polygon class="cls-21" points="77.58 58.78 79.89 57.44 79.91 50.74 77.6 52.08 77.58 58.78"/><polygon class="cls-20" points="76.29 51.33 77.6 52.08 79.91 50.74 79.78 50.66 78.73 50.06 78.61 49.99 76.29 51.33"/><polygon class="cls-21" points="76.54 51.33 76.77 51.46 77.6 51.94 79.78 50.66 78.96 50.18 78.73 50.06 76.54 51.33"/><polygon class="cls-15" points="76.77 51.46 77.6 51.94 79.78 50.66 78.96 50.18 76.77 51.46"/><path class="cls-22" d="M77.32,58.12l-.8-.46,0,0V52s0,0,0,0h0l.8.46s0,0,0,0v5.6a0,0,0,0,1,0,0h0Zm-.75-6v5.53l.73.43V52.5Z"/><polygon class="cls-23" points="77.73 49.93 77.71 58.92 79.46 59.93 79.48 50.94 77.73 49.93"/><polygon class="cls-22" points="79.46 59.93 82.56 58.12 82.59 49.13 79.48 50.94 79.46 59.93"/><polygon class="cls-24" points="77.73 49.93 79.48 50.94 82.59 49.13 82.42 49.03 81 48.22 80.84 48.13 77.73 49.93"/><polygon class="cls-22" points="78.06 49.93 78.37 50.11 79.48 50.75 82.42 49.03 81.31 48.39 81 48.22 78.06 49.93"/><polygon class="cls-15" points="78.37 50.11 79.48 50.75 82.42 49.03 81.31 48.39 78.37 50.11"/><path class="cls-22" d="M79.11,59,78,58.42l0,0V50.86s0,0,0,0h0l1.07.61s0,0,0,0V59s0,0,0,0h0Zm-1-8.1v7.43l1,.57V51.5Z"/><polygon class="cls-25" points="79.69 51.02 79.66 60.01 81.4 61.02 81.43 52.03 79.69 51.02"/><polygon class="cls-26" points="81.4 61.02 84.51 59.21 84.54 50.22 81.43 52.03 81.4 61.02"/><polygon class="cls-27" points="79.69 51.02 81.43 52.03 84.54 50.22 84.37 50.13 82.95 49.31 82.79 49.22 79.69 51.02"/><polygon class="cls-26" points="80.01 51.02 80.32 51.2 81.43 51.84 84.37 50.13 83.25 49.48 82.95 49.31 80.01 51.02"/><polygon class="cls-15" points="80.32 51.2 81.43 51.84 84.37 50.13 83.25 49.48 80.32 51.2"/><path class="cls-28" d="M81.06,60.13,80,59.51a0,0,0,0,1,0,0V52a0,0,0,0,1,0,0h0l1.07.62,0,0v7.52l0,0h0Zm-1-8.11v7.43L81,60V52.59Z"/><g class="cls-1"><polygon class="cls-8" points="82.88 48.98 82.87 50.76 58.31 36.58 58.31 34.79 82.88 48.98"/><polygon class="cls-9" points="82.88 48.98 91.55 43.94 91.54 45.72 82.87 50.76 82.88 48.98"/><polygon class="cls-10" points="58.31 34.79 68.36 28.94 92.92 43.12 82.88 48.98 58.31 34.79"/></g><g class="cls-1"><polygon class="cls-12" points="60.64 25.96 60.62 35.09 61.62 35.67 61.65 26.54 60.64 25.96"/><polygon class="cls-13" points="61.62 35.67 64.06 34.23 64.06 25.13 61.65 26.54 61.62 35.67"/><polygon class="cls-14" points="61.65 26.54 64.06 25.13 63.06 24.55 60.64 25.96 61.65 26.54"/><polygon class="cls-13" points="60.89 25.96 61.07 26.06 61.65 26.39 63.94 25.06 63.36 24.73 63.18 24.63 60.89 25.96"/><polygon class="cls-15" points="61.07 26.06 61.65 26.39 63.94 25.06 63.36 24.73 61.07 26.06"/></g><polygon class="cls-14" points="60.87 34.72 61.39 35.02 61.39 27.25 60.87 26.95 60.87 34.72"/><g class="cls-1"><polygon class="cls-16" points="62.09 26.82 62.06 35.95 63.06 36.53 63.09 27.4 62.09 26.82"/><polygon class="cls-17" points="63.06 36.53 65.51 35.09 65.51 25.99 63.09 27.4 63.06 36.53"/><polygon class="cls-18" points="63.09 27.4 65.51 25.99 64.5 25.41 62.09 26.82 63.09 27.4"/><polygon class="cls-17" points="62.34 26.82 62.51 26.92 63.09 27.25 65.38 25.92 64.8 25.59 64.63 25.49 62.34 26.82"/><polygon class="cls-15" points="62.51 26.92 63.09 27.25 65.38 25.92 64.8 25.59 62.51 26.92"/></g><path class="cls-19" d="M62.82,35.91l-.52-.3s0,0,0,0V27.81s0,0,0,0a0,0,0,0,1,0,0l.52.3s0,0,0,0v7.77s0,0,0,0,0,0,0,0Zm-.47-8v7.69l.45.26V28.13Z"/><g class="cls-1"><polygon class="cls-12" points="63.35 27.55 63.33 36.68 64.33 37.26 64.36 28.13 63.35 27.55"/><polygon class="cls-13" points="64.33 37.26 66.78 35.82 66.78 26.72 64.36 28.13 64.33 37.26"/><polygon class="cls-14" points="64.36 28.13 66.78 26.72 65.77 26.14 63.35 27.55 64.36 28.13"/><polygon class="cls-13" points="63.61 27.55 63.78 27.65 64.36 27.98 66.65 26.65 66.07 26.31 65.9 26.21 63.61 27.55"/><polygon class="cls-15" points="63.78 27.65 64.36 27.98 66.65 26.65 66.07 26.31 63.78 27.65"/></g><polygon class="cls-14" points="63.59 36.31 64.1 36.61 64.1 28.84 63.59 28.54 63.59 36.31"/><g class="cls-1"><polygon class="cls-12" points="64.75 28.38 64.73 37.51 65.73 38.09 65.75 28.95 64.75 28.38"/><polygon class="cls-13" points="65.73 38.09 68.17 36.65 68.17 27.55 65.75 28.95 65.73 38.09"/><polygon class="cls-14" points="65.75 28.95 68.17 27.55 67.17 26.97 64.75 28.38 65.75 28.95"/><polygon class="cls-13" points="65 28.37 65.18 28.48 65.75 28.81 68.05 27.48 67.47 27.14 67.29 27.04 65 28.37"/><polygon class="cls-15" points="65.18 28.48 65.75 28.81 68.05 27.48 67.47 27.14 65.18 28.48"/></g><polygon class="cls-14" points="64.98 37.13 65.5 37.44 65.5 29.66 64.98 29.36 64.98 37.13"/><g class="cls-1"><polygon class="cls-16" points="66.01 29.11 65.99 38.24 66.99 38.82 67.02 29.69 66.01 29.11"/><polygon class="cls-17" points="66.99 38.82 69.44 37.38 69.44 28.29 67.02 29.69 66.99 38.82"/><polygon class="cls-18" points="67.02 29.69 69.44 28.29 68.43 27.7 66.01 29.11 67.02 29.69"/><polygon class="cls-17" points="66.27 29.11 66.44 29.21 67.02 29.54 69.31 28.21 68.73 27.88 68.56 27.77 66.27 29.11"/><polygon class="cls-15" points="66.44 29.21 67.02 29.54 69.31 28.21 68.73 27.88 66.44 29.21"/></g><path class="cls-19" d="M66.74,38.2l-.52-.3s0,0,0,0V30.1s0,0,0,0,0,0,0,0l.52.3s0,0,0,0v7.77s0,0,0,0h0Zm-.46-8v7.69l.44.26V30.42Z"/><g class="cls-1"><polygon class="cls-12" points="67.41 29.86 67.38 38.99 68.39 39.57 68.41 30.44 67.41 29.86"/><polygon class="cls-13" points="68.39 39.57 70.83 38.13 70.83 29.04 68.41 30.44 68.39 39.57"/><polygon class="cls-14" points="68.41 30.44 70.83 29.04 69.83 28.45 67.41 29.86 68.41 30.44"/><polygon class="cls-13" points="67.66 29.86 67.83 29.96 68.41 30.29 70.7 28.96 70.13 28.63 69.95 28.53 67.66 29.86"/><polygon class="cls-15" points="67.83 29.96 68.41 30.29 70.7 28.96 70.13 28.63 67.83 29.96"/></g><polygon class="cls-14" points="67.64 38.62 68.16 38.92 68.16 31.15 67.64 30.85 67.64 38.62"/><g class="cls-1"><polygon class="cls-12" points="68.7 30.8 68.67 39.79 69.66 40.36 69.69 31.37 68.7 30.8"/><polygon class="cls-13" points="69.66 40.36 72.07 38.95 72.07 29.99 69.69 31.37 69.66 40.36"/><polygon class="cls-14" points="69.69 31.37 72.07 29.99 71.08 29.42 68.7 30.8 69.69 31.37"/><polygon class="cls-13" points="68.95 30.8 69.12 30.9 69.69 31.23 71.94 29.92 71.37 29.59 71.2 29.49 68.95 30.8"/><polygon class="cls-15" points="69.12 30.9 69.69 31.23 71.94 29.92 71.37 29.59 69.12 30.9"/></g><polygon class="cls-14" points="68.93 39.43 69.44 39.72 69.44 32.07 68.93 31.78 68.93 39.43"/><g class="cls-1"><polygon class="cls-16" points="70.06 31.64 70.04 40.63 71.03 41.2 71.05 32.21 70.06 31.64"/><polygon class="cls-17" points="71.03 41.2 73.44 39.78 73.44 30.83 71.05 32.21 71.03 41.2"/><polygon class="cls-18" points="71.05 32.21 73.44 30.83 72.44 30.26 70.06 31.64 71.05 32.21"/><polygon class="cls-17" points="70.31 31.64 70.49 31.74 71.05 32.07 73.31 30.76 72.74 30.43 72.57 30.33 70.31 31.64"/><polygon class="cls-15" points="70.49 31.74 71.05 32.07 73.31 30.76 72.74 30.43 70.49 31.74"/></g><path class="cls-19" d="M70.78,40.59l-.51-.3s0,0,0,0V32.62s0,0,0,0h0l.51.3s0,0,0,0v7.65l0,0h0Zm-.45-7.91v7.56l.44.25V32.93Z"/><g class="cls-1"><polygon class="cls-23" points="71.95 32.53 71.93 41.69 72.94 42.27 72.96 33.11 71.95 32.53"/><polygon class="cls-29" points="72.94 42.27 75.39 40.83 75.39 31.7 72.96 33.11 72.94 42.27"/><polygon class="cls-30" points="72.96 33.11 75.39 31.7 74.38 31.12 71.95 32.53 72.96 33.11"/><polygon class="cls-31" points="72.21 32.53 72.38 32.63 72.96 32.96 75.26 31.63 74.68 31.29 74.5 31.19 72.21 32.53"/><polygon class="cls-15" points="72.38 32.63 72.96 32.96 75.26 31.63 74.68 31.29 72.38 32.63"/></g><polygon class="cls-32" points="72.19 41.32 72.7 41.62 72.7 33.82 72.19 33.52 72.19 41.32"/><g class="cls-1"><polygon class="cls-43" points="73.36 33.26 73.33 42.42 74.34 43 74.37 33.85 73.36 33.26"/><polygon class="cls-44" points="74.34 43 76.79 41.56 76.79 32.44 74.37 33.85 74.34 43"/><polygon class="cls-45" points="74.37 33.85 76.79 32.44 75.79 31.85 73.36 33.26 74.37 33.85"/><polygon class="cls-46" points="73.61 33.26 73.79 33.36 74.37 33.7 76.66 32.36 76.08 32.02 75.91 31.93 73.61 33.26"/><polygon class="cls-15" points="73.79 33.36 74.37 33.7 76.66 32.36 76.08 32.02 73.79 33.36"/></g><polygon class="cls-47" points="73.59 42.05 74.11 42.35 74.11 34.56 73.59 34.26 73.59 42.05"/><g class="cls-1"><polygon class="cls-23" points="74.83 34.18 74.81 43.34 75.82 43.92 75.84 34.77 74.83 34.18"/><polygon class="cls-29" points="75.82 43.92 78.27 42.48 78.27 33.36 75.84 34.77 75.82 43.92"/><polygon class="cls-30" points="75.84 34.77 78.27 33.36 77.26 32.77 74.83 34.18 75.84 34.77"/><polygon class="cls-31" points="75.09 34.18 75.26 34.28 75.84 34.62 78.14 33.28 77.56 32.95 77.38 32.85 75.09 34.18"/><polygon class="cls-15" points="75.26 34.28 75.84 34.62 78.14 33.28 77.56 32.95 75.26 34.28"/></g><polygon class="cls-32" points="75.06 42.97 75.59 43.27 75.59 35.48 75.06 35.18 75.06 42.97"/><g class="cls-1"><polygon class="cls-12" points="76.45 35.1 76.42 44.3 77.43 44.88 77.46 35.69 76.45 35.1"/><polygon class="cls-13" points="77.43 44.88 79.89 43.44 79.89 34.27 77.46 35.69 77.43 44.88"/><polygon class="cls-14" points="77.46 35.69 79.89 34.27 78.88 33.69 76.45 35.1 77.46 35.69"/><polygon class="cls-13" points="76.7 35.1 76.88 35.2 77.46 35.54 79.76 34.2 79.18 33.86 79.01 33.76 76.7 35.1"/><polygon class="cls-15" points="76.88 35.2 77.46 35.54 79.76 34.2 79.18 33.86 76.88 35.2"/></g><polygon class="cls-14" points="76.68 43.93 77.2 44.23 77.2 36.4 76.68 36.1 76.68 43.93"/><g class="cls-1"><polygon class="cls-38" points="77.71 35.84 77.69 45.04 78.94 45.75 78.97 36.55 77.71 35.84"/><polygon class="cls-39" points="78.94 45.75 81.41 44.33 81.44 35.14 78.97 36.55 78.94 45.75"/><polygon class="cls-40" points="77.71 35.84 78.97 36.55 81.44 35.14 81.31 35.06 80.32 34.5 80.19 34.43 77.71 35.84"/><polygon class="cls-41" points="77.97 35.84 78.18 35.96 78.97 36.41 81.31 35.06 80.52 34.62 80.32 34.5 77.97 35.84"/><polygon class="cls-15" points="78.18 35.96 78.97 36.41 81.31 35.06 80.52 34.62 78.18 35.96"/></g><polygon class="cls-42" points="77.75 36.69 78.9 37.34 78.9 36.76 77.75 36.1 77.75 36.69"/><polygon class="cls-42" points="77.75 37.69 78.9 38.35 78.9 37.77 77.75 37.11 77.75 37.69"/><polygon class="cls-42" points="77.75 38.7 78.9 39.36 78.9 38.77 77.75 38.12 77.75 38.7"/><polygon class="cls-42" points="77.75 39.7 78.9 40.36 78.9 39.78 77.75 39.12 77.75 39.7"/><polygon class="cls-42" points="77.75 40.71 78.9 41.37 78.9 40.78 77.75 40.13 77.75 40.71"/><polygon class="cls-42" points="77.75 41.72 78.9 42.37 78.9 41.79 77.75 41.13 77.75 41.72"/><g class="cls-1"><polygon class="cls-28" points="79.19 36.83 79.17 45.88 80.4 46.58 80.42 37.53 79.19 36.83"/><polygon class="cls-33" points="80.4 46.58 82.84 45.19 82.86 36.13 80.42 37.53 80.4 46.58"/><polygon class="cls-34" points="79.19 36.83 80.42 37.53 82.86 36.13 82.73 36.06 81.76 35.5 81.63 35.43 79.19 36.83"/><polygon class="cls-33" points="79.45 36.83 79.65 36.94 80.42 37.38 82.73 36.06 81.96 35.62 81.76 35.5 79.45 36.83"/><polygon class="cls-15" points="79.65 36.94 80.42 37.38 82.73 36.06 81.96 35.62 79.65 36.94"/></g><polygon class="cls-34" points="79.23 37.66 80.36 38.31 80.36 37.73 79.23 37.08 79.23 37.66"/><polygon class="cls-34" points="79.23 38.65 80.36 39.3 80.36 38.72 79.23 38.08 79.23 38.65"/><polygon class="cls-34" points="79.23 39.64 80.36 40.29 80.36 39.71 79.23 39.07 79.23 39.64"/><polygon class="cls-34" points="79.23 40.63 80.36 41.28 80.36 40.7 79.23 40.06 79.23 40.63"/><polygon class="cls-34" points="79.23 41.63 80.36 42.27 80.36 41.69 79.23 41.05 79.23 41.63"/><polygon class="cls-34" points="79.23 42.61 80.36 43.26 80.36 42.68 79.23 42.04 79.23 42.61"/><polygon class="cls-12" points="80.63 39.64 80.61 46.7 81.98 47.48 82 40.43 80.63 39.64"/><polygon class="cls-13" points="81.98 47.48 84.42 46.07 84.43 39.01 82 40.43 81.98 47.48"/><polygon class="cls-14" points="80.63 39.64 82 40.43 84.43 39.01 84.3 38.94 83.19 38.29 83.07 38.22 80.63 39.64"/><polygon class="cls-13" points="80.88 39.64 81.12 39.78 82 40.28 84.3 38.94 83.43 38.43 83.19 38.29 80.88 39.64"/><polygon class="cls-15" points="81.12 39.78 82 40.28 84.3 38.94 83.43 38.43 81.12 39.78"/><path class="cls-13" d="M81.71,46.78l-.84-.48,0,0v-5.9l0,0a0,0,0,0,1,0,0l.84.48a0,0,0,0,1,0,0v5.91s0,0,0,0h0Zm-.8-6.36v5.83l.78.45V40.87Z"/><g class="cls-1"><polygon class="cls-8" points="82.97 34.69 82.97 36.48 58.4 22.29 58.4 20.51 82.97 34.69"/><polygon class="cls-9" points="82.97 34.69 91.64 29.66 91.63 31.44 82.97 36.48 82.97 34.69"/><polygon class="cls-10" points="58.4 20.51 68.45 14.66 93.01 28.84 82.97 34.69 58.4 20.51"/></g><polygon class="cls-25" points="60.4 14.46 60.38 21.16 61.68 21.91 61.7 15.21 60.4 14.46"/><polygon class="cls-26" points="61.68 21.91 64 20.56 64.02 13.86 61.7 15.21 61.68 21.91"/><polygon class="cls-27" points="60.4 14.46 61.7 15.21 64.02 13.86 63.89 13.79 62.83 13.18 62.72 13.11 60.4 14.46"/><polygon class="cls-26" points="60.64 14.46 60.87 14.59 61.7 15.07 63.89 13.79 63.06 13.31 62.83 13.18 60.64 14.46"/><polygon class="cls-15" points="60.87 14.59 61.7 15.07 63.89 13.79 63.06 13.31 60.87 14.59"/><path class="cls-28" d="M61.42,21.24l-.79-.46s0,0,0,0v-5.6l0,0h0l.79.46s0,0,0,0v5.61s0,0,0,0h0Zm-.75-6v5.54l.74.42V15.63Z"/><g class="cls-1"><polygon class="cls-12" points="62.17 13.51 62.15 22.25 63.11 22.8 63.13 14.07 62.17 13.51"/><polygon class="cls-13" points="63.11 22.8 65.45 21.43 65.45 12.72 63.13 14.07 63.11 22.8"/><polygon class="cls-14" points="63.13 14.07 65.45 12.72 64.48 12.17 62.17 13.51 63.13 14.07"/><polygon class="cls-13" points="62.41 13.51 62.58 13.61 63.13 13.93 65.32 12.65 64.77 12.33 64.6 12.24 62.41 13.51"/><polygon class="cls-15" points="62.58 13.61 63.13 13.93 65.32 12.65 64.77 12.33 62.58 13.61"/></g><polygon class="cls-14" points="62.39 21.89 62.89 22.18 62.89 14.75 62.39 14.46 62.39 21.89"/><g class="cls-1"><polygon class="cls-12" points="63.55 14.25 63.53 22.99 64.49 23.55 64.52 14.81 63.55 14.25"/><polygon class="cls-13" points="64.49 23.55 66.83 22.17 66.83 13.46 64.52 14.81 64.49 23.55"/><polygon class="cls-14" points="64.52 14.81 66.83 13.46 65.87 12.91 63.55 14.25 64.52 14.81"/><polygon class="cls-13" points="63.8 14.25 63.96 14.35 64.52 14.67 66.71 13.39 66.15 13.07 65.99 12.98 63.8 14.25"/><polygon class="cls-15" points="63.96 14.35 64.52 14.67 66.71 13.39 66.15 13.07 63.96 14.35"/></g><polygon class="cls-14" points="63.77 22.64 64.27 22.92 64.27 15.49 63.77 15.2 63.77 22.64"/><g class="cls-1"><polygon class="cls-38" points="64.77 14.98 64.74 23.71 65.93 24.39 65.95 15.66 64.77 14.98"/><polygon class="cls-39" points="65.93 24.39 68.28 23.04 68.31 14.31 65.95 15.66 65.93 24.39"/><polygon class="cls-40" points="64.77 14.98 65.95 15.66 68.31 14.31 68.18 14.24 67.24 13.71 67.12 13.64 64.77 14.98"/><polygon class="cls-41" points="65.01 14.98 65.21 15.1 65.95 15.52 68.18 14.24 67.44 13.82 67.24 13.71 65.01 14.98"/><polygon class="cls-15" points="65.21 15.1 65.95 15.52 68.18 14.24 67.44 13.82 65.21 15.1"/></g><polygon class="cls-42" points="64.8 15.79 65.89 16.41 65.89 15.85 64.8 15.23 64.8 15.79"/><polygon class="cls-42" points="64.8 16.74 65.89 17.36 65.89 16.81 64.8 16.19 64.8 16.74"/><polygon class="cls-42" points="64.8 17.7 65.89 18.32 65.89 17.77 64.8 17.14 64.8 17.7"/><polygon class="cls-42" points="64.8 18.65 65.89 19.27 65.89 18.72 64.8 18.1 64.8 18.65"/><polygon class="cls-42" points="64.8 19.61 65.89 20.23 65.89 19.68 64.8 19.05 64.8 19.61"/><polygon class="cls-42" points="64.8 20.56 65.89 21.18 65.89 20.63 64.8 20.01 64.8 20.56"/><g class="cls-1"><polygon class="cls-12" points="66.39 15.89 66.36 24.62 67.32 25.18 67.35 16.44 66.39 15.89"/><polygon class="cls-13" points="67.32 25.18 69.66 23.81 69.66 15.1 67.35 16.44 67.32 25.18"/><polygon class="cls-14" points="67.35 16.44 69.66 15.1 68.7 14.54 66.39 15.89 67.35 16.44"/><polygon class="cls-13" points="66.63 15.89 66.8 15.99 67.35 16.3 69.54 15.03 68.98 14.71 68.82 14.61 66.63 15.89"/><polygon class="cls-15" points="66.8 15.99 67.35 16.3 69.54 15.03 68.98 14.71 66.8 15.99"/></g><polygon class="cls-14" points="66.6 24.27 67.1 24.56 67.1 17.12 66.6 16.84 66.6 24.27"/><g class="cls-1"><polygon class="cls-12" points="67.54 16.54 67.52 25.27 68.48 25.83 68.5 17.09 67.54 16.54"/><polygon class="cls-13" points="68.48 25.83 70.82 24.45 70.82 15.75 68.5 17.09 68.48 25.83"/><polygon class="cls-14" points="68.5 17.09 70.82 15.75 69.86 15.19 67.54 16.54 68.5 17.09"/><polygon class="cls-13" points="67.78 16.54 67.95 16.63 68.5 16.95 70.69 15.68 70.14 15.36 69.98 15.26 67.78 16.54"/><polygon class="cls-15" points="67.95 16.63 68.5 16.95 70.69 15.68 70.14 15.36 67.95 16.63"/></g><polygon class="cls-14" points="67.76 24.92 68.26 25.21 68.26 17.77 67.76 17.49 67.76 24.92"/><g class="cls-1"><polygon class="cls-38" points="68.73 17.25 68.7 25.98 69.89 26.66 69.92 17.93 68.73 17.25"/><polygon class="cls-39" points="69.89 26.66 72.24 25.31 72.27 16.58 69.92 17.93 69.89 26.66"/><polygon class="cls-40" points="68.73 17.25 69.92 17.93 72.27 16.58 72.14 16.51 71.2 15.98 71.08 15.91 68.73 17.25"/><polygon class="cls-41" points="68.98 17.25 69.17 17.36 69.92 17.79 72.14 16.51 71.4 16.09 71.2 15.98 68.98 17.25"/><polygon class="cls-15" points="69.17 17.36 69.92 17.79 72.14 16.51 71.4 16.09 69.17 17.36"/></g><polygon class="cls-42" points="68.76 18.05 69.86 18.68 69.86 18.12 68.76 17.5 68.76 18.05"/><polygon class="cls-42" points="68.76 19.01 69.86 19.63 69.86 19.08 68.76 18.45 68.76 19.01"/><polygon class="cls-42" points="68.76 19.96 69.86 20.59 69.86 20.03 68.76 19.41 68.76 19.96"/><polygon class="cls-42" points="68.76 20.92 69.86 21.54 69.86 20.99 68.76 20.36 68.76 20.92"/><polygon class="cls-42" points="68.76 21.88 69.86 22.5 69.86 21.94 68.76 21.32 68.76 21.88"/><polygon class="cls-42" points="68.76 22.83 69.86 23.45 69.86 22.9 68.76 22.28 68.76 22.83"/><g class="cls-1"><polygon class="cls-23" points="70.88 18.04 70.85 27.2 71.86 27.78 71.89 18.62 70.88 18.04"/><polygon class="cls-29" points="71.86 27.78 74.31 26.34 74.31 17.21 71.89 18.62 71.86 27.78"/><polygon class="cls-30" points="71.89 18.62 74.31 17.21 73.31 16.63 70.88 18.04 71.89 18.62"/><polygon class="cls-31" points="71.13 18.04 71.31 18.14 71.89 18.47 74.18 17.13 73.6 16.8 73.43 16.7 71.13 18.04"/><polygon class="cls-15" points="71.31 18.14 71.89 18.47 74.18 17.13 73.6 16.8 71.31 18.14"/></g><polygon class="cls-32" points="71.11 26.82 71.63 27.13 71.63 19.33 71.11 19.03 71.11 26.82"/><g class="cls-1"><polygon class="cls-28" points="72.01 19.24 71.98 27.84 73.16 28.51 73.18 19.91 72.01 19.24"/><polygon class="cls-33" points="73.16 28.51 75.47 27.18 75.5 18.58 73.18 19.91 73.16 28.51"/><polygon class="cls-34" points="72.01 19.24 73.18 19.91 75.5 18.58 75.38 18.51 74.45 17.98 74.33 17.92 72.01 19.24"/><polygon class="cls-33" points="72.25 19.24 72.45 19.35 73.18 19.77 75.38 18.51 74.64 18.1 74.45 17.98 72.25 19.24"/><polygon class="cls-15" points="72.45 19.35 73.18 19.77 75.38 18.51 74.64 18.1 72.45 19.35"/></g><polygon class="cls-34" points="72.04 20.03 73.13 20.65 73.13 20.1 72.04 19.49 72.04 20.03"/><polygon class="cls-34" points="72.04 20.97 73.13 21.59 73.13 21.04 72.04 20.43 72.04 20.97"/><polygon class="cls-34" points="72.04 21.92 73.13 22.53 73.13 21.98 72.04 21.37 72.04 21.92"/><polygon class="cls-34" points="72.04 22.86 73.13 23.47 73.13 22.92 72.04 22.31 72.04 22.86"/><polygon class="cls-34" points="72.04 23.8 73.13 24.41 73.13 23.86 72.04 23.25 72.04 23.8"/><polygon class="cls-34" points="72.04 24.74 73.13 25.35 73.13 24.8 72.04 24.19 72.04 24.74"/><g class="cls-1"><polygon class="cls-12" points="73.33 19.86 73.31 28.6 74.27 29.16 74.3 20.42 73.33 19.86"/><polygon class="cls-13" points="74.27 29.16 76.61 27.78 76.61 19.07 74.3 20.42 74.27 29.16"/><polygon class="cls-14" points="74.3 20.42 76.61 19.07 75.65 18.52 73.33 19.86 74.3 20.42"/><polygon class="cls-13" points="73.58 19.86 73.74 19.96 74.3 20.28 76.48 19 75.93 18.68 75.77 18.59 73.58 19.86"/><polygon class="cls-15" points="73.74 19.96 74.3 20.28 76.48 19 75.93 18.68 73.74 19.96"/></g><polygon class="cls-14" points="73.55 28.25 74.05 28.53 74.05 21.1 73.55 20.81 73.55 28.25"/><g class="cls-1"><polygon class="cls-35" points="75.61 20.63 75.58 29.92 76.6 30.51 76.63 21.22 75.61 20.63"/><polygon class="cls-36" points="76.6 30.51 79.09 29.05 79.09 19.79 76.63 21.22 76.6 30.51"/><polygon class="cls-37" points="76.63 21.22 79.09 19.79 78.07 19.2 75.61 20.63 76.63 21.22"/><polygon class="cls-36" points="75.86 20.63 76.04 20.73 76.63 21.07 78.96 19.72 78.37 19.37 78.2 19.27 75.86 20.63"/><polygon class="cls-15" points="76.04 20.73 76.63 21.07 78.96 19.72 78.37 19.37 76.04 20.73"/></g><polygon class="cls-12" points="75.84 29.54 76.37 29.85 76.37 21.94 75.84 21.64 75.84 29.54"/><polygon class="cls-12" points="76.76 22.68 76.74 30.6 78.28 31.48 78.3 23.56 76.76 22.68"/><polygon class="cls-13" points="78.28 31.48 81.02 29.89 81.04 21.97 78.3 23.56 78.28 31.48"/><polygon class="cls-14" points="76.76 22.68 78.3 23.56 81.04 21.97 80.89 21.89 79.64 21.17 79.5 21.09 76.76 22.68"/><polygon class="cls-13" points="77.05 22.68 77.32 22.83 78.3 23.4 80.89 21.89 79.91 21.32 79.64 21.17 77.05 22.68"/><polygon class="cls-15" points="77.32 22.83 78.3 23.4 80.89 21.89 79.91 21.32 77.32 22.83"/><path class="cls-13" d="M78,30.7,77,30.15s0,0,0,0V23.49l0,0h0L78,24l0,0v6.63l0,0h0Zm-.89-7.14V30.1l.88.5V24.06Z"/><g class="cls-1"><polygon class="cls-23" points="78.42 22.27 78.39 31.56 79.41 32.15 79.44 22.86 78.42 22.27"/><polygon class="cls-29" points="79.41 32.15 81.9 30.68 81.9 21.43 79.44 22.86 79.41 32.15"/><polygon class="cls-30" points="79.44 22.86 81.9 21.43 80.88 20.83 78.42 22.27 79.44 22.86"/><polygon class="cls-31" points="78.67 22.26 78.85 22.37 79.44 22.71 81.77 21.35 81.18 21.01 81 20.91 78.67 22.26"/><polygon class="cls-15" points="78.85 22.37 79.44 22.71 81.77 21.35 81.18 21.01 78.85 22.37"/></g><polygon class="cls-32" points="78.65 31.18 79.18 31.48 79.18 23.58 78.65 23.27 78.65 31.18"/><g class="cls-1"><polygon class="cls-23" points="79.55 22.93 79.52 32.22 80.54 32.81 80.57 23.52 79.55 22.93"/><polygon class="cls-29" points="80.54 32.81 83.03 31.35 83.03 22.09 80.57 23.52 80.54 32.81"/><polygon class="cls-30" points="80.57 23.52 83.03 22.09 82.01 21.5 79.55 22.93 80.57 23.52"/><polygon class="cls-31" points="79.8 22.93 79.98 23.03 80.57 23.37 82.9 22.01 82.31 21.67 82.14 21.57 79.8 22.93"/><polygon class="cls-15" points="79.98 23.03 80.57 23.37 82.9 22.01 82.31 21.67 79.98 23.03"/></g><polygon class="cls-32" points="79.78 31.84 80.31 32.15 80.31 24.24 79.78 23.93 79.78 31.84"/><polygon class="cls-23" points="81.23 26.42 81.21 33.12 82.51 33.88 82.53 27.17 81.23 26.42"/><polygon class="cls-22" points="82.51 33.88 84.83 32.53 84.85 25.83 82.53 27.17 82.51 33.88"/><polygon class="cls-24" points="81.23 26.42 82.53 27.18 84.85 25.83 84.72 25.75 83.66 25.14 83.55 25.08 81.23 26.42"/><polygon class="cls-22" points="81.47 26.42 81.7 26.55 82.53 27.03 84.72 25.75 83.89 25.27 83.66 25.14 81.47 26.42"/><polygon class="cls-15" points="81.7 26.55 82.53 27.03 84.72 25.75 83.89 25.27 81.7 26.55"/><path class="cls-22" d="M82.25,33.21l-.79-.46,0,0v-5.6s0,0,0,0a0,0,0,0,1,0,0l.79.46s0,0,0,0v5.6s0,0,0,0h0Zm-.75-6V32.7l.74.43V27.59Z"/><g class="cls-1"><polygon class="cls-8" points="84.89 24.3 84.7 89.27 82.75 88.14 82.94 23.18 84.89 24.3"/><polygon class="cls-9" points="84.89 24.3 94.92 18.47 94.73 83.44 84.7 89.27 84.89 24.3"/><polygon class="cls-10" points="82.94 23.18 92.97 17.35 94.92 18.47 84.89 24.3 82.94 23.18"/></g><g class="cls-1"><polygon class="cls-8" points="84.91 22.25 84.91 24.31 56.46 7.89 56.47 5.83 84.91 22.25"/><polygon class="cls-9" points="84.91 22.25 94.94 16.42 94.94 18.48 84.91 24.31 84.91 22.25"/><polygon class="cls-10" points="56.47 5.83 66.5 0 94.94 16.42 84.91 22.25 56.47 5.83"/></g><polygon class="cls-7" points="55.42 97.61 34.74 109.55 16.16 98.72 36.84 86.78 55.42 97.61"/><path class="cls-48" d="M33.19,104.19l.31,2,.36,2.3a.4.4,0,0,0,.24.34,1.25,1.25,0,0,0,1.16,0,.4.4,0,0,0,.24-.34l.38-2.44.28-1.82a.84.84,0,0,1-.42.47,2.33,2.33,0,0,1-2.12,0A.8.8,0,0,1,33.19,104.19Z"/><path class="cls-49" d="M33.18,104.13a.71.71,0,0,1,.44-.66,2.33,2.33,0,0,1,2.12,0,.74.74,0,0,1,.44.63h0l0,.13a.84.84,0,0,1-.42.47,2.35,2.35,0,0,1-2.13,0,.83.83,0,0,1-.43-.51v-.06h0Z"/><path class="cls-48" d="M52,93.39l.48,3,.19,1.26a.41.41,0,0,0,.24.34A1.34,1.34,0,0,0,54,98a.43.43,0,0,0,.24-.34l.38-2.49.28-1.78a.81.81,0,0,1-.42.47,2.35,2.35,0,0,1-2.13,0A.81.81,0,0,1,52,93.39Z"/><path class="cls-49" d="M52,93.32a.73.73,0,0,1,.44-.65,2.35,2.35,0,0,1,2.13,0,.75.75,0,0,1,.44.62h0l0,.12a.86.86,0,0,1-.42.48,2.39,2.39,0,0,1-2.12,0,.85.85,0,0,1-.43-.51v-.07Z"/><path class="cls-48" d="M16.29,94.53l.28,1.85L17,98.83a.41.41,0,0,0,.24.34,1.31,1.31,0,0,0,1.16,0,.43.43,0,0,0,.24-.34l.19-1.25.47-3a.86.86,0,0,1-.42.48,2.39,2.39,0,0,1-2.12,0A.85.85,0,0,1,16.29,94.53Z"/><path class="cls-49" d="M16.28,94.46a.71.71,0,0,1,.44-.65,2.33,2.33,0,0,1,2.12,0,.73.73,0,0,1,.44.62h0l0,.13a.86.86,0,0,1-.42.48,2.35,2.35,0,0,1-2.13,0,.85.85,0,0,1-.43-.51v-.06h0Z"/><path class="cls-50" d="M52,93.39l.48,3,2.22-1.23.28-1.78a.81.81,0,0,1-.42.47,2.35,2.35,0,0,1-2.13,0A.81.81,0,0,1,52,93.39Z"/><path class="cls-50" d="M33.19,104.19l.31,2,1.16.55,1.22-.69.28-1.82a.84.84,0,0,1-.42.47,2.33,2.33,0,0,1-2.12,0A.8.8,0,0,1,33.19,104.19Z"/><path class="cls-50" d="M16.29,94.53l.28,1.85,2.22,1.2.47-3a.86.86,0,0,1-.42.48,2.39,2.39,0,0,1-2.12,0A.85.85,0,0,1,16.29,94.53Z"/><g class="cls-1"><polygon class="cls-51" points="55.29 93.61 50.42 96.43 44.86 99.65 34.7 105.52 34.68 97.76 44.13 92.3 50.26 88.75 55.27 85.85 55.29 93.61"/><polygon class="cls-52" points="34.68 97.76 16.09 86.95 16.11 94.72 34.7 105.52 34.68 97.76"/><polygon class="cls-53" points="55.27 85.85 36.9 75.2 16.31 87.09 34.68 97.76 55.27 85.85"/></g><g class="cls-1"><polygon class="cls-54" points="34.66 93.39 34.68 97.77 55.28 85.84 55.28 81.32 34.66 93.39"/><polygon class="cls-55" points="34.66 93.39 16.09 82.66 16.1 86.99 34.68 97.77 34.66 93.39"/><polygon class="cls-56" points="55.28 81.32 37.58 71.19 16.09 82.66 34.66 93.39 55.28 81.32"/></g><path class="cls-57" d="M38.65,58.66l-.41,15.63a.28.28,0,0,0,0,.09.33.33,0,0,0,0,.12.23.23,0,0,0,.07.07l-1.72-1-1.73-1a.16.16,0,0,1-.07-.07h0l0,0v0a0,0,0,0,1,0,0h0v0a0,0,0,0,0,0,0v0l.41-15.76.19-7.16,0-1,.88.51.94.55,1.63.94Z"/><path class="cls-51" d="M39.23,49.69a.83.83,0,0,0-.36.64l-.63,24c0,.23.17.38.37.27l.66-.39a.91.91,0,0,0,.36-.68l.63-24c0-.23-.16-.34-.36-.23Z"/><path class="cls-58" d="M39,49.88h0A.22.22,0,0,0,39,50h0a.41.41,0,0,0,0,.09h0a.7.7,0,0,0-.06.27l-3.45-2v0h0v-.1s0,0,0,0V48.1s0,0,0,0,0,0,0,0h0v0s0,0,0,0l0,0h0v0l0,0h0v0l0,0h0v0h0l0,0h0a0,0,0,0,0,0,0h0l.67-.39h.24l3.45,2,0,0h0a.17.17,0,0,0-.12,0h0l-.07,0-.67.39a.67.67,0,0,0-.14.11h0Z"/><path class="cls-59" d="M37.25,48.71v.68l-.17,7.08-.42,17.09h0l-10.42,6-6.91,4L18.7,59.43a.74.74,0,0,1,.33-.61l9.06-5.24,3-1.75,4.26-2.46.91-.53.62-.35C37.11,48.38,37.25,48.48,37.25,48.71Z"/><path class="cls-60" d="M15.57,57.59v-.06h0s0,0,0,0v0h0v0h0v0h0v0h0v0h0v0l0,0h0v0h0v0h.06v0h.09L33.79,46.67H34l3.13,1.82,0,0H37l-.06,0h0a.09.09,0,0,0-.06,0L19,58.82l-.07,0h0l-.06.06h0l-.06.07h0l-.05.07h0a.87.87,0,0,0-.07.17h0a.24.24,0,0,0,0,.08h0s0,.06,0,.09l.63,24.15L16.2,81.75l-.63-24.14Z"/><path class="cls-61" d="M50.42,96.43l-5.56,3.22c-.17-1.67-.47-4.78-.73-7.35-.2-1.87-.37-3.45-.46-4-.26-1.64-2.49-2.49-4.19-2.45a8.47,8.47,0,0,1-5.25-1.3c-.69-.44-10.82-4-10.82-4l8-3.41s11.69,5.49,13.92,5.38,4.52-.13,4.77,3.86c0,.71.08,1.51.12,2.35C50.37,91.6,50.41,94.88,50.42,96.43Z"/><path class="cls-51" d="M19.14,60.68a.8.8,0,0,0-.35.64l.76,23.16c0,.23.16.38.36.26l.67-.39a.89.89,0,0,0,.36-.67l-.76-23.16c0-.23-.17-.34-.37-.23Z"/><path class="cls-58" d="M19,60.8a.18.18,0,0,0-.05.07h0a.56.56,0,0,0-.05.08h0a.36.36,0,0,0,0,.09h0a.32.32,0,0,0,0,.09h0l0,.09h0v.09l-3.46-2h0v-.06h0v-.08h0a0,0,0,0,0,0,0v0a0,0,0,0,0,0,0v0h0l0,0s0,0,0,0v0l0,0h0s0,0,0,0l0,0h0s0,0,0,0h0v0l0,0h0s0,0,0,0h.12l.67-.38h.22l0,0,3.45,2,0,0h-.13l-.07,0-.67.39-.07,0h0l-.07.06Z"/><path class="cls-55" d="M18.79,61.32,19.5,83h0a10.24,10.24,0,0,1,.18,1.14c0,.3.06.6,0,.65h0s-.07,0-.13-.08l-3.31-1.92a.23.23,0,0,1-.07-.07h0l0,0h0s0,0,0,0,0,0,0,0v0h0v-.08h0l-.77-23.16Z"/><path class="cls-62" d="M58.4,72.48c-.22,1.34-1.31,2.56-2.14,4.43a10,10,0,0,0-.41,1,11.88,11.88,0,0,0-.57,3.37l-2.69,1.55-.05,0L38.17,74.5s0-.07,0-.15h0c0-.07,0-.15,0-.25h0s0-.1,0-.15v0a.77.77,0,0,1,0-.15V73.7s0-.07,0-.1a.25.25,0,0,0,0-.08v-.1a.37.37,0,0,1,0-.11.19.19,0,0,0,0-.08v-.17a.11.11,0,0,1,0,0h0c0-.1,0-.2,0-.3v-.07c0-.11,0-.22,0-.33h0c0-.11,0-.21,0-.33V71.6s0,0,0,0c0-.18,0-.37,0-.56v0a.06.06,0,0,0,0,0c0-.18,0-.35,0-.53h0v0c0-.14,0-.28,0-.43a.13.13,0,0,0,0-.06v0c0-.14,0-.28.07-.43h0a.15.15,0,0,1,0-.07h0c0-.1,0-.21,0-.31a.24.24,0,0,0,0-.08v-.07l.06-.25s0-.07,0-.1,0,0,0-.06a1.17,1.17,0,0,1,0-.2s0-.09,0-.13,0,0,0,0,0-.12,0-.17,0-.1,0-.15,0,0,0,0a.74.74,0,0,0,0-.14.88.88,0,0,0,0-.15s0,0,0-.06l0-.11s0-.09,0-.13l0-.09s0-.08,0-.12a.13.13,0,0,1,0-.08.58.58,0,0,1,0-.14.11.11,0,0,1,0-.06s0,0,0,0h0a1.86,1.86,0,0,1,.1-.25l0-.08a.49.49,0,0,0,0-.11,1.11,1.11,0,0,0,.07-.16,1.09,1.09,0,0,0,.08-.15.22.22,0,0,1,.05-.08,0,0,0,0,1,0,0l0-.07.14-.25a.35.35,0,0,0,0-.08l.1-.15.08-.14.13-.18s0,0,0,0,0,0,0,0a1.58,1.58,0,0,0,.12-.15l.11-.13.05-.06,0,0,0,0,.11-.12a.57.57,0,0,1,.11-.11.12.12,0,0,1,.05-.05s0,0,0,0l0,0a.74.74,0,0,0,.13-.12l.13-.1h0L41,63.7l.12-.1.08-.05h0l0,0,.13-.08a.57.57,0,0,1,.13-.08s0,0,0,0l.1,0,.13-.07.07,0h0l0,0,.13,0,.1,0h0l.13,0,.13,0h0l.12,0,.14,0h.56l.11,0h.06l.17.08,14,8.16.65.38A1.14,1.14,0,0,1,58.4,72.48Z"/><path class="cls-54" d="M52.53,82.85a.35.35,0,0,0,0,.06l.05,0,2.69-1.55c.13-4.81,2.76-6.69,3.11-8.85a1.14,1.14,0,0,0-.15-.89,1,1,0,0,0-.64-.38,2.58,2.58,0,0,0-1.69.42,6,6,0,0,0-2.42,2.92A17.33,17.33,0,0,0,52.53,82.85Z"/><path class="cls-63" d="M38.3,74.5a.23.23,0,0,0,.07.07l-1.72-1-10.42,6c-2-1.22-4.6-2.85-4.84-3.31-.79-1.53-.38-7.54,0-9.75s1.15-3.47,2.8-4.3,4.3-2,4.42-2.44-.15-.52-.15-.52a1.48,1.48,0,0,1-1-1c-.17-.78.48-.74.48-.74s-.54-2.59,0-3.7c0-.07.08-.14.12-.22l3-1.75a2.6,2.6,0,0,1,1.29.55c1.93,1.47,1.52,5.29,1.72,5a4.53,4.53,0,0,1,1.06-.84c.57-.34,1.22-.58,1.63-.27l.24.21a13.15,13.15,0,0,1,1.58,2.19l-.41,15.63a.28.28,0,0,0,0,.09A.33.33,0,0,0,38.3,74.5Z"/><path class="cls-64" d="M56.26,76.91a10,10,0,0,0-.41,1l-3.49,2.23a5,5,0,0,1-1.77-2c-.61-1.29.41-3,.41-3a17.55,17.55,0,0,0-2.68-1.37A62.89,62.89,0,0,1,42,70.85a20.22,20.22,0,0,0-3.74-1.56c0-.1,0-.21,0-.31a.24.24,0,0,0,0-.08v-.07l.06-.25s0-.07,0-.1,0,0,0-.06a1.17,1.17,0,0,1,0-.2s0-.09,0-.13,0,0,0,0,0-.12,0-.17,0-.1,0-.15,0,0,0,0a.74.74,0,0,0,0-.14.88.88,0,0,0,0-.15s0,0,0-.06l0-.11s0-.09,0-.13l0-.09s0-.08,0-.12a.13.13,0,0,1,0-.08.58.58,0,0,1,0-.14,37.05,37.05,0,0,0,4.22,2.48l9.75,4.66,1.08.25,1.13,1.1Z"/><path class="cls-65" d="M38.32,61.26c0,1,0,2.47,0,4.08,0,3.29-.06,7.07-.19,8a1.84,1.84,0,0,1-.18.56c-.46,1-1.79,1.74-4.11,3.07l-.36.2-.25.15c-1.17.67-2.39,1.42-3.53,2.06-1.92,1.08-3.55,1.82-4.15,1.22,0,0,0,0-.05,0-.45-.55.24-4.79-.12-8.82a40.06,40.06,0,0,0-1.1-6h0A5.16,5.16,0,0,1,24,63.61c.36-.53,3.38-2.2,6.27-3.75,1.85-1,3.64-1.92,4.66-2.48l.61-.33a1.33,1.33,0,0,1,1.56,0C37.85,57.65,38.33,59.18,38.32,61.26Z"/><g class="cls-1"><polygon class="cls-66" points="52.17 78.88 52.17 79.55 47.69 76.94 47.65 76.27 52.17 78.88"/></g><path class="cls-67" d="M54.37,77.29a2.29,2.29,0,0,1,.51-.16,1.75,1.75,0,0,1,.93,0l-4.38-2.52a5.64,5.64,0,0,0-2.28.39,4.56,4.56,0,0,0-1.5,1.24l4.52,2.61A8.27,8.27,0,0,1,54.37,77.29Z"/><path class="cls-68" d="M55.78,77.47l0-.31a2.21,2.21,0,0,0-.93,0,2.29,2.29,0,0,0-.51.16,8.27,8.27,0,0,0-2.2,1.59v.67Z"/><path class="cls-69" d="M47.86,75.82a10.91,10.91,0,0,1,1.77-1.11,2.38,2.38,0,0,1,1.8-.07l4.38,2.52a3,3,0,0,0-1.88.26,4.75,4.75,0,0,0-1.58,1Z"/><path class="cls-70" d="M55.81,77.16a8.59,8.59,0,0,1,1.84-2.06,2.41,2.41,0,0,1,1.51-.58l-4.5-2.6a4.38,4.38,0,0,0-1.59,1,16.22,16.22,0,0,0-1.49,1.82Z"/><path class="cls-71" d="M52.87,77.66l-4.33-2.5a2.87,2.87,0,0,1,2.88-.53l4.39,2.53A3.62,3.62,0,0,0,52.87,77.66Z"/><path class="cls-72" d="M59.28,74.83,59,74.64a2.7,2.7,0,0,0-1.62.81,9,9,0,0,0-1.53,1.71,13.64,13.64,0,0,1,2.21-2A1.77,1.77,0,0,1,59.28,74.83Z"/><path class="cls-73" d="M59.28,75.45v-.62a1.77,1.77,0,0,0-1.26.35,13.64,13.64,0,0,0-2.21,2l0,.31Z"/><path class="cls-74" d="M57.34,75.45A2.7,2.7,0,0,1,59,74.64h.2L59,74.55s-.63-.15-1.76.81a5.44,5.44,0,0,0-1.11,1.22,4.08,4.08,0,0,0-.32.58A9,9,0,0,1,57.34,75.45Z"/><path class="cls-68" d="M56.13,76.58a5.43,5.43,0,0,1,2.54-2.22l-4.46-2.58a7.58,7.58,0,0,0-2.63,2.94l4.23,2.44A2.76,2.76,0,0,1,56.13,76.58Z"/><path class="cls-68" d="M56.13,76.58a2.76,2.76,0,0,0-.32.58A4.08,4.08,0,0,1,56.13,76.58Z"/><g class="cls-1"><polygon class="cls-75" points="52.17 79.66 52.08 79.61 59.37 75.39 59.46 75.45 52.17 79.66"/><polygon class="cls-76" points="52.17 79.66 52.17 79.75 52.08 79.69 52.08 79.61 52.17 79.66"/><polygon class="cls-77" points="59.46 75.45 59.47 75.53 52.17 79.75 52.17 79.66 59.46 75.45"/></g><polygon class="cls-75" points="52.08 79.61 52.08 79.61 47.55 76.99 47.68 76.91 47.69 76.94 52.17 79.55 52.08 79.61"/><polygon class="cls-76" points="52.1 79.62 47.55 76.99 47.55 77.08 52.09 79.7 52.1 79.62"/><polygon class="cls-75" points="59.4 75.41 59.28 75.34 59.28 75.46 59.4 75.41"/><polygon class="cls-73" points="56.22 77.19 56.22 77.28 55.58 77.64 55.56 77.56 56.22 77.19"/><polygon class="cls-75" points="56.21 77.32 56.21 77.38 55.58 77.73 55.58 77.69 56.21 77.32"/><polygon class="cls-77" points="56.21 77.41 56.2 77.47 55.58 77.82 55.57 77.77 56.21 77.41"/><path class="cls-78" d="M55.84,76.2A5,5,0,0,1,57,74.89a4.27,4.27,0,0,1,1.07-.68h0a5.05,5.05,0,0,0-2.47,2.6h0A3.89,3.89,0,0,1,55.84,76.2Z"/><path class="cls-78" d="M55.66,76.09a5.12,5.12,0,0,1,1.13-1.3,4.5,4.5,0,0,1,1.07-.69h0a5.18,5.18,0,0,0-2.47,2.6s0,0,0,0h0A3.17,3.17,0,0,1,55.66,76.09Z"/><path class="cls-78" d="M55.46,76a4.63,4.63,0,0,1,1.13-1.3A4.39,4.39,0,0,1,57.65,74h0a5.1,5.1,0,0,0-2.48,2.6h0A3,3,0,0,1,55.46,76Z"/><path class="cls-78" d="M55.25,75.84a5.32,5.32,0,0,1,2.2-2h0A5,5,0,0,0,55,76.47h0A4.39,4.39,0,0,1,55.25,75.84Z"/><path class="cls-78" d="M55,75.72a4.78,4.78,0,0,1,1.13-1.3,4.5,4.5,0,0,1,1.07-.69h0a5.18,5.18,0,0,0-2.47,2.6h0A3.17,3.17,0,0,1,55,75.72Z"/><path class="cls-78" d="M54.83,75.59a5.48,5.48,0,0,1,2.2-2h0a0,0,0,0,1,0,0,5.09,5.09,0,0,0-2.47,2.6h0A3.46,3.46,0,0,1,54.83,75.59Z"/><path class="cls-78" d="M54.62,75.47a5.14,5.14,0,0,1,1.14-1.3,5.28,5.28,0,0,1,1.06-.69h0s0,0,0,0a5,5,0,0,0-2.47,2.59h0A3.89,3.89,0,0,1,54.62,75.47Z"/><path class="cls-78" d="M54.42,75.35a4.78,4.78,0,0,1,1.13-1.3,4.15,4.15,0,0,1,1.07-.69h0A5.1,5.1,0,0,0,54.15,76s0,0,0,0h0A3.17,3.17,0,0,1,54.42,75.35Z"/><path class="cls-78" d="M54.21,75.22a5.48,5.48,0,0,1,2.2-2h0a5.05,5.05,0,0,0-2.48,2.6h0A3.46,3.46,0,0,1,54.21,75.22Z"/><path class="cls-78" d="M54,75.1a5.14,5.14,0,0,1,1.14-1.3,5.28,5.28,0,0,1,1.06-.69s0,0,0,0h0a5.1,5.1,0,0,0-2.47,2.6h0a0,0,0,0,1,0,0A3.89,3.89,0,0,1,54,75.1Z"/><path class="cls-78" d="M53.8,75a4.63,4.63,0,0,1,1.13-1.3A4.15,4.15,0,0,1,56,73h0s0,0,0,0a5,5,0,0,0-2.47,2.6s0,0,0,0h0A3.92,3.92,0,0,1,53.8,75Z"/><path class="cls-78" d="M53.59,74.85a4.78,4.78,0,0,1,1.14-1.3,4.73,4.73,0,0,1,1.06-.69h0a5.09,5.09,0,0,0-2.47,2.6h0A3.17,3.17,0,0,1,53.59,74.85Z"/><path class="cls-78" d="M53.38,74.73a5,5,0,0,1,1.14-1.3,4.8,4.8,0,0,1,1.06-.69h0a5.14,5.14,0,0,0-2.48,2.6s0,0,0,0h0A3.89,3.89,0,0,1,53.38,74.73Z"/><path class="cls-78" d="M53.18,74.6a5.32,5.32,0,0,1,2.2-2h0a5,5,0,0,0-2.47,2.6h0A4.39,4.39,0,0,1,53.18,74.6Z"/><path class="cls-78" d="M53,74.48a4.94,4.94,0,0,1,1.13-1.3,5.19,5.19,0,0,1,1.07-.69h0a0,0,0,0,0,0,0,5.09,5.09,0,0,0-2.47,2.6h0A3.17,3.17,0,0,1,53,74.48Z"/><path class="cls-78" d="M52.76,74.36a4.8,4.8,0,0,1,1.14-1.3A4.19,4.19,0,0,1,55,72.37h0A5.18,5.18,0,0,0,52.49,75h0A3.89,3.89,0,0,1,52.76,74.36Z"/><path class="cls-78" d="M52.56,74.23a4.94,4.94,0,0,1,1.13-1.3,4.27,4.27,0,0,1,1.07-.68h0a5,5,0,0,0-2.47,2.6h0s0,0,0,0A2.88,2.88,0,0,1,52.56,74.23Z"/><path class="cls-78" d="M52.35,74.11a5.32,5.32,0,0,1,2.2-2h0a5.09,5.09,0,0,0-2.47,2.61h0A3.17,3.17,0,0,1,52.35,74.11Z"/><path class="cls-78" d="M52.83,77.32h0a2.61,2.61,0,0,1,1.65-.58,3.77,3.77,0,0,1,.63,0l0,0a3.85,3.85,0,0,0-.66,0,2.59,2.59,0,0,0-1.64.58Z"/><path class="cls-78" d="M52.61,77.22h0a2.37,2.37,0,0,1,1.57-.65,2.93,2.93,0,0,1,.62,0l0,0a3.05,3.05,0,0,0-.65,0,2.4,2.4,0,0,0-1.56.65S52.62,77.23,52.61,77.22Z"/><path class="cls-78" d="M52.34,77.06h0a2.36,2.36,0,0,1,1.57-.65,3,3,0,0,1,.62,0l0,0a4,4,0,0,0-.65,0,2.38,2.38,0,0,0-1.56.65Z"/><path class="cls-78" d="M52.06,76.91h0a2.41,2.41,0,0,1,1.57-.66,3.81,3.81,0,0,1,.62,0l0,0a3.84,3.84,0,0,0-.64,0,2.37,2.37,0,0,0-1.57.66Z"/><path class="cls-78" d="M51.79,76.75h0a2.39,2.39,0,0,1,1.57-.66,3.86,3.86,0,0,1,.62,0l0,0a3.21,3.21,0,0,0-.65,0,2.3,2.3,0,0,0-1.56.65Z"/><path class="cls-78" d="M51.52,76.59h0a2.37,2.37,0,0,1,1.56-.66,3.77,3.77,0,0,1,.63,0l0,0a2.56,2.56,0,0,0-.65,0,2.31,2.31,0,0,0-1.57.65Z"/><path class="cls-78" d="M51.24,76.43h0a2.33,2.33,0,0,1,1.57-.65,2.93,2.93,0,0,1,.62,0l0,0a2.51,2.51,0,0,0-.65,0,2.35,2.35,0,0,0-1.56.65Z"/><path class="cls-78" d="M51,76.27h0a2.36,2.36,0,0,1,1.57-.65,3,3,0,0,1,.62,0l0,0a4,4,0,0,0-.65,0,2.36,2.36,0,0,0-1.56.65Z"/><path class="cls-78" d="M50.69,76.12h0a2.37,2.37,0,0,1,1.57-.65,3.81,3.81,0,0,1,.62,0l0,0a3.91,3.91,0,0,0-.65,0,2.37,2.37,0,0,0-1.56.66Z"/><path class="cls-78" d="M50.42,76h0A2.34,2.34,0,0,1,52,75.29a3.86,3.86,0,0,1,.62,0l0,0a4,4,0,0,0-.65,0,2.37,2.37,0,0,0-1.56.66Z"/><path class="cls-78" d="M50.14,75.8h0a2.41,2.41,0,0,1,1.58-.66,3.58,3.58,0,0,1,.61,0l0,0a2.56,2.56,0,0,0-.65,0,2.27,2.27,0,0,0-1.56.65Z"/><path class="cls-78" d="M49.87,75.64h0A2.39,2.39,0,0,1,51.44,75a3.65,3.65,0,0,1,.62,0l0,0a2.51,2.51,0,0,0-.65,0,2.3,2.3,0,0,0-1.56.65Z"/><path class="cls-78" d="M49.59,75.48h0a2.36,2.36,0,0,1,1.57-.65,3,3,0,0,1,.62,0l0,0a3.09,3.09,0,0,0-.65,0,2.39,2.39,0,0,0-1.57.65Z"/><path class="cls-78" d="M49.34,75.32h0a2.37,2.37,0,0,1,1.57-.66,3.57,3.57,0,0,1,.59,0l0,0a3,3,0,0,0-.62,0,2.33,2.33,0,0,0-1.56.65Z"/><path class="cls-79" d="M52.89,74.88c-.26.18-.92-.32-1-.35a.45.45,0,0,0-.17,0,1.75,1.75,0,0,1-1.15-.24,28.62,28.62,0,0,1-3.87-1.82c-2.68-1.42-4.61-2.78-4.57-3a3.48,3.48,0,0,0,.9-.32,1.75,1.75,0,0,0,1.09-1.94s1.33,1.13,3.25,2.67C49,71.2,52,73.4,52,73.4s.26-.16.44,0l-.26.34c0,.07,0,.06.07.15C52.38,74.2,53.15,74.69,52.89,74.88Z"/><path class="cls-80" d="M44.14,67.2l-2,2.26C44.57,68.91,44.14,67.2,44.14,67.2Z"/><path class="cls-81" d="M52.89,74.88c-.26.18-.92-.32-1-.35a.45.45,0,0,0-.17,0,1.75,1.75,0,0,1-1.15-.24,28.62,28.62,0,0,1-3.87-1.82c-2.68-1.42-4.61-2.78-4.57-3a3.48,3.48,0,0,0,.9-.32,20.36,20.36,0,0,0,4.88,3.48c2.7,1.45,3.19,1.76,3.65,1.78A4,4,0,0,1,52.89,74.88Z"/><path class="cls-82" d="M63.21,96.8l-1.85.81-.58.26c-1.58-1.64-6.29-2.58-10.37-10-1-1.89-2.09-4.59-4.32-4.2s-10.81,2.8-15.92.38c-3.18-1.51-4.28-2.57-4.64-3.47.53.54,1.9,0,3.55-.89,1.29-.69,2.75-1.6,4.13-2.39l.25-.15.64.09h0L46.72,79l-.1-.06-.07,0,.67.13.7.16.3.07c1,.25,2.73,1.89,4.66,4.08C57.46,88.56,63.21,96.8,63.21,96.8Z"/><path class="cls-83" d="M46.55,78.94c-1.07-.63-7-4.11-8.62-5-.46,1-1.79,1.74-4.11,3.07l-.36.2L46.72,79Z"/><path class="cls-84" d="M47.92,79.23c-.54-.06-1.17-.12-1.69-.19-.86-.12-9.63-1.23-10.31-1.38l-1.81-.39h0l-.22,0L46.62,79l.6.09Z"/><path class="cls-84" d="M61.36,97.61l-.58.26c-1.58-1.64-6.29-2.58-10.37-10-1-1.89-2.09-4.59-4.32-4.2s-10.81,2.8-15.92.38c-3.18-1.51-4.28-2.57-4.64-3.47.53.54,1.9,0,3.55-.89.75,1.06,3.88,3,8.29,3.19,4.78.15,9.78-1.15,11.3.36s2.33,5,5.47,8.43A37.75,37.75,0,0,0,61.36,97.61Z"/><path class="cls-85" d="M43,69.15a4,4,0,0,1-.89.31L38.3,65.34c0-.6,0-1.2,0-1.76V61.26c0-2.08-.47-3.61-1.27-4.19h0c.33,0,5.27,7.87,7.09,10.14A1.77,1.77,0,0,1,43,69.15Z"/><path class="cls-86" d="M43,69.15a4,4,0,0,1-.89.31L38.3,65.34c0-.6,0-1.2,0-1.76L39.51,65C40.32,66.05,42.08,68.13,43,69.15Z"/><path class="cls-86" d="M29.68,79.39c-1.92,1.08-3.55,1.82-4.15,1.22,0,0,0,0-.05,0-.45-.55.24-4.79-.12-8.82a40.06,40.06,0,0,0-1.1-6h0a12.53,12.53,0,0,1,1.55-2.43,9.2,9.2,0,0,1,.8,3.58c.15,2.39-.27,5.85-.25,7.35a4.13,4.13,0,0,0,1,3A22.13,22.13,0,0,0,29.68,79.39Z"/><path class="cls-86" d="M35.55,60c-.18,1.61-2,1.57-2.71,1.52a4.75,4.75,0,0,1-2.62-1.61c1.85-1,3.64-1.92,4.66-2.48A2.87,2.87,0,0,1,35.55,60Z"/><path class="cls-87" d="M29.55,57.46a7.2,7.2,0,0,0,.19,1.25,6.28,6.28,0,0,1-.82-2.08l0-.16A1.48,1.48,0,0,1,29.55,57.46Z"/><path class="cls-88" d="M30.77,59.2a2,2,0,0,1-.22-.27l0,0A3.4,3.4,0,0,1,30,57.41a.37.37,0,0,0,.28,0c.43-.21.13-.67.41-1.54a.92.92,0,0,1,1.21-.46A2.32,2.32,0,0,0,34,54.9c.92-.69,1.08.1,1.14.1a9,9,0,0,1,.13,2.65c0,.46-.08.87-.14,1.24a1.9,1.9,0,0,0-2.27.64,3.22,3.22,0,0,1-.42.45h0l-.11.08h0a.42.42,0,0,1-.21.06h0l-.23-.06h0l-.28-.15,0,0-.16-.11a2.77,2.77,0,0,1-.29-.22l-.07-.07-.21-.2A.27.27,0,0,1,30.77,59.2Z"/><path class="cls-89" d="M29.23,56.63c-.35-.4-1.16-.17-.95.79s1,1.58,1.39,1.18S29.62,57.07,29.23,56.63Z"/><path class="cls-90" d="M33.26,62.2a1.8,1.8,0,0,1-.6.54,3.44,3.44,0,0,1-4-.81c-.81-1.21.27-1.18.63-1.72a7.52,7.52,0,0,0,.58-1.2s0,0,0,.05a3,3,0,0,0,.23.52h0a1.6,1.6,0,0,0,.23.38,3,3,0,0,0,3.12,1.42A1.42,1.42,0,0,1,33.26,62.2Z"/><path class="cls-91" d="M28.79,56.44l.1,0a1.48,1.48,0,0,1,.66,1,7.2,7.2,0,0,0,.19,1.25c0,.1.05.2.08.3a3.07,3.07,0,0,0,.47,1,3,3,0,0,0,3.12,1.42,3.89,3.89,0,0,0,.73-.28c1-.52,1-2.22,1-2.22h0a1.9,1.9,0,0,0-2.27.64,3.22,3.22,0,0,1-.42.45c-.32.26-.52.15-1.05-.21A3.23,3.23,0,0,1,30.3,58.5,3.31,3.31,0,0,1,30,57.41a.37.37,0,0,0,.28,0c.43-.21.13-.67.41-1.54a.92.92,0,0,1,1.21-.46A2.32,2.32,0,0,0,34,54.9c.92-.69,1.08.1,1.14.1s0,0,0-.16c.09-1.39-.76-2.27-2.1-2.85A3,3,0,0,0,29,53.25,4.46,4.46,0,0,0,28.79,56.44Zm1.32,1.83v0S30.12,58.21,30.11,58.27Z"/><path class="cls-92" d="M33.26,62.2A2.69,2.69,0,0,1,31.9,62a5,5,0,0,1-1.84-2.44,1.6,1.6,0,0,0,.23.38,3,3,0,0,0,3.12,1.42A1.42,1.42,0,0,1,33.26,62.2Z"/><path class="cls-93" d="M54.68,105.43a1,1,0,0,1-.16.45c-.38.59-2.32.8-3.4-.09a3.56,3.56,0,0,0-2.46-1.05,2.74,2.74,0,0,1-1.56-.62c0-.13-.07-.27-.11-.42-.15-.52-.28-1.08.19-1.44a4,4,0,0,1,2.48-.08,14.75,14.75,0,0,1,2.62,1.14C53.67,104.11,54.72,104.7,54.68,105.43Z"/><path class="cls-94" d="M54.68,105.43a1,1,0,0,1-.16.45c-.38.59-2.32.8-3.4-.09a3.56,3.56,0,0,0-2.46-1.05,2.74,2.74,0,0,1-1.56-.62c0-.13-.07-.27-.11-.42a2.17,2.17,0,0,0,1.61.66,2.81,2.81,0,0,1,2.16.72C51.4,105.68,53.77,106.14,54.68,105.43Z"/><path class="cls-95" d="M49.84,103.59a13.83,13.83,0,0,1-1.79-.14,2.15,2.15,0,0,1-.74-.23c-.51-.35-1.28-5.75-1.82-10.81S43.7,84.87,42,84.53c0,0,.64-.22,1.55-.43a13.84,13.84,0,0,1,3.21-.43c2.21,0,3,1.21,3.11,2.18C50.18,88.32,49.84,103.59,49.84,103.59Z"/><path class="cls-84" d="M48.05,103.45a2.15,2.15,0,0,1-.74-.23c-.51-.35-1.28-5.75-1.82-10.81S43.7,84.87,42,84.53c0,0,.64-.22,1.55-.43,2.28,1,2.78,2.55,2.86,4.63A118.49,118.49,0,0,0,48.05,103.45Z"/><path class="cls-93" d="M64.88,99.81c-.11.66-.6,1.25-1.8.67a4.61,4.61,0,0,1-2.3-2.61l.34-.17,2-1a6.23,6.23,0,0,1,1.74,2.42A1.94,1.94,0,0,1,64.88,99.81Z"/><path class="cls-94" d="M64.88,99.81c-.11.66-.6,1.25-1.8.67a4.61,4.61,0,0,1-2.3-2.61l.34-.17a4.44,4.44,0,0,0,2.28,2.44A1.41,1.41,0,0,0,64.88,99.81Z"/><path class="cls-96" d="M18,80.78l0,0,.12.07.05,0,.1.07.06.05.09.08.07,0a.6.6,0,0,0,.08.08l.06.07.09.09.06.08.08.09.06.09.08.12a.33.33,0,0,1,0,.06.71.71,0,0,1,.08.15s0,0,0,.06a.61.61,0,0,0,.05.12c0,.06.05.11.07.18a.58.58,0,0,1,.05.14.58.58,0,0,1,.05.14l.06.18,0,.14a1.7,1.7,0,0,1,0,.22.53.53,0,0,1,0,.12c0,.1,0,.2,0,.3s0,.05,0,.08,0,.27,0,.42a.31.31,0,0,1,0,.1c0,.13,0,.35,0,.49l15,8.7h0L37.11,92l0,0L37,91.88l-.1-.07,0,0-.12-.07,0,0-.15-.1-3.5-2h0Z"/><path class="cls-97" d="M16.52,79.11s0,0,0,.06v.16a.09.09,0,0,1,0,0v.07s0,.06,0,.09l0,.06v0h0l0,.12v0l0,0,0,.06,0,0a1.71,1.71,0,0,0,.11.14l0,0,.15.14.05,0,.13.09.05,0,.18.11,15.73,9.14,3,1.75L36,91.26s0,0-.06,0l-.13-.1-.05,0L35.61,91s0,0,0,0a1.71,1.71,0,0,1-.11-.14.56.56,0,0,0,0-.08l0,0a1,1,0,0,1-.07-.15,0,0,0,0,0,0,0s0-.11,0-.18a1.49,1.49,0,0,1,0-.21h0a1.7,1.7,0,0,1,0-.22h0a1.85,1.85,0,0,1,0-.23h0l.06-.24h0a2.5,2.5,0,0,1,.09-.25h0l.12-.24v0l.13-.24.17-.27.17-.24,0,0,.18-.22,0,0,.2-.22,0,0a1.39,1.39,0,0,1,.21-.21h0l.22-.2,0,0L37.2,87s0,0,0,0l.13-.09a4.88,4.88,0,0,0-.91-2.26,1.27,1.27,0,0,0-.3-.27h0L36,84.21h0L21,75.52a1.2,1.2,0,0,0-.23-.11h0l-.19,0h-.42l-.11,0h0l-.12,0-.12,0s0,0,0,0h0l-.09,0-.11,0,0,0h0l-.05,0-.12,0-.06,0h-.06l-.12.07-.1,0,0,0-.13.08-.08.06h0s0,0,0,0l-.14.1-.06,0,0,0,0,0-.15.12,0,0,0,0-.08.06a.86.86,0,0,1-.14.13h0l-.12.12a.38.38,0,0,1-.09.09s0,0,0,0a0,0,0,0,0,0,0l-.12.12-.07.08a0,0,0,0,1,0,0l0,0-.1.13-.05.06,0,0,0,0a2.43,2.43,0,0,0-.14.2h0l-.17.26h0l-.11.18s0,0,0,.06,0,0,0,0l0,0,0,.09,0,.08s0,0,0,0h0a0,0,0,0,0,0,0l0,.07,0,.07,0,.07h0s0,0,0,.06l0,.07a.25.25,0,0,1,0,.07v0h0s0,0,0,.06a.17.17,0,0,0,0,.07.43.43,0,0,0,0,0s0,0,0,0h0v.12Z"/><path class="cls-54" d="M31.61,88.17c.16.77.78,1,1.42,1.37h0l.11.07c.73.48,1.39,1.35,1.48,3.68a.28.28,0,0,1,0,.09l.07,0L37.11,92l.33-.19a18.27,18.27,0,0,0-.07-4.91,4.88,4.88,0,0,0-.91-2.26,1.27,1.27,0,0,0-.3-.27h0L36,84.21h0a2.08,2.08,0,0,0-1.88.28C32.66,85.29,31.38,87.11,31.61,88.17Z"/><path class="cls-98" d="M25.23,75.8s0,.46-1.18,1.18a2.28,2.28,0,0,1-.68.3A1.37,1.37,0,0,1,22.13,77a69,69,0,0,1,0-9.32c.2-1.87.89-3.67,1.43-4.11l.23-.16C28.68,59.91,25.23,75.8,25.23,75.8Z"/><path class="cls-86" d="M22.68,71.92a16.53,16.53,0,0,0,.69,5.36A1.37,1.37,0,0,1,22.13,77a69,69,0,0,1,0-9.32c.2-1.87.89-3.67,1.43-4.11l.23-.16C23.08,65.22,22.68,69.17,22.68,71.92Z"/><path class="cls-99" d="M34.33,84.28c.05.26,1,1.84.73,2S34,84.6,34,85s.93,1.94.66,2-1.39-2.26-1.3-1.83.73,2,.41,1.84-.83-1.64-.91-1.56.3.73.22.93-.13.11-.24,0a2.44,2.44,0,0,1-.29-.5,7.92,7.92,0,0,0-.78-1.47l-.14-.15c-7.17-3.74-9-6-9.5-7.24a1.36,1.36,0,0,0,1.16.26,2.34,2.34,0,0,0,.76-.32c1.16-.72,1.18-1.18,1.18-1.18.69,1.27,8.13,7.49,8.13,7.49.29.07,1.85.44,1.85.68S34.28,84,34.33,84.28Z"/><path class="cls-100" d="M32.84,86.4a2.44,2.44,0,0,1-.29-.5,7.92,7.92,0,0,0-.78-1.47l-.14-.15c-7.17-3.74-9-6-9.5-7.24a1.36,1.36,0,0,0,1.16.26,39.89,39.89,0,0,0,6.19,5.36c1.78,1.07,2.38,1.42,2.62,1.91S32.59,85.8,32.84,86.4Z"/><path class="cls-101" d="M21.15,75.52a5.47,5.47,0,0,0,2.27,4,51.87,51.87,0,0,0,7,4.44c.88.43,1.15.53,1.46,1.14s.6,1.72.75,1.65-.17-1.38-.17-1.38.7,1.83.87,1.76S33,85.49,33,85.47s.85,1.64,1,1.48-.5-1.58-.42-1.7.9,1.25,1,1.23a7.84,7.84,0,0,0-.46-1.64,4.61,4.61,0,0,0,.73-.5c.29-.26-.56-.31-2-1.07s-9.26-6.8-9.26-6.8Z"/></g></g></g></svg>