<svg xmlns="http://www.w3.org/2000/svg" xmlns:xlink="http://www.w3.org/1999/xlink" viewBox="0 0 174.81 161.78"><defs><style>.cls-1{fill:none;}.cls-2,.cls-50{opacity:0.2;}.cls-3{fill:#151615;}.cls-4{isolation:isolate;}.cls-5{fill:#88b5b1;}.cls-6{fill:#ca3f3f;}.cls-7{clip-path:url(#clip-path);}.cls-8{fill:#bb3a3a;}.cls-9{fill:#b73939;}.cls-10{fill:#b23737;}.cls-11{fill:#ad3636;}.cls-12{fill:#a83535;}.cls-13{fill:#a43333;}.cls-14{fill:#9f3232;}.cls-15{fill:#9a3030;}.cls-16{fill:#962f2f;}.cls-17{fill:#912d2d;}.cls-18{fill:#8c2c2c;}.cls-19{fill:#882a2a;}.cls-20{fill:#832929;}.cls-21{fill:#7e2727;}.cls-22{fill:#7a2626;}.cls-23{fill:#4f706b;}.cls-24{fill:#bec2ca;}.cls-25{fill:#aaaeb5;}.cls-26{fill:#cfd6e2;}.cls-27{clip-path:url(#clip-path-2);}.cls-28{fill:#b0b4bb;}.cls-29{fill:#b4b9c0;}.cls-30{fill:#b9bdc5;}.cls-31{fill:#bdc2c9;}.cls-32{fill:#c2c6ce;}.cls-33{fill:#c6cbd3;}.cls-34{fill:#cacfd7;}.cls-35{fill:#cfd4dc;}.cls-36{fill:#d3d8e1;}.cls-37{fill:#d8dde5;}.cls-38{fill:#dce1ea;}.cls-39{fill:#e0e5ed;}.cls-40{fill:#e2e6ee;}.cls-41{fill:#e3e7ee;}.cls-42{fill:#e4e8ef;}.cls-43{fill:#e5e9f0;}.cls-44{fill:#77a09b;}.cls-45{fill:#7bada6;}.cls-46{clip-path:url(#clip-path-3);}.cls-47{clip-path:url(#clip-path-4);}.cls-48{clip-path:url(#clip-path-5);}.cls-49{fill:#b53838;}.cls-50{fill:#061613;}.cls-51{fill:#d85645;}.cls-52{clip-path:url(#clip-path-6);}.cls-53{clip-path:url(#clip-path-7);}.cls-54{clip-path:url(#clip-path-8);}.cls-55{clip-path:url(#clip-path-9);}.cls-56{clip-path:url(#clip-path-10);}.cls-57{fill:#f2bb40;}.cls-58{clip-path:url(#clip-path-11);}.cls-59{fill:#dda636;}.cls-60{clip-path:url(#clip-path-12);}.cls-61{fill:#cc8f23;}.cls-62{fill:#c68112;}.cls-63{fill:#827a7d;}.cls-64{fill:#c6c1c3;}.cls-65{fill:#636061;}.cls-66{fill:#302c2e;}.cls-67{fill:#d1e5dd;}.cls-68{fill:#8da098;}.cls-69{fill:#3f3b3c;}.cls-70{fill:#292628;}.cls-71{fill:#302e2f;}.cls-72{fill:#db4242;}.cls-73{opacity:0.3;}.cls-74{fill:#fff;}.cls-75{fill:#d6cece;}.cls-76{fill:#f1b287;}.cls-76,.cls-77,.cls-78,.cls-83,.cls-84,.cls-85,.cls-86,.cls-87,.cls-88,.cls-89,.cls-90{fill-rule:evenodd;}.cls-77{fill:#ce1915;}.cls-78,.cls-81{fill:#08202d;}.cls-79{fill:#0e2d3a;}.cls-80{fill:#051921;}.cls-82{fill:#061a23;}.cls-83{fill:#142330;}.cls-84{fill:#d86612;}.cls-85{fill:#ef7b1b;}.cls-86{fill:#ff2217;}.cls-87{fill:#e8a476;}.cls-88{fill:#35260c;}.cls-89{fill:#4c3516;}.cls-90,.cls-91{fill:#211606;}</style><clipPath id="clip-path"><path class="cls-1" d="M70.23,143.59l75.54-43.9c.3.18.5.16.55.12l-75.53,43.9C70.73,143.74,70.54,143.77,70.23,143.59Z"/></clipPath><clipPath id="clip-path-2"><path class="cls-1" d="M70.27,130.38l75.53-43.9a1.49,1.49,0,0,1,.56.52L70.82,130.9A1.53,1.53,0,0,0,70.27,130.38Z"/></clipPath><clipPath id="clip-path-3"><path class="cls-1" d="M70.23,124.82l75.54-43.9a5.09,5.09,0,0,0,.55.29l-75.54,43.9C70.64,125,70.45,125,70.23,124.82Z"/></clipPath><clipPath id="clip-path-4"><path class="cls-1" d="M147.92,83.71l-75.53,43.9a.73.73,0,0,0,.29-.69L148.22,83A.72.72,0,0,1,147.92,83.71Z"/></clipPath><clipPath id="clip-path-5"><path class="cls-1" d="M70.24,121.88,145.77,78l.56.35-75.54,43.9Z"/></clipPath><clipPath id="clip-path-6"><path class="cls-1" d="M70.23,116.85,145.77,73c.3.18.5.16.55.12L70.79,117C70.73,117,70.54,117,70.23,116.85Z"/></clipPath><clipPath id="clip-path-7"><path class="cls-1" d="M70.27,103.64l75.53-43.9a1.49,1.49,0,0,1,.56.52l-75.54,43.9A1.53,1.53,0,0,0,70.27,103.64Z"/></clipPath><clipPath id="clip-path-8"><path class="cls-1" d="M70.23,98.08l75.54-43.89a4.8,4.8,0,0,0,.55.28L70.78,98.37C70.64,98.3,70.45,98.21,70.23,98.08Z"/></clipPath><clipPath id="clip-path-9"><path class="cls-1" d="M147.92,57l-75.53,43.9a.73.73,0,0,0,.29-.69l75.54-43.9A.72.72,0,0,1,147.92,57Z"/></clipPath><clipPath id="clip-path-10"><path class="cls-1" d="M70.24,95.14l75.53-43.9.56.35L70.79,95.49C70.64,95.39,70.46,95.27,70.24,95.14Z"/></clipPath><clipPath id="clip-path-11"><path class="cls-1" d="M70.23,88.41l75.54-43.9a2.22,2.22,0,0,0,.55.23L70.78,88.64A1.88,1.88,0,0,1,70.23,88.41Z"/></clipPath><clipPath id="clip-path-12"><path class="cls-1" d="M70.25,80.76l75.54-43.9a2.91,2.91,0,0,1,.55.4L70.8,81.16A2.3,2.3,0,0,0,70.25,80.76Z"/></clipPath></defs><g id="Camada_2" data-name="Camada 2"><g id="Layer_2" data-name="Layer 2"><g class="cls-2"><path class="cls-3" d="M174,103.45c1.19.69,1.11,1.86-.19,2.62L79,161.18a5,5,0,0,1-4.51.11L.84,118.8c-1.19-.69-1.11-1.86.19-2.61L95.86,61.08a5,5,0,0,1,4.51-.12Z"/></g><g class="cls-4"><polygon class="cls-5" points="21.81 115.64 97.35 71.74 99.03 72.71 23.5 116.61 21.81 115.64"/><polygon class="cls-6" points="23.5 116.61 99.03 72.71 145.77 99.69 70.23 143.59 23.5 116.61"/><g class="cls-4"><g class="cls-7"><g class="cls-4"><path class="cls-8" d="M70.23,143.59l75.54-43.9,0,0-75.53,43.9,0,0Z"/><path class="cls-9" d="M70.27,143.61l75.53-43.9,0,0L70.31,143.63l0,0Z"/><path class="cls-10" d="M70.31,143.63l75.54-43.89.05,0-75.54,43.9,0,0Z"/><path class="cls-11" d="M70.36,143.66l75.54-43.9,0,0L70.4,143.67Z"/><path class="cls-12" d="M70.4,143.67l75.54-43.89h0l-75.54,43.9,0,0Z"/><path class="cls-13" d="M70.44,143.69,146,99.79h0L70.48,143.7Z"/><path class="cls-14" d="M70.48,143.7,146,99.8l0,0-75.54,43.9,0,0Z"/><path class="cls-15" d="M70.52,143.72l75.54-43.9h0l-75.54,43.9Z"/><path class="cls-16" d="M70.56,143.72l75.54-43.9h0L70.6,143.73Z"/><path class="cls-17" d="M70.6,143.73l75.54-43.9h0l-75.54,43.9Z"/><path class="cls-18" d="M70.63,143.73l75.54-43.9h0L70.67,143.73Z"/><path class="cls-19" d="M70.67,143.73l75.54-43.89h0L70.7,143.73Z"/><path class="cls-20" d="M70.7,143.73l75.54-43.9h0l-75.53,43.9Z"/><path class="cls-21" d="M70.74,143.73l75.53-43.9h0l-75.54,43.9Z"/><path class="cls-22" d="M70.76,143.72l75.54-43.9h0l-75.53,43.9Z"/></g></g></g><path class="cls-23" d="M72.69,144.86a1.61,1.61,0,0,1,0,.39h0a1.33,1.33,0,0,1-.11.32h0c0,.06-.07.11-.1.16a1.06,1.06,0,0,1-.31.29l75.54-43.9a.92.92,0,0,0,.3-.29s0,0,0,0a.75.75,0,0,0,.07-.12.49.49,0,0,0,0-.11.36.36,0,0,0,0-.09s0-.06,0-.09a0,0,0,0,1,0,0h0a.11.11,0,0,1,0,0v-.08a.28.28,0,0,1,0-.09v-.08s0,0,0-.08h0Z"/><polygon class="cls-24" points="23.53 103.39 99.07 59.49 145.8 86.48 70.27 130.38 23.53 103.39"/><polygon class="cls-25" points="70.82 130.9 146.36 87 146.32 99.81 70.79 143.71 70.82 130.9"/><path class="cls-26" d="M70.27,130.38a1.53,1.53,0,0,1,.55.52l0,12.81c-.06,0-.25.06-.56-.12l-46.73-27,0-13.22Z"/><g class="cls-4"><g class="cls-27"><g class="cls-4"><path class="cls-28" d="M70.27,130.38l75.53-43.9h0l-75.53,43.9Z"/><path class="cls-29" d="M70.28,130.38l75.53-43.9.06,0L70.33,130.41l0,0Z"/><path class="cls-30" d="M70.33,130.41l75.54-43.89,0,0-75.53,43.9,0,0Z"/><path class="cls-31" d="M70.38,130.45l75.53-43.9.05,0-75.54,43.9,0,0Z"/><path class="cls-32" d="M70.42,130.48,146,86.58a.1.1,0,0,1,0,0l-75.54,43.9a.1.1,0,0,0,0,0Z"/><path class="cls-33" d="M70.47,130.52,146,86.62l.05,0-75.54,43.9,0,0Z"/><path class="cls-34" d="M70.52,130.55l75.54-43.9s0,0,0,0l-75.54,43.9,0,0Z"/><path class="cls-35" d="M70.56,130.59l75.54-43.9,0,0L70.6,130.63s0,0,0,0Z"/><path class="cls-36" d="M70.6,130.63l75.54-43.9,0,0L70.64,130.66l0,0Z"/><path class="cls-37" d="M70.64,130.66l75.53-43.89,0,0L70.67,130.7l0,0Z"/><path class="cls-38" d="M70.67,130.7l75.54-43.9s0,0,0,0L70.7,130.73l0,0Z"/><path class="cls-39" d="M70.7,130.73l75.53-43.9,0,0-75.54,43.9,0,0Z"/><path class="cls-40" d="M70.72,130.76l75.54-43.9s0,0,0,0l-75.53,43.9,0,0Z"/><path class="cls-41" d="M70.75,130.79l75.53-43.9s0,0,0,0l-75.53,43.9s0,0,0,0Z"/><path class="cls-42" d="M70.77,130.82l75.53-43.9,0,0-75.54,43.9,0,0Z"/><path class="cls-43" d="M70.79,130.85,146.33,87a.08.08,0,0,1,0,0l-75.53,43.9,0,0Z"/><path class="cls-42" d="M70.82,130.89,146.35,87h0L70.82,130.9Z"/></g></g></g><polygon class="cls-5" points="21.86 100.23 97.39 56.34 145.81 84.29 70.27 128.19 21.86 100.23"/><polygon class="cls-44" points="72.72 131.94 148.26 88.04 148.23 100.96 72.69 144.86 72.72 131.94"/><path class="cls-23" d="M70.27,128.19a4.88,4.88,0,0,1,2.45,3.75l0,12.92c0,1.31-1.09,1.71-2.47.91l-48.41-28v-2.18l1.69,1,46.73,27c.31.18.5.15.56.12l0-12.81a1.53,1.53,0,0,0-.55-.52l-46.74-27-1.68-1v-2.19Z"/><path class="cls-45" d="M71.23,128.92h0a5.92,5.92,0,0,1,.41.45h0c.12.15.23.3.34.46l0,.07a3.75,3.75,0,0,1,.68,2L148.26,88v-.16s0-.06,0-.09,0-.06,0-.08,0-.06,0-.09,0-.05,0-.08h0a.29.29,0,0,0,0-.09.29.29,0,0,0,0-.09s0-.07,0-.1l0-.09,0-.1a.08.08,0,0,0,0,0h0a.43.43,0,0,0,0,0l0-.09,0-.09,0-.1a.36.36,0,0,1,0-.09l-.06-.11a.37.37,0,0,1,0-.11l-.11-.18a1.74,1.74,0,0,0-.11-.18.61.61,0,0,1,0-.06l0,0c-.05-.07-.1-.14-.14-.21l-.11-.13-.08-.1h0v0l-.1-.11-.1-.12-.12-.11-.07-.08a0,0,0,0,1,0,0,0,0,0,0,1,0,0l-.13-.11-.12-.11-.14-.11,0,0h0l-.07-.05a.6.6,0,0,0-.13-.09l-.13-.09-.13-.08,0,0-75.54,43.9a4.2,4.2,0,0,1,.49.33h0A5.73,5.73,0,0,1,71.23,128.92Z"/></g><g class="cls-4"><polygon class="cls-6" points="21.81 96.87 97.35 52.97 99.03 53.94 23.49 97.84 21.81 96.87"/><polygon class="cls-6" points="23.49 97.84 99.03 53.94 145.77 80.92 70.23 124.82 23.49 97.84"/><g class="cls-4"><g class="cls-46"><g class="cls-4"><path class="cls-8" d="M70.23,124.82l75.54-43.9.16.1-75.54,43.9-.16-.1Z"/><path class="cls-9" d="M70.39,124.92,145.93,81l.2.1L70.59,125l-.2-.1Z"/><path class="cls-10" d="M70.59,125l75.54-43.9.17.08L70.76,125.1l-.17-.08Z"/><path class="cls-11" d="M70.76,125.1,146.3,81.2h0l-75.54,43.9Z"/></g></g></g><g class="cls-4"><g class="cls-47"><path class="cls-22" d="M72.68,126.92h0v.13a.09.09,0,0,1,0,0,.13.13,0,0,1,0,.06.07.07,0,0,1,0,0,.13.13,0,0,1,0,.06s0,0,0,0,0,0,0,.06a.25.25,0,0,0,0,.07.52.52,0,0,1-.17.16l75.53-43.9a.55.55,0,0,0,.18-.16l0-.07,0-.06s0,0,0,0v-.06s0,0,0,0a.43.43,0,0,1,0-.05v-.06a.13.13,0,0,0,0-.06V83h0Z"/></g></g><polygon class="cls-24" points="23.5 94.89 99.04 50.99 145.78 77.98 70.24 121.88 23.5 94.89"/><path class="cls-26" d="M70.24,121.88l.55.35v2.88c-.14-.07-.33-.16-.55-.29l-46.74-27v-3Z"/><g class="cls-4"><g class="cls-48"><g class="cls-4"><path class="cls-28" d="M70.24,121.88,145.77,78l.07,0L70.3,121.92l-.06,0Z"/><path class="cls-29" d="M70.3,121.92,145.84,78l.24.15L70.54,122.06l-.24-.14Z"/><path class="cls-30" d="M70.54,122.06l75.54-43.89.18.11-75.54,43.9-.18-.12Z"/><path class="cls-31" d="M70.72,122.18l75.54-43.9.07,0-75.54,43.9-.07,0Z"/></g></g></g><polygon class="cls-25" points="70.79 122.23 146.33 78.33 146.32 81.21 70.78 125.11 70.79 122.23"/><polygon class="cls-6" points="21.83 91.74 97.36 47.84 145.78 75.79 70.24 119.69 21.83 91.74"/><polygon class="cls-49" points="72.7 122.62 148.23 78.72 148.22 83.02 72.68 126.92 72.7 122.62"/><path class="cls-21" d="M70.24,119.69c1.63.94,2.46,1.93,2.46,2.93l0,4.3c0,1-.83,1-2.46.09l-48.41-28V96.87l1.68,1,46.74,27c.22.13.41.22.55.29v-2.88l-.55-.35-46.74-27-1.68-1V91.74Z"/><path class="cls-12" d="M148.23,78.6a.13.13,0,0,0,0-.06v-.05a.15.15,0,0,1,0-.06.43.43,0,0,0,0-.05s0,0,0-.06v0s0,0,0,0a.43.43,0,0,0,0,0s0,0,0,0a.08.08,0,0,0,0-.05.43.43,0,0,0,0,0l0,0h0s0,0,0,0a.08.08,0,0,1,0,0l0,0a.3.3,0,0,0,0-.08.25.25,0,0,0,0-.07.16.16,0,0,0,0-.07v0l0-.07a.44.44,0,0,0-.08-.11l-.06-.09-.06-.07v0h0l-.06-.06-.08-.09L147.4,77l-.11-.1a1.31,1.31,0,0,0-.12-.11l-.14-.13-.16-.13-.19-.15-.23-.16-.07,0-.07,0a1.48,1.48,0,0,0-.13-.08l-.32-.2-.08,0-75.54,43.9.53.33.07,0a5.16,5.16,0,0,1,1.5,1.42l0,0a2.21,2.21,0,0,1,.3.72h0a2.21,2.21,0,0,1,0,.37l75.53-43.9V78.6Z"/></g><path class="cls-50" d="M46.29,127.38c0-.16,0-.31.07-.47s.11-.41.18-.62l0,0a3.64,3.64,0,0,1,.25-.57s0,0,0,0c.09-.17.18-.33.28-.49l0-.07a4.61,4.61,0,0,1,.29-.43l.09-.12.21-.29,0-.06.24-.28s0,0,0,0l.18-.2a0,0,0,0,1,0,0l.07-.08L43.89,121s0,0-.07.08,0,0,0,0a1.52,1.52,0,0,0-.17.18l0,0,0,0-.21.25-.05.06-.08.1-.14.19-.09.12,0,0c-.07.09-.14.2-.21.31a.56.56,0,0,0-.05.08l0,.06-.08.13-.14.25-.06.12a.08.08,0,0,1,0,0s0,0,0,.08-.07.15-.1.22l-.09.22,0,0v0a.88.88,0,0,0-.05.15,1.87,1.87,0,0,0-.07.22,2.5,2.5,0,0,0-.07.26h0c0,.15,0,.3-.07.45h0c0,.23,0,.45-.06.68v.17c0,.22,0,.44,0,.66s0,.44,0,.66a1.48,1.48,0,0,0,0,.21c0,.19,0,.37-.05.56a1.23,1.23,0,0,1,0,.19.88.88,0,0,1,0,.16c0,.13,0,.26-.08.4a.64.64,0,0,0,0,.07,5,5,0,0,1-.16.51,0,0,0,0,0,0,0,4.2,4.2,0,0,1-.26.52v0a4,4,0,0,1-.35.52l0,0a4.51,4.51,0,0,1-.47.52l2.9-.33,1.52,2.89.06-.06a3.58,3.58,0,0,0,.27-.29l.14-.16,0,0a0,0,0,0,1,0,0l.13-.18a.91.91,0,0,0,.11-.16l.09-.15v0h0l.06-.11.08-.15a1,1,0,0,1,.07-.15s0-.08,0-.12,0,0,0,0a0,0,0,0,0,0,0c0-.07,0-.13.07-.19a1.87,1.87,0,0,0,.07-.22.64.64,0,0,1,0-.07s0,0,0-.08a.74.74,0,0,0,0-.14c0-.09,0-.17,0-.25l0-.17a.43.43,0,0,0,0-.05.53.53,0,0,0,0-.13,5.46,5.46,0,0,0,0-.57,1.34,1.34,0,0,0,0-.2c0-.22,0-.44,0-.66s0-.44,0-.66v-.17C46.24,127.83,46.26,127.6,46.29,127.38Z"/><g class="cls-4"><polygon class="cls-21" points="42.88 132.3 41.18 129.42 38.46 129.73 38.39 129.53 41.3 129.2 42.81 132.1 42.88 132.3"/><path class="cls-51" d="M44.37,126.2a3.85,3.85,0,0,1,.08-.47,3.62,3.62,0,0,1,.18-.62s0,0,0,0a4.91,4.91,0,0,1,.25-.57s0,0,0-.05.18-.33.28-.49a.43.43,0,0,0,0-.07l.29-.43.09-.12.21-.29,0-.06.24-.28s0,0,0,0l.18-.2h0s.07-.07.07-.08L42,119.84l-.08.08s0,0,0,0l-.17.19,0,0s0,0,0,0l-.21.25-.05.07a.31.31,0,0,0-.07.09l-.15.19-.09.13,0,0c-.07.09-.14.2-.21.31a.56.56,0,0,0,0,.08l0,.06a.57.57,0,0,1-.08.13c0,.08-.09.17-.14.26l-.06.11,0,0s0,0,0,.08-.07.15-.1.23l-.09.21,0,.05a0,0,0,0,1,0,0l-.05.15a1.55,1.55,0,0,0-.07.23l-.06.25h0a3.54,3.54,0,0,0-.08.45h0c0,.23,0,.45-.05.68a1.09,1.09,0,0,0,0,.18c0,.21,0,.43,0,.65s0,.44,0,.66,0,.14,0,.21a5.29,5.29,0,0,1,0,.56c0,.06,0,.13,0,.19l0,.16c0,.13-.05.26-.08.4s0,.05,0,.07a5,5,0,0,1-.16.51s0,0,0,0c-.07.17-.16.35-.25.52v0a5.41,5.41,0,0,1-.36.52l0,0a5.45,5.45,0,0,1-.47.51l2.91-.33,1.51,2.9.06-.07a3.83,3.83,0,0,0,.28-.29l.13-.16,0,0h0l.12-.18a.91.91,0,0,0,.11-.16l.09-.15s0,0,0,0h0l.06-.11.08-.15.07-.15,0-.12s0,0,0,0v0l.06-.19a1.87,1.87,0,0,0,.07-.22.64.64,0,0,1,0-.07s0-.05,0-.08l0-.14c0-.09,0-.17,0-.25s0-.11,0-.17a.07.07,0,0,0,0,0,.49.49,0,0,0,0-.12c0-.19,0-.39.05-.58v-.2c0-.22,0-.44,0-.66s0-.44,0-.66v-.17C44.32,126.65,44.34,126.42,44.37,126.2Z"/><path class="cls-21" d="M46.39,122.41l.08.2a7.44,7.44,0,0,0-1.81,3.07,9.1,9.1,0,0,0-.14,1.9,5.78,5.78,0,0,1-1.64,4.72l-.07-.2c1.46-1.4,1.47-2.92,1.49-4.39a9.24,9.24,0,0,1,.15-2A7.8,7.8,0,0,1,46.39,122.41Z"/></g><g class="cls-4"><polygon class="cls-5" points="21.81 88.9 97.35 45 99.03 45.97 23.5 89.87 21.81 88.9"/><polygon class="cls-6" points="23.5 89.87 99.03 45.97 145.77 72.95 70.23 116.85 23.5 89.87"/><g class="cls-4"><g class="cls-52"><g class="cls-4"><path class="cls-8" d="M70.23,116.85,145.77,73l0,0-75.53,43.9a.05.05,0,0,1,0,0Z"/><path class="cls-9" d="M70.27,116.87,145.8,73l0,0L70.31,116.9l0,0Z"/><path class="cls-10" d="M70.31,116.9,145.85,73l.05,0-75.54,43.9,0,0Z"/><path class="cls-11" d="M70.36,116.92,145.9,73l0,0L70.4,116.94l0,0Z"/><path class="cls-12" d="M70.4,116.94,145.94,73h0L70.44,117Z"/><path class="cls-13" d="M70.44,117,146,73.05h0L70.48,117Z"/><path class="cls-14" d="M70.48,117,146,73.06l0,0L70.52,117l0,0Z"/><path class="cls-15" d="M70.52,117l75.54-43.9h0L70.56,117Z"/><path class="cls-16" d="M70.56,117,146.1,73.09h0L70.6,117Z"/><path class="cls-17" d="M70.6,117l75.54-43.9h0L70.63,117Z"/><path class="cls-18" d="M70.63,117,146.17,73.1h0L70.67,117Z"/><path class="cls-19" d="M70.67,117l75.54-43.9h0L70.7,117Z"/><path class="cls-20" d="M70.7,117,146.24,73.1h0L70.74,117Z"/><path class="cls-21" d="M70.74,117l75.53-43.9s0,0,0,0L70.76,117Z"/><path class="cls-22" d="M70.76,117l75.54-43.9h0L70.79,117Z"/></g></g></g><path class="cls-23" d="M72.69,118.12a1.61,1.61,0,0,1,0,.39h0a1.33,1.33,0,0,1-.11.32h0l-.1.15a1.06,1.06,0,0,1-.31.29l75.54-43.9a.92.92,0,0,0,.3-.29s0,0,0,0a.47.47,0,0,0,.07-.12.49.49,0,0,0,0-.11.36.36,0,0,0,0-.09s0-.06,0-.09a0,0,0,0,1,0,0h0a.11.11,0,0,1,0,0v-.08a.19.19,0,0,1,0-.08v-.09s0,0,0-.08h0Z"/><polygon class="cls-24" points="23.53 76.65 99.07 32.75 145.8 59.74 70.27 103.64 23.53 76.65"/><polygon class="cls-25" points="70.82 104.16 146.36 60.26 146.32 73.07 70.79 116.97 70.82 104.16"/><path class="cls-26" d="M70.27,103.64a1.53,1.53,0,0,1,.55.52l0,12.81c-.06,0-.25.06-.56-.12l-46.73-27,0-13.22Z"/><g class="cls-4"><g class="cls-53"><g class="cls-4"><path class="cls-28" d="M70.27,103.64l75.53-43.9h0L70.28,103.64Z"/><path class="cls-29" d="M70.28,103.64l75.53-43.89.06,0-75.54,43.9,0,0Z"/><path class="cls-30" d="M70.33,103.68l75.54-43.9,0,0-75.53,43.9,0,0Z"/><path class="cls-31" d="M70.38,103.71l75.53-43.9.05,0-75.54,43.9,0,0Z"/><path class="cls-32" d="M70.42,103.74,146,59.84l0,0-75.54,43.9a.1.1,0,0,0,0,0Z"/><path class="cls-33" d="M70.47,103.78,146,59.88l.05,0-75.54,43.9,0,0Z"/><path class="cls-34" d="M70.52,103.81l75.54-43.9s0,0,0,0l-75.54,43.9,0,0Z"/><path class="cls-35" d="M70.56,103.85,146.1,60l0,0L70.6,103.89s0,0,0,0Z"/><path class="cls-36" d="M70.6,103.89,146.14,60l0,0-75.53,43.9s0,0,0,0Z"/><path class="cls-37" d="M70.64,103.93,146.17,60l0,0L70.67,104l0,0Z"/><path class="cls-38" d="M70.67,104l75.54-43.9,0,0L70.7,104l0,0Z"/><path class="cls-39" d="M70.7,104l75.53-43.9,0,0L70.72,104l0,0Z"/><path class="cls-40" d="M70.72,104l75.54-43.9,0,0-75.53,43.9,0,0Z"/><path class="cls-41" d="M70.75,104.05l75.53-43.9,0,0-75.53,43.9s0,0,0,0Z"/><path class="cls-42" d="M70.77,104.08l75.53-43.9,0,0-75.54,43.9s0,0,0,0Z"/><path class="cls-43" d="M70.79,104.11l75.54-43.9a.08.08,0,0,1,0,0l-75.53,43.9,0,0Z"/><path class="cls-42" d="M70.82,104.15l75.53-43.9h0l-75.54,43.9Z"/></g></g></g><polygon class="cls-5" points="21.86 73.5 97.39 29.6 145.81 57.55 70.27 101.45 21.86 73.5"/><polygon class="cls-44" points="72.72 105.2 148.26 61.3 148.23 74.22 72.69 118.12 72.72 105.2"/><path class="cls-23" d="M70.27,101.45a4.89,4.89,0,0,1,2.45,3.75l0,12.92c0,1.31-1.09,1.71-2.47.91L21.81,91.08V88.9l1.69,1,46.73,27c.31.18.5.16.56.12l0-12.81a1.53,1.53,0,0,0-.55-.52l-46.74-27-1.68-1V73.5Z"/><path class="cls-45" d="M71.23,102.19h0a5.92,5.92,0,0,1,.41.45,0,0,0,0,1,0,0c.12.15.23.3.34.46l0,.07a3.75,3.75,0,0,1,.68,2l75.54-43.9v-.16s0-.06,0-.09,0,0,0-.08,0-.06,0-.09,0-.05,0-.08h0a6808056796917.21,6808056796917.21,0,0,1,0-.18s0-.07,0-.1l0-.09,0-.1a.08.08,0,0,0,0,0h0a.43.43,0,0,0,0-.05l0-.09,0-.1a345812861344.14,345812861344.14,0,0,1-.08-.18l-.06-.11a.54.54,0,0,1,0-.11l-.11-.18a1.74,1.74,0,0,0-.11-.18.25.25,0,0,1,0-.07l0,0-.14-.2-.11-.14-.08-.1h0v0l-.1-.11-.1-.12-.12-.11-.07-.08,0,0a0,0,0,0,1,0,0l-.13-.11L146.5,58l-.14-.11,0,0h0l-.07-.05-.13-.1-.13-.08-.13-.08,0,0-75.54,43.9a4.2,4.2,0,0,1,.49.33h0A3.39,3.39,0,0,1,71.23,102.19Z"/></g><g class="cls-4"><polygon class="cls-6" points="21.81 70.13 97.35 26.23 99.03 27.2 23.49 71.1 21.81 70.13"/><polygon class="cls-6" points="23.49 71.1 99.03 27.2 145.77 54.19 70.23 98.08 23.49 71.1"/><g class="cls-4"><g class="cls-54"><g class="cls-4"><path class="cls-8" d="M70.23,98.08l75.54-43.89.16.09L70.39,98.18l-.16-.1Z"/><path class="cls-9" d="M70.39,98.18l75.54-43.9.2.1L70.59,98.28l-.2-.1Z"/><path class="cls-10" d="M70.59,98.28l75.54-43.9.17.08L70.76,98.36l-.17-.08Z"/><path class="cls-11" d="M70.76,98.36l75.54-43.9h0L70.78,98.37Z"/></g></g></g><g class="cls-4"><g class="cls-55"><path class="cls-22" d="M72.68,100.18h0v.12a.15.15,0,0,1,0,.06.11.11,0,0,1,0,0,.07.07,0,0,1,0,0,.13.13,0,0,1,0,.06s0,0,0,0,0,0,0,.06a.25.25,0,0,0,0,.07.52.52,0,0,1-.17.16L147.92,57a.55.55,0,0,0,.18-.16l0-.07,0-.06s0,0,0,0v-.06a.43.43,0,0,0,0,0s0,0,0-.06v-.05a.13.13,0,0,0,0-.06v-.06h0Z"/></g></g><polygon class="cls-24" points="23.5 68.15 99.04 24.26 145.78 51.24 70.24 95.14 23.5 68.15"/><path class="cls-26" d="M70.24,95.14c.22.13.4.25.55.35v2.88c-.14-.07-.33-.16-.55-.29l-46.74-27V68.15Z"/><g class="cls-4"><g class="cls-56"><g class="cls-4"><path class="cls-28" d="M70.24,95.14l75.53-43.9.07,0L70.3,95.18l-.06,0Z"/><path class="cls-29" d="M70.3,95.18l75.54-43.9.24.15L70.54,95.33l-.24-.15Z"/><path class="cls-30" d="M70.54,95.33l75.54-43.9.18.11L70.72,95.44l-.18-.11Z"/><path class="cls-31" d="M70.72,95.44l75.54-43.9.07.05L70.79,95.49l-.07,0Z"/></g></g></g><polygon class="cls-25" points="70.79 95.49 146.33 51.59 146.32 54.47 70.78 98.37 70.79 95.49"/><polygon class="cls-6" points="21.83 65 97.36 21.1 145.78 49.05 70.24 92.95 21.83 65"/><polygon class="cls-49" points="72.7 95.88 148.23 51.98 148.22 56.28 72.68 100.18 72.7 95.88"/><path class="cls-21" d="M70.24,93c1.63.94,2.46,1.93,2.46,2.93l0,4.3c0,1-.83,1-2.46.09L21.81,72.32V70.13l1.68,1,46.74,27c.22.13.41.22.55.29V95.49c-.15-.1-.33-.22-.55-.35l-46.74-27-1.68-1V65Z"/><path class="cls-12" d="M148.23,51.86a.13.13,0,0,0,0-.06v0a.15.15,0,0,1,0-.06.43.43,0,0,0,0,0s0,0,0-.06v0s0,0,0-.05a.43.43,0,0,0,0,0s0,0,0,0a.08.08,0,0,0,0-.05.43.43,0,0,0,0,0l0-.05h0s0,0,0,0l0,0,0,0a.3.3,0,0,0,0-.08.25.25,0,0,0,0-.07l0-.07v0l0-.07a.44.44,0,0,0-.08-.11l-.06-.09-.06-.07h0l-.06-.06-.08-.08a.39.39,0,0,0-.08-.1l-.11-.1a1.31,1.31,0,0,0-.12-.11l-.14-.13-.16-.13-.19-.15-.23-.15-.07,0-.07,0-.13-.08-.32-.2-.08-.05L70.24,93l.53.33.07,0a5.16,5.16,0,0,1,1.5,1.42l0,0a2.21,2.21,0,0,1,.3.72h0a2.21,2.21,0,0,1,0,.37L148.23,52v-.12Z"/></g><g class="cls-4"><polygon class="cls-57" points="21.81 60.45 97.35 16.55 99.03 17.52 23.5 61.42 21.81 60.45"/><polygon class="cls-6" points="23.5 61.42 99.03 17.52 145.77 44.51 70.23 88.41 23.5 61.42"/><g class="cls-4"><g class="cls-58"><g class="cls-4"><path class="cls-8" d="M70.23,88.41l75.54-43.9.07,0L70.31,88.45l-.08,0Z"/><path class="cls-9" d="M70.31,88.45l75.53-43.9.1.05L70.4,88.5l-.09,0Z"/><path class="cls-10" d="M70.4,88.5l75.54-43.9.08,0L70.48,88.54l-.08,0Z"/><path class="cls-11" d="M70.48,88.54,146,44.64l.08,0L70.56,88.57l-.08,0Z"/><path class="cls-12" d="M70.56,88.57l75.54-43.9.08,0L70.64,88.6l-.08,0Z"/><path class="cls-13" d="M70.64,88.6l75.54-43.9.07,0L70.71,88.62l-.07,0Z"/><path class="cls-14" d="M70.71,88.62l75.54-43.9.07,0L70.78,88.64l-.07,0Z"/><polygon class="cls-15" points="70.78 88.64 146.32 44.74 146.32 44.74 70.78 88.64 70.78 88.64 70.78 88.64"/></g></g></g><path class="cls-59" d="M72.68,90.13a2.64,2.64,0,0,1,0,.29h0a.84.84,0,0,1-.07.24h0s-.06.08-.08.12a.73.73,0,0,1-.22.21l75.53-43.9a.61.61,0,0,0,.23-.22l0,0a.41.41,0,0,0,.05-.09h0l0-.08a.14.14,0,0,1,0-.06.64.64,0,0,1,0-.07v0h0v0s0-.05,0-.07v-.06a.13.13,0,0,0,0-.06v-.07h0Z"/><polygon class="cls-24" points="23.52 53.77 99.05 9.87 145.79 36.85 70.25 80.76 23.52 53.77"/><path class="cls-26" d="M70.25,80.76a2.3,2.3,0,0,1,.55.4l0,7.48a1.88,1.88,0,0,1-.55-.23l-46.73-27,0-7.65Z"/><g class="cls-4"><g class="cls-60"><g class="cls-4"><path class="cls-28" d="M70.25,80.76l75.54-43.9h0L70.27,80.77Z"/><path class="cls-29" d="M70.27,80.77l75.54-43.9.11.07L70.38,80.84a.41.41,0,0,0-.11-.07Z"/><path class="cls-30" d="M70.38,80.84l75.54-43.9L146,37,70.48,80.9l-.1-.06Z"/><path class="cls-31" d="M70.48,80.9,146,37l.09.06L70.56,81l-.08-.06Z"/><path class="cls-32" d="M70.56,81l75.54-43.9.08.06L70.64,81,70.56,81Z"/><path class="cls-33" d="M70.64,81l75.54-43.9.07.06L70.71,81.08,70.64,81Z"/><path class="cls-34" d="M70.71,81.08l75.54-43.9.06,0L70.77,81.13l-.06,0Z"/><path class="cls-35" d="M70.77,81.13l75.54-43.9,0,0L70.8,81.16l0,0Z"/></g></g></g><polygon class="cls-25" points="70.8 81.16 146.34 37.26 146.32 44.74 70.78 88.64 70.8 81.16"/><polygon class="cls-57" points="21.84 50.61 97.38 6.72 145.79 34.67 70.26 78.57 21.84 50.61"/><polygon class="cls-61" points="72.71 81.87 148.25 37.97 148.22 46.23 72.68 90.13 72.71 81.87"/><path class="cls-62" d="M70.26,78.57a4.47,4.47,0,0,1,2.45,3.3l0,8.26c0,1.11-1,1.3-2.46.46L21.81,62.64V60.45l1.69,1,46.73,27a1.88,1.88,0,0,0,.55.23l0-7.48a2.3,2.3,0,0,0-.55-.4l-46.73-27-1.69-1V50.61Z"/><path class="cls-59" d="M72.31,80.55v0a4.25,4.25,0,0,1,.21.43h0a2.35,2.35,0,0,1,.13.43h0a2,2,0,0,1,0,.42L148.24,38v-.19a.13.13,0,0,1,0-.06s0,0,0-.07a.13.13,0,0,1,0-.06s0,0,0,0h0v0a.13.13,0,0,0,0-.06.64.64,0,0,0,0-.07.64.64,0,0,0,0-.07s0,0,0-.07a.14.14,0,0,1,0-.07l0-.06h0s0,0,0-.05l0-.07a.09.09,0,0,0,0-.06,2622488257882.36,2622488257882.36,0,0,1-.08-.16l0-.09v0l0,0-.14-.22-.12-.16-.08-.11-.09-.11-.09-.1a.52.52,0,0,0-.1-.11h0l-.1-.11a.8.8,0,0,0-.13-.13l-.13-.12s0,0,0,0a0,0,0,0,1,0,0l-.09-.07-.15-.13-.17-.12-.05,0h0l-.11-.07-.18-.12-.18-.11-.05,0L70.26,78.57a5.39,5.39,0,0,1,.5.33h0a5.54,5.54,0,0,1,.45.37h0a5.77,5.77,0,0,1,.76.82h0C72.13,80.26,72.23,80.41,72.31,80.55Z"/></g><g class="cls-4"><path class="cls-63" d="M146.11,28.65a.11.11,0,0,0,0,.05,2.4,2.4,0,0,1-.2.39l-.05.07a2.7,2.7,0,0,1-.33.36,1.79,1.79,0,0,1-.3.22,1.6,1.6,0,0,1-.25.18v3l0,0a1.66,1.66,0,0,0,.21-.16c.1-.07.21-.14.29-.21l0,0a3.32,3.32,0,0,0,.26-.28l0-.07,0-.06L146,32a1.34,1.34,0,0,0,.12-.24,0,0,0,0,1,0,0s0,0,0-.05,0-.1,0-.15a1,1,0,0,0,0-.24v0c0-1,0-2,0-3A1.55,1.55,0,0,1,146.11,28.65Z"/><path class="cls-63" d="M21.81,43.86v3A2.09,2.09,0,0,0,23,48.58v-3A2.08,2.08,0,0,1,21.81,43.86Z"/><polygon class="cls-64" points="144.97 29.92 144.96 32.92 73.62 74.38 73.63 71.38 144.97 29.92"/><polygon class="cls-65" points="67.73 71.38 67.72 74.38 23.04 48.58 23.04 45.58 67.73 71.38"/><path class="cls-63" d="M73.62,74.38v-3a4,4,0,0,1-.59.28l-.15.06c-.13,0-.27.08-.41.12a2.46,2.46,0,0,1-.41.1,3.86,3.86,0,0,1-.51.09l-.12,0c-.23,0-.47,0-.7,0h-.11l-.69,0h-.11c-.22,0-.45-.07-.67-.12l-.11,0a5.76,5.76,0,0,1-.59-.18.32.32,0,0,1-.09,0,3.41,3.41,0,0,1-.64-.3v3a5.55,5.55,0,0,0,.6.29h0l.1,0,.37.13.21,0,.11,0,.12,0,.41.08h.25l.15,0,.41,0h.43a3.55,3.55,0,0,0,.46,0h.17l.36,0,.16,0,.41-.1.22-.06.17-.07a.44.44,0,0,0,.16-.06A4.58,4.58,0,0,0,73.62,74.38Z"/><path class="cls-66" d="M145,26.51c1.63.94,1.64,2.47,0,3.41L73.63,71.38a6.52,6.52,0,0,1-5.9,0L23,45.58c-1.63-.94-1.64-2.47,0-3.41L94.37.71a6.44,6.44,0,0,1,5.89,0Z"/></g><polygon class="cls-67" points="136.91 29.3 84.05 60.02 42.84 36.23 95.7 5.51 136.91 29.3"/><polygon class="cls-68" points="95.7 6.43 136.12 29.76 136.91 29.3 95.7 5.51 42.84 36.23 43.63 36.69 95.7 6.43"/><g class="cls-4"><path class="cls-65" d="M38,45.43a2.91,2.91,0,0,1-1.75-2.25v1.11c0,.76.59,1.59,1.75,2.25l5,2.89V48.32Z"/><polygon class="cls-63" points="51.16 43.57 51.16 44.68 42.98 49.43 42.98 48.32 51.16 43.57"/><path class="cls-69" d="M51.16,43.57,43,48.32l-5-2.89c-2-1.13-2.33-2.76-.83-3.63l5.45-3.17Z"/></g><g class="cls-4"><polygon class="cls-63" points="60.41 48.91 60.41 50.02 52.23 54.78 52.23 53.66 60.41 48.91"/><polygon class="cls-65" points="52.23 53.66 52.23 54.78 43.68 49.84 43.68 48.73 52.23 53.66"/><polygon class="cls-69" points="60.41 48.91 52.23 53.66 43.68 48.73 51.86 43.98 60.41 48.91"/></g><g class="cls-4"><polygon class="cls-63" points="69.66 54.25 69.66 55.37 61.48 60.12 61.48 59 69.66 54.25"/><polygon class="cls-65" points="61.48 59 61.48 60.12 52.93 55.18 52.93 54.07 61.48 59"/><polygon class="cls-69" points="69.66 54.25 61.48 59 52.93 54.07 61.11 49.31 69.66 54.25"/></g><g class="cls-4"><path class="cls-65" d="M73.47,62.76a3.21,3.21,0,0,1-.65.29,4.51,4.51,0,0,1-.68.16h-.07a5.51,5.51,0,0,1-.71.08h0a6.77,6.77,0,0,1-.78,0h-.08a6.55,6.55,0,0,1-.74-.1l-.15,0a6.66,6.66,0,0,1-.77-.19l-.19-.06c-.19-.06-.38-.12-.57-.2a7.57,7.57,0,0,1-.86-.41l-5-2.89v1.11l5,2.89a6.18,6.18,0,0,0,.86.41l.06,0c.16.07.33.11.49.17l.21.07h0q.3.09.6.15l.13,0,.16,0,.22,0,.48,0h.11l.33,0c.15,0,.29,0,.43,0h.07l.35,0,.35,0h.11a3.74,3.74,0,0,0,.62-.16h0a3.74,3.74,0,0,0,.64-.28l5.45-3.17V59.6Z"/><path class="cls-69" d="M78.92,59.6l-5.45,3.16c-1.51.88-4.32.67-6.28-.46l-5-2.89,8.18-4.75Z"/></g><polygon class="cls-66" points="47.42 42.05 40.45 46.09 40.42 42.05 47.42 42.05"/><polygon class="cls-66" points="73.48 57.12 73.51 61.17 66.52 61.17 73.48 57.12"/><polygon class="cls-66" points="57.21 48.76 52.02 51.77 46.81 48.76 51.99 45.75 57.21 48.76"/><path class="cls-70" d="M64.18,52.36c1.65,1,1.66,2.5,0,3.46a6.57,6.57,0,0,1-6,0c-1.65-1-1.66-2.51,0-3.46A6.57,6.57,0,0,1,64.18,52.36Z"/><g class="cls-4"><path d="M104.79,16.63c.67.38.51.79-.22,1.16L103.13,17c-.22.2-.18.44.12.61a1.51,1.51,0,0,0,.75.18V18a2.07,2.07,0,0,1-1.1-.27c-.59-.34-.59-.78,0-1.11A2,2,0,0,1,104.79,16.63Zm-1.37.15,1.09.62c.29-.18.27-.4,0-.58a1.17,1.17,0,0,0-1,0Z"/><polygon points="108.93 19.03 106.35 19.73 105.92 19.48 106.84 18.39 104.96 18.93 104.54 18.68 105.73 17.18 106.15 17.42 105.16 18.57 107.12 17.98 107.54 18.23 106.54 19.37 108.52 18.79 108.93 19.03"/></g><g class="cls-4"><path d="M111.6,19.86a1.35,1.35,0,0,1,.63.66l-.55.11a1.2,1.2,0,0,0-.5-.56.7.7,0,0,0-.67-.08c-.53.31,1.1.93.21,1.44a1.76,1.76,0,0,1-1.67-.12,1.12,1.12,0,0,1-.62-.83l.54-.1a.92.92,0,0,0,.49.7.76.76,0,0,0,.77.09c.55-.32-1.11-.92-.23-1.43A1.66,1.66,0,0,1,111.6,19.86Z"/><path d="M113.3,21l-.52.3.56.33-.3.17-.56-.32-.91.53c-.2.11-.18.19,0,.26a1.06,1.06,0,0,0,.37.12l-.21.24a1.69,1.69,0,0,1-.61-.19c-.28-.16-.37-.4,0-.62l1-.57-.27-.16.31-.18.27.16.51-.3Z"/><path d="M97.79,21.52a.63.63,0,0,1,.36.49l-.25,0a.51.51,0,0,0-.29-.41,1.42,1.42,0,0,0-1.33,0c-.37.21-.36.56,0,.77a1.42,1.42,0,0,0,.7.17l0,.14a1.79,1.79,0,0,1-.88-.21c-.48-.27-.49-.71,0-1A1.85,1.85,0,0,1,97.79,21.52Z"/><path d="M99,22.11l-.79.46a1.16,1.16,0,0,1,.78.11c.3.18.29.39,0,.57l-.77.44L98,23.58l.72-.42c.22-.12.22-.27,0-.41a.89.89,0,0,0-.88,0l-.61.35-.19-.1,1.76-1Z"/><path d="M114.63,22.31c.59.33.61.79,0,1.12a2,2,0,0,1-2,0c-.6-.34-.61-.8,0-1.13A2,2,0,0,1,114.63,22.31Zm-1.57.91a1.23,1.23,0,0,0,1.19,0c.36-.21.37-.5,0-.69a1.23,1.23,0,0,0-1.19,0c-.36.21-.38.49,0,.69Z"/><path d="M117.12,23.74l-.39.23,0,0a1.28,1.28,0,0,0-1.14-.05l-1,.58-.41-.24,1.89-1.1.41.24-.37.22A1.47,1.47,0,0,1,117.12,23.74Z"/><path d="M99.59,24.49l-.18-.11.19-.11a1.08,1.08,0,0,1-.66-.15c-.26-.15-.26-.34,0-.47a.89.89,0,0,1,.83.06l.42.24.07,0c.18-.11.18-.23,0-.36a1.28,1.28,0,0,0-.54-.15l.06-.12a1.63,1.63,0,0,1,.68.19c.31.18.32.38,0,.53Zm-.45-.44a.91.91,0,0,0,.7.08L100,24l-.39-.22a.49.49,0,0,0-.52-.07c-.14.08-.12.2.06.3Z"/><path d="M101.94,24.39c.36.2.35.5,0,.72a1.26,1.26,0,0,1-1.22,0c-.22-.12-.3-.28-.22-.44l-.73.43L99.56,25l1.71-1,.18.11-.27.16A1.09,1.09,0,0,1,101.94,24.39Zm-1.13.62a1,1,0,0,0,.92,0c.27-.16.28-.38,0-.53a.92.92,0,0,0-.91,0c-.27.15-.28.37,0,.53Z"/><path d="M119.15,24.93l-3,.75a1.35,1.35,0,0,1-1.06-.1.5.5,0,0,1-.29-.34l.49-.09a.32.32,0,0,0,.16.2.74.74,0,0,0,.5,0l.2,0,1.08-1.53.42.24-.86,1.16,2-.52Z"/><path d="M103.39,24.89l-.33.2.4.23-.15.08-.4-.23-.68.4c-.16.09-.15.15,0,.22a.74.74,0,0,0,.26.07l-.09.12a1.06,1.06,0,0,1-.39-.11c-.18-.1-.2-.25,0-.39l.72-.41-.19-.11.15-.09.18.11.33-.19Z"/><path d="M104.29,25.75c.4.23.31.5-.13.74l-1-.6c-.21.17-.19.36,0,.5a1,1,0,0,0,.55.13v.12a1.33,1.33,0,0,1-.71-.17c-.37-.21-.37-.51,0-.72a1.31,1.31,0,0,1,1.26,0Zm-1,.06.86.49c.23-.15.21-.33,0-.47a1,1,0,0,0-.83,0Z"/><path d="M105.83,26.63l-.19.11h0a.91.91,0,0,0-.85,0l-.66.39-.19-.11,1.25-.72.19.1-.28.17A1,1,0,0,1,105.83,26.63Z"/><polygon points="107.47 27.11 105.81 28.08 105.62 27.97 107.11 27.11 106.77 26.91 106.94 26.81 107.47 27.11"/><polygon class="cls-71" points="118.38 28.17 117.86 28.47 94.75 15.13 95.28 14.83 118.38 28.17"/><polygon class="cls-71" points="94.14 34.74 93.88 34.89 72.12 22.33 72.38 22.18 94.14 34.74"/><polygon class="cls-71" points="112.58 37.5 112.32 37.64 81.32 19.75 81.58 19.6 112.58 37.5"/><polygon class="cls-71" points="72.17 37.84 71.92 37.99 58.5 30.24 58.76 30.1 72.17 37.84"/><polygon class="cls-71" points="110.87 38.48 110.62 38.63 77.23 19.36 77.49 19.21 110.87 38.48"/><polygon class="cls-71" points="109.17 39.48 108.92 39.62 75.53 20.35 75.79 20.2 109.17 39.48"/><polygon class="cls-71" points="107.47 40.46 107.21 40.61 73.83 21.34 74.08 21.19 107.47 40.46"/><polygon class="cls-71" points="92.4 41.62 92.14 41.77 65.31 26.29 65.57 26.14 92.4 41.62"/><polygon class="cls-71" points="104.06 42.44 103.8 42.59 72.8 24.7 73.06 24.55 104.06 42.44"/><polygon class="cls-71" points="102.36 43.43 102.1 43.58 68.71 24.31 68.98 24.16 102.36 43.43"/><polygon class="cls-71" points="100.66 44.42 100.4 44.57 67.01 25.3 67.28 25.15 100.66 44.42"/><polygon class="cls-71" points="97.25 46.4 96.99 46.55 63.61 27.28 63.87 27.13 97.25 46.4"/><polygon class="cls-71" points="95.55 47.39 95.29 47.54 61.91 28.27 62.17 28.11 95.55 47.39"/><polygon class="cls-71" points="93.84 48.38 93.59 48.53 60.2 29.26 60.46 29.11 93.84 48.38"/><polygon class="cls-71" points="90.44 50.36 90.18 50.51 59.19 32.61 59.44 32.46 90.44 50.36"/><polygon class="cls-71" points="51.95 34.05 81.68 51.3 81.42 51.45 51.69 34.2 51.95 34.05"/><polygon class="cls-71" points="88.74 51.35 88.48 51.5 55.1 32.22 55.35 32.07 88.74 51.35"/><polygon class="cls-71" points="87.03 52.34 86.78 52.49 53.39 33.21 53.65 33.07 87.03 52.34"/><polygon class="cls-71" points="83.63 54.32 83.37 54.47 52.37 36.57 52.63 36.42 83.63 54.32"/></g><polygon points="103.95 15.46 101.47 16.91 101.05 16.67 101.51 14.86 99.72 15.9 99.3 15.66 101.78 14.21 102.2 14.45 101.75 16.26 103.54 15.23 103.95 15.46"/><path class="cls-50" d="M46.29,100.64c0-.16,0-.31.07-.46a6.52,6.52,0,0,1,.18-.63l0,0a3.64,3.64,0,0,1,.25-.57s0,0,0,0c.09-.17.18-.33.28-.49l0-.07a4.61,4.61,0,0,1,.29-.43l.09-.12.21-.29,0-.06.24-.28,0,0,.18-.19h0s.07-.07.07-.08l-4.42-2.56-.07.07v0a1.52,1.52,0,0,0-.17.18l0,0s0,0,0,0l-.21.25-.05.06-.08.1-.14.19-.09.12,0,0-.21.32a.56.56,0,0,0-.05.08l0,.06-.08.13-.14.25-.06.12a.08.08,0,0,1,0,0s0,.05,0,.08-.07.15-.1.23l-.09.22s0,0,0,0,0,0,0,0a.58.58,0,0,0-.05.14,1.87,1.87,0,0,0-.07.22,2.5,2.5,0,0,0-.07.26h0c0,.15,0,.3-.07.45h0c0,.23,0,.45-.06.68v.17c0,.22,0,.44,0,.66s0,.44,0,.66a1.48,1.48,0,0,0,0,.21c0,.19,0,.37-.05.56a1.11,1.11,0,0,1,0,.19.88.88,0,0,1,0,.16c0,.13,0,.27-.08.4a.64.64,0,0,0,0,.07,5,5,0,0,1-.16.51,0,0,0,0,0,0,0,5,5,0,0,1-.26.52,0,0,0,0,1,0,0,4,4,0,0,1-.35.52l0,0a4.51,4.51,0,0,1-.47.52l2.9-.33,1.52,2.89.06-.06a2.44,2.44,0,0,0,.27-.29l.14-.16,0,0s0,0,0,0a1.09,1.09,0,0,0,.13-.17.91.91,0,0,0,.11-.16l.09-.15v0h0l.06-.11.08-.15a1,1,0,0,1,.07-.15s0-.08,0-.12,0,0,0,0a0,0,0,0,0,0,0c0-.07,0-.13.07-.19a1.55,1.55,0,0,0,.07-.23s0,0,0-.06,0-.05,0-.08a.57.57,0,0,0,0-.14,2.17,2.17,0,0,0,0-.25l0-.17a.43.43,0,0,0,0-.05.49.49,0,0,0,0-.12,5.65,5.65,0,0,0,0-.58,1.27,1.27,0,0,0,0-.2c0-.22,0-.44,0-.66s0-.44,0-.66v-.17C46.24,101.09,46.26,100.86,46.29,100.64Z"/><path class="cls-50" d="M32,66a4.2,4.2,0,0,1,.08-.47,4.83,4.83,0,0,1,.18-.62v0a4.91,4.91,0,0,1,.25-.57s0,0,0-.05.19-.33.28-.49a.43.43,0,0,0,0-.07l.29-.43.09-.12.22-.29.05-.06.23-.28,0,0a1.73,1.73,0,0,1,.18-.19v0l.08-.08-4.42-2.56-.08.07v0l-.17.19,0,0,0,0-.21.25-.05.07a.71.71,0,0,0-.07.09l-.15.19-.09.13,0,0-.21.31a.35.35,0,0,1,0,.08l0,.06-.08.13-.15.26-.05.11,0,0a.2.2,0,0,1,0,.08c0,.08-.07.15-.1.23l-.09.22v0l0,0a1.21,1.21,0,0,1-.05.14c0,.07-.05.15-.07.23l-.06.25h0c0,.15-.06.3-.08.45h0c0,.23,0,.46,0,.68a1.09,1.09,0,0,1,0,.18c0,.21,0,.43,0,.65s0,.44,0,.66a1.48,1.48,0,0,1,0,.21c0,.19,0,.37,0,.56s0,.13,0,.19l0,.16c0,.13-.05.27-.08.4a.19.19,0,0,1,0,.07,3.33,3.33,0,0,1-.16.51v0a4.11,4.11,0,0,1-.25.52s0,0,0,0a4.06,4.06,0,0,1-.36.52,0,0,0,0,1,0,0,3.74,3.74,0,0,1-.47.52L28.91,69l1.51,2.9a.23.23,0,0,1,.07-.07l.27-.29s.09-.1.13-.16l0,0s0,0,0,0l.13-.18s.07-.1.1-.16a1.19,1.19,0,0,0,.09-.15l0,0a0,0,0,0,1,0,0l0-.11a1.09,1.09,0,0,0,.08-.15,1,1,0,0,0,.07-.15,1.17,1.17,0,0,1,.05-.11v0s0,0,0,0l.07-.19.06-.22a.25.25,0,0,0,0-.07.64.64,0,0,1,0-.07.83.83,0,0,1,0-.15,2.17,2.17,0,0,1,0-.25l0-.17v0a.49.49,0,0,0,0-.12c0-.2,0-.39.05-.57s0-.14,0-.21c0-.22,0-.44,0-.66s0-.44,0-.66v-.17C31.94,66.43,32,66.21,32,66Z"/><g class="cls-4"><polygon class="cls-21" points="42.88 105.56 41.18 102.68 38.46 102.99 38.39 102.79 41.3 102.46 42.81 105.36 42.88 105.56"/><path class="cls-51" d="M44.37,99.46a3.85,3.85,0,0,1,.08-.47,3.62,3.62,0,0,1,.18-.62s0,0,0,0a4.91,4.91,0,0,1,.25-.57s0,0,0,0c.09-.17.18-.33.28-.49a.43.43,0,0,0,0-.07l.29-.43.09-.12.21-.29,0-.06.24-.28s0,0,0,0l.18-.2h0s.07-.07.07-.08L42,93.11l-.08.07v0l-.17.18,0,0s0,0,0,0l-.21.25-.05.07a.31.31,0,0,0-.07.09l-.15.19-.09.13,0,0c-.07.09-.14.2-.21.31a.56.56,0,0,0,0,.08.21.21,0,0,1,0,.06.57.57,0,0,1-.08.13l-.14.25-.06.12a.08.08,0,0,1,0,0,.59.59,0,0,1,0,.08l-.1.22-.09.23,0,0v0s0,.09-.05.14a1.55,1.55,0,0,0-.07.23l-.06.25h0a3.54,3.54,0,0,0-.08.45h0c0,.23,0,.45-.05.68a1.09,1.09,0,0,0,0,.18c0,.21,0,.43,0,.65s0,.44,0,.66c0,.07,0,.14,0,.21a5.29,5.29,0,0,1,0,.56c0,.06,0,.13,0,.19l0,.16c0,.13-.05.27-.08.4s0,0,0,.07a5,5,0,0,1-.16.51v0c-.07.17-.16.35-.25.52v0a5.41,5.41,0,0,1-.36.52,0,0,0,0,1,0,0,4.51,4.51,0,0,1-.47.52l2.91-.33,1.51,2.9.06-.07a3.83,3.83,0,0,0,.28-.29l.13-.16,0,0,0,0,.12-.17a.91.91,0,0,0,.11-.16s.06-.09.09-.15,0,0,0,0h0l.06-.11.08-.15.07-.15s0-.08,0-.11l0,0a0,0,0,0,1,0,0l.06-.19a1.87,1.87,0,0,0,.07-.22.64.64,0,0,1,0-.07s0,0,0-.08l0-.14c0-.09,0-.17,0-.25s0-.11,0-.17a.07.07,0,0,0,0,0,.49.49,0,0,0,0-.12c0-.2,0-.38.05-.57v-.21c0-.22,0-.44,0-.66s0-.44,0-.66v-.17C44.32,99.91,44.34,99.68,44.37,99.46Z"/><path class="cls-21" d="M46.39,95.67l.08.2a7.36,7.36,0,0,0-1.81,3.07,9.1,9.1,0,0,0-.14,1.9,5.78,5.78,0,0,1-1.64,4.72l-.07-.2c1.46-1.4,1.47-2.92,1.49-4.39a9.24,9.24,0,0,1,.15-2A8,8,0,0,1,46.39,95.67Z"/></g><g class="cls-4"><polygon class="cls-21" points="28.94 71.05 27.24 68.17 24.52 68.48 24.45 68.28 27.36 67.95 28.87 70.84 28.94 71.05"/><path class="cls-45" d="M30.43,65a3.85,3.85,0,0,1,.08-.47,3.92,3.92,0,0,1,.18-.61s0,0,0,0a4.91,4.91,0,0,1,.25-.57l0,0c.08-.17.18-.33.27-.49a.25.25,0,0,0,0-.07l.29-.43.09-.12.22-.29.05-.06c.08-.11.16-.2.23-.28l0,0,.18-.2h0l.08-.08L28,58.59l-.08.08v0a1.92,1.92,0,0,0-.17.19l0,0,0,0-.21.25-.05.06s0,.06-.07.1l-.15.19a.94.94,0,0,1-.09.12l0,0-.21.32-.05.08,0,.06a.91.91,0,0,0-.08.13l-.15.25a.37.37,0,0,1-.05.11l0,0,0,.08-.11.22-.09.22a.43.43,0,0,1,0,0l0,0a1.21,1.21,0,0,1-.05.14l-.07.22-.06.26h0c0,.15-.06.3-.08.45h0c0,.23,0,.45-.05.68v.17c0,.22,0,.44,0,.66s0,.44,0,.66a1.48,1.48,0,0,1,0,.21c0,.19,0,.37,0,.56s0,.13,0,.19l0,.16c0,.13,0,.26-.07.4a.19.19,0,0,0,0,.07,5.08,5.08,0,0,1-.17.51s0,0,0,0a4.11,4.11,0,0,1-.25.52s0,0,0,0a5.26,5.26,0,0,1-.35.52l0,0a3.74,3.74,0,0,1-.47.52L27.36,68l1.51,2.89.07-.06c.09-.1.19-.19.27-.29a1.83,1.83,0,0,0,.13-.16s0,0,0,0h0l.13-.18a1.4,1.4,0,0,0,.1-.16,1.19,1.19,0,0,0,.09-.15s0,0,0,0h0l.06-.11.07-.15a1,1,0,0,0,.07-.15l.05-.12s0,0,0,0,0,0,0,0l.07-.19a1.87,1.87,0,0,1,.07-.22s0,0,0-.07,0,0,0-.08,0-.09,0-.14a1.87,1.87,0,0,1,0-.25l0-.17v0a.53.53,0,0,0,0-.13,5.48,5.48,0,0,0,.05-.57c0-.07,0-.13,0-.2,0-.22,0-.44,0-.66s0-.44,0-.66a.91.91,0,0,1,0-.17C30.39,65.4,30.4,65.17,30.43,65Z"/><path class="cls-23" d="M32.46,61.16l.07.2a7.36,7.36,0,0,0-1.81,3.07,9.83,9.83,0,0,0-.14,1.9,5.78,5.78,0,0,1-1.64,4.72l-.07-.21c1.47-1.39,1.48-2.91,1.49-4.38a9.24,9.24,0,0,1,.15-2A7.67,7.67,0,0,1,32.46,61.16Z"/></g><polygon class="cls-72" points="132.28 27.66 122.39 33.41 121.36 31.27 117.5 30.59 127.39 24.84 132.28 27.66"/><g class="cls-73"><polygon class="cls-74" points="136.91 29.3 84.05 60.02 42.84 36.23 136.91 29.3"/></g><path class="cls-75" d="M112,36.42l-.38,1.69c5.77,1.27,9.49,5.08,11.85,11.09l-9.41,5.44c-2.54-6.88-6.67-11.27-13.32-12.73l-.37,1.69c16.68,3.66,16.21,28.64,15.51,66.47-.16,8.16-.32,16.62-.32,25.64h1.74c0-3.93,0-7.73.08-11.47l9.52-5.5c0,3.74-.07,7.55-.07,11.49h1.73c0-9,.15-17.45.31-25.62C129.58,65.93,130.06,40.38,112,36.42Zm15.13,68.16c0,1,0,2-.05,3l-9.53,5.5c0-1,0-2,.06-3,0-2.06.07-4.08.11-6.07l9.52-5.49Q127.19,101.51,127.12,104.58Zm-9.65-30,9.53-5.5c.16,2.63.26,5.42.32,8.34l-9.53,5.5C117.73,80,117.63,77.19,117.47,74.55Zm-.09-1.36c-.21-3-.49-5.77-.88-8.37L126,59.33c.4,2.59.69,5.37.9,8.36Zm9.88,23.92-9.53,5.5c0-3,.09-6,.11-8.81l9.53-5.5Q127.34,92.54,127.26,97.11Zm.11-10.23-9.52,5.5q0-4.2,0-8.09l9.54-5.51Q127.4,82.68,127.37,86.88Zm-3.48-36.51A48,48,0,0,1,125.8,58l-9.5,5.49a52.25,52.25,0,0,0-1.85-7.71Zm-6.51,72.45c0-2.82.08-5.58.13-8.31L127,109c-.05,2.73-.09,5.49-.13,8.31Z"/><path class="cls-76" d="M112.7,54.78a8.16,8.16,0,0,0,1.3,1.91,3.14,3.14,0,0,0,1.36.7l1,1.14,1.79-.48a7,7,0,0,0-.65-1.32c-.25-.27-1.39-1.75-1.6-1.94s-.54-.61-1-.6c-.07,0-.45.61-.52.63s-.11-.32-.27-.31C113.56,54.58,112.82,54.55,112.7,54.78Z"/><path class="cls-76" d="M116.52,55.47s0-.7-.31-1a4.37,4.37,0,0,0-1-.88,1.38,1.38,0,0,1-.35-.47c-.28-.52-.5,0-.48.33a1.91,1.91,0,0,0,.7,1.12c.2.15-.41-.12-.71-.58-.08-.11-.35-.15-.54-1.15s-.44-.76-.44-.76c-.21.2-.16.71-.18.85a3,3,0,0,0,.06,1.13,2.67,2.67,0,0,0,.2.73Z"/><path class="cls-76" d="M113.78,54.19a4.94,4.94,0,0,1-.34-1.06c-.22-1-.46-.75-.46-.75-.21.21-.14.72-.15.86a3.09,3.09,0,0,0,.09,1.13,2.69,2.69,0,0,0,.22.72Z"/><path class="cls-76" d="M113.3,54.55c-.15-.52-.22.08-.41-.82s-.31-.92-.31-.92c-.34.17-.21.64-.17.95a2.18,2.18,0,0,0,.29,1s.29.47.44.79Z"/><path class="cls-77" d="M137.42,58c-1,1.36-10.62,2.66-10.91,2.73-.78.17-1.07-1.94-.84-2.26,0,0,7.65-4.83,10.75-4.49C136.42,54,139.25,55.37,137.42,58Z"/><path class="cls-76" d="M123.33,47.66a8.11,8.11,0,0,1,2.17.79,3,3,0,0,1,1,1.15l1.36.72,0,1.85a7.05,7.05,0,0,1-1.44-.3c-.33-.18-2-.92-2.27-1.08s-.73-.37-.83-.81c0-.07.48-.58.48-.66s-.34,0-.36-.19C123.35,48.54,123.14,47.83,123.33,47.66Z"/><path class="cls-76" d="M124.94,51.19a2.46,2.46,0,0,1-1.09,0,4.34,4.34,0,0,1-1.1-.77,1.43,1.43,0,0,0-.54-.22c-.58-.15-.13-.49.2-.55a1.9,1.9,0,0,1,1.26.41c.18.15-.22-.38-.73-.56-.14,0-.24-.3-1.25-.24s-.86-.24-.86-.24c.15-.25.65-.33.78-.37a3,3,0,0,1,1.12-.23,2.69,2.69,0,0,1,.75,0Z"/><path class="cls-76" d="M123,48.85a4.72,4.72,0,0,0-1.1-.08c-1,0-.85-.26-.85-.26.15-.25.66-.31.79-.36A3.18,3.18,0,0,1,123,48a3,3,0,0,1,.76,0Z"/><path class="cls-76" d="M123.25,48.29c-.54,0,0-.23-.89-.2s-1-.07-1-.07c.08-.37.57-.35.88-.39a2.21,2.21,0,0,1,1.06,0l.87.23Z"/><path class="cls-77" d="M133.86,53.08c0,1.78-1,2.36-1.64,2.46-1.53.24-6.14-4-6.14-4a5.67,5.67,0,0,1,.4-1,2.83,2.83,0,0,1,1.09-.79,26.64,26.64,0,0,0,3.63,2Z"/><path class="cls-78" d="M129.78,97.7a5.69,5.69,0,0,1,0,1.38c-.1.36-.16.83-.95.73s-1.16-.57-3-1c-.32-.07-1.88-1-1.88-1.32,0-.58.5-.9,1.6-1s2.73.34,2.76.67C128.46,98.14,129.78,97.7,129.78,97.7Z"/><path class="cls-79" d="M126.43,97.66a4.67,4.67,0,0,0,2.23,0,.64.64,0,0,1-.32-.49c0-.33-1.66-.77-2.76-.67a3.46,3.46,0,0,0-1.13.27A4.9,4.9,0,0,0,126.43,97.66Z"/><path class="cls-80" d="M129.55,97.41c.34.19.34.51,0,.71a1.34,1.34,0,0,1-1.23,0c-.35-.2-.34-.52,0-.72A1.37,1.37,0,0,1,129.55,97.41Z"/><path class="cls-76" d="M130.36,85.17c-.34-1.37-3-2.49-3.29-.09-.25,2,1.12,12.65,1.13,12.85s1,.43,1.42.09C130.08,96.11,130.82,86.26,130.36,85.17Z"/><path class="cls-81" d="M128.62,98.26s-.1-.4.19-.5,1-.36,1-.17a5.7,5.7,0,0,1,0,.73l-.44.78Z"/><path class="cls-82" d="M129.84,97.6c0-.08-.16-.07-.35,0,0,.19,0,.37,0,.37v0a2.82,2.82,0,0,1,0,.74c-.1.36-.17.83-.95.73s-1.16-.56-3-1a6.46,6.46,0,0,1-1.52-.91,5.16,5.16,0,0,0,1.88,1.31c1.84.38,2.21.85,3,1s.85-.37,1-.73a3.36,3.36,0,0,0,0-.74v0S129.86,97.79,129.84,97.6Z"/><path class="cls-83" d="M127.49,97.59a.09.09,0,0,1,0,0,.09.09,0,0,0,0,0Z"/><path class="cls-84" d="M130.36,85.17c-.34-1.37-3.8-2.38-4.11,0-.25,2,1.71,11.69,1.72,11.89a2.53,2.53,0,0,0,1.88,0C130.31,95.2,130.82,86.26,130.36,85.17Z"/><path class="cls-78" d="M126.49,98.12a5.86,5.86,0,0,1,.62,1.23c.07.38.21.82-.54,1.07s-1.29,0-3.11.45a5,5,0,0,1-2.28-.38c-.25-.53.07-1,1-1.59s2.6-.87,2.78-.6C125.49,99.09,126.49,98.12,126.49,98.12Z"/><path class="cls-79" d="M123.44,99.54a4.69,4.69,0,0,0,2-.93.6.6,0,0,1-.49-.31c-.18-.27-1.84,0-2.78.6a3,3,0,0,0-.9.73A4.84,4.84,0,0,0,123.44,99.54Z"/><path class="cls-80" d="M126.15,98c.39,0,.53.31.31.64a1.37,1.37,0,0,1-1.11.53c-.4,0-.53-.32-.31-.64A1.3,1.3,0,0,1,126.15,98Z"/><path class="cls-76" d="M121.58,86.58c-.91-1.09-3.77-1-3,1.35.63,1.9,6.48,10.91,6.58,11.08.26.25,1,0,1.32-.53C126.07,96.56,122.47,87.37,121.58,86.58Z"/><path class="cls-81" d="M125.69,99.13s-.28-.32-.06-.53.77-.77.87-.61.32.66.32.66l-.07.89Z"/><path class="cls-82" d="M126.5,98c0-.07-.19,0-.33.12.08.17.14.34.14.34v0a2.67,2.67,0,0,1,.3.68c.07.37.21.82-.54,1.06s-1.29,0-3.12.45a6.11,6.11,0,0,1-1.75-.16,5,5,0,0,0,2.26.36c1.82-.45,2.35-.19,3.11-.44s.61-.7.54-1.07a3.51,3.51,0,0,0-.29-.68v0S126.6,98.17,126.5,98Z"/><path class="cls-83" d="M124.37,99l0,0,0,0Z"/><path class="cls-85" d="M121.58,86.58c-.91-1.09-4.46-.51-3.69,1.8.63,1.9,6.6,9.8,6.7,10a2.49,2.49,0,0,0,1.69-.8C125.88,95.63,122.47,87.37,121.58,86.58Z"/><path class="cls-84" d="M129.86,87c-.52.87-2.56.88-3.39.15-.49-.42-.16-1.52,0-2.54a58,58,0,0,1,5-10.63l-.25-2.87c1.41-.27,3.41-.68,4.21.83a7.35,7.35,0,0,1,.65,1.62,22.24,22.24,0,0,1-.06,4.15c-.47,2.61-5.53,8.17-6.19,9.29Z"/><path class="cls-85" d="M121.81,88.86a1.72,1.72,0,0,1-2.61-.3c-.42-.49-1.71-.28-1.35-1.27.57-1.56,2.68-8,4.23-10.88l2.8-3.9a5.31,5.31,0,0,1,3.08.38c.92.35,4.07,0,4,1.76a8.14,8.14,0,0,1-.58,3.18c-1.24,1.73-8.79,10-9.62,11Z"/><path class="cls-86" d="M129.87,54.9c-1.45,1-3,1.22-3.42,2.28a5.46,5.46,0,0,0-.26,3c.81,7.63-.65,9.81-2.19,13.58-.25.61,4.41,2.68,9.81,2.78a5.47,5.47,0,0,0,2.86-.92,62.16,62.16,0,0,0,1.57-9,66.91,66.91,0,0,0,.35-8.8,4.07,4.07,0,0,0-3.85-3.6l-2.54-.3A5.27,5.27,0,0,0,129.87,54.9Z"/><path class="cls-77" d="M138.24,66.61a66.91,66.91,0,0,0,.35-8.8,4.07,4.07,0,0,0-1.12-2.36,67.14,67.14,0,0,1-.37,7.83,62.16,62.16,0,0,1-1.57,9,5.46,5.46,0,0,1-2.85.92,23.84,23.84,0,0,1-7.82-1.49c-.27.66-.56,1.32-.86,2s4.41,2.68,9.81,2.78a5.47,5.47,0,0,0,2.86-.92A62.16,62.16,0,0,0,138.24,66.61Z"/><path class="cls-87" d="M133.71,53.8l0-.92,0-.36-1-3.48a16.26,16.26,0,0,1-1.06,3.2,6.71,6.71,0,0,1-1.1.93s-.12,1,0,1.09A2.52,2.52,0,0,0,133.71,53.8Z"/><path class="cls-76" d="M128.87,44.78a3.58,3.58,0,0,0-1.53,2.84,11.18,11.18,0,0,0,.6,3.46c0,.26,1.12,2.17,2.06,2.28,1.09.12,3.65.75,4.87-1.39,0,0,2.21-3.18.44-6.18C135.31,45.79,133.75,41.53,128.87,44.78Z"/><path class="cls-88" d="M126.5,44.76a2.81,2.81,0,0,0,.39,2.47c.45.61,1.16.55,2.35.9a3.33,3.33,0,0,1,1.95,1.6,33.06,33.06,0,0,0,.91,3.8,2.34,2.34,0,0,0,2.06-.57c1.08-.85,3-4.17,2.32-6.27-.83-2.81-2.75-3.76-5.91-3.13-1.23.24-2.93.42-2.92-.55A2.63,2.63,0,0,0,126.5,44.76Z"/><path class="cls-89" d="M127.68,43.09s0,0,0,0,0,0-.09,0S127.67,43.08,127.68,43.09Z"/><path class="cls-89" d="M136.51,46.74c-.84-2.81-2.76-3.76-5.91-3.13-1.21.24-2.88.41-2.92-.5-.23.92,1.44,1.19,2.69,1.27,3.21.22,4.82,1.63,4.89,4.56.05,1.66-1.46,3.6-2.75,4.69a2.58,2.58,0,0,0,1.68-.62C135.26,52.17,137.14,48.85,136.51,46.74Z"/><path class="cls-90" d="M134.78,52.24a2.35,2.35,0,0,1-2.05.58A31.23,31.23,0,0,1,131.8,49a3.29,3.29,0,0,0-1.94-1.59c-1.2-.35-1.9-.29-2.36-.9a2.86,2.86,0,0,1-.38-2.48,2.73,2.73,0,0,1,.38-.94,2.94,2.94,0,0,0-1,1.67,2.81,2.81,0,0,0,.39,2.47c.45.61,1.16.55,2.35.9a3.33,3.33,0,0,1,1.95,1.6,33.76,33.76,0,0,0,.91,3.81,2.36,2.36,0,0,0,2.06-.59,4.36,4.36,0,0,0,.79-.87Z"/><path class="cls-91" d="M134.17,53a8.29,8.29,0,0,0,2.11-3.46v-2l-.37,1.24V47.39s-.22,1.23-.22,1.33-.41-1.45-.41-1.45l-.19,1.83-.9-1.83v3l-1.45-2.39.38,3.22-1.3-2.63.2,3-.64-.8a8.57,8.57,0,0,1-.33,2.83A4.64,4.64,0,0,0,134.17,53Z"/><path class="cls-87" d="M131,49c.14.67-.46,1.85-.85,1.89s-.76-.49-.83-1.16.19-1.27.58-1.31S130.8,47.88,131,49Z"/><path class="cls-91" d="M128.67,48s.27,2.44.29,2.68a.78.78,0,0,1-.77.92s.15,2.43,1.75,2l.74-.19a3.57,3.57,0,0,1-1-1.73,13.22,13.22,0,0,1,0-3.44C129.76,48.19,129,48.08,128.67,48Z"/><path class="cls-86" d="M131.17,57.71c-.67,1.53-7.66,4.89-10.15,4.85-.79,0-1.43-1.68-1.27-2,0,0,6.48-4.76,9.59-5.05C129.34,55.47,132.44,54.79,131.17,57.71Z"/><path class="cls-86" d="M123,60.57c-.2,1.78-1.3,2.2-2,2.22-1.55,0-5.54-4.83-5.54-4.83A6.07,6.07,0,0,1,116,57a2.8,2.8,0,0,1,1.19-.63,26.47,26.47,0,0,0,3.33,2.49Z"/><path class="cls-77" d="M128.88,59.3c-.66,1.53-5.76,2.74-8.25,2.71a.89.89,0,0,1-.55-.28c-1.34-.62-3.45-2.93-4.42-4-.06.11-.12.23-.17.34s3.16,3.84,4.94,4.66A.86.86,0,0,0,121,63c2.49,0,8.07-.87,8-2.25S129.16,58.67,128.88,59.3Z"/></g></g></svg>