<svg xmlns="http://www.w3.org/2000/svg" xmlns:xlink="http://www.w3.org/1999/xlink" viewBox="0 0 147.46 123.51"><defs><style>.cls-1{isolation:isolate;}.cls-2{opacity:0.2;}.cls-3{fill:#181a18;}.cls-4{fill:url(#linear-gradient);}.cls-5{fill:#08181e;}.cls-6{fill:#dadae8;}.cls-7{fill:url(#linear-gradient-2);}.cls-8{fill:#84849b;}.cls-10,.cls-8{opacity:0.4;mix-blend-mode:multiply;}.cls-9{fill:#4e4e68;}.cls-10{fill:#61617a;}.cls-11{fill:#6b1116;}.cls-12{fill:#5e0b12;}.cls-13{fill:#ac1c23;}.cls-14{fill:#ace0f9;}.cls-15{fill:#d2f4ff;}.cls-16{fill:#e6f7ff;}.cls-17{fill:#b9e2ef;}.cls-18{fill:#d4edfc;}.cls-19{fill:#d4f7ff;}.cls-20{fill:#a3d6e2;}.cls-21{fill:#e9f8ff;}.cls-22{fill:#c3e1ea;}.cls-23{fill:#58a5b7;}.cls-24{fill:#5e4a0b;}.cls-25{fill:#564106;}.cls-26{fill:#cc7a0e;}.cls-27{fill:#dd8d19;}.cls-28{fill:#ea9524;}.cls-29{fill:#c16e0a;}.cls-30{fill:#dd820a;}.cls-31{fill:url(#linear-gradient-3);}.cls-32{fill:#0e252f;}.cls-33{fill:#735ab6;}.cls-34{fill:#552c12;}.cls-35{fill:url(#linear-gradient-4);}.cls-36{fill:url(#linear-gradient-5);}.cls-37{fill:url(#linear-gradient-6);}</style><linearGradient id="linear-gradient" x1="-654.56" y1="-28.24" x2="-654.48" y2="-40.13" gradientTransform="translate(707.58 -16.4) rotate(-9.22)" gradientUnits="userSpaceOnUse"><stop offset="0.01" stop-color="#dea595"/><stop offset="0.99" stop-color="#e2837a"/></linearGradient><linearGradient id="linear-gradient-2" x1="-270.33" y1="212.05" x2="-225.61" y2="212.05" gradientTransform="matrix(0.5, -0.87, -0.87, -0.5, 398.11, -67.11)" gradientUnits="userSpaceOnUse"><stop offset="0" stop-color="#dadae8"/><stop offset="0.54" stop-color="#bdbdd1"/><stop offset="1" stop-color="#84849b"/></linearGradient><linearGradient id="linear-gradient-3" x1="-655.99" y1="-29.84" x2="-655.87" y2="-48.13" xlink:href="#linear-gradient"/><linearGradient id="linear-gradient-4" x1="-653.37" y1="-28.23" x2="-653.29" y2="-40.13" xlink:href="#linear-gradient"/><linearGradient id="linear-gradient-5" x1="-635.08" y1="51.8" x2="-638.75" y2="51.61" gradientTransform="translate(695.62)" xlink:href="#linear-gradient"/><linearGradient id="linear-gradient-6" x1="-618.76" y1="68.49" x2="-618.71" y2="61.14" gradientTransform="translate(695.62)" xlink:href="#linear-gradient"/></defs><g class="cls-1"><g id="Camada_2" data-name="Camada 2"><g id="Layer_1" data-name="Layer 1"><g class="cls-2"><path class="cls-3" d="M125.7,50.6c28.88,16.68,29,43.72.33,60.4s-75.38,16.68-104.27,0-29-43.72-.33-60.4S96.81,33.93,125.7,50.6Z"/></g><path class="cls-4" d="M55.82,53.35a2.45,2.45,0,0,1-1.52-1c0,1.63-.57,2.58-.35,2.81a4.8,4.8,0,0,0,4.37,1.65c-.6-.85-.47-2.36-.37-3.49h0A5.45,5.45,0,0,1,55.82,53.35Z"/><path class="cls-5" d="M63.92,71a5.83,5.83,0,0,1,.26,1.87c0,1.44,0,2.29,0,2.29L62.35,74a11.11,11.11,0,0,0,.93-1.2A5.77,5.77,0,0,0,63.92,71Z"/><path class="cls-6" d="M118.5,34.83a1.52,1.52,0,0,0-.71-1.19L61.12,1.14c-.39-.23-.71-.06-.71.37V49.75a1.55,1.55,0,0,0,.71,1.19l56.68,32.5c.39.23.7.06.7-.38Z"/><path class="cls-7" d="M119.63,32.63l0,0L97.49,19.93,62.93.1h0l0,0h0l0,0h-.32l-.1,0-1.8,1a.17.17,0,0,1,.1,0h0a.33.33,0,0,1,.1,0h0l.13,0h0l.14.07L95,20.55l22.81,13.09a1.18,1.18,0,0,1,.28.22h0l.12.13h0a.56.56,0,0,1,.1.15h0a1.09,1.09,0,0,1,.08.15h0l.06.16h0a.85.85,0,0,1,0,.17h0s0,.11,0,.16V83.06a.66.66,0,0,1,0,.15.34.34,0,0,1,0,.12h0l-.06.1h0a.18.18,0,0,1-.09.06l1.81-1,0,0,0,0h0l0,0s0,0,0,0,0,0,0,0h0v0l0,0v0a0,0,0,0,1,0,0v0h0s0,0,0,0v-.06s0,0,0,0V33.8h0v0s0,0,0,0v-.1h0a.06.06,0,0,0,0,0,123308550119.32,123308550119.32,0,0,1,0-.08,0,0,0,0,0,0,0s0,0,0,0v0l0,0v-.06h0l0,0a.59.59,0,0,0,0-.08,0,0,0,0,1,0,0h0s0,0,0,0l0,0,0,0s0,0,0,0,0,0,0,0h0l0,0,0,0,0,0,0,0a0,0,0,0,1,0,0h0l0,0s0,0,0,0l0,0,0,0h0l0,0h0Z"/><path class="cls-8" d="M97.49,19.93,62.93.1h0l0,0h0l0,0h-.32l-.1,0-1.8,1a.17.17,0,0,1,.1,0h0a.33.33,0,0,1,.1,0h0l.13,0h0l.14.07L95,20.55Z"/><polygon class="cls-9" points="66.33 5.86 66.17 51.73 112.67 78.58 112.83 32.71 66.33 5.86"/><path class="cls-8" d="M63.86,30.67c.92.53,1.66.1,1.66-1a3.67,3.67,0,0,0-1.66-2.88c-.92-.53-1.66-.1-1.66,1A3.65,3.65,0,0,0,63.86,30.67Z"/><path class="cls-10" d="M115.22,59c.3.18.55,0,.55-.31a1.25,1.25,0,0,0-.55-1c-.3-.17-.55,0-.55.32A1.21,1.21,0,0,0,115.22,59Z"/><path class="cls-11" d="M85.94,17.71l-.13,45.4L66.12,51.76l.13-45.51a.16.16,0,0,0,.11.15Z"/><path class="cls-12" d="M92.85,21.7l-.13,45.39-6.91-4,.13-45.4.09,0,.12,0h.19l.34.05h.13l.08,0,.09,0c.22,0,.47.08.74.14l.11,0,.12,0,.1,0,.36.1h0l.18.05a8.84,8.84,0,0,1,1.11.41l.25.11a.05.05,0,0,1,0,0l.22.11a2.58,2.58,0,0,1,.37.19,4.29,4.29,0,0,1,2.13,2.47A.19.19,0,0,0,92.85,21.7Z"/><polygon class="cls-11" points="112.18 32.86 112.06 78.22 92.72 67.09 92.85 21.7 112.18 32.86"/><path class="cls-13" d="M91.13,18.81a4.77,4.77,0,0,1,2.32,2.64L112.7,32.56a.16.16,0,0,1,0,.3.59.59,0,0,1-.52,0L92.85,21.7a.19.19,0,0,1-.1-.12,4.28,4.28,0,0,0-2.14-2.47,12.23,12.23,0,0,0-4.46-1.34.53.53,0,0,1-.21-.06L66.36,6.4c-.15-.08-.15-.21,0-.3a.59.59,0,0,1,.52,0l19.5,11.26A13.16,13.16,0,0,1,91.13,18.81Z"/><path class="cls-12" d="M112.8,32.71l-.13,45.17-.61.34.12-45.36.12,0h.29l.11,0a.27.27,0,0,0,.08-.07A.12.12,0,0,0,112.8,32.71Z"/><g class="cls-1"><polygon class="cls-14" points="108.29 35.7 112.05 33.51 112.05 78.02 108.29 80.11 108.29 35.7"/></g><path class="cls-15" d="M92.32,28.56a14.36,14.36,0,0,1-2.51-2.37A11.24,11.24,0,0,1,87,20.92V67.55s1.09,1.82,8.6,6.22a132.38,132.38,0,0,0,12.69,6.34V35.7S98.6,33.23,92.32,28.56Z"/><path class="cls-16" d="M88.81,20.09,87,20.92a13.58,13.58,0,0,0,2.81,5.27,14.36,14.36,0,0,0,2.51,2.37c6.28,4.67,16,7.14,16,7.14l3.76-2.19Z"/><path class="cls-17" d="M104.93,78.91s-7.22-1-12.61-4.68S87,67.55,87,67.55V20.92s.62,4,7.49,9.62a29.81,29.81,0,0,0,10.64,5.65Z"/><path class="cls-18" d="M87,20.92s-10.62-.43-17.42-3.65-8.11-6.52-8.11-6.52V52.88s1.05,2,10.33,7.57c5.37,3.24,15.2,7.1,15.2,7.1Z"/><path class="cls-19" d="M101.38,36.34v42S88.5,77.57,87,67.55V20.92S87.9,29.54,101.38,36.34Z"/><path class="cls-20" d="M62.79,9.09v2.4c1.83,2.88,4.38,4.3,9.74,6.43,6,2.39,14.47,3,14.47,3S74.15,18.07,68.83,15,62.79,9.09,62.79,9.09Z"/><path class="cls-21" d="M66.26,7.07l-3.47,2s.72,2.84,6,5.91S87,20.92,87,20.92l1.81-.83Z"/><path class="cls-22" d="M72.53,17.92c-5.36-2.13-7.91-3.55-9.74-6.43-.23-.35-.44-.73-.65-1.13v1.19s1.2,4,10.24,7.21A38.48,38.48,0,0,0,82.7,21a31,31,0,0,0,4.3-.11S78.53,20.31,72.53,17.92Z"/><path class="cls-16" d="M82.7,21c-5-.17-13.47-1.39-20.56-7l.38,40.91S67.89,65,87,67.55V20.92A19,19,0,0,1,82.7,21Z"/><path class="cls-16" d="M82.7,21a19,19,0,0,0,4.3-.11A31,31,0,0,1,82.7,21Z"/><polygon class="cls-23" points="31.23 93.72 48.25 83.88 76.01 99.67 58.98 109.51 31.23 93.72"/><path class="cls-24" d="M57.28,105h0Z"/><path class="cls-25" d="M59.92,105.52a2.39,2.39,0,0,1-2.18,0,.83.83,0,0,1-.44-.5l.72,3.6h0a.41.41,0,0,0,.23.3,1.31,1.31,0,0,0,1.16,0,.45.45,0,0,0,.23-.29h0l.72-3.63h0A.8.8,0,0,1,59.92,105.52Z"/><path class="cls-24" d="M57.3,105V105A.13.13,0,0,0,57.3,105Z"/><path class="cls-24" d="M59.92,104.26a2.39,2.39,0,0,0-2.18,0,.73.73,0,0,0-.45.69h0V105a.83.83,0,0,0,.44.5,2.39,2.39,0,0,0,2.18,0,.8.8,0,0,0,.44-.52C60.42,104.74,60.27,104.47,59.92,104.26Z"/><path class="cls-24" d="M73.4,95.82h0Z"/><path class="cls-25" d="M76,96.4a2.48,2.48,0,0,1-2.19,0,.91.91,0,0,1-.44-.51l.72,3.6h0a.43.43,0,0,0,.24.3,1.29,1.29,0,0,0,1.15,0,.44.44,0,0,0,.24-.29h0l.72-3.63h0A.87.87,0,0,1,76,96.4Z"/><path class="cls-24" d="M73.41,95.89v-.06S73.41,95.87,73.41,95.89Z"/><path class="cls-24" d="M76,95.13a2.42,2.42,0,0,0-2.19,0,.76.76,0,0,0-.45.69h0v.06a.91.91,0,0,0,.44.51,2.48,2.48,0,0,0,2.19,0,.87.87,0,0,0,.44-.53A.73.73,0,0,0,76,95.13Z"/><path class="cls-24" d="M32.15,90.64v0Z"/><path class="cls-25" d="M34.79,91.22a2.42,2.42,0,0,1-2.19,0,.81.81,0,0,1-.43-.5l.71,3.6h0a.48.48,0,0,0,.24.3,1.29,1.29,0,0,0,1.15,0,.46.46,0,0,0,.24-.29h0l.72-3.63h0A.83.83,0,0,1,34.79,91.22Z"/><path class="cls-24" d="M32.17,90.72l0-.06S32.16,90.7,32.17,90.72Z"/><path class="cls-24" d="M34.79,90a2.42,2.42,0,0,0-2.19,0,.76.76,0,0,0-.45.68v0l0,.06a.81.81,0,0,0,.43.5,2.42,2.42,0,0,0,2.19,0,.83.83,0,0,0,.44-.52A.71.71,0,0,0,34.79,90Z"/><g class="cls-1"><polygon class="cls-26" points="35.91 71.8 35.85 93.11 31.99 90.88 32.05 69.57 35.91 71.8"/><polygon class="cls-27" points="35.91 71.8 53.8 61.41 53.74 82.72 35.85 93.11 35.91 71.8"/><polygon class="cls-28" points="32.05 69.57 49.94 59.18 53.8 61.41 35.91 71.8 32.05 69.57"/></g><g class="cls-1"><polygon class="cls-29" points="54.99 96.87 54.97 104.16 35.85 93.12 35.88 85.84 54.99 96.87"/><polygon class="cls-27" points="54.99 96.87 72.87 86.48 72.85 93.76 54.97 104.16 54.99 96.87"/><polygon class="cls-27" points="35.88 85.84 53.76 75.44 72.87 86.48 54.99 96.87 35.88 85.84"/></g><g class="cls-1"><polygon class="cls-27" points="54.99 90.49 72.87 80.1 72.85 86.57 54.97 96.96 54.99 90.49"/><polygon class="cls-30" points="35.87 79.46 53.76 69.07 72.87 80.1 54.99 90.49 35.87 79.46"/></g><path class="cls-31" d="M54.29,52.34A1.45,1.45,0,0,0,54,51.7,3.22,3.22,0,0,0,54.29,52.34Z"/><path class="cls-32" d="M48.11,72.15c-.18,1-.94,4.23,1.1,6.83s6.67,5.59,9.93,4.13,11.48-6.63,11.93-6.89,1.26-1.55.5-2.43-3.38-1.23-8.07,1.75-4,1.82-4,1.82Z"/><path class="cls-33" d="M50,52.7A4,4,0,0,0,48,55.54,30.91,30.91,0,0,0,47.54,60l1.75,1a38.32,38.32,0,0,1-.37-5.32A5.22,5.22,0,0,1,50,52.7Z"/><path class="cls-34" d="M58.14,44c-2.07-.65-6.24-.11-4.78,6.42.22,1,.41,1.12.6,1.33a1.45,1.45,0,0,1,.33.64c0,.1.05.21.08.34a1.3,1.3,0,0,0,1.45.67.66.66,0,0,0,.44-.41,4.73,4.73,0,0,1,.34-.71,1.59,1.59,0,0,1,1.8-.83c-.2-.66-.39-1.24.27-1.44s.89.42.9,1.14a2.24,2.24,0,0,0,.73-1.16,6.49,6.49,0,0,0,.29-1.39C60.83,46.32,60.21,44.6,58.14,44Zm-3.83,8.42a2.08,2.08,0,0,0,.27.32A2.08,2.08,0,0,1,54.31,52.37ZM55,53a1.74,1.74,0,0,0,.33.18A1.74,1.74,0,0,1,55,53Zm-.42-.32a3,3,0,0,0,.34.28A3,3,0,0,1,54.58,52.69Z"/><path class="cls-35" d="M57.53,52a1.68,1.68,0,0,1-.48.2,2.22,2.22,0,0,1-.45.07,4.73,4.73,0,0,0-.34.71.66.66,0,0,1-.44.41,5.45,5.45,0,0,0,2.13,0h0C58,52.31,58.09,51.59,57.53,52Z"/><path class="cls-36" d="M59.57,51.1c0-.72-.31-1.32-.9-1.14s-.47.78-.27,1.44a1.59,1.59,0,0,0-1.8.83,4.73,4.73,0,0,0-.34.71.66.66,0,0,1-.44.41,5.45,5.45,0,0,0,2.13,0h0c.8-.14,2-.67,2.35-3.39A2.24,2.24,0,0,1,59.57,51.1Z"/><path class="cls-33" d="M49.92,52.74c1.21-.69,9.38,4.79,11.22,5.85,0,0,1.87,1,1.64,2.82s-3.35,7.25-3.22,9.2.85,8.14.85,8.14A24.17,24.17,0,0,1,49,73s-1.09-5.46,0-9.71S47.23,54.28,49.92,52.74Z"/><path class="cls-37" d="M78.58,64.88c-.16-.16-.94.55-1,.4s1.15-1.42,1-1.58-1.11,1-1.18.89,1.22-1.62,1-1.81-1.59,1.45-1.66,1.48.92-1.34.7-1.47-1.55,1.51-1.6,1.47.27-.8,0-.7S75.19,65,75.19,65h0l.08,0a4.43,4.43,0,0,1,2.06,1.37S78.73,65.05,78.58,64.88Z"/><path class="cls-33" d="M75.27,64.92l-.08,0c-.75.36-6.32,3.1-7.11,3.52S64,60.32,61.86,59.21c-.58-.29-3.45,1.28-1.15,5.85s3.91,7.16,5.83,7.72,7.39-3.46,10.79-6.49A4.43,4.43,0,0,0,75.27,64.92Z"/><path class="cls-32" d="M55.56,78.53s4.62-3.17,6.58-4.37,2.23-3,1.49-3.64c-.94-.84-3.45-.65-7.91,2.31s-5.54,4.32-5.54,4.32Z"/><g class="cls-1"><polygon class="cls-26" points="55.07 70.01 54.98 96.96 35.86 85.93 35.95 58.98 55.07 70.01"/><polygon class="cls-27" points="55.07 70.01 60 67.14 59.94 87.71 55.01 90.58 55.07 70.01"/><polygon class="cls-28" points="35.95 58.98 40.88 56.11 60 67.14 55.07 70.01 35.95 58.98"/></g><g class="cls-1"><polygon class="cls-26" points="58.89 85.07 58.83 106.38 54.97 104.14 55.03 82.84 58.89 85.07"/><polygon class="cls-27" points="58.89 85.07 76.78 74.67 76.71 95.98 58.83 106.38 58.89 85.07"/><polygon class="cls-28" points="55.03 82.84 72.91 72.44 76.78 74.67 58.89 85.07 55.03 82.84"/></g></g></g></g></svg>