<svg xmlns="http://www.w3.org/2000/svg" xmlns:xlink="http://www.w3.org/1999/xlink" viewBox="0 0 159.87 155.46"><defs><style>.cls-1{mask:url(#mask);filter:url(#luminosity-noclip-2);}.cls-2{mix-blend-mode:multiply;}.cls-16,.cls-2{fill:url(#linear-gradient);}.cls-3{opacity:0.2;}.cls-4{fill:#181a18;}.cls-5{fill:#3d393b;}.cls-6{fill:#918e90;}.cls-7{fill:#706e70;}.cls-8{fill:#4c484b;}.cls-9{fill:#3d5174;}.cls-10{fill:#506486;}.cls-11{fill:#90a3c1;}.cls-12{fill:#040405;}.cls-13{fill:#7598ad;}.cls-14{opacity:0.45;}.cls-15{mask:url(#mask-2);}.cls-17{fill:#9cafa8;}.cls-18{fill:#7b8e86;}.cls-19{isolation:isolate;}.cls-20{fill:#8c2b2b;}.cls-21{fill:#9c3030;}.cls-22{fill:#4c1717;}.cls-23{fill:#611e1e;}.cls-24{fill:#b8b8b8;}.cls-25{fill:#fff;}.cls-26{fill:#c1c1c1;}.cls-27{fill:#dbdbdb;}.cls-28{fill:#6d6a6a;}.cls-29{fill:#dcdee0;}.cls-30{fill:#383333;}.cls-31{fill:#ddd;}.cls-32{fill:#c6c6c6;}.cls-33{fill:gray;}.cls-34{fill:#555050;}.cls-35{fill:#db1928;}.cls-36{fill:#600c16;}.cls-37,.cls-55{fill:#e8a476;}.cls-38{fill:#f1b488;}.cls-39{fill:#70afe9;}.cls-40{fill:#63a4d6;}.cls-41,.cls-44{fill:#89c2e4;}.cls-41,.cls-43,.cls-54,.cls-55,.cls-56,.cls-57,.cls-58{fill-rule:evenodd;}.cls-42{fill:#74b0ce;}.cls-43{fill:#aaddfb;}.cls-45{fill:#f7fcfc;}.cls-46{fill:#e27189;}.cls-47{fill:#f57c91;}.cls-48{fill:#e9f6fa;}.cls-49{fill:#dfe4e5;}.cls-50{fill:#3f210a;}.cls-51{fill:#301808;}.cls-52,.cls-57,.cls-58{fill:#e8e6e7;}.cls-52{opacity:0.17;}.cls-53,.cls-54{fill:#f1b287;}.cls-56{fill:#f98ca3;}.cls-57{opacity:0.44;}.cls-58{opacity:0.25;}.cls-59{filter:url(#luminosity-noclip);}</style><filter id="luminosity-noclip" x="122.82" y="-8391.55" width="7.13" height="32766" filterUnits="userSpaceOnUse" color-interpolation-filters="sRGB"><feFlood flood-color="#fff" result="bg"/><feBlend in="SourceGraphic" in2="bg"/></filter><mask id="mask" x="122.82" y="-8391.55" width="7.13" height="32766" maskUnits="userSpaceOnUse"><g class="cls-59"/></mask><linearGradient id="linear-gradient" x1="1121.51" y1="92.14" x2="1128.23" y2="92.92" gradientTransform="matrix(-1, 0, 0, 1, 1250.65, 0)" gradientUnits="userSpaceOnUse"><stop offset="0" stop-color="#fff"/><stop offset="1"/></linearGradient><filter id="luminosity-noclip-2" x="122.82" y="87.96" width="7.13" height="9" filterUnits="userSpaceOnUse" color-interpolation-filters="sRGB"><feFlood flood-color="#fff" result="bg"/><feBlend in="SourceGraphic" in2="bg"/></filter><mask id="mask-2" x="122.82" y="87.96" width="7.13" height="9" maskUnits="userSpaceOnUse"><g class="cls-1"><path class="cls-2" d="M126.21,96.47a7.53,7.53,0,0,1-3.39-5.89,2.57,2.57,0,0,1,1.11-2.36,2.6,2.6,0,0,1,2.62.23,7.5,7.5,0,0,1,3.4,5.89,2.55,2.55,0,0,1-1.12,2.36,2,2,0,0,1-1,.26A3.34,3.34,0,0,1,126.21,96.47Zm-2-7.71a2,2,0,0,0-.8,1.83,6.77,6.77,0,0,0,3.08,5.34,2,2,0,0,0,2,.23,2,2,0,0,0,.8-1.82A6.78,6.78,0,0,0,126.23,89h0a2.59,2.59,0,0,0-1.29-.4A1.31,1.31,0,0,0,124.25,88.76Z"/></g></mask></defs><g id="Camada_2" data-name="Camada 2"><g id="Layer_2" data-name="Layer 2"><g class="cls-3"><path class="cls-4" d="M139.25,86.4c27.36,15.8,27.51,41.41.32,57.21s-71.4,15.8-98.76,0-27.5-41.41-.32-57.21S111.89,70.61,139.25,86.4Z"/></g><path class="cls-5" d="M43.75,4.76a3.61,3.61,0,0,1,5.32-2.39L131,49a3.65,3.65,0,0,1,1.82,3.15V131a3.61,3.61,0,0,1-4.85,3.38,3.23,3.23,0,0,1-.58-.24L45.46,87.46a3.62,3.62,0,0,1-1.82-3.14V5.52A3.17,3.17,0,0,1,43.75,4.76Z"/><path class="cls-6" d="M129.12,43.51l5.76,3.31a3.6,3.6,0,0,1,1.54,1.8A3.78,3.78,0,0,1,136.7,50V57.4l-3.94,2.32V52.17a3.64,3.64,0,0,0-.26-1.27A3.6,3.6,0,0,0,131,49l-5.55-3.18Z"/><polygon class="cls-7" points="129.12 43.51 125.4 45.84 56.07 6.38 59.92 4.13 129.12 43.51"/><path class="cls-6" d="M43.75,4.76V4.7c0-2.79,6-6.31,10.39-3.9l5.79,3.33L56.07,6.38l-7-4A3.61,3.61,0,0,0,43.75,4.76Z"/><polygon class="cls-8" points="136.71 57.4 136.71 74.33 136.71 121.65 132.77 123.98 132.77 76.75 132.77 59.72 136.71 57.4"/><path class="cls-6" d="M128,134.4l-.09-.05a3.61,3.61,0,0,0,4.85-3.38v-7l3.94-2.33v8.52C136.72,133.93,130.42,135.79,128,134.4Z"/><polygon class="cls-9" points="74.18 15.3 80.47 18.85 80.47 17.33 74.18 13.77 74.18 15.3"/><polygon class="cls-10" points="81.91 18.08 80.47 18.85 80.47 17.33 81.91 16.56 81.91 18.08"/><polygon class="cls-11" points="81.91 16.56 80.47 17.33 74.18 13.77 75.61 13 81.91 16.56"/><path class="cls-12" d="M133.72,70.73a1,1,0,1,0,1-1.2A1.12,1.12,0,0,0,133.72,70.73Z"/><rect class="cls-12" x="133.26" y="87.9" width="2.96" height="9.13" rx="1.3" transform="translate(269.48 184.92) rotate(180)"/><path class="cls-13" d="M126.39,89.31c-1.51-.87-2.74-.16-2.74,1.57a6,6,0,0,0,2.72,4.73c1.51.87,2.74.17,2.75-1.57A6,6,0,0,0,126.39,89.31Z"/><g class="cls-14"><g class="cls-15"><path class="cls-16" d="M126.21,96.47a7.53,7.53,0,0,1-3.39-5.89,2.57,2.57,0,0,1,1.11-2.36,2.6,2.6,0,0,1,2.62.23,7.5,7.5,0,0,1,3.4,5.89,2.55,2.55,0,0,1-1.12,2.36,2,2,0,0,1-1,.26A3.34,3.34,0,0,1,126.21,96.47Zm-2-7.71a2,2,0,0,0-.8,1.83,6.77,6.77,0,0,0,3.08,5.34,2,2,0,0,0,2,.23,2,2,0,0,0,.8-1.82A6.78,6.78,0,0,0,126.23,89h0a2.59,2.59,0,0,0-1.29-.4A1.31,1.31,0,0,0,124.25,88.76Z"/></g></g><path class="cls-5" d="M126.39,90.38c-1-.58-1.81-.11-1.81,1a4,4,0,0,0,1.8,3.12c1,.58,1.81.11,1.82-1A4,4,0,0,0,126.39,90.38Z"/><polygon class="cls-17" points="47.12 84.13 47.29 4.75 120.48 46.64 120.48 48.45 120.3 127 47.11 85.12 47.12 84.13"/><polygon class="cls-18" points="49.54 83.66 49.54 82.68 49.71 6.14 47.29 4.75 47.12 84.14 47.11 85.12 120.3 127 120.31 124.16 49.54 83.66"/><g class="cls-19"><polygon class="cls-20" points="90.52 32.81 91.19 32.42 91 102.47 90.32 102.86 90.52 32.81"/><polygon class="cls-21" points="77.88 25.51 78.55 25.12 91.19 32.42 90.52 32.81 77.88 25.51"/><polygon class="cls-22" points="90.52 32.81 90.32 102.86 77.68 95.56 77.88 25.51 90.52 32.81"/></g><g class="cls-19"><polygon class="cls-20" points="79.83 29.25 81.85 28.08 81.65 98.13 79.63 99.3 79.83 29.25"/><polygon class="cls-21" points="47.99 10.87 50.01 9.7 81.85 28.08 79.83 29.25 47.99 10.87"/><polygon class="cls-23" points="79.83 29.25 79.63 99.3 47.79 80.92 47.99 10.87 79.83 29.25"/></g><g class="cls-19"><polygon class="cls-20" points="117.23 50.74 119.25 49.57 119.05 119.62 117.03 120.79 117.23 50.74"/><polygon class="cls-21" points="85.39 32.36 87.41 31.19 119.25 49.57 117.23 50.74 85.39 32.36"/><polygon class="cls-23" points="117.23 50.74 117.03 120.79 85.19 102.41 85.39 32.36 117.23 50.74"/></g><g class="cls-19"><polygon class="cls-24" points="75.84 36.32 82.58 32.41 82.38 100.25 75.65 104.16 75.84 36.32"/><polygon class="cls-25" points="42.94 19.65 51.64 14.55 82.58 32.41 75.84 36.32 42.94 19.65"/><polygon class="cls-26" points="75.84 36.32 75.65 104.16 42.75 87.5 42.94 19.65 75.84 36.32"/></g><g class="cls-19"><polygon class="cls-27" points="107.12 54.4 113.85 50.49 113.66 118.34 106.92 122.25 107.12 54.4"/><polygon class="cls-25" points="76.18 36.54 82.91 32.63 113.85 50.49 107.12 54.4 76.18 36.54"/><polygon class="cls-28" points="107.12 54.4 106.92 122.25 75.99 104.39 76.18 36.54 107.12 54.4"/></g><g class="cls-19"><path class="cls-26" d="M75.19,103.3l.15,0,.28-.07h0l.16-.05L76,36.19l-.15,0-.12,0-.21,0-.21,0-.29.06-.31.06-.34.07-.51.08-.41.06-.61.07-.49,0-.4,0-.77,0-.43,0c-.38,0-.76,0-1.17,0h-.09c-.44,0-.91,0-1.4,0h-.36l-1.47-.09h-.09c-.53,0-1.09-.1-1.66-.17l-.43,0c-.55-.08-1.12-.16-1.71-.26l-.13,0c-.61-.11-1.24-.24-1.88-.37l-.7-.16-1.44-.35-.74-.2c-.51-.14-1-.3-1.55-.46-.26-.08-.52-.15-.78-.24-.79-.26-1.59-.53-2.41-.83l-1.43-.58c-.25-.1-.51-.2-.75-.31s-.71-.31-1-.47L48.84,32c-.36-.17-.71-.35-1.05-.53l-.58-.29c-.52-.28-1-.56-1.52-.85a43.75,43.75,0,0,1-10.06-7.79l-.19,66.94A43.15,43.15,0,0,0,45.5,97.31c.49.29,1,.57,1.53.85l.52.27,1.11.55.66.31,1.07.48.75.32.67.27.76.29c.83.31,1.63.59,2.42.84.25.09.49.15.73.23l1.17.36.43.11.72.19,1.46.36.69.16.38.08c.51.11,1,.2,1.51.29h.07l1.33.21.43.06.43,0c.56.07,1.11.13,1.63.17h.11c.51,0,1,.07,1.48.08l.37,0h.29c.38,0,.75,0,1.1,0h.09c.31,0,.61,0,.9,0h.27l.42,0,.81,0,.33,0,.19,0,.4,0,.54-.06.46-.07.43-.07.14,0,.3-.06.23,0Z"/><path class="cls-25" d="M75.57,35.7l.45.49c-.37.11-9.19,2.77-23.26-2.47a47.5,47.5,0,0,1-7.07-3.35,43.75,43.75,0,0,1-10.06-7.79l.85-.25A42.78,42.78,0,0,0,46.35,30a45.64,45.64,0,0,0,6.93,3.27C66.87,38.32,75.48,35.73,75.57,35.7Z"/></g><g class="cls-19"><path class="cls-26" d="M75.2,103.35h.07l.14,0h.06l.07,0,.08,0,.19-66.94-.24,0h0l-.19,0h-.1a.76.76,0,0,1-.16,0l-.14,0-.24,0-.18,0-.35,0-.13,0-.57.08h-.09l-.57.06h-.13c-.34,0-.71.07-1.1.09h-.16L70.17,37H70c-.38,0-.79,0-1.21,0h-.06l-1.3,0H67.1l-1.29-.06h-.19l-1.25-.08-.36,0-1.47-.14-.2,0L61,36.45l-.42-.06-1.68-.26-.3-.06C58,36,57.5,35.87,57,35.76l-.31-.06c-.69-.14-1.39-.3-2.11-.48l-.42-.1c-.72-.18-1.44-.37-2.18-.58l-.52-.15c-.43-.12-.88-.26-1.32-.4l-.57-.17-1.87-.63c-.62-.21-1.22-.43-1.8-.65l-.6-.23-1.13-.44-.61-.25-1.06-.44L41.94,31l-1.43-.64-.08,0-1.26-.6-.39-.2-.86-.43-.39-.2-.78-.42-.31-.17-1-.54a32.45,32.45,0,0,1-4-2.65L31.26,92a32.45,32.45,0,0,0,4,2.65l1,.54.32.18.77.41.39.2.87.44.38.18c.86.42,1.79.86,2.8,1.3l.41.17c.38.16.77.33,1.18.49l.51.21.49.2.76.29.5.19,1.83.66c.64.23,1.26.43,1.88.63l.54.17,1.4.42.3.09.13,0c.76.21,1.5.41,2.23.59l.39.09,2.1.48.12,0,.26,0,1.56.3.31.06,1.7.27.15,0,.23,0,1.35.17.25,0c.51.06,1,.1,1.49.14H64l.17,0,1.3.08.17,0,1.33,0h.28l1.31,0h.13l1.12,0H70l1.24-.07h.17c.38,0,.74,0,1.07-.09h.08l.12,0,.46,0,.18,0,.55-.07.14,0,.35,0,.15,0,.29,0h.1l.15,0Z"/><path class="cls-25" d="M75.43,35.81l.38.51c-.46.11-11.48,2.69-28.16-3.13a71.61,71.61,0,0,1-12.18-5.46,32.45,32.45,0,0,1-4-2.65l.78-.32a31.36,31.36,0,0,0,3.91,2.57,70.07,70.07,0,0,0,12,5.39C64.37,38.38,75.33,35.84,75.43,35.81Z"/></g><g class="cls-19"><path class="cls-29" d="M74.08,103.64h.07l.37-.08h.07l.3-.07H75l.23,0h.06l.16,0,0,0,.1,0h.08l.19-66.94h0l-.08,0h0l-.13,0-.06,0-.16,0-.1,0-.2,0-.12,0-.25.06-.14,0-.28.06-.19,0-.3,0h0l-.7.12-.19,0-.78.12h-.12l-1,.13-.2,0-.89.1-.25,0-1.6.14H67.7q-.84.06-1.74.09h-.35c-.48,0-1,0-1.48,0H64c-.51,0-1,0-1.57,0H62l-1.29-.05h-.26l-1.57-.11-.5,0-1.09-.11-.54-.06-1.15-.14-.5-.07c-.54-.08-1.08-.16-1.63-.26l-.24,0-1.46-.28-.5-.11-1.36-.3-.56-.14c-.58-.14-1.16-.29-1.75-.46-1-.3-2.12-.63-3.2-1-.6-.21-1.17-.43-1.72-.65l-.35-.14-1.16-.49L40.69,33l-1-.47-.39-.19c-.41-.22-.82-.43-1.19-.65-5.61-3.24-6.73-6.45-6.79-6.63L31.17,92c.06.17,1.18,3.38,6.79,6.62.37.22.77.43,1.19.65l.4.2.94.45.49.23,1.07.45.44.19.11,0c.51.2,1,.4,1.59.59,1.69.59,3.35,1.07,5,1.48l.49.12,1.42.32.3.07.17,0c.56.11,1.12.22,1.66.31h0l1.71.27H55l.26,0,1.27.17.49,0,1.21.12.25,0h.11l1.63.11h.2l1.39,0h.33c1.16,0,2.26,0,3.31,0h.25q.93,0,1.8-.09h.23l1.6-.14h.1l.2,0,.81-.08.27,0,.94-.12.23,0,.64-.1.28,0,.55-.09.15,0h.08Z"/><path class="cls-25" d="M75.4,35.86l.42.5a58.43,58.43,0,0,1-31.44-1.92,36,36,0,0,1-6.23-2.8c-5.61-3.24-6.73-6.45-6.79-6.63l.94-.1s1.12,3.21,6.6,6.37a35.12,35.12,0,0,0,6,2.68A56.7,56.7,0,0,0,75.4,35.86Z"/></g><path class="cls-30" d="M59.61,40c-1.67,0-3.52,0-5.6-.13-15.75-.66-20.94-6.75-21-6.82S33,33,33,32.91l.09,0h.1c.07.21,1.56,1.76,4.84,3.3,3,1.41,8.17,3.15,16,3.48,15.13.64,18.83-1.42,18.87-1.44l.1.17C72.87,38.52,70.15,40,59.61,40Z"/><path class="cls-30" d="M59.6,44.41c-1.66,0-3.52,0-5.59-.13-15.74-.66-20.94-6.76-21-6.82s-.08-.13-.06-.19l.09,0h.1c.07.22,1.56,1.76,4.84,3.31,3,1.41,8.17,3.15,16,3.48,15.13.64,18.83-1.42,18.87-1.44l.1.17C72.87,42.88,70.15,44.41,59.6,44.41Z"/><path class="cls-30" d="M59.61,48.77c-1.67,0-3.52,0-5.6-.12C38.27,48,33.07,41.89,33,41.83S33,41.7,33,41.64l.19.06-.1,0h.1c.07.22,1.56,1.76,4.84,3.31,3,1.4,8.17,3.15,16,3.48C69.15,49.09,72.85,47,72.89,47l.1.17C72.87,47.25,70.15,48.77,59.61,48.77Z"/><path class="cls-30" d="M59.61,53.14c-1.67,0-3.53,0-5.6-.12-15.74-.67-20.94-6.76-21-6.82S33,46.07,33,46l.19.06-.1,0h.1c.07.22,1.56,1.76,4.84,3.31,3,1.4,8.17,3.15,16,3.48,15.13.63,18.83-1.43,18.87-1.45l.1.18C72.87,51.62,70.15,53.14,59.61,53.14Z"/><path class="cls-30" d="M59.61,57.51c-1.67,0-3.53,0-5.6-.13-15.74-.66-20.94-6.75-21-6.81s-.08-.13-.06-.19l.09,0h.1c.07.21,1.56,1.76,4.84,3.3,3,1.41,8.17,3.15,16,3.48,15.13.64,18.83-1.42,18.87-1.44l.1.17C72.87,56,70.15,57.51,59.61,57.51Z"/><path class="cls-30" d="M59.61,61.88c-1.67,0-3.52,0-5.6-.13C38.28,61.09,33.07,55,33,54.94S33,54.8,33,54.75l.09,0h.1c.07.21,1.56,1.75,4.84,3.3,3,1.41,8.17,3.15,16,3.48,15.13.64,18.83-1.42,18.87-1.44l.1.17C72.87,60.36,70.15,61.88,59.61,61.88Z"/><path class="cls-30" d="M59.61,66.24c-1.66,0-3.52,0-5.6-.12-15.74-.66-20.94-6.76-21-6.82s-.08-.13-.06-.19l.19.07-.1,0h.1c.07.22,1.56,1.76,4.84,3.31,3,1.4,8.17,3.15,16,3.48,15.13.64,18.83-1.42,18.87-1.44l.1.17C72.87,64.73,70.15,66.24,59.61,66.24Z"/><path class="cls-30" d="M59.61,70.61c-1.66,0-3.52,0-5.6-.12-15.74-.67-20.94-6.76-21-6.82s-.08-.13-.06-.19l.19.06-.1,0h.1c.07.22,1.56,1.76,4.84,3.31,3,1.4,8.17,3.15,16,3.48,15.13.64,18.83-1.42,18.87-1.44L73,69C72.87,69.09,70.15,70.61,59.61,70.61Z"/><path class="cls-30" d="M59.6,75c-1.66,0-3.52,0-5.59-.12C38.26,74.19,33.07,68.1,33,68s-.08-.13-.06-.19l.09,0h.1c.07.22,1.56,1.76,4.84,3.31,3,1.4,8.17,3.15,16,3.48,15.12.63,18.83-1.43,18.87-1.45l.1.18C72.87,73.46,70.15,75,59.6,75Z"/><path class="cls-30" d="M59.6,79.35c-1.66,0-3.52,0-5.59-.13-15.75-.66-20.94-6.75-21-6.81s-.08-.13-.06-.19l.09,0h.1c.07.21,1.56,1.76,4.84,3.3C41,77,46.17,78.69,54,79c15.13.64,18.83-1.42,18.87-1.44l.1.17C72.87,77.83,70.15,79.35,59.6,79.35Z"/><path class="cls-30" d="M59.62,83.72c-1.67,0-3.53,0-5.61-.13-15.74-.66-20.94-6.75-21-6.81s-.08-.14-.06-.19l.19.06-.1,0h.1c.07.21,1.56,1.75,4.84,3.3,3,1.41,8.17,3.15,16,3.48C69.19,84,72.86,82,72.89,82l.1.17C72.87,82.2,70.15,83.72,59.62,83.72Z"/><path class="cls-30" d="M59.61,88.08c-1.67,0-3.52,0-5.6-.12-15.75-.66-20.94-6.76-21-6.82S33,81,33,81l.19.07-.1,0h.1c.07.21,1.56,1.75,4.84,3.3,3,1.4,8.17,3.15,16,3.48,15.13.64,18.83-1.42,18.87-1.44l.1.17C72.87,86.56,70.15,88.08,59.61,88.08Z"/><path class="cls-30" d="M59.61,92.45c-1.67,0-3.52,0-5.6-.12-15.74-.66-20.94-6.76-21-6.82s-.08-.13-.06-.19l.09,0h.1c.07.22,1.56,1.76,4.84,3.31,3,1.4,8.17,3.15,16,3.48,15.13.64,18.83-1.42,18.87-1.44l.1.17C72.87,90.93,70.15,92.45,59.61,92.45Z"/><g class="cls-19"><path class="cls-29" d="M76.07,36.23c-.06.18-1.18,3.39-6.79,6.63-.38.22-.78.43-1.19.65l-.39.19-1,.47-.46.21-1.16.49-.35.14c-.55.22-1.12.44-1.73.65-1.07.38-2.14.71-3.19,1-.59.16-1.17.32-1.75.46l-.56.14-1.36.3-.51.11L54.22,48,54,48c-.55.1-1.09.18-1.63.26l-.5.07-1.15.14-.54.06-1.09.11-.5,0L47,48.79h-.26l-1.29.05H45c-.54,0-1.07,0-1.58,0h-.14q-.75,0-1.47,0h-.35q-.91,0-1.74-.09l-.27,0c-.56,0-1.09-.08-1.6-.13l-.25,0-.89-.1-.2,0-1-.13-.11,0-.78-.12-.19,0-.7-.12h0L33.4,48l-.19,0-.28,0-.14,0-.25-.06-.12,0-.2-.05-.1,0-.16,0h-.07l-.12,0h0l-.08,0h-.05l.19,66.94h.08l.1,0,.05,0,.16,0,.06,0,.22.05.07,0,.29.06h.08l.37.08h.07l.47.09h.08l.15,0,.54.09.29,0,.64.1.23,0,.93.12.28,0c.26,0,.53.07.81.09l.2,0h.09l1.61.14h.23l1.8.1H42c1,0,2.15,0,3.31,0h.33l1.39-.05h.2l1.63-.11h.1l.25,0,1.21-.12.5-.06c.41,0,.84-.1,1.26-.16l.27,0h.1l1.7-.27h0c.55-.09,1.11-.2,1.67-.31l.17,0,.3-.07,1.42-.32.49-.12c1.63-.41,3.29-.89,5-1.48.56-.19,1.09-.39,1.6-.59l.1,0,.45-.19,1.07-.45.49-.23.94-.45.4-.2c.41-.22.81-.43,1.19-.65,5.61-3.24,6.73-6.45,6.79-6.63Z"/><path class="cls-31" d="M32,47.08l-.42.5A58.4,58.4,0,0,0,63,45.66a36.16,36.16,0,0,0,6.24-2.8c5.61-3.24,6.73-6.45,6.79-6.63l-.94-.1S74,39.34,68.52,42.5a35.14,35.14,0,0,1-6,2.69A56.72,56.72,0,0,1,32,47.08Z"/></g><g class="cls-19"><path class="cls-32" d="M105.8,50.6c-1.2-2.79-3.81-5.07-7-6.92l-1.14-.62-.31-.16-1.07-.53-.11,0c-.39-.19-.8-.37-1.2-.54l-.33-.14-1.12-.46-.08,0h0c-1-.39-2-.74-2.94-1.07h0c-1-.32-2-.62-2.91-.89h0l-.07,0L86,38.75l-.16,0-1.39-.35-.25-.06L82.93,38l-.27-.06-1.15-.25-.11,0-.35-.07-.34-.07-.4-.08-.41-.07-.31-.06-.49-.09-.19,0L77.67,37h-.08l-.45-.08h0l-1.2-.17L75.7,104h.16l.24,0,.13,0,.21,0,.11,0,.3,0,.14,0,.36.06.15,0,.47.08.11,0,.62.11.25,0,.44.08c.1,0,.21,0,.31.06l.44.09.34.06.51.11.28.06,1.21.26.26,0,1.27.3.27.06,1.37.35.2,0,1.33.36.22.06c.94.27,1.9.57,2.87.89h0c1,.32,2,.67,2.92,1l.15.06,1.08.45.33.14q.61.26,1.2.54l.11,0,1.07.53.31.16,1.14.62c3.19,1.85,5.8,4.13,7,6.93a11.23,11.23,0,0,1,1,4.43L106.77,55A11,11,0,0,0,105.8,50.6Z"/><polygon class="cls-33" points="104.46 62.5 104.27 129.73 103.47 129.42 103.66 62.19 104.46 62.5"/><path class="cls-26" d="M107.73,55.66c0,.14,0,.28,0,.41s0,.27,0,.41,0,.26-.06.38,0,.24-.07.36-.07.29-.11.43l-.09.31c0,.14-.09.29-.14.43l-.09.25c-.07.18-.15.36-.23.53s0,.12-.07.17c-.11.22-.22.44-.33.64l0,.06c-.13.22-.25.42-.38.61l-.09.14-.39.54-.1.11a2.51,2.51,0,0,1-.19.24l-.11.12L105,62l-.1.11-.12.12-.09.09-.08.08-.07.06-.08.07-.19,67.23.09-.07,0,0,0,0,.09-.08.09-.09.1-.11.12-.12.13-.14.13-.15.17-.21.1-.12,0,0c.12-.16.26-.34.39-.54l.09-.14c.13-.18.25-.38.38-.6l0-.06h0c.11-.2.22-.41.32-.63l.09-.19q.1-.24.21-.51a.54.54,0,0,0,.05-.11l.06-.17c0-.13.09-.26.13-.4l.09-.32c0-.14.08-.29.11-.44s0-.13.05-.2,0-.09,0-.13,0-.29.07-.43,0-.24.05-.36l0-.46a2.28,2.28,0,0,1,0-.26v-.27l.19-67.22C107.75,55.29,107.74,55.48,107.73,55.66Z"/><path class="cls-25" d="M99.49,43.3c3.3,1.91,6,4.28,7.25,7.17a10.29,10.29,0,0,1-2.28,12l-.8-.31A10.06,10.06,0,0,0,105.8,50.6c-1.2-2.79-3.81-5.07-7-6.92-9-5.2-22.73-6.94-22.91-7l.19-.55C76.27,36.19,90.24,38,99.49,43.3Z"/></g><path class="cls-30" d="M43.35,53.11a77.14,77.14,0,0,1-8.44-.42l0-.2c.14,0,14,1.66,26.05-1.69a35.56,35.56,0,0,0,10.66-4.59,9.83,9.83,0,0,0,2.75-2.51l.09,0h0l-.07-.08.11,0,.06.1,0,.06h0c-.34.53-3.22,4.34-13.5,7.19A68.1,68.1,0,0,1,43.35,53.11Z"/><path class="cls-30" d="M43.35,57.72a77.14,77.14,0,0,1-8.44-.42l0-.2c.14,0,14,1.66,26.05-1.69a35.56,35.56,0,0,0,10.66-4.59,9.83,9.83,0,0,0,2.75-2.51l.09,0h0l-.07-.08.11,0,.06.1a8.79,8.79,0,0,1-2.72,2.56A35.4,35.4,0,0,1,61,55.6,68.1,68.1,0,0,1,43.35,57.72Z"/><path class="cls-30" d="M43.35,62.33a77.14,77.14,0,0,1-8.44-.42l0-.2c.14,0,14,1.66,26.05-1.69a35.44,35.44,0,0,0,10.66-4.59,9.83,9.83,0,0,0,2.75-2.51l.09,0h0l-.07-.07.11,0,.06.1,0,.06h0c-.35.53-3.23,4.34-13.51,7.19A68.1,68.1,0,0,1,43.35,62.33Z"/><path class="cls-30" d="M43.35,66.94a77.14,77.14,0,0,1-8.44-.42l0-.2c.14,0,14,1.66,26.05-1.69A35.44,35.44,0,0,0,71.64,60a9.83,9.83,0,0,0,2.75-2.51l.09,0h0l-.07-.07.11,0,.06.1,0,.06h0c-.34.53-3.22,4.34-13.5,7.19A68.1,68.1,0,0,1,43.35,66.94Z"/><path class="cls-30" d="M43.35,71.55a77.14,77.14,0,0,1-8.44-.42l0-.19c.14,0,14,1.65,26.05-1.7a35.56,35.56,0,0,0,10.66-4.59,9.83,9.83,0,0,0,2.75-2.51l.09,0h0l-.07-.07.11,0,.06.1a8.79,8.79,0,0,1-2.72,2.56A35.4,35.4,0,0,1,61,69.43,68.1,68.1,0,0,1,43.35,71.55Z"/><path class="cls-30" d="M43.35,76.16a77.14,77.14,0,0,1-8.44-.42l0-.19c.14,0,14,1.65,26.05-1.7a35.44,35.44,0,0,0,10.66-4.59,9.83,9.83,0,0,0,2.75-2.51l.09,0h0l-.07-.07.11,0,.06.1,0,.06h0C74.2,67.38,71.32,71.19,61,74A68.1,68.1,0,0,1,43.35,76.16Z"/><path class="cls-30" d="M43.34,80.77a82.17,82.17,0,0,1-8.43-.41l0-.2c.14,0,14,1.65,26.05-1.7a35.56,35.56,0,0,0,10.66-4.59,9.83,9.83,0,0,0,2.75-2.51l.09,0h0l-.07-.07.11,0,.06.1A8.79,8.79,0,0,1,71.86,74,35.4,35.4,0,0,1,61,78.65,68.12,68.12,0,0,1,43.34,80.77Z"/><path class="cls-30" d="M43.35,85.38A82.26,82.26,0,0,1,34.91,85l0-.2c.14,0,14,1.65,26.05-1.7a35.56,35.56,0,0,0,10.66-4.59A9.83,9.83,0,0,0,74.39,76l.09,0h0l-.07-.07.11,0,.06.1a9,9,0,0,1-2.72,2.55A35.4,35.4,0,0,1,61,83.26,68.1,68.1,0,0,1,43.35,85.38Z"/><path class="cls-30" d="M43.35,90a82.26,82.26,0,0,1-8.44-.41l0-.2c.14,0,14,1.65,26.05-1.7a35.56,35.56,0,0,0,10.66-4.59,9.65,9.65,0,0,0,2.75-2.51l.09,0h0l-.07-.07.11,0,.06.1a9,9,0,0,1-2.72,2.55A35.15,35.15,0,0,1,61,87.87,68.1,68.1,0,0,1,43.35,90Z"/><path class="cls-30" d="M43.36,94.6a79,79,0,0,1-8.45-.41l0-.2c.14,0,14,1.66,26.05-1.7A35.44,35.44,0,0,0,71.64,87.7a9.92,9.92,0,0,0,2.75-2.5l.09,0h0l-.07-.07.11,0,.06.1,0,.06h0c-.35.52-3.23,4.33-13.51,7.19A68.42,68.42,0,0,1,43.36,94.6Z"/><path class="cls-30" d="M43.35,99.21a78.92,78.92,0,0,1-8.44-.41l0-.2c.14,0,14,1.66,26.05-1.7a35.56,35.56,0,0,0,10.66-4.59,9.92,9.92,0,0,0,2.75-2.5l.09,0h0l-.07-.07.11,0,.06.1a8.93,8.93,0,0,1-2.72,2.56A35.66,35.66,0,0,1,61,97.1,68.49,68.49,0,0,1,43.35,99.21Z"/><path class="cls-30" d="M43.35,103.82a78.92,78.92,0,0,1-8.44-.41l0-.2c.14,0,14,1.66,26.05-1.7a35.56,35.56,0,0,0,10.66-4.59,9.92,9.92,0,0,0,2.75-2.5l.09,0h0l-.07-.07.11,0,.06.1A8.93,8.93,0,0,1,71.86,97,35.4,35.4,0,0,1,61,101.71,68.44,68.44,0,0,1,43.35,103.82Z"/><path class="cls-30" d="M43.35,108.44a77.14,77.14,0,0,1-8.44-.42l0-.2c.14,0,14,1.66,26.05-1.69a35.65,35.65,0,0,0,10.66-4.6A9.73,9.73,0,0,0,74.39,99l.09,0h0L74.41,99l.11,0,.06.1,0,.06h0c-.35.52-3.23,4.34-13.51,7.19A68.53,68.53,0,0,1,43.35,108.44Z"/><g class="cls-19"><path class="cls-26" d="M75.88,36.61l-.19,66.94c.1.09,7.73,7,7.71,14.33l.19-66.95C83.61,43.57,76,36.7,75.88,36.61Z"/><polygon class="cls-34" points="64.72 66.36 64.53 133.3 64.35 132.75 64.54 65.81 64.72 66.36"/><path class="cls-29" d="M84.5,51.7c0,.1,0,.21,0,.31a9.94,9.94,0,0,1-.37,1.85l-.09.26a6.22,6.22,0,0,1-.25.68c0,.08-.07.17-.1.26q-.19.42-.42.84l0,.05a8.71,8.71,0,0,1-.56.89l-.17.24c-.16.22-.34.44-.52.66l-.21.25c-.25.29-.52.57-.81.85s-.76.7-1.15,1l-.15.14c-.39.32-.79.62-1.19.92l-.36.25c-.29.2-.58.4-.88.59l-.41.26-.6.36-1.08.6-.52.27c-.39.2-.77.38-1.15.55l-.38.18c-.49.21-1,.41-1.46.59l-.38.14c-.35.12-.7.25-1,.35l-.51.17-.67.2-.48.13-.63.17-.41.1-.57.13-.33.07-.51.1-.25,0-.19,0-.35,0-.12,0-.26,0h-.06l-.15,0-.19,66.94.14,0h.09l.22,0,.16,0,.32-.05.19,0h.07l.2,0,.49-.1.35-.07.56-.13.42-.1.61-.16.5-.14.65-.2.34-.1L70,132l1-.36.37-.13c.48-.18,1-.38,1.46-.6l.36-.16c.39-.17.78-.36,1.17-.56a5.12,5.12,0,0,0,.52-.27c.36-.18.71-.38,1.07-.59l.34-.19.29-.18.38-.25c.3-.19.61-.4.91-.61l.33-.24c.41-.29.81-.6,1.21-.93l.11-.1.84-.73.34-.32c.29-.29.56-.57.81-.86l.21-.25.26-.3.25-.35c.06-.09.13-.17.19-.25.19-.29.38-.58.54-.87,0,0,0,0,0,0a.21.21,0,0,1,0-.06c.15-.28.28-.55.4-.83,0-.09.08-.18.12-.27l.12-.28.12-.37.09-.28c.09-.3.17-.6.23-.9h0a.22.22,0,0,0,0-.08,8.51,8.51,0,0,0,.13-.86c0-.11,0-.22,0-.33s0-.3,0-.45a2.81,2.81,0,0,0,0-.29q.09-33.47.19-66.94C84.54,51.2,84.52,51.45,84.5,51.7Z"/><path class="cls-25" d="M76.68,36.3C76.82,36.43,91,49.18,81,58.84c-6.65,6.42-15.84,7.47-16.23,7.52l-.18-.55c.09,0,9.18-1.07,15.59-7.25,9.72-9.37-4.11-21.83-4.25-22Z"/></g><path class="cls-30" d="M67.31,70h-.12v-.2s3.71.19,11.11-3.63c3.41-1.75,5.89-5.74,5.91-5.78l.17.1s-2.53,4.08-6,5.86C71.67,69.87,68,70,67.31,70Z"/><path class="cls-30" d="M67.31,75.14h-.12v-.2s3.71.19,11.11-3.63c3.41-1.76,5.89-5.75,5.91-5.79l.17.11s-2.53,4.07-6,5.86C71.67,75,68,75.14,67.31,75.14Z"/><path class="cls-30" d="M67.31,80.24h-.12V80s3.71.2,11.11-3.63c3.41-1.75,5.89-5.74,5.91-5.78l.17.1s-2.53,4.08-6,5.86C71.68,80.06,68,80.24,67.31,80.24Z"/><path class="cls-30" d="M67.31,85.33h-.12v-.2s3.71.19,11.11-3.63c3.41-1.76,5.89-5.75,5.91-5.79l.17.11s-2.53,4.08-6,5.86C71.67,85.15,68,85.33,67.31,85.33Z"/><path class="cls-30" d="M67.31,90.43h-.12v-.2s3.71.19,11.11-3.63c3.41-1.76,5.89-5.75,5.91-5.79l.17.11s-2.53,4.07-6,5.86C71.68,90.25,68,90.43,67.31,90.43Z"/><path class="cls-30" d="M67.31,95.53h-.12v-.2s3.71.19,11.11-3.63c3.41-1.76,5.89-5.74,5.91-5.78l.17.1s-2.53,4.08-6,5.86C71.67,95.35,68,95.53,67.31,95.53Z"/><path class="cls-30" d="M67.31,100.62h-.12v-.2s3.71.19,11.11-3.63C81.72,95,84.2,91,84.22,91l.17.11s-2.53,4.07-6,5.86C71.68,100.44,68,100.62,67.31,100.62Z"/><path class="cls-30" d="M67.3,105.72h-.11v-.2s3.72.18,11.11-3.64c3.41-1.75,5.89-5.74,5.91-5.78l.17.1s-2.53,4.08-6,5.86C71.67,105.54,68,105.72,67.3,105.72Z"/><path class="cls-30" d="M67.31,110.81h-.12v-.2s3.71.19,11.11-3.63c3.41-1.76,5.89-5.75,5.91-5.79l.17.11s-2.53,4.08-6,5.86C71.68,110.63,68,110.81,67.31,110.81Z"/><path class="cls-30" d="M66.94,115.91h-.11v-.2s3.71.18,11.11-3.63c3.41-1.76,5.88-5.75,5.91-5.79l.17.1s-2.53,4.08-6,5.86C71.31,115.73,67.62,115.91,66.94,115.91Z"/><path class="cls-30" d="M66.94,121.13h-.11v-.2s3.71.2,11.11-3.63c3.41-1.75,5.88-5.74,5.91-5.78l.17.1s-2.53,4.08-6,5.86C71.31,121,67.63,121.13,66.94,121.13Z"/><path class="cls-30" d="M66.82,126.34H66.7l0-.2s3.71.19,11.11-3.63c3.41-1.76,5.88-5.75,5.9-5.79l.17.11s-2.52,4.08-6,5.86C71.19,126.16,67.51,126.34,66.82,126.34Z"/><g class="cls-19"><path class="cls-35" d="M102.15,45.92a4.24,4.24,0,0,1,.1-.46s0,0,0-.05a4.84,4.84,0,0,1,.18-.49v0l.24-.47,0,0a3.52,3.52,0,0,1,.3-.45.08.08,0,0,1,0,0c.1-.13.21-.26.32-.38l.06-.07.28-.25.12-.11a3.39,3.39,0,0,1,.39-.27l2.08-1.2-3.42-2-2.08,1.2a3.24,3.24,0,0,0-.4.28l-.12.11a1.37,1.37,0,0,0-.18.16.3.3,0,0,0-.08.08l-.08.08-.08.08-.17.21-.06.08,0,0a.35.35,0,0,0,0,.08,1.88,1.88,0,0,0-.12.18l-.12.18v0h0l-.09.15-.09.18c0,.06,0,.11-.07.17h0a1.08,1.08,0,0,0-.08.19,1.59,1.59,0,0,0-.07.2l0,.1s0,0,0,0a.25.25,0,0,1,0,.07l-.06.24a.77.77,0,0,0,0,.15s0,.05,0,.07a.17.17,0,0,1,0,.07,3,3,0,0,0,0,.42l0,7.58,1.56-1,1.86,3,0-7.57a4.22,4.22,0,0,1,0-.49Z"/><path class="cls-36" d="M106.29,41.62V42l-2.08,1.2a3.89,3.89,0,0,0-1.77,3.07l0,7.57-.34.2,0-7.57a4.68,4.68,0,0,1,2.12-3.67Z"/></g><path class="cls-37" d="M.8,144.08a1.76,1.76,0,0,1,.63.29h0l.2.11.18.14c.24-.56,1.76-1.27.59-6.23-.08-.33-.14-.65-.2-1l-1.39-.09c.06.31.13.62.21.95C2,142.51,1.2,143.53.8,144.08Z"/><path class="cls-38" d="M1.81,144.62a3.34,3.34,0,0,1,.47.51,4.14,4.14,0,0,1,1.57-3.28s-.06.94,0,2.1l.69-6.35-2.31-.17c.06.31.12.63.2,1C3.57,143.35,2.05,144.06,1.81,144.62Z"/><path class="cls-38" d="M3.85,141.85a4.14,4.14,0,0,0-1.57,3.28,3.93,3.93,0,0,1,.7,1.42c.18.79,1.74,3,2.44,2.25.12-.13,0-.42-.35-.6l-.19-.1-.13,0h.06c-.74-.61-.95-2.55-1-4.1C3.79,142.79,3.85,141.85,3.85,141.85Z"/><path class="cls-39" d="M2.4,149.22a6.57,6.57,0,0,0-.61-1.56A8,8,0,0,1,2.4,149.22Z"/><path class="cls-39" d="M4.88,148.1l.19.1c.3.18.47.47.35.6-.7.74-2.26-1.46-2.44-2.25a3.93,3.93,0,0,0-.7-1.42,3.34,3.34,0,0,0-.47-.51l-.18-.14-.2-.11a1.71,1.71,0,0,0-.38.62l.85.39a6.58,6.58,0,0,0-.33,1.4,1.58,1.58,0,0,1,1.23,1.28A7.31,7.31,0,0,0,4,150.32a3.7,3.7,0,0,0,1.8-.71,2.79,2.79,0,0,0,1-1.52c0-.28-1.65-.08-2,0H4.75Z"/><path class="cls-40" d="M1.57,146.78c0,.14,0,.3-.06.45a3.58,3.58,0,0,1,.28.43,6.57,6.57,0,0,1,.61,1.56,3,3,0,0,1,.08.32,1.71,1.71,0,0,0,1.52.79H4a7.31,7.31,0,0,1-1.19-2.26A1.58,1.58,0,0,0,1.57,146.78Z"/><path class="cls-39" d="M1.57,146.78a6.58,6.58,0,0,1,.33-1.4L1.05,145a3.6,3.6,0,0,0-.17,1.6l.06,4.22.17.1.18-.08s0-2,.22-3.6C1.53,147.08,1.55,146.92,1.57,146.78Z"/><path class="cls-40" d="M.88,146.59l-.55-.69a3.43,3.43,0,0,1,0-.53h0c-.07-.15.31,5.17.31,5.17l.34.27Z"/><path class="cls-40" d="M.88,146.59a3.6,3.6,0,0,1,.17-1.6,1.71,1.71,0,0,1,.38-.62h0a1.76,1.76,0,0,0-.63-.29l-.08,0a1.18,1.18,0,0,0-.34.58.36.36,0,0,0,0,.11,2.41,2.41,0,0,0-.07.58,3.43,3.43,0,0,0,0,.53Z"/><path class="cls-41" d="M.86,142.79c-.28-1.7-.13-8.8-.11-10.35a54.9,54.9,0,0,1,.71-5.93c.31-2.46-.38-4.84-.7-7.31-1.22-2.3-1.06-4.1,1.37-7.85l2,.53c1,1.91,3.71-2.49,4-.2.44,3.17-1,9.62-2.08,13.33-.13.41.21,1.1.06,1.68A5.92,5.92,0,0,0,6,128.15c-.08.85-.35,3.64-.66,5.31-.26,1.44-.65,7.89-.68,8.9C4.43,143.75,1.88,143.93.86,142.79Z"/><path class="cls-42" d="M8,116.11A67.33,67.33,0,0,1,6.08,125a16.73,16.73,0,0,1,0,1.94c-.08.68-.5,5.37-.94,7.79l-.52,7.62s-.08,1.42-2.35,1.13c0,0,1.94-14.61,1.86-16.42s-.29-9.77.18-11.11A8.13,8.13,0,0,0,8,116.11Z"/><path class="cls-37" d="M5,147c.16,0,.46.18.64.27h0a1.31,1.31,0,0,1,.21.1l.18.14c.23-.57,1.72-1.32.4-6.25-.09-.33-.16-.64-.23-.95l-1.39-.05c.07.3.15.62.24.94C6.19,145.39,5.41,146.44,5,147Z"/><path class="cls-38" d="M6.06,147.51a3.2,3.2,0,0,1,.48.49A4.17,4.17,0,0,1,8,144.67s0,.94,0,2.1c.14-1.74.32-4.16.5-6.36l-2.32-.1c.07.31.14.62.23.95C7.78,146.19,6.29,146.94,6.06,147.51Z"/><path class="cls-38" d="M8,144.67A4.17,4.17,0,0,0,6.54,148a4,4,0,0,1,.75,1.4c.21.78,1.83,2.93,2.5,2.17.12-.13-.06-.41-.36-.59l-.19-.08-.14,0,.07,0c-.76-.58-1-2.51-1.12-4.07C8,145.61,8,144.67,8,144.67Z"/><path class="cls-39" d="M6.79,152.09a6.58,6.58,0,0,0-.66-1.54A7.9,7.9,0,0,1,6.79,152.09Z"/><path class="cls-39" d="M9.24,150.9l.19.08c.3.18.48.46.36.59-.67.76-2.29-1.39-2.5-2.17a4,4,0,0,0-.75-1.4,3.2,3.2,0,0,0-.48-.49l-.18-.14a1.31,1.31,0,0,0-.21-.1,1.76,1.76,0,0,0-.35.63l.86.36a6.36,6.36,0,0,0-.29,1.42,1.54,1.54,0,0,1,1.26,1.24,7.7,7.7,0,0,0,1.26,2.22,3.68,3.68,0,0,0,1.78-.76,2.8,2.8,0,0,0,1-1.56c0-.28-1.65,0-2,0l-.07,0Z"/><path class="cls-40" d="M5.89,149.68c0,.14,0,.29,0,.44s.18.26.28.43a6.58,6.58,0,0,1,.66,1.54,1.58,1.58,0,0,1,.09.31,1.72,1.72,0,0,0,1.55.75h0a7.7,7.7,0,0,1-1.26-2.22A1.54,1.54,0,0,0,5.89,149.68Z"/><path class="cls-39" d="M5.89,149.68a6.36,6.36,0,0,1,.29-1.42l-.86-.36a3.36,3.36,0,0,0-.12,1.61l.18,4.21.17.1.18-.09s0-1.95.12-3.61C5.86,150,5.87,149.82,5.89,149.68Z"/><path class="cls-40" d="M5.2,149.51l-.57-.68a3.25,3.25,0,0,1-.06-.52h0c-.07-.15.47,5.16.47,5.16l.34.25Z"/><path class="cls-40" d="M5.2,149.51a3.36,3.36,0,0,1,.12-1.61,1.76,1.76,0,0,1,.35-.63h0c-.18-.09-.48-.29-.64-.27L5,147a1.24,1.24,0,0,0-.33.59.43.43,0,0,1,0,.11,2.41,2.41,0,0,0,0,.59,3.25,3.25,0,0,0,.06.52Z"/><path class="cls-43" d="M5,145.73c-.2-1.71-.44-10.45-.34-12a52,52,0,0,1,1.2-5.85c.31-1.6-.13-3.49-.47-6-3.45-2.61-2.12-7.46.09-9.41l5.28-1a11.48,11.48,0,0,1,1.35,4.86,25.56,25.56,0,0,1-1.19,10.72c-.15.41-.41,1.1-.58,1.68a17.13,17.13,0,0,0-.63,2.67c-.12.85-.33,1.82-.6,3.5-.24,1.5-.42,8.25-.34,10.44C8.53,146.69,5.77,146.92,5,145.73Z"/><path class="cls-44" d="M8.79,145.39s-.26-8.8.82-13.2a27.89,27.89,0,0,1,1.52-5.64,24.91,24.91,0,0,0,1-10.17s-1.09,7.86-2.7,11.47c-1.92,4.3-2.53,8.91-2.64,18.66A2,2,0,0,0,8.79,145.39Z"/><path class="cls-45" d="M8.94,96.08s-3.84-.83-4.69-1.67l-1,.79s1.84,3.33,6.89,2.36A2.92,2.92,0,0,1,8.94,96.08Z"/><path class="cls-46" d="M2.38,93.8C.93,94.88-.24,96.56,2,102.73a15.49,15.49,0,0,1,1.17,6.63s4.38,4.84,8.31,1.26c0,0,.64-8.63.41-11.34,0,0,0-1.63-3.3-3C6.64,95.53,3.24,93.15,2.38,93.8Z"/><path class="cls-47" d="M10.11,111.46s-.72-1.92-1.8-5.49c-.47-1.55-2.41-9.53,2.63-8.23.6.15-4.22-2.84-7.82-4-.73-.24-3.39.25-2.23,4.9A32.49,32.49,0,0,0,2,103.82a12.24,12.24,0,0,1,1.17,5.54S6.67,113.44,10.11,111.46Z"/><path class="cls-38" d="M9.84,85.71A5,5,0,0,1,10,88.45a2.83,2.83,0,0,0,.38.84c.2.22.58.73,0,3.25,0,0,.32,1.54-2.76.49S3.52,91.31,3.29,90.2a10.7,10.7,0,0,1-.23-3.88A3.62,3.62,0,0,1,4.9,84.41a5.11,5.11,0,0,1,2.85-.28C8.64,84.38,9.64,84.91,9.84,85.71Z"/><path class="cls-38" d="M8.35,94.83s-1.41,1.51-3.89-.39l.11-.73v-.4l.68-3.94a17.57,17.57,0,0,0,1.63,3.38,7.68,7.68,0,0,0,1.37.88A1.93,1.93,0,0,0,8.35,94.83Z"/><path class="cls-48" d="M9,95l.5,1.59s-2.37,1.34-5.28-.81c-.46-.34-1.75-.93.06-2.2C4.26,93.54,5.1,96,9,95Z"/><path class="cls-49" d="M4.28,93.33s-2.44,1,.22,2.85a5.55,5.55,0,0,0,3.81.71s-2.47-.63-2.17-1.79A3.36,3.36,0,0,1,4.28,93.33Z"/><path class="cls-50" d="M10,85.14c-.07,2.66-3.9,6.37,2.3,12.14,0,0-8-.92-10.58-5.45-.33-.57-2.88-8.39,3.45-8.62C6.5,83.17,10.08,83.55,10,85.14Z"/><path class="cls-37" d="M9.92,86a4,4,0,0,1,.17.87A7.63,7.63,0,0,0,9.19,90c0,.55.23,2.93.68,3.37l-1.25.36s1.26-.09.15-.5C8.77,93.19,8,86.45,9.92,86Z"/><path class="cls-50" d="M10,85.14c-.06,2.32-3,5.42.36,10-2.54-.7-6-2.12-7.57-4.82-.21-.37-1.34-3.75-.43-6.17a4.65,4.65,0,0,1,2.81-.92C6.5,83.17,10.08,83.55,10,85.14Z"/><path class="cls-51" d="M10,85.46s-1.66.41-1.66,1.65a2.73,2.73,0,0,1,.42-2.18,2.13,2.13,0,0,0-1.6,2.18,1.83,1.83,0,0,1-.52-1.9s-1.54.88-.79,3.5A2.21,2.21,0,0,1,5,86.47s-1.36.8-.51,3.4c0,0-1.59-1.19-1.24-2.45,0,0-1,1.79.68,4.57,0,0-.57-.19-1.86-2.17,0,0-.29,2,2.2,4.59,0,0-4.89-2.76-3-9,0,0,2-4.73,8-1.65C9.69,84,10.39,84.74,10,85.46Z"/><path class="cls-47" d="M11.52,110.62S10,121,1,114c-1.25-1,2-2.24,2.52-7.34Z"/><path class="cls-46" d="M9.65,109.58s.52,5.65,1.64,6.27c0,0,1.13-.12,1.35-.67.29-.73-.37-2.25-1.12-5.31Z"/><path class="cls-52" d="M1.91,95.4c-.56-.7-.92,1.17.13,4.27s2.15,6.3,2.09,7.56S1.89,112.51,2,113c.29.9,5.8,3.19,6.58,1.7a8.39,8.39,0,0,0-.46-7.46s-2.37-5.34-.74-8.9C8,97.18,3.9,97.88,1.91,95.4Z"/><polygon class="cls-53" points="12.36 106.67 13.1 115.24 10.83 115.73 9.15 107.01 12.36 106.67"/><path class="cls-54" d="M13.1,115.24a3.07,3.07,0,0,0,.58,1.88,1.41,1.41,0,0,1,.12.87c-.1.75-.09,1.12-.33,1.27-1.36.86-2.62.61-2.74.4a1.86,1.86,0,0,0,.14-1.06c-.08-.36-.31-.69-.37-1s.23-1.64.27-2.32Z"/><path class="cls-55" d="M11.27,119.85a.57.57,0,0,1-.54-.19c-.24-.32.25-.63.14-1.06s-.31-.69-.37-1,.23-1.64.27-2.32h.29L11,116.4c-.15.9.41,1.11.48,1.4a2.85,2.85,0,0,1,.14,1A2.74,2.74,0,0,1,11.27,119.85Z"/><polygon class="cls-55" points="9.87 106.94 11.06 115.23 10.77 115.23 9.15 107.01 9.87 106.94"/><path class="cls-56" d="M11.68,98.59S9,97,8.16,100.27c0,0-.14,9.31,2.05,8.77,0,0,2.89.77,2.27-1.83C12.48,107.21,12.43,100,11.68,98.59Z"/><path class="cls-47" d="M12.18,99.45c.76,1.41.28,7.56.28,7.56.44,1.87-.55,2-1.13,2.09,0,0-.15.05-.15.05-2.22-1.52-2.07-9-2.07-9-.12-1.44.47-1.91,1.21-2A1.76,1.76,0,0,1,12.18,99.45Z"/><path class="cls-57" d="M6.12,116.41s-.19,3.67,1.11,5c0,0,.9,5.22-.23,8s-2.18,12.52-2.16,13.22c0,0-.84-9.37.49-12.34a12.88,12.88,0,0,0,.46-6.08l-.38-2.22a5.43,5.43,0,0,1-1.83-6.29A7.63,7.63,0,0,0,6.12,116.41Z"/><path class="cls-58" d="M.76,113.74s-1.71,2.9,0,5.46c0,0,.8,5.36.78,6S1,130.1.9,130.46s-.19,4.69-.19,4.69,1.37-6.87,1.56-8.32a37.68,37.68,0,0,0-.36-7.67A16.59,16.59,0,0,1,2,114.74Z"/></g></g></svg>