<svg xmlns="http://www.w3.org/2000/svg" xmlns:xlink="http://www.w3.org/1999/xlink" viewBox="0 0 183.72 167.71"><defs><style>.cls-1{mask:url(#mask);filter:url(#luminosity-noclip-2);}.cls-2{mix-blend-mode:multiply;}.cls-16,.cls-2{fill:url(#linear-gradient);}.cls-3{opacity:0.2;}.cls-4{fill:#181a18;}.cls-5{fill:#3d393b;}.cls-6{fill:#918e90;}.cls-7{fill:#706e70;}.cls-8{fill:#4c484b;}.cls-9{fill:#3d5174;}.cls-10{fill:#506486;}.cls-11{fill:#90a3c1;}.cls-12{fill:#040405;}.cls-13{fill:#7598ad;}.cls-14{opacity:0.45;}.cls-15{mask:url(#mask-2);}.cls-17{fill:#9cafa8;}.cls-18{fill:#7b8e86;}.cls-19{isolation:isolate;}.cls-20{fill:#8c2b2b;}.cls-21{fill:#9c3030;}.cls-22{fill:#4c1717;}.cls-23{fill:#611e1e;}.cls-24{fill:#b8b8b8;}.cls-25{fill:#fff;}.cls-26{fill:#c1c1c1;}.cls-27{fill:#dbdbdb;}.cls-28{fill:#6d6a6a;}.cls-29{fill:#dcdee0;}.cls-30{fill:#383333;}.cls-31{fill:#ddd;}.cls-32{fill:#c6c6c6;}.cls-33{fill:gray;}.cls-34{fill:#555050;}.cls-35{fill:#db1928;}.cls-36{fill:#600c16;}.cls-37,.cls-55{fill:#e8a476;}.cls-38{fill:#f1b488;}.cls-39{fill:#70afe9;}.cls-40{fill:#63a4d6;}.cls-41,.cls-44{fill:#89c2e4;}.cls-41,.cls-43,.cls-54,.cls-55,.cls-56,.cls-57,.cls-58{fill-rule:evenodd;}.cls-42{fill:#74b0ce;}.cls-43{fill:#aaddfb;}.cls-45{fill:#f7fcfc;}.cls-46{fill:#e27189;}.cls-47{fill:#f57c91;}.cls-48{fill:#e9f6fa;}.cls-49{fill:#dfe4e5;}.cls-50{fill:#3f210a;}.cls-51{fill:#301808;}.cls-52,.cls-57,.cls-58{fill:#e8e6e7;}.cls-52{opacity:0.17;}.cls-53,.cls-54{fill:#f1b287;}.cls-56{fill:#f98ca3;}.cls-57{opacity:0.44;}.cls-58{opacity:0.25;}.cls-59{filter:url(#luminosity-noclip);}</style><filter id="luminosity-noclip" x="146.67" y="-8397.2" width="7.13" height="32766" filterUnits="userSpaceOnUse" color-interpolation-filters="sRGB"><feFlood flood-color="#fff" result="bg"/><feBlend in="SourceGraphic" in2="bg"/></filter><mask id="mask" x="146.67" y="-8397.2" width="7.13" height="32766" maskUnits="userSpaceOnUse"><g class="cls-59"/></mask><linearGradient id="linear-gradient" x1="1106.54" y1="92.14" x2="1113.26" y2="92.92" gradientTransform="matrix(-1, 0, 0, 1, 1259.54, 0)" gradientUnits="userSpaceOnUse"><stop offset="0" stop-color="#fff"/><stop offset="1"/></linearGradient><filter id="luminosity-noclip-2" x="146.67" y="87.96" width="7.13" height="9" filterUnits="userSpaceOnUse" color-interpolation-filters="sRGB"><feFlood flood-color="#fff" result="bg"/><feBlend in="SourceGraphic" in2="bg"/></filter><mask id="mask-2" x="146.67" y="87.96" width="7.13" height="9" maskUnits="userSpaceOnUse"><g class="cls-1"><path class="cls-2" d="M150.06,96.47a7.53,7.53,0,0,1-3.39-5.89,2.29,2.29,0,0,1,3.73-2.13,7.48,7.48,0,0,1,3.4,5.89,2.57,2.57,0,0,1-1.11,2.36,2.08,2.08,0,0,1-1,.26A3.38,3.38,0,0,1,150.06,96.47Zm-2-7.71a2,2,0,0,0-.8,1.83,6.8,6.8,0,0,0,3.08,5.34,2,2,0,0,0,2,.23,2,2,0,0,0,.8-1.82A6.8,6.8,0,0,0,150.09,89h0a2.65,2.65,0,0,0-1.3-.4A1.33,1.33,0,0,0,148.1,88.76Z"/></g></mask></defs><g id="Camada_2" data-name="Camada 2"><g id="Layer_2" data-name="Layer 2"><g class="cls-3"><path class="cls-4" d="M51.53,137.82c11.84,6.84,11.9,17.92.13,24.76s-30.9,6.84-42.74,0S-3,144.66,8.78,137.82,39.68,131,51.53,137.82Z"/></g><g class="cls-3"><path class="cls-4" d="M163.11,86.4c27.35,15.8,27.5,41.41.32,57.21s-71.41,15.8-98.77,0-27.5-41.41-.32-57.21S135.74,70.61,163.11,86.4Z"/></g><path class="cls-5" d="M67.6,4.76a3.62,3.62,0,0,1,5.33-2.39L154.8,49a3.63,3.63,0,0,1,1.82,3.15V131a3.6,3.6,0,0,1-4.85,3.38,3.56,3.56,0,0,1-.58-.24L69.31,87.46a3.61,3.61,0,0,1-1.81-3.14V5.52A3.76,3.76,0,0,1,67.6,4.76Z"/><path class="cls-6" d="M153,43.51l5.77,3.31A3.85,3.85,0,0,1,160.56,50V57.4l-3.94,2.32V52.17a3.64,3.64,0,0,0-.26-1.27A3.6,3.6,0,0,0,154.8,49l-5.55-3.18Z"/><polygon class="cls-7" points="152.97 43.51 149.25 45.84 79.92 6.38 83.77 4.13 152.97 43.51"/><path class="cls-6" d="M67.6,4.76V4.7c0-2.79,6-6.31,10.38-3.9l5.79,3.33L79.92,6.38l-7-4A3.62,3.62,0,0,0,67.6,4.76Z"/><polygon class="cls-8" points="160.56 57.4 160.56 74.33 160.57 121.65 156.62 123.98 156.62 76.75 156.62 59.72 160.56 57.4"/><path class="cls-6" d="M151.86,134.4l-.09-.05a3.6,3.6,0,0,0,4.85-3.38v-7l3.95-2.33v8.52C160.57,133.93,154.28,135.79,151.86,134.4Z"/><polygon class="cls-9" points="98.03 15.3 104.33 18.85 104.33 17.33 98.03 13.77 98.03 15.3"/><polygon class="cls-10" points="105.76 18.08 104.33 18.85 104.33 17.33 105.76 16.56 105.76 18.08"/><polygon class="cls-11" points="105.76 16.56 104.33 17.33 98.03 13.77 99.47 13 105.76 16.56"/><path class="cls-12" d="M157.57,70.73a1,1,0,1,0,1-1.2A1.13,1.13,0,0,0,157.57,70.73Z"/><rect class="cls-12" x="157.11" y="87.9" width="2.96" height="9.13" rx="1.3" transform="translate(317.19 184.92) rotate(180)"/><path class="cls-13" d="M150.24,89.31c-1.51-.87-2.73-.16-2.74,1.57a6.06,6.06,0,0,0,2.72,4.73c1.51.87,2.75.17,2.75-1.57A6,6,0,0,0,150.24,89.31Z"/><g class="cls-14"><g class="cls-15"><path class="cls-16" d="M150.06,96.47a7.53,7.53,0,0,1-3.39-5.89,2.29,2.29,0,0,1,3.73-2.13,7.48,7.48,0,0,1,3.4,5.89,2.57,2.57,0,0,1-1.11,2.36,2.08,2.08,0,0,1-1,.26A3.38,3.38,0,0,1,150.06,96.47Zm-2-7.71a2,2,0,0,0-.8,1.83,6.8,6.8,0,0,0,3.08,5.34,2,2,0,0,0,2,.23,2,2,0,0,0,.8-1.82A6.8,6.8,0,0,0,150.09,89h0a2.65,2.65,0,0,0-1.3-.4A1.33,1.33,0,0,0,148.1,88.76Z"/></g></g><path class="cls-5" d="M150.24,90.38c-1-.58-1.81-.11-1.81,1a4,4,0,0,0,1.8,3.12c1,.58,1.81.11,1.82-1A4,4,0,0,0,150.24,90.38Z"/><polygon class="cls-17" points="70.97 84.13 71.14 4.75 144.33 46.64 144.33 48.45 144.16 127 70.96 85.12 70.97 84.13"/><polygon class="cls-18" points="73.39 83.66 73.39 82.68 73.56 6.14 71.14 4.75 70.97 84.14 70.97 85.12 144.16 127 144.16 124.16 73.39 83.66"/><g class="cls-19"><polygon class="cls-20" points="114.37 32.81 115.05 32.42 114.85 102.47 114.17 102.86 114.37 32.81"/><polygon class="cls-21" points="101.73 25.51 102.4 25.12 115.05 32.42 114.37 32.81 101.73 25.51"/><polygon class="cls-22" points="114.37 32.81 114.17 102.86 101.53 95.56 101.73 25.51 114.37 32.81"/></g><g class="cls-19"><polygon class="cls-20" points="103.68 29.25 105.7 28.08 105.5 98.13 103.48 99.3 103.68 29.25"/><polygon class="cls-21" points="71.85 10.87 73.87 9.7 105.7 28.08 103.68 29.25 71.85 10.87"/><polygon class="cls-23" points="103.68 29.25 103.48 99.3 71.65 80.92 71.85 10.87 103.68 29.25"/></g><g class="cls-19"><polygon class="cls-20" points="141.08 50.74 143.1 49.57 142.9 119.62 140.88 120.79 141.08 50.74"/><polygon class="cls-21" points="109.25 32.36 111.26 31.19 143.1 49.57 141.08 50.74 109.25 32.36"/><polygon class="cls-23" points="141.08 50.74 140.88 120.79 109.04 102.41 109.25 32.36 141.08 50.74"/></g><g class="cls-19"><polygon class="cls-24" points="99.7 36.32 106.43 32.41 106.23 100.25 99.5 104.16 99.7 36.32"/><polygon class="cls-25" points="66.79 19.65 75.49 14.55 106.43 32.41 99.7 36.32 66.79 19.65"/><polygon class="cls-26" points="99.7 36.32 99.5 104.16 66.6 87.5 66.79 19.65 99.7 36.32"/></g><g class="cls-19"><polygon class="cls-27" points="130.97 54.4 137.7 50.49 137.51 118.34 130.78 122.25 130.97 54.4"/><polygon class="cls-25" points="100.03 36.54 106.77 32.63 137.7 50.49 130.97 54.4 100.03 36.54"/><polygon class="cls-28" points="130.97 54.4 130.78 122.25 99.84 104.39 100.03 36.54 130.97 54.4"/></g><g class="cls-19"><path class="cls-26" d="M99,103.3l.15,0,.28-.07h0l.16-.05.19-66.94-.15,0-.12,0-.21,0-.21,0-.29.06-.31.06-.34.07-.51.08-.41.06-.61.07-.49,0-.4,0-.77,0-.43,0q-.56,0-1.17,0h-.09c-.44,0-.91,0-1.4,0H91.6l-1.47-.09H90c-.53,0-1.09-.1-1.65-.17l-.44,0c-.55-.08-1.12-.16-1.71-.26l-.13,0c-.61-.11-1.24-.24-1.88-.37l-.7-.16-1.44-.35-.74-.2-1.55-.46L79,34.55c-.79-.26-1.58-.53-2.4-.83-.5-.19-1-.38-1.44-.58-.25-.1-.51-.2-.75-.31s-.7-.31-1.05-.47L72.7,32c-.37-.17-.72-.35-1.06-.53l-.57-.29c-.53-.28-1-.56-1.53-.85a44,44,0,0,1-10.06-7.79l-.19,66.94a43.71,43.71,0,0,0,10.06,7.79c.5.29,1,.57,1.53.85l.52.27,1.12.55c.21.11.43.21.66.31l1.06.48.76.32.66.27.77.29c.82.31,1.62.59,2.41.84.25.09.49.15.74.23l1.17.36.42.11.72.19,1.46.36.69.16.38.08c.51.11,1,.2,1.51.29H86l1.33.21.44.06.42,0c.56.07,1.11.13,1.64.17h.1c.52,0,1,.07,1.48.08l.37,0h.29c.38,0,.75,0,1.11,0h.08c.31,0,.62,0,.91,0h.26l.42,0,.81,0,.34,0,.19,0,.4,0,.53-.06.46-.07.43-.07.15,0,.29-.06.23,0Z"/><path class="cls-25" d="M99.42,35.7l.45.49c-.37.11-9.19,2.77-23.25-2.47a47.16,47.16,0,0,1-7.08-3.35,44,44,0,0,1-10.06-7.79l.85-.25A42.78,42.78,0,0,0,70.2,30a46.1,46.1,0,0,0,6.93,3.27C90.72,38.32,99.34,35.73,99.42,35.7Z"/></g><g class="cls-19"><path class="cls-26" d="M99.05,103.35h.07l.14,0h.06l.07,0,.08,0,.19-66.94-.23,0h0l-.2,0h-.1a.76.76,0,0,1-.16,0l-.14,0-.24,0-.18,0-.35,0-.12,0-.58.08h-.09l-.57.06h-.13c-.34,0-.71.07-1.1.09H95.3L94,37h-.16c-.39,0-.8,0-1.22,0h-.06l-1.3,0H91l-1.29-.06h-.19l-1.25-.08-.35,0-1.48-.14-.2,0-1.37-.17-.42-.06-1.68-.26-.3-.06c-.53-.09-1.06-.2-1.61-.31l-.32-.06c-.69-.14-1.39-.3-2.11-.48l-.42-.1c-.71-.18-1.44-.37-2.18-.58l-.51-.15c-.44-.12-.88-.26-1.33-.4l-.56-.17-1.88-.63c-.62-.21-1.22-.43-1.8-.65l-.6-.23L68,31.87l-.62-.25-1.06-.44L65.8,31c-.5-.21-1-.43-1.43-.64l-.08,0L63,29.69l-.4-.2-.85-.43-.39-.2-.79-.42-.3-.17-1-.54a33.5,33.5,0,0,1-4-2.65L55.11,92a33.5,33.5,0,0,0,4,2.65l1,.54.32.18.78.41.39.2.86.44.38.18c.86.42,1.8.86,2.81,1.3l.4.17,1.18.49.51.21.49.2.76.29.5.19,1.83.66c.64.23,1.26.43,1.88.63l.54.17q.7.22,1.41.42l.3.09.12,0c.76.21,1.5.41,2.23.59l.39.09,2.1.48.12,0,.26,0,1.56.3.32.06,1.69.27.15,0,.23,0,1.35.17.25,0c.51.06,1,.1,1.49.14h.12l.18,0,1.3.08.17,0,1.32,0h.29l1.31,0h.13l1.12,0h.22l1.24-.07h.18c.38,0,.73,0,1.06-.09h.09l.11,0,.46,0,.18,0,.55-.07.15,0,.34,0,.15,0,.29,0h.1l.15,0Z"/><path class="cls-25" d="M99.28,35.81l.38.51c-.46.11-11.48,2.69-28.16-3.13a71.61,71.61,0,0,1-12.18-5.46,33.5,33.5,0,0,1-4-2.65l.79-.32A29.69,29.69,0,0,0,60,27.33a70.07,70.07,0,0,0,12,5.39C88.22,38.38,99.18,35.84,99.28,35.81Z"/></g><g class="cls-19"><path class="cls-29" d="M97.94,103.64H98l.36-.08h.08l.29-.07h.07l.22,0h.06l.16,0,0,0,.1,0h.08l.19-66.94h0l-.08,0h0l-.13,0-.06,0-.16,0-.1,0-.2,0-.12,0-.24.06-.15,0-.28.06-.19,0-.3,0h0l-.7.12-.19,0-.78.12h-.11l-1,.13-.2,0-.89.1-.25,0-1.6.14h-.27q-.83.06-1.74.09h-.35q-.72,0-1.47,0h-.14c-.51,0-1,0-1.58,0h-.44l-1.28-.05h-.27l-1.57-.11-.5,0-1.09-.11-.54-.06-1.15-.14-.5-.07c-.54-.08-1.08-.16-1.63-.26l-.24,0-1.45-.28-.51-.11-1.36-.3-.56-.14c-.58-.14-1.16-.29-1.75-.46-1.05-.3-2.12-.63-3.2-1-.6-.21-1.17-.43-1.72-.65l-.35-.14L65,33.16,64.54,33c-.33-.16-.65-.31-1-.47l-.39-.19c-.42-.22-.82-.43-1.2-.65-5.61-3.24-6.73-6.45-6.78-6.63L55,92c.06.17,1.18,3.38,6.79,6.62.38.22.78.43,1.19.65l.41.2.93.45.49.23,1.07.45.45.19.1,0c.51.2,1,.4,1.6.59,1.68.59,3.34,1.07,5,1.48l.49.12,1.43.32.29.07.18,0c.55.11,1.11.22,1.66.31h0l1.71.27h.09l.27,0,1.26.17.5,0,1.21.12.25,0h.1l1.64.11h.19l1.39,0H86c1.16,0,2.27,0,3.31,0h.25q.94,0,1.8-.09h.23l1.61-.14h.09l.2,0,.81-.08.28,0,.93-.12.24,0,.63-.1.28,0,.55-.09.15,0h.08Z"/><path class="cls-25" d="M99.25,35.86l.42.5a58.43,58.43,0,0,1-31.44-1.92A36.38,36.38,0,0,1,62,31.64c-5.61-3.24-6.73-6.45-6.78-6.63l.94-.1s1.12,3.21,6.6,6.37a34.63,34.63,0,0,0,6,2.68A56.7,56.7,0,0,0,99.25,35.86Z"/></g><path class="cls-30" d="M83.46,40c-1.66,0-3.52,0-5.6-.13-15.74-.66-20.94-6.75-21-6.82s-.08-.13-.06-.18l.09,0H57c.07.21,1.56,1.76,4.84,3.3,3,1.41,8.17,3.15,16,3.48,15.14.64,18.84-1.42,18.87-1.44l.11.17C96.72,38.52,94,40,83.46,40Z"/><path class="cls-30" d="M83.46,44.41c-1.67,0-3.52,0-5.6-.13-15.73-.66-20.94-6.76-21-6.82s-.08-.13-.06-.19l.09,0H57c.07.22,1.56,1.76,4.84,3.31,3,1.41,8.17,3.15,16,3.48,15.13.64,18.84-1.42,18.87-1.44l.11.17C96.72,42.88,94,44.41,83.46,44.41Z"/><path class="cls-30" d="M83.46,48.77c-1.66,0-3.52,0-5.6-.12-15.74-.67-20.94-6.76-21-6.82s-.08-.13-.06-.19l.19.06-.1,0H57c.07.22,1.56,1.76,4.84,3.31,3,1.4,8.17,3.15,16,3.48C93,49.09,96.71,47,96.74,47l.11.17C96.72,47.25,94,48.77,83.46,48.77Z"/><path class="cls-30" d="M83.46,53.14c-1.66,0-3.52,0-5.6-.12-15.74-.67-20.94-6.76-21-6.82s-.08-.13-.06-.19l.19.06-.1,0H57c.07.22,1.56,1.76,4.84,3.31,3,1.4,8.17,3.15,16,3.48,15.13.63,18.84-1.43,18.87-1.45l.11.18C96.72,51.62,94,53.14,83.46,53.14Z"/><path class="cls-30" d="M83.46,57.51c-1.66,0-3.52,0-5.6-.13-15.73-.66-20.94-6.75-21-6.81s-.08-.13-.06-.19l.09,0H57c.07.21,1.56,1.76,4.84,3.3,3,1.41,8.17,3.15,16,3.48,15.13.64,18.84-1.42,18.87-1.44l.11.17C96.72,56,94,57.51,83.46,57.51Z"/><path class="cls-30" d="M83.46,61.88c-1.66,0-3.52,0-5.6-.13-15.73-.66-20.94-6.75-21-6.81s-.08-.14-.06-.19l.09,0H57c.07.21,1.56,1.75,4.84,3.3,3,1.41,8.17,3.15,16,3.48,15.14.64,18.84-1.42,18.87-1.44l.11.17C96.72,60.36,94,61.88,83.46,61.88Z"/><path class="cls-30" d="M83.46,66.24c-1.66,0-3.52,0-5.6-.12-15.74-.66-20.94-6.76-21-6.82s-.08-.13-.06-.19l.19.07-.1,0H57c.07.22,1.56,1.76,4.84,3.31,3,1.4,8.17,3.15,16,3.48,15.14.64,18.84-1.42,18.87-1.44l.11.17C96.72,64.73,94,66.24,83.46,66.24Z"/><path class="cls-30" d="M83.46,70.61c-1.66,0-3.52,0-5.6-.12-15.74-.67-20.94-6.76-21-6.82s-.08-.13-.06-.19l.19.06-.1,0H57c.07.22,1.56,1.76,4.84,3.31,3,1.4,8.17,3.15,16,3.48,15.14.64,18.84-1.42,18.87-1.44l.11.17C96.72,69.09,94,70.61,83.46,70.61Z"/><path class="cls-30" d="M83.46,75c-1.67,0-3.52,0-5.6-.12-15.74-.67-20.94-6.76-21-6.82s-.08-.13-.06-.19l.09,0H57c.07.22,1.56,1.76,4.84,3.31,3,1.4,8.17,3.15,16,3.48,15.13.63,18.84-1.43,18.87-1.45l.11.18C96.72,73.46,94,75,83.46,75Z"/><path class="cls-30" d="M83.46,79.35c-1.67,0-3.52,0-5.6-.13-15.75-.66-20.94-6.75-21-6.81s-.08-.13-.06-.19l.09,0H57c.07.21,1.57,1.76,4.84,3.3,3,1.41,8.17,3.15,16,3.48,15.13.64,18.84-1.42,18.87-1.44l.11.17C96.72,77.83,94,79.35,83.46,79.35Z"/><path class="cls-30" d="M83.47,83.72c-1.66,0-3.53,0-5.61-.13-15.74-.66-20.94-6.75-21-6.81s-.08-.14-.06-.19l.19.06-.1,0H57c.07.21,1.56,1.75,4.84,3.3,3,1.41,8.17,3.15,16,3.48C93,84,96.71,82,96.74,82l.11.17C96.72,82.2,94,83.72,83.47,83.72Z"/><path class="cls-30" d="M83.46,88.08c-1.66,0-3.52,0-5.6-.12-15.74-.66-20.94-6.76-21-6.82S56.8,81,56.82,81L57,81l-.1,0H57c.07.21,1.56,1.75,4.84,3.3,3,1.4,8.17,3.15,16,3.48,15.14.64,18.84-1.42,18.87-1.44l.11.17C96.72,86.56,94,88.08,83.46,88.08Z"/><path class="cls-30" d="M83.46,92.45c-1.66,0-3.52,0-5.6-.12-15.73-.66-20.94-6.76-21-6.82s-.08-.13-.06-.19l.09,0H57c.07.22,1.56,1.76,4.84,3.31,3,1.4,8.17,3.15,16,3.48,15.14.64,18.84-1.42,18.87-1.44l.11.17C96.72,90.93,94,92.45,83.46,92.45Z"/><g class="cls-19"><path class="cls-29" d="M99.92,36.23c-.06.18-1.18,3.39-6.79,6.63-.37.22-.78.43-1.19.65l-.39.19-1,.47-.46.21L89,44.87l-.35.14c-.55.22-1.12.44-1.72.65-1.08.38-2.15.71-3.2,1-.59.16-1.17.32-1.75.46l-.56.14-1.36.3-.5.11L78.07,48l-.24,0c-.55.1-1.09.18-1.63.26l-.5.07-1.15.14-.54.06-1.09.11-.49,0-1.58.11h-.26l-1.28.05h-.45c-.54,0-1.06,0-1.57,0h-.14c-.51,0-1,0-1.48,0h-.35q-.9,0-1.74-.09l-.27,0c-.55,0-1.09-.08-1.6-.13l-.25,0-.89-.1-.2,0-1-.13-.12,0-.78-.12-.18,0L57.6,48h-.05L57.26,48l-.2,0-.28,0-.14,0-.25-.06-.12,0-.2-.05-.1,0-.16,0h-.06l-.13,0h0l-.08,0h0l.19,66.94h.08l.1,0,.05,0,.16,0,.06,0,.23.05.06,0,.3.06h.07l.37.08h.07l.48.09h.07l.15,0,.55.09.28,0,.64.1.23,0,.94.12.27,0c.26,0,.53.07.81.09l.2,0h.1l1.6.14h.23l1.8.1h.25c1,0,2.15,0,3.31,0h.33l1.39-.05H71l1.63-.11h.11l.25,0,1.21-.12.49-.06c.42,0,.84-.1,1.27-.16l.26,0h.1l1.7-.27h0c.55-.09,1.1-.2,1.66-.31l.17,0,.3-.07,1.42-.32.49-.12c1.63-.41,3.29-.89,5-1.48.55-.19,1.08-.39,1.59-.59l.11,0,.44-.19,1.08-.45.49-.23.93-.45.4-.2c.42-.22.82-.43,1.19-.65,5.61-3.24,6.73-6.45,6.79-6.63Z"/><path class="cls-31" d="M55.88,47.08l-.42.5A58.43,58.43,0,0,0,86.9,45.66a36,36,0,0,0,6.23-2.8c5.61-3.24,6.73-6.45,6.79-6.63l-.94-.1s-1.12,3.21-6.6,6.37a35.88,35.88,0,0,1-6,2.69A56.76,56.76,0,0,1,55.88,47.08Z"/></g><g class="cls-19"><path class="cls-32" d="M129.66,50.6c-1.21-2.79-3.82-5.07-7-6.92l-1.13-.62-.31-.16-1.08-.53-.11,0q-.58-.28-1.2-.54l-.32-.14-1.13-.46-.08,0h0c-1-.39-2-.74-2.94-1.07h0c-1-.32-2-.62-2.91-.89h0l-.07,0-1.47-.4-.15,0-1.4-.35-.25-.06-1.28-.3-.26-.06-1.16-.25-.11,0-.35-.07-.34-.07-.4-.08-.41-.07-.31-.06-.49-.09-.19,0L101.52,37h-.08l-.45-.08h0l-1.21-.17L99.55,104h.17l.24,0,.12,0,.21,0,.11,0,.3,0,.14,0,.36.06.15,0,.47.08.11,0,.62.11.25,0,.44.08.32.06.43.09.34.06.51.11.29.06c.39.08.79.16,1.2.26l.26,0,1.28.3.26.06,1.38.35.19,0,1.33.36.22.06c.94.27,1.91.57,2.87.89h0c1,.32,2,.67,2.92,1l.15.06,1.08.45.34.14c.4.17.8.35,1.19.54l.11,0c.37.17.72.35,1.07.53l.32.16,1.13.62c3.19,1.85,5.8,4.13,7,6.93a11.06,11.06,0,0,1,1,4.43L130.62,55A11,11,0,0,0,129.66,50.6Z"/><polygon class="cls-33" points="128.32 62.5 128.13 129.73 127.33 129.42 127.51 62.19 128.32 62.5"/><path class="cls-26" d="M131.58,55.66l0,.41c0,.14,0,.27-.05.41s0,.26-.07.38,0,.24-.07.36-.07.29-.11.43a2.81,2.81,0,0,1-.08.31l-.15.43-.09.25c-.07.18-.15.36-.23.53s0,.12-.07.17c-.11.22-.21.44-.33.64a.21.21,0,0,1,0,.06,7.07,7.07,0,0,1-.38.61l-.09.14c-.13.2-.27.38-.39.54l-.09.11-.2.24-.11.12-.15.17-.1.11a.68.68,0,0,1-.12.12l-.09.09-.08.08-.06.06-.08.07-.19,67.23.08-.07,0,0a0,0,0,0,0,0,0l.09-.08.09-.09a.52.52,0,0,0,.1-.11l.13-.12.12-.14.14-.15.16-.21.1-.12,0,0c.12-.16.26-.34.39-.54l.09-.14c.13-.18.25-.38.38-.6l0-.06h0q.16-.3.33-.63a1.54,1.54,0,0,1,.08-.19c.08-.16.15-.33.22-.51a.54.54,0,0,1,0-.11.84.84,0,0,1,.05-.17c0-.13.09-.26.13-.4l.09-.32c0-.14.08-.29.11-.44a1.46,1.46,0,0,0,.05-.2s0-.09,0-.13,0-.29.07-.43,0-.24.05-.36l0-.46c0-.09,0-.17,0-.26v-.27l.19-67.22C131.6,55.29,131.59,55.48,131.58,55.66Z"/><path class="cls-25" d="M123.34,43.3c3.3,1.91,6,4.28,7.25,7.17a10.28,10.28,0,0,1-2.27,12l-.81-.31a10.07,10.07,0,0,0,2.15-11.59c-1.21-2.79-3.82-5.07-7-6.92-9-5.2-22.72-6.94-22.91-7l.2-.55C100.13,36.19,114.09,38,123.34,43.3Z"/></g><path class="cls-30" d="M67.2,53.11a77.14,77.14,0,0,1-8.44-.42l0-.2c.14,0,13.95,1.66,26.05-1.69a35.47,35.47,0,0,0,10.65-4.59,9.63,9.63,0,0,0,2.75-2.51l.09,0h0l-.07-.08.11,0,.06.1,0,.06h0c-.34.53-3.23,4.34-13.51,7.19A68,68,0,0,1,67.2,53.11Z"/><path class="cls-30" d="M67.2,57.72a77.14,77.14,0,0,1-8.44-.42l0-.2c.14,0,13.95,1.66,26.05-1.69a35.47,35.47,0,0,0,10.65-4.59,9.63,9.63,0,0,0,2.75-2.51l.09,0h0l-.07-.08.12,0,.05.1a8.79,8.79,0,0,1-2.72,2.56A35.4,35.4,0,0,1,84.89,55.6,68,68,0,0,1,67.2,57.72Z"/><path class="cls-30" d="M67.2,62.33a77.14,77.14,0,0,1-8.44-.42l0-.2c.14,0,13.95,1.66,26.05-1.69a35.47,35.47,0,0,0,10.65-4.59,9.63,9.63,0,0,0,2.75-2.51l.09,0h0l-.07-.07.11,0,.06.1,0,.06h0c-.34.53-3.23,4.34-13.51,7.19A68,68,0,0,1,67.2,62.33Z"/><path class="cls-30" d="M67.2,66.94a77.14,77.14,0,0,1-8.44-.42l0-.2c.14,0,13.95,1.66,26.05-1.69A35.47,35.47,0,0,0,95.49,60a9.63,9.63,0,0,0,2.75-2.51l.09,0h0l-.07-.07.11,0,.06.1,0,.06h0c-.34.53-3.23,4.34-13.51,7.19A68.1,68.1,0,0,1,67.2,66.94Z"/><path class="cls-30" d="M67.2,71.55a77.14,77.14,0,0,1-8.44-.42l0-.19c.14,0,13.95,1.65,26.05-1.7a35.47,35.47,0,0,0,10.65-4.59,9.63,9.63,0,0,0,2.75-2.51l.09,0h0l-.07-.07.12,0,.05.1a8.79,8.79,0,0,1-2.72,2.56,35.4,35.4,0,0,1-10.82,4.69A68.1,68.1,0,0,1,67.2,71.55Z"/><path class="cls-30" d="M67.2,76.16a77.14,77.14,0,0,1-8.44-.42l0-.19c.14,0,13.95,1.65,26.05-1.7a35.47,35.47,0,0,0,10.65-4.59,9.63,9.63,0,0,0,2.75-2.51l.09,0h0l-.07-.07.11,0,.06.1,0,.06h0c-.34.52-3.23,4.33-13.51,7.18A68.1,68.1,0,0,1,67.2,76.16Z"/><path class="cls-30" d="M67.19,80.77a82.17,82.17,0,0,1-8.43-.41l0-.2c.14,0,13.95,1.65,26.05-1.7a35.47,35.47,0,0,0,10.65-4.59,9.63,9.63,0,0,0,2.75-2.51l.09,0h0l-.07-.07.12,0,.05.1A8.79,8.79,0,0,1,95.71,74a35.4,35.4,0,0,1-10.82,4.69A68.12,68.12,0,0,1,67.19,80.77Z"/><path class="cls-30" d="M67.2,85.38A82.26,82.26,0,0,1,58.76,85l0-.2c.14,0,13.95,1.65,26.05-1.7a35.47,35.47,0,0,0,10.65-4.59A9.63,9.63,0,0,0,98.24,76l.09,0h0l-.07-.07.12,0,.05.1a9,9,0,0,1-2.72,2.55,35.4,35.4,0,0,1-10.82,4.69A68,68,0,0,1,67.2,85.38Z"/><path class="cls-30" d="M67.2,90a82.26,82.26,0,0,1-8.44-.41l0-.2c.14,0,13.95,1.65,26.05-1.7a35.47,35.47,0,0,0,10.65-4.59,9.46,9.46,0,0,0,2.75-2.51l.09,0h0l-.07-.07.12,0,.05.1a9,9,0,0,1-2.72,2.55,35.15,35.15,0,0,1-10.82,4.69A68,68,0,0,1,67.2,90Z"/><path class="cls-30" d="M67.21,94.6a79,79,0,0,1-8.45-.41l0-.2c.14,0,13.95,1.66,26.05-1.7A35.47,35.47,0,0,0,95.49,87.7a9.71,9.71,0,0,0,2.75-2.5l.09,0h0l-.07-.07.11,0,.06.1,0,.06h0c-.34.52-3.22,4.33-13.51,7.19A68.42,68.42,0,0,1,67.21,94.6Z"/><path class="cls-30" d="M67.2,99.21a78.92,78.92,0,0,1-8.44-.41l0-.2c.14,0,13.95,1.66,26.05-1.7a35.47,35.47,0,0,0,10.65-4.59,9.71,9.71,0,0,0,2.75-2.5l.09,0h0l-.07-.07.12,0,.05.1a8.93,8.93,0,0,1-2.72,2.56A35.66,35.66,0,0,1,84.89,97.1,68.49,68.49,0,0,1,67.2,99.21Z"/><path class="cls-30" d="M67.21,103.82a79,79,0,0,1-8.45-.41l0-.2c.14,0,13.95,1.66,26.05-1.7a35.47,35.47,0,0,0,10.65-4.59,9.71,9.71,0,0,0,2.75-2.5l.09,0h0l-.07-.07.12,0,.05.1A8.93,8.93,0,0,1,95.71,97a35.4,35.4,0,0,1-10.82,4.69A68.42,68.42,0,0,1,67.21,103.82Z"/><path class="cls-30" d="M67.2,108.44a77.14,77.14,0,0,1-8.44-.42l0-.2c.14,0,13.95,1.66,26.05-1.69a35.68,35.68,0,0,0,10.65-4.6A9.54,9.54,0,0,0,98.24,99l.09,0h0L98.26,99l.11,0,.06.1,0,.06h0c-.34.52-3.22,4.34-13.51,7.19A68.48,68.48,0,0,1,67.2,108.44Z"/><g class="cls-19"><path class="cls-26" d="M99.73,36.61l-.19,66.94c.1.09,7.73,7,7.71,14.33l.19-66.95C107.46,43.57,99.84,36.7,99.73,36.61Z"/><polygon class="cls-34" points="88.57 66.36 88.38 133.3 88.2 132.75 88.39 65.81 88.57 66.36"/><path class="cls-29" d="M108.35,51.7c0,.1,0,.21,0,.31a9.19,9.19,0,0,1-.37,1.85c0,.09-.06.18-.08.26-.08.23-.16.45-.25.68s-.07.17-.11.26c-.13.28-.26.56-.42.84,0,0,0,0,0,.05-.17.3-.36.59-.56.89l-.18.24c-.16.22-.33.44-.52.66a2.52,2.52,0,0,1-.21.25,10.67,10.67,0,0,1-.81.85c-.37.37-.76.7-1.15,1l-.15.14c-.39.32-.79.62-1.19.92-.12.08-.24.16-.35.25l-.88.59-.42.26c-.19.13-.39.24-.59.36-.36.21-.73.41-1.09.6-.17.09-.34.19-.52.27-.39.2-.77.38-1.15.55l-.38.18c-.49.21-1,.41-1.46.59l-.37.14c-.36.12-.7.25-1,.35l-.51.17-.67.2-.48.13-.62.17-.42.1L90.8,66l-.34.07-.51.1-.25,0-.18,0-.35,0-.13,0-.25,0h-.07l-.15,0-.19,66.94.15,0h.08l.22,0,.17,0,.31-.05.2,0h.07l.2,0,.48-.1.36-.07.55-.13.42-.1.61-.16.5-.14.65-.2.34-.1.19-.07,1-.36.37-.13q.72-.27,1.47-.6l.35-.16c.39-.17.78-.36,1.17-.56.18-.08.35-.17.53-.27.35-.18.7-.38,1.06-.59l.35-.19.28-.18.38-.25c.31-.19.61-.4.91-.61l.33-.24c.41-.29.81-.6,1.21-.93l.11-.1.84-.73.34-.32c.3-.29.56-.57.81-.86.08-.08.15-.17.22-.25l.25-.3c.09-.12.17-.24.26-.35l.18-.25c.2-.29.38-.58.55-.87v0l0-.06c.15-.28.28-.55.41-.83l.11-.27.12-.28c0-.13.08-.25.12-.37s.07-.19.09-.28c.09-.3.17-.6.23-.9h0a.22.22,0,0,0,0-.08,8.51,8.51,0,0,0,.13-.86c0-.11,0-.22,0-.33s0-.3,0-.45v-.29q.09-33.47.19-66.94C108.39,51.2,108.37,51.45,108.35,51.7Z"/><path class="cls-25" d="M100.53,36.3c.14.13,14.3,12.88,4.27,22.54C98.15,65.26,89,66.31,88.57,66.36l-.18-.55c.09,0,9.18-1.07,15.59-7.25,9.72-9.37-4.11-21.83-4.25-22Z"/></g><path class="cls-30" d="M91.16,70H91l0-.2s3.71.19,11.11-3.63c3.4-1.75,5.88-5.74,5.9-5.78l.17.1s-2.53,4.08-6,5.86C95.52,69.87,91.84,70,91.16,70Z"/><path class="cls-30" d="M91.16,75.14H91l0-.2s3.7.19,11.11-3.63c3.4-1.76,5.88-5.75,5.9-5.79l.17.11s-2.53,4.07-6,5.86C95.53,75,91.84,75.14,91.16,75.14Z"/><path class="cls-30" d="M91.16,80.24H91l0-.2s3.7.2,11.11-3.63c3.4-1.75,5.88-5.74,5.9-5.78l.17.1s-2.53,4.08-6,5.86C95.53,80.06,91.84,80.24,91.16,80.24Z"/><path class="cls-30" d="M91.16,85.33H91l0-.2s3.7.19,11.11-3.63c3.4-1.76,5.88-5.75,5.9-5.79l.17.11s-2.53,4.08-6,5.86C95.52,85.15,91.84,85.33,91.16,85.33Z"/><path class="cls-30" d="M91.16,90.43H91l0-.2s3.7.19,11.11-3.63c3.4-1.76,5.88-5.75,5.9-5.79l.17.11s-2.53,4.07-6,5.86C95.53,90.25,91.84,90.43,91.16,90.43Z"/><path class="cls-30" d="M91.16,95.53H91l0-.2s3.7.19,11.11-3.63c3.4-1.76,5.88-5.74,5.9-5.78l.17.1s-2.53,4.08-6,5.86C95.52,95.35,91.84,95.53,91.16,95.53Z"/><path class="cls-30" d="M91.16,100.62H91l0-.2s3.7.19,11.11-3.63c3.4-1.76,5.88-5.75,5.9-5.79l.17.11s-2.53,4.07-6,5.86C95.53,100.44,91.84,100.62,91.16,100.62Z"/><path class="cls-30" d="M91.16,105.72H91l0-.2s3.71.18,11.11-3.64c3.4-1.75,5.88-5.74,5.9-5.78l.17.1s-2.53,4.08-6,5.86C95.52,105.54,91.84,105.72,91.16,105.72Z"/><path class="cls-30" d="M91.16,110.81H91l0-.2s3.71.19,11.11-3.63c3.4-1.76,5.88-5.75,5.9-5.79l.17.11s-2.53,4.08-6,5.86C95.53,110.63,91.85,110.81,91.16,110.81Z"/><path class="cls-30" d="M90.79,115.91h-.11v-.2s3.72.18,11.11-3.63c3.41-1.76,5.88-5.75,5.91-5.79l.17.1s-2.53,4.08-6,5.86C95.16,115.73,91.47,115.91,90.79,115.91Z"/><path class="cls-30" d="M90.8,121.13h-.12v-.2s3.71.2,11.11-3.63c3.41-1.75,5.88-5.74,5.91-5.78l.17.1s-2.53,4.08-6,5.86C95.16,121,91.48,121.13,90.8,121.13Z"/><path class="cls-30" d="M90.67,126.34h-.11v-.2s3.71.19,11.11-3.63c3.41-1.76,5.88-5.75,5.91-5.79l.17.11s-2.53,4.08-6,5.86C95.05,126.16,91.36,126.34,90.67,126.34Z"/><g class="cls-19"><path class="cls-35" d="M126,45.92c0-.15.06-.3.1-.46a.08.08,0,0,0,0-.05,4.84,4.84,0,0,1,.18-.49v0c.08-.16.16-.32.25-.47s0,0,0,0a3.52,3.52,0,0,1,.3-.45l0,0c.11-.13.21-.26.32-.38l.06-.07.28-.25.12-.11a3.51,3.51,0,0,1,.4-.27l2.07-1.2-3.42-2-2.08,1.2a3.16,3.16,0,0,0-.39.28.69.69,0,0,0-.13.11l-.18.16a.6.6,0,0,0-.08.08l-.08.08-.07.08-.18.21,0,.08,0,0a.35.35,0,0,1,0,.08l-.12.18a1.74,1.74,0,0,0-.11.18v0h0a1.09,1.09,0,0,0-.08.15.76.76,0,0,0-.09.18,1.3,1.3,0,0,0-.08.17h0c0,.06,0,.12-.08.19s0,.13-.07.2l0,.1a.43.43,0,0,0,0,0l0,.07-.06.24a.77.77,0,0,1,0,.15s0,.05,0,.07,0,.05,0,.07,0,.28,0,.42l0,7.58,1.56-1,1.86,3,0-7.57a2.77,2.77,0,0,1,0-.49Z"/><path class="cls-36" d="M130.14,41.62V42l-2.07,1.2a3.87,3.87,0,0,0-1.78,3.07l0,7.57-.34.2,0-7.57a4.63,4.63,0,0,1,2.12-3.67Z"/></g><path class="cls-37" d="M24.65,144.08a1.76,1.76,0,0,1,.63.29h0a1.36,1.36,0,0,1,.2.11l.18.14c.25-.56,1.76-1.27.59-6.23-.08-.33-.14-.65-.2-1l-1.39-.09c.07.31.13.62.21.95C25.86,142.51,25.05,143.53,24.65,144.08Z"/><path class="cls-38" d="M25.66,144.62a3.34,3.34,0,0,1,.47.51,4.14,4.14,0,0,1,1.57-3.28s-.06.94,0,2.1c.19-1.74.45-4.15.7-6.35l-2.32-.17c.06.31.12.63.2,1C27.42,143.35,25.91,144.06,25.66,144.62Z"/><path class="cls-38" d="M27.7,141.85a4.14,4.14,0,0,0-1.57,3.28,3.93,3.93,0,0,1,.7,1.42c.19.79,1.74,3,2.44,2.25.12-.13-.05-.42-.35-.6l-.18-.1-.14,0h.06c-.74-.61-.94-2.55-1-4.1C27.64,142.79,27.7,141.85,27.7,141.85Z"/><path class="cls-39" d="M26.25,149.22a6.57,6.57,0,0,0-.61-1.56A8,8,0,0,1,26.25,149.22Z"/><path class="cls-39" d="M28.74,148.1a1,1,0,0,1,.18.1c.3.18.47.47.35.6-.7.74-2.25-1.46-2.44-2.25a3.93,3.93,0,0,0-.7-1.42,3.34,3.34,0,0,0-.47-.51l-.18-.14a1.36,1.36,0,0,0-.2-.11,1.78,1.78,0,0,0-.37.62l.84.39a6.65,6.65,0,0,0-.32,1.4,1.59,1.59,0,0,1,1.22,1.28,7.54,7.54,0,0,0,1.19,2.26,3.65,3.65,0,0,0,1.8-.71,2.74,2.74,0,0,0,1-1.52c0-.28-1.65-.08-2,0H28.6Z"/><path class="cls-40" d="M25.43,146.78c0,.14,0,.3-.06.45a3.65,3.65,0,0,1,.27.43,6.57,6.57,0,0,1,.61,1.56l.09.32a1.7,1.7,0,0,0,1.52.79h0a7.54,7.54,0,0,1-1.19-2.26A1.59,1.59,0,0,0,25.43,146.78Z"/><path class="cls-39" d="M25.43,146.78a6.65,6.65,0,0,1,.32-1.4l-.84-.39a3.33,3.33,0,0,0-.17,1.6l.06,4.22.16.1.18-.08s0-2,.23-3.6C25.39,147.08,25.4,146.92,25.43,146.78Z"/><path class="cls-40" d="M24.74,146.59l-.55-.69a3.43,3.43,0,0,1,0-.53h0c-.07-.15.31,5.17.31,5.17l.34.27Z"/><path class="cls-40" d="M24.74,146.59a3.33,3.33,0,0,1,.17-1.6,1.78,1.78,0,0,1,.37-.62h0a1.76,1.76,0,0,0-.63-.29l-.07,0a1.2,1.2,0,0,0-.35.58s0,.07,0,.11a2,2,0,0,0-.06.58,3.43,3.43,0,0,0,0,.53Z"/><path class="cls-41" d="M24.71,142.79c-.28-1.7-.13-8.8-.11-10.35,0-1.78.33-2.83.71-5.93.31-2.46-.37-4.84-.7-7.31-1.22-2.3-1.06-4.1,1.37-7.85l2,.53c1,1.91,3.72-2.49,4-.2.44,3.17-1,9.62-2.09,13.33-.13.41.21,1.1.06,1.68a5.92,5.92,0,0,0-.18,1.46c-.07.85-.35,3.64-.65,5.31-.27,1.44-.66,7.89-.69,8.9C28.28,143.75,25.73,143.93,24.71,142.79Z"/><path class="cls-42" d="M31.87,116.11a65.69,65.69,0,0,1-1.94,8.9,14.65,14.65,0,0,1,0,1.94c-.08.68-.49,5.37-.93,7.79l-.53,7.62s-.07,1.42-2.35,1.13c0,0,1.94-14.61,1.86-16.42s-.28-9.77.18-11.11A8.13,8.13,0,0,0,31.87,116.11Z"/><path class="cls-37" d="M28.88,147c.16,0,.47.18.64.27h0a1.31,1.31,0,0,1,.21.1l.18.14c.23-.57,1.72-1.32.41-6.25-.09-.33-.17-.64-.24-.95l-1.38-.05c.06.3.14.62.23.94C30.05,145.39,29.27,146.44,28.88,147Z"/><path class="cls-38" d="M29.91,147.51a3.24,3.24,0,0,1,.49.49,4.14,4.14,0,0,1,1.47-3.33s0,.94,0,2.1c.13-1.74.32-4.16.49-6.36l-2.32-.1c.07.31.15.62.24.95C31.63,146.19,30.14,146.94,29.91,147.51Z"/><path class="cls-38" d="M31.87,144.67A4.14,4.14,0,0,0,30.4,148a4.12,4.12,0,0,1,.74,1.4c.21.78,1.83,2.93,2.51,2.17.11-.13-.07-.41-.37-.59l-.19-.08-.13,0,.06,0c-.76-.58-1-2.51-1.11-4.07C31.84,145.61,31.87,144.67,31.87,144.67Z"/><path class="cls-39" d="M30.65,152.09a7,7,0,0,0-.67-1.54A8.79,8.79,0,0,1,30.65,152.09Z"/><path class="cls-39" d="M33.09,150.9l.19.08c.3.18.48.46.37.59-.68.76-2.3-1.39-2.51-2.17a4.12,4.12,0,0,0-.74-1.4,3.24,3.24,0,0,0-.49-.49l-.18-.14a1.31,1.31,0,0,0-.21-.1,1.76,1.76,0,0,0-.35.63l.86.36a6.36,6.36,0,0,0-.29,1.42A1.54,1.54,0,0,1,31,150.92a7.64,7.64,0,0,0,1.27,2.22,3.68,3.68,0,0,0,1.77-.76,2.8,2.8,0,0,0,1-1.56c0-.28-1.64,0-2,0l-.06,0Z"/><path class="cls-40" d="M29.74,149.68c0,.14,0,.29,0,.44a4.62,4.62,0,0,1,.28.43,7,7,0,0,1,.67,1.54l.09.31a1.7,1.7,0,0,0,1.54.75h0A7.64,7.64,0,0,1,31,150.92,1.54,1.54,0,0,0,29.74,149.68Z"/><path class="cls-39" d="M29.74,149.68a6.36,6.36,0,0,1,.29-1.42l-.86-.36a3.36,3.36,0,0,0-.12,1.61l.19,4.21.17.1.17-.09s0-1.95.12-3.61C29.71,150,29.73,149.82,29.74,149.68Z"/><path class="cls-40" d="M29.05,149.51l-.57-.68a3.25,3.25,0,0,1-.06-.52h0c-.07-.15.47,5.16.47,5.16l.35.25Z"/><path class="cls-40" d="M29.05,149.51a3.36,3.36,0,0,1,.12-1.61,1.76,1.76,0,0,1,.35-.63h0c-.17-.09-.48-.29-.64-.27l-.07,0a1.22,1.22,0,0,0-.32.59l0,.11a3,3,0,0,0,0,.59,3.25,3.25,0,0,0,.06.52Z"/><path class="cls-43" d="M28.87,145.73c-.19-1.71-.44-10.45-.34-12a52,52,0,0,1,1.2-5.85c.31-1.6-.13-3.49-.47-6-3.45-2.61-2.11-7.46.09-9.41l5.28-1A11.48,11.48,0,0,1,36,116.38a25.56,25.56,0,0,1-1.19,10.72c-.14.41-.4,1.1-.58,1.68a18.36,18.36,0,0,0-.63,2.67c-.12.85-.32,1.82-.59,3.5a103.06,103.06,0,0,0-.34,10.44C32.39,146.69,29.62,146.92,28.87,145.73Z"/><path class="cls-44" d="M32.65,145.39s-.27-8.8.81-13.2A27.89,27.89,0,0,1,35,126.55a24.72,24.72,0,0,0,1-10.17s-1.08,7.86-2.7,11.47c-1.92,4.3-2.52,8.91-2.63,18.66A2,2,0,0,0,32.65,145.39Z"/><path class="cls-45" d="M32.79,96.08S29,95.25,28.1,94.41l-1,.79s1.84,3.33,6.9,2.36A2.92,2.92,0,0,1,32.79,96.08Z"/><path class="cls-46" d="M26.23,93.8c-1.45,1.08-2.61,2.76-.33,8.93a15.49,15.49,0,0,1,1.17,6.63s4.37,4.84,8.3,1.26c0,0,.64-8.63.42-11.34,0,0,0-1.63-3.3-3C30.49,95.53,27.09,93.15,26.23,93.8Z"/><path class="cls-47" d="M34,111.46s-.73-1.92-1.81-5.49c-.47-1.55-2.41-9.53,2.63-8.23.6.15-4.22-2.84-7.82-4-.73-.24-3.39.25-2.23,4.9a33.64,33.64,0,0,0,1.15,5.19,12.21,12.21,0,0,1,1.18,5.54S30.52,113.44,34,111.46Z"/><path class="cls-38" d="M33.7,85.71a5.13,5.13,0,0,1,.17,2.74,2.73,2.73,0,0,0,.37.84c.2.22.58.73,0,3.25,0,0,.32,1.54-2.76.49s-4.11-1.72-4.34-2.83a10.7,10.7,0,0,1-.23-3.88,3.62,3.62,0,0,1,1.84-1.91,5.13,5.13,0,0,1,2.85-.28C32.49,84.38,33.49,84.91,33.7,85.71Z"/><path class="cls-38" d="M32.21,94.83s-1.42,1.51-3.9-.39l.12-.73v-.4l.68-3.94a17.38,17.38,0,0,0,1.62,3.38,8.05,8.05,0,0,0,1.37.88A2,2,0,0,0,32.21,94.83Z"/><path class="cls-48" d="M32.83,95l.5,1.59s-2.37,1.34-5.27-.81c-.46-.34-1.75-.93.06-2.2C28.12,93.54,29,96,32.83,95Z"/><path class="cls-49" d="M28.14,93.33s-2.44,1,.21,2.85a5.55,5.55,0,0,0,3.81.71S29.69,96.26,30,95.1A3.32,3.32,0,0,1,28.14,93.33Z"/><path class="cls-50" d="M33.88,85.14c-.07,2.66-3.9,6.37,2.3,12.14,0,0-7.95-.92-10.58-5.45-.33-.57-2.87-8.39,3.45-8.62C30.35,83.17,33.93,83.55,33.88,85.14Z"/><path class="cls-37" d="M33.77,86a4,4,0,0,1,.17.87A7.7,7.7,0,0,0,33.05,90c0,.55.22,2.93.67,3.37l-1.25.36s1.26-.09.15-.5C32.62,93.19,31.86,86.45,33.77,86Z"/><path class="cls-50" d="M33.88,85.14c-.05,2.32-3,5.42.36,10-2.54-.7-6-2.12-7.56-4.82-.22-.37-1.35-3.75-.43-6.17a4.59,4.59,0,0,1,2.8-.92C30.35,83.17,33.93,83.55,33.88,85.14Z"/><path class="cls-51" d="M33.86,85.46s-1.65.41-1.65,1.65a2.71,2.71,0,0,1,.41-2.18A2.13,2.13,0,0,0,31,87.11a1.85,1.85,0,0,1-.52-1.9s-1.54.88-.79,3.5a2.21,2.21,0,0,1-.88-2.24s-1.37.8-.52,3.4c0,0-1.59-1.19-1.24-2.45,0,0-1,1.79.68,4.57,0,0-.57-.19-1.86-2.17,0,0-.29,2,2.21,4.59a7.49,7.49,0,0,1-3-9s2-4.73,8-1.65C33.54,84,34.24,84.74,33.86,85.46Z"/><path class="cls-47" d="M35.37,110.62S33.87,121,24.85,114c-1.25-1,2-2.24,2.52-7.34Z"/><path class="cls-46" d="M33.51,109.58s.51,5.65,1.64,6.27c0,0,1.12-.12,1.34-.67.29-.73-.37-2.25-1.12-5.31Z"/><path class="cls-52" d="M25.76,95.4c-.56-.7-.92,1.17.13,4.27S28,106,28,107.23s-2.24,5.28-2.09,5.76c.29.9,5.8,3.19,6.58,1.7a8.42,8.42,0,0,0-.45-7.46s-2.37-5.34-.75-8.9C31.8,97.18,27.75,97.88,25.76,95.4Z"/><polygon class="cls-53" points="36.21 106.67 36.96 115.24 34.68 115.73 33 107.01 36.21 106.67"/><path class="cls-54" d="M37,115.24a3,3,0,0,0,.57,1.88,1.51,1.51,0,0,1,.13.87c-.1.75-.09,1.12-.33,1.27-1.36.86-2.63.61-2.75.4a2,2,0,0,0,.15-1.06,11,11,0,0,1-.37-1,22.45,22.45,0,0,1,.26-2.32Z"/><path class="cls-55" d="M35.13,119.85a.6.6,0,0,1-.55-.19c-.23-.32.25-.63.15-1.06a11,11,0,0,1-.37-1,22.45,22.45,0,0,1,.26-2.32h.3l-.09,1.17c-.15.9.41,1.11.49,1.4a2.76,2.76,0,0,1,.13,1A2.88,2.88,0,0,1,35.13,119.85Z"/><polygon class="cls-55" points="33.72 106.94 34.92 115.23 34.62 115.23 33 107.01 33.72 106.94"/><path class="cls-56" d="M35.53,98.59S32.89,97,32,100.27c0,0-.14,9.31,2.05,8.77,0,0,2.9.77,2.28-1.83C36.34,107.21,36.28,100,35.53,98.59Z"/><path class="cls-47" d="M36,99.45c.75,1.41.28,7.56.28,7.56.44,1.87-.56,2-1.14,2.09,0,0-.15.05-.15.05-2.21-1.52-2.06-9-2.06-9-.13-1.44.46-1.91,1.2-2A1.78,1.78,0,0,1,36,99.45Z"/><path class="cls-57" d="M30,116.41s-.19,3.67,1.11,5c0,0,.91,5.22-.23,8s-2.18,12.52-2.15,13.22c0,0-.85-9.37.48-12.34a13,13,0,0,0,.47-6.08l-.39-2.22a5.44,5.44,0,0,1-1.83-6.29A7.72,7.72,0,0,0,30,116.41Z"/><path class="cls-58" d="M24.61,113.74s-1.71,2.9,0,5.46c0,0,.8,5.36.78,6s-.59,4.85-.64,5.21-.18,4.69-.18,4.69,1.36-6.87,1.55-8.32a37.68,37.68,0,0,0-.36-7.67,17,17,0,0,1,.13-4.42Z"/></g></g></svg>